<svg width="32" height="32" viewBox="0 0 32 32" fill="none" xmlns="http://www.w3.org/2000/svg">
    <path opacity="0.1" fill-rule="evenodd" clip-rule="evenodd"
        d="M0 16C0 7.16344 7.16344 0 16 0C24.8366 0 32 7.16344 32 16C32 24.8366 24.8366 32 16 32C7.16344 32 0 24.8366 0 16Z"
        fill="#173B4F" />
    <path fill-rule="evenodd" clip-rule="evenodd"
        d="M16.5094 12.796V14.493C16.8648 13.9517 17.3546 13.5119 17.931 13.2167C18.5073 12.9215 19.1504 12.781 19.7974 12.809C23.2524 12.809 23.9994 14.969 23.9994 17.779V23.5H20.7994V18.428C20.7994 17.218 20.5554 15.662 18.6714 15.662C16.8444 15.662 16.5324 16.979 16.5324 18.338V23.5H13.3424V12.796H16.5094ZM11.1994 10.106C11.199 10.423 11.105 10.7328 10.9293 10.9967C10.7535 11.2605 10.5038 11.4665 10.2114 11.589C9.91911 11.7105 9.5973 11.7423 9.28692 11.6803C8.97653 11.6183 8.6916 11.4654 8.46838 11.241C8.24475 11.0165 8.0925 10.7308 8.03077 10.42C7.96905 10.1091 8.00061 9.78698 8.12149 9.49403C8.24237 9.20108 8.44717 8.95041 8.71013 8.77354C8.97309 8.59667 9.28248 8.5015 9.59938 8.5C9.81 8.5 10.0186 8.54158 10.2131 8.62236C10.4076 8.70315 10.5842 8.82154 10.7329 8.97075C10.8815 9.11996 10.9993 9.29705 11.0793 9.49186C11.1594 9.68668 11.2002 9.89538 11.1994 10.106Z"
        fill="#173B4F" />
    <path d="M11.2 12.8086H8V23.4996H11.2V12.8086Z" fill="#173B4F" />
</svg>