<svg width="144" height="37" viewBox="0 0 144 37" fill="none" xmlns="http://www.w3.org/2000/svg">
<path d="M48.9706 37.0001C48.6331 37.0001 48.3222 36.9398 48.038 36.8192C47.7597 36.6925 47.5139 36.5206 47.3007 36.3035C47.0935 36.0804 46.9336 35.8271 46.8211 35.5436C46.7086 35.2541 46.6523 34.9495 46.6523 34.6299C46.6523 34.3102 46.7086 34.0087 46.8211 33.7252C46.9336 33.4357 47.0935 33.1824 47.3007 32.9653C47.5139 32.7422 47.7597 32.5673 48.038 32.4406C48.3222 32.314 48.6331 32.2506 48.9706 32.2506C49.2963 32.2506 49.5776 32.3049 49.8144 32.4135C50.0513 32.516 50.2141 32.6095 50.3029 32.6939V33.4448C50.1371 33.3181 49.9477 33.2096 49.7345 33.1191C49.5213 33.0226 49.2667 32.9744 48.9706 32.9744C48.6568 32.9744 48.3814 33.0528 48.1446 33.2096C47.9077 33.3603 47.7241 33.5624 47.5939 33.8157C47.4695 34.063 47.4073 34.3344 47.4073 34.6299C47.4073 34.9194 47.4695 35.1908 47.5939 35.4441C47.7241 35.6914 47.9077 35.8934 48.1446 36.0502C48.3814 36.201 48.6568 36.2764 48.9706 36.2764C49.2667 36.2764 49.5213 36.2311 49.7345 36.1407C49.9477 36.0442 50.1371 35.9326 50.3029 35.8059V36.5568C50.2141 36.6473 50.0513 36.7438 49.8144 36.8463C49.5776 36.9488 49.2963 37.0001 48.9706 37.0001Z" fill="#252525"/>
<path d="M53.2607 37.0001C52.8818 37.0001 52.5354 36.9036 52.2215 36.7106C51.9077 36.5116 51.656 36.2372 51.4665 35.8874C51.283 35.5376 51.1912 35.1335 51.1912 34.6751C51.1912 34.1745 51.283 33.7433 51.4665 33.3815C51.656 33.0196 51.9136 32.7422 52.2393 32.5492C52.565 32.3501 52.9291 32.2506 53.3318 32.2506C53.5864 32.2506 53.844 32.314 54.1045 32.4406C54.371 32.5612 54.599 32.7301 54.7885 32.9472V32.3411H55.5168V36.8644H54.7885V36.0954C54.6345 36.3367 54.4243 36.5478 54.1578 36.7287C53.8973 36.9096 53.5983 37.0001 53.2607 37.0001ZM53.3762 36.2764C53.6486 36.2764 53.8914 36.204 54.1045 36.0592C54.3177 35.9145 54.4865 35.7155 54.6108 35.4622C54.7352 35.2028 54.7944 34.9133 54.7885 34.5937L54.7796 33.7252C54.596 33.49 54.3977 33.3061 54.1845 33.1734C53.9772 33.0407 53.7374 32.9744 53.465 32.9744C53.1453 32.9744 52.8729 33.0558 52.6479 33.2186C52.4228 33.3815 52.2482 33.5925 52.1238 33.8519C52.0054 34.1052 51.9462 34.3796 51.9462 34.6751C51.9462 34.9646 52.0054 35.233 52.1238 35.4803C52.2422 35.7215 52.408 35.9145 52.6212 36.0592C52.8403 36.204 53.092 36.2764 53.3762 36.2764Z" fill="#252525"/>
<path d="M60.1178 36.8644L60.1089 34.1776C60.1089 33.7855 60.0231 33.487 59.8514 33.2819C59.6856 33.0769 59.428 32.9744 59.0786 32.9744C58.8417 32.9744 58.6049 33.0648 58.368 33.2458C58.1371 33.4207 57.9328 33.6257 57.7552 33.8609V33.0558C57.8499 32.9352 57.9713 32.8145 58.1193 32.6939C58.2674 32.5673 58.4332 32.4617 58.6167 32.3773C58.8062 32.2929 59.0016 32.2506 59.203 32.2506C59.505 32.2506 59.7803 32.32 60.029 32.4587C60.2777 32.5914 60.4761 32.7964 60.6241 33.0739C60.7722 33.3453 60.8462 33.689 60.8462 34.1052V36.8644H60.1178ZM57.0268 36.8644V32.3411H57.7552V36.8644H57.0268Z" fill="#252525"/>
<path d="M62.9335 31.4003C62.7618 31.4003 62.6167 31.3369 62.4983 31.2103C62.3858 31.0836 62.3295 30.9419 62.3295 30.7851C62.3295 30.6223 62.3858 30.4805 62.4983 30.3599C62.6167 30.2332 62.7618 30.1699 62.9335 30.1699C63.046 30.1699 63.1467 30.2001 63.2355 30.2604C63.3302 30.3147 63.4043 30.3901 63.4576 30.4866C63.5108 30.577 63.5375 30.6765 63.5375 30.7851C63.5375 30.8876 63.5108 30.9871 63.4576 31.0836C63.4043 31.1801 63.3302 31.2585 63.2355 31.3188C63.1467 31.3731 63.046 31.4003 62.9335 31.4003ZM62.6582 36.8644V32.3411H63.3865V36.8644H62.6582ZM61.9565 33.0377V32.3411H63.3865V33.0377H61.9565Z" fill="#252525"/>
<path d="M68.0497 36.8644L68.0408 34.1776C68.0408 33.7855 67.9549 33.487 67.7832 33.2819C67.6174 33.0769 67.3598 32.9744 67.0105 32.9744C66.7736 32.9744 66.5367 33.0648 66.2999 33.2458C66.0689 33.4207 65.8646 33.6257 65.687 33.8609V33.0558C65.7817 32.9352 65.9031 32.8145 66.0512 32.6939C66.1992 32.5673 66.365 32.4617 66.5486 32.3773C66.7381 32.2929 66.9335 32.2506 67.1348 32.2506C67.4368 32.2506 67.7122 32.32 67.9609 32.4587C68.2096 32.5914 68.4079 32.7964 68.556 33.0739C68.704 33.3453 68.778 33.689 68.778 34.1052V36.8644H68.0497ZM64.9587 36.8644V32.3411H65.687V36.8644H64.9587Z" fill="#252525"/>
<path d="M73.8764 37.0001C73.7047 37.0001 73.5241 36.976 73.3346 36.9277C73.151 36.8855 72.9852 36.8342 72.8372 36.7739C72.6892 36.7076 72.5796 36.6503 72.5086 36.602V35.8059C72.5915 35.8663 72.7069 35.9356 72.855 36.014C73.0089 36.0864 73.1718 36.1497 73.3435 36.204C73.5152 36.2522 73.6751 36.2764 73.8231 36.2764C74.1014 36.2764 74.3205 36.213 74.4804 36.0864C74.6462 35.9597 74.7291 35.8029 74.7291 35.616C74.7291 35.4712 74.6729 35.3566 74.5604 35.2722C74.4538 35.1878 74.2969 35.1063 74.0896 35.0279L73.4323 34.7837C73.0889 34.651 72.8609 34.4851 72.7484 34.2861C72.6359 34.0811 72.5796 33.8489 72.5796 33.5895C72.5796 33.3302 72.6418 33.101 72.7661 32.902C72.8964 32.703 73.08 32.5462 73.3168 32.4316C73.5537 32.3109 73.8291 32.2506 74.1429 32.2506C74.4034 32.2506 74.6462 32.2898 74.8712 32.3682C75.0963 32.4406 75.2591 32.516 75.3598 32.5944V33.3905C75.2354 33.294 75.0667 33.2005 74.8535 33.1101C74.6403 33.0196 74.4212 32.9744 74.1962 32.9744C73.9179 32.9744 73.7077 33.0407 73.5655 33.1734C73.4294 33.3061 73.3613 33.4448 73.3613 33.5895C73.3613 33.7041 73.3997 33.8217 73.4767 33.9423C73.5596 34.0569 73.7017 34.1504 73.9031 34.2228L74.6492 34.4942C74.9393 34.5967 75.1555 34.7445 75.2976 34.9375C75.4397 35.1305 75.5108 35.3566 75.5108 35.616C75.5108 35.8693 75.4397 36.1015 75.2976 36.3126C75.1614 36.5236 74.9689 36.6925 74.7202 36.8192C74.4775 36.9398 74.1962 37.0001 73.8764 37.0001Z" fill="#252525"/>
<path d="M78.6284 37.0001C78.2909 37.0001 77.98 36.9398 77.6958 36.8192C77.4175 36.6925 77.1717 36.5206 76.9586 36.3035C76.7513 36.0804 76.5914 35.8271 76.4789 35.5436C76.3664 35.2541 76.3102 34.9495 76.3102 34.6299C76.3102 34.3102 76.3664 34.0087 76.4789 33.7252C76.5914 33.4357 76.7513 33.1824 76.9586 32.9653C77.1717 32.7422 77.4175 32.5673 77.6958 32.4406C77.98 32.314 78.2909 32.2506 78.6284 32.2506C78.966 32.2506 79.2739 32.314 79.5522 32.4406C79.8364 32.5673 80.0822 32.7422 80.2894 32.9653C80.5026 33.1824 80.6654 33.4357 80.7779 33.7252C80.8904 34.0087 80.9467 34.3102 80.9467 34.6299C80.9467 34.9495 80.8904 35.2541 80.7779 35.5436C80.6654 35.8271 80.5026 36.0804 80.2894 36.3035C80.0822 36.5206 79.8364 36.6925 79.5522 36.8192C79.2739 36.9398 78.966 37.0001 78.6284 37.0001ZM78.6284 36.2764C78.9482 36.2764 79.2235 36.201 79.4545 36.0502C79.6913 35.8934 79.8719 35.6914 79.9963 35.4441C80.1266 35.1908 80.1917 34.9194 80.1917 34.6299C80.1917 34.3344 80.1266 34.063 79.9963 33.8157C79.8719 33.5624 79.6913 33.3603 79.4545 33.2096C79.2235 33.0528 78.9482 32.9744 78.6284 32.9744C78.3146 32.9744 78.0392 33.0528 77.8024 33.2096C77.5655 33.3603 77.382 33.5624 77.2517 33.8157C77.1273 34.063 77.0652 34.3344 77.0652 34.6299C77.0652 34.9194 77.1273 35.1908 77.2517 35.4441C77.382 35.6914 77.5655 35.8934 77.8024 36.0502C78.0392 36.201 78.3146 36.2764 78.6284 36.2764Z" fill="#252525"/>
<path d="M82.1458 36.8644V30.3509H82.8741V36.8644H82.1458Z" fill="#252525"/>
<path d="M85.0947 31.4003C84.923 31.4003 84.7779 31.3369 84.6595 31.2103C84.547 31.0836 84.4907 30.9419 84.4907 30.7851C84.4907 30.6223 84.547 30.4805 84.6595 30.3599C84.7779 30.2332 84.923 30.1699 85.0947 30.1699C85.2072 30.1699 85.3079 30.2001 85.3967 30.2604C85.4914 30.3147 85.5655 30.3901 85.6188 30.4866C85.6721 30.577 85.6987 30.6765 85.6987 30.7851C85.6987 30.8876 85.6721 30.9871 85.6188 31.0836C85.5655 31.1801 85.4914 31.2585 85.3967 31.3188C85.3079 31.3731 85.2072 31.4003 85.0947 31.4003ZM84.8194 36.8644V32.3411H85.5477V36.8644H84.8194ZM84.1177 33.0377V32.3411H85.5477V33.0377H84.1177Z" fill="#252525"/>
<path d="M88.8785 37.0001C88.4996 37.0001 88.1532 36.9036 87.8393 36.7106C87.5255 36.5116 87.2738 36.2372 87.0843 35.8874C86.9008 35.5376 86.809 35.1335 86.809 34.6751C86.809 34.1745 86.9008 33.7433 87.0843 33.3815C87.2738 33.0196 87.5314 32.7422 87.8571 32.5492C88.1828 32.3501 88.5469 32.2506 88.9496 32.2506C89.2042 32.2506 89.4618 32.314 89.7224 32.4406C89.9888 32.5612 90.2168 32.7301 90.4063 32.9472V30.3509H91.1346V36.8644H90.4063V36.0954C90.2523 36.3367 90.0421 36.5478 89.7757 36.7287C89.5151 36.9096 89.2161 37.0001 88.8785 37.0001ZM88.994 36.2764C89.2664 36.2764 89.5092 36.204 89.7224 36.0592C89.9355 35.9145 90.1043 35.7155 90.2286 35.4622C90.353 35.2028 90.4122 34.9133 90.4063 34.5937L90.3974 33.7252C90.2138 33.49 90.0155 33.3091 89.8023 33.1824C89.595 33.0558 89.3552 32.9925 89.0828 32.9925C88.7631 32.9925 88.4907 33.0739 88.2657 33.2367C88.0406 33.3935 87.866 33.5986 87.7416 33.8519C87.6232 34.1052 87.564 34.3796 87.564 34.6751C87.564 34.9646 87.6232 35.233 87.7416 35.4803C87.86 35.7215 88.0258 35.9145 88.239 36.0592C88.4581 36.204 88.7098 36.2764 88.994 36.2764Z" fill="#252525"/>
<path d="M94.4033 37.0001C94.0243 37.0001 93.6779 36.9036 93.3641 36.7106C93.0502 36.5116 92.7986 36.2372 92.6091 35.8874C92.4255 35.5376 92.3337 35.1335 92.3337 34.6751C92.3337 34.1745 92.4255 33.7433 92.6091 33.3815C92.7986 33.0196 93.0562 32.7422 93.3818 32.5492C93.7075 32.3501 94.0717 32.2506 94.4744 32.2506C94.729 32.2506 94.9866 32.314 95.2471 32.4406C95.5136 32.5612 95.7416 32.7301 95.931 32.9472V32.3411H96.6594V36.8644H95.931V36.0954C95.7771 36.3367 95.5669 36.5478 95.3004 36.7287C95.0399 36.9096 94.7408 37.0001 94.4033 37.0001ZM94.5188 36.2764C94.7912 36.2764 95.0339 36.204 95.2471 36.0592C95.4603 35.9145 95.6291 35.7155 95.7534 35.4622C95.8778 35.2028 95.937 34.9133 95.931 34.5937L95.9222 33.7252C95.7386 33.49 95.5402 33.3061 95.3271 33.1734C95.1198 33.0407 94.88 32.9744 94.6076 32.9744C94.2878 32.9744 94.0154 33.0558 93.7904 33.2186C93.5654 33.3815 93.3907 33.5925 93.2664 33.8519C93.1479 34.1052 93.0887 34.3796 93.0887 34.6751C93.0887 34.9646 93.1479 35.233 93.2664 35.4803C93.3848 35.7215 93.5506 35.9145 93.7638 36.0592C93.9829 36.204 94.2345 36.2764 94.5188 36.2764Z" fill="#252525"/>
<path d="M98.88 31.4003C98.7082 31.4003 98.5632 31.3369 98.4447 31.2103C98.3322 31.0836 98.276 30.9419 98.276 30.7851C98.276 30.6223 98.3322 30.4805 98.4447 30.3599C98.5632 30.2332 98.7082 30.1699 98.88 30.1699C98.9925 30.1699 99.0931 30.2001 99.1819 30.2604C99.2767 30.3147 99.3507 30.3901 99.404 30.4866C99.4573 30.577 99.4839 30.6765 99.4839 30.7851C99.4839 30.8876 99.4573 30.9871 99.404 31.0836C99.3507 31.1801 99.2767 31.2585 99.1819 31.3188C99.0931 31.3731 98.9925 31.4003 98.88 31.4003ZM98.6046 36.8644V32.3411H99.3329V36.8644H98.6046ZM97.9029 33.0377V32.3411H99.3329V33.0377H97.9029Z" fill="#252525"/>
<path d="M100.905 36.8644V32.3411H101.633V36.8644H100.905ZM101.633 34.1323V33.2458C101.805 32.9442 102.012 32.703 102.255 32.522C102.498 32.3411 102.747 32.2506 103.001 32.2506C103.173 32.2506 103.327 32.2808 103.463 32.3411V33.2005C103.374 33.1462 103.283 33.104 103.188 33.0739C103.093 33.0437 102.995 33.0286 102.895 33.0286C102.593 33.0286 102.347 33.1372 102.158 33.3543C101.974 33.5714 101.799 33.8308 101.633 34.1323Z" fill="#252525"/>
<path d="M106.403 37.0001C106.066 37.0001 105.755 36.9398 105.471 36.8192C105.192 36.6925 104.947 36.5206 104.733 36.3035C104.526 36.0804 104.366 35.8271 104.254 35.5436C104.141 35.2541 104.085 34.9495 104.085 34.6299C104.085 34.2017 104.177 33.8066 104.36 33.4448C104.544 33.0829 104.796 32.7934 105.115 32.5763C105.441 32.3592 105.811 32.2506 106.226 32.2506C106.682 32.2506 107.061 32.3471 107.362 32.5401C107.664 32.7331 107.89 32.9955 108.038 33.3272C108.192 33.6589 108.268 34.0328 108.268 34.449V34.8922H104.769V34.259H107.549C107.519 33.9635 107.437 33.7222 107.3 33.5353C107.17 33.3483 107.01 33.2096 106.821 33.1191C106.631 33.0226 106.433 32.9744 106.226 32.9744C105.941 32.9744 105.696 33.0528 105.488 33.2096C105.281 33.3603 105.121 33.5624 105.009 33.8157C104.896 34.063 104.84 34.3344 104.84 34.6299C104.84 34.9194 104.902 35.1908 105.026 35.4441C105.157 35.6914 105.34 35.8934 105.577 36.0502C105.814 36.201 106.089 36.2764 106.403 36.2764C106.723 36.2764 107.019 36.1949 107.291 36.0321C107.57 35.8632 107.804 35.6793 107.993 35.4803V36.2854C107.91 36.3879 107.786 36.4965 107.62 36.6111C107.46 36.7196 107.274 36.8101 107.061 36.8825C106.853 36.9609 106.634 37.0001 106.403 37.0001Z" fill="#252525"/>
<g filter="url(#filter0_g_598_6143)">
<path d="M61.082 28.0965C60.7485 28.0965 60.4262 28.0295 60.1149 27.8956C59.8259 27.7393 59.5925 27.4826 59.4147 27.1254L54.8462 18.2187H52.6454V26.2883C52.6454 26.8241 52.3675 27.2259 51.8117 27.4937C51.2782 27.7616 50.6891 27.8956 50.0444 27.8956C49.3997 27.8956 48.7994 27.7616 48.2437 27.4937C47.7101 27.2259 47.4434 26.8241 47.4434 26.2883V4.99258C47.4434 4.56845 47.5879 4.20013 47.8769 3.88761C48.1659 3.57509 48.5549 3.41884 49.044 3.41884H55.9467C57.4806 3.41884 58.8589 3.64206 60.0816 4.08851C61.3265 4.51264 62.3158 5.24929 63.0494 6.29845C63.783 7.32529 64.1498 8.75393 64.1498 10.5844C64.1498 11.8345 63.972 12.9171 63.6163 13.8323C63.2828 14.7252 62.8049 15.4619 62.1824 16.0423C61.5822 16.6226 60.893 17.0691 60.1149 17.3816L64.1832 24.7816C64.2499 24.8708 64.2943 24.9713 64.3166 25.0829C64.3388 25.1945 64.3499 25.295 64.3499 25.3843C64.3499 25.8084 64.1832 26.2325 63.8497 26.6567C63.5162 27.0808 63.0939 27.4268 62.5826 27.6947C62.0935 27.9625 61.5933 28.0965 61.082 28.0965ZM52.6454 14.2006H55.9467C56.8803 14.2006 57.614 13.9774 58.1475 13.531C58.681 13.0622 58.9478 12.2474 58.9478 11.0866C58.9478 9.90355 58.681 9.08877 58.1475 8.64232C57.614 8.19587 56.8803 7.97264 55.9467 7.97264H52.6454V14.2006Z" fill="#252525"/>
<path d="M74.1276 28.2304C72.4826 28.2304 71.0264 27.9402 69.7593 27.3598C68.4921 26.7571 67.4917 25.92 66.7581 24.8485C66.0467 23.777 65.691 22.5381 65.691 21.1318V18.6875C65.691 17.4374 66.0356 16.2878 66.7248 15.2386C67.4139 14.1895 68.3365 13.3524 69.4925 12.7274C70.6485 12.08 71.9379 11.7563 73.3607 11.7563C74.6501 11.7563 75.8283 12.0242 76.8954 12.5599C77.9847 13.0957 78.8628 13.8435 79.5297 14.8034C80.1967 15.7409 80.5301 16.8459 80.5301 18.1183C80.5301 19.1228 80.3634 19.8483 80.0299 20.2947C79.7187 20.7188 79.3074 20.9867 78.7961 21.0983C78.307 21.1876 77.8069 21.2323 77.2955 21.2323H70.8597V21.4332C70.8597 22.2591 71.1709 22.9288 71.7934 23.4422C72.4159 23.9333 73.2384 24.1788 74.261 24.1788C74.9502 24.1788 75.5393 24.0784 76.0284 23.8775C76.5175 23.6543 76.951 23.4422 77.3289 23.2413C77.7068 23.0404 78.0736 22.9399 78.4293 22.9399C78.8295 22.9399 79.174 23.0739 79.463 23.3417C79.752 23.6096 79.9632 23.9221 80.0966 24.2793C80.2522 24.6365 80.3301 24.949 80.3301 25.2168C80.3301 25.641 80.0744 26.0874 79.5631 26.5562C79.0518 27.025 78.3293 27.4268 77.3956 27.7616C76.4841 28.0741 75.3948 28.2304 74.1276 28.2304ZM70.8597 18.3192H74.9947C75.2392 18.3192 75.417 18.2634 75.5282 18.1517C75.6393 18.0401 75.6949 17.8281 75.6949 17.5156C75.6949 17.0691 75.5727 16.7008 75.3281 16.4106C75.1058 16.0981 74.8057 15.8748 74.4278 15.7409C74.0721 15.5846 73.683 15.5065 73.2606 15.5065C72.8605 15.5065 72.4715 15.5846 72.0935 15.7409C71.7378 15.8748 71.4377 16.0981 71.1932 16.4106C70.9709 16.7008 70.8597 17.0691 70.8597 17.5156V18.3192Z" fill="#252525"/>
<path d="M85.4018 27.8956C84.6904 27.8956 84.0902 27.7505 83.6011 27.4603C83.112 27.1701 82.8675 26.7906 82.8675 26.3218V9.57987C82.8675 8.28516 83.1343 7.13555 83.6678 6.13103C84.2013 5.10419 84.9127 4.30058 85.802 3.72019C86.6912 3.1398 87.6694 2.84961 88.7364 2.84961H91.1374C91.7821 2.84961 92.26 3.084 92.5713 3.55277C92.9047 3.99922 93.0714 4.49032 93.0714 5.02606C93.0714 5.58413 92.9047 6.08638 92.5713 6.53284C92.26 6.97929 91.7821 7.20251 91.1374 7.20251H89.8702C89.5145 7.20251 89.1922 7.26948 88.9032 7.40342C88.6364 7.53735 88.4252 7.73826 88.2696 8.00613C88.114 8.25168 88.0362 8.58652 88.0362 9.01064V11.9572H91.8043C92.2267 11.9572 92.5379 12.1581 92.738 12.5599C92.9603 12.9394 93.0714 13.3524 93.0714 13.7988C93.0714 14.2676 92.9603 14.6917 92.738 15.0712C92.5379 15.4507 92.2267 15.6405 91.8043 15.6405H88.0362V26.3218C88.0362 26.7906 87.7694 27.1701 87.2359 27.4603C86.7245 27.7505 86.1132 27.8956 85.4018 27.8956Z" fill="#252525"/>
<path d="M102.059 28.2304C100.68 28.2304 99.4133 27.9067 98.2573 27.2594C97.1013 26.5897 96.1787 25.7191 95.4896 24.6476C94.8004 23.5761 94.4558 22.4265 94.4558 21.1988V13.5645C94.4558 13.1626 94.7115 12.7943 95.2228 12.4595C95.7341 12.1246 96.3455 11.9572 97.0568 11.9572C97.746 11.9572 98.3462 12.1246 98.8575 12.4595C99.3688 12.7943 99.6245 13.1626 99.6245 13.5645V21.1988C99.6245 21.6229 99.7357 22.0247 99.958 22.4042C100.18 22.7837 100.469 23.0962 100.825 23.3417C101.203 23.5873 101.614 23.7101 102.059 23.7101C102.503 23.7101 102.904 23.5873 103.259 23.3417C103.637 23.0962 103.926 22.7837 104.126 22.4042C104.349 22.0247 104.46 21.6229 104.46 21.1988V13.531C104.46 13.1068 104.715 12.7385 105.227 12.426C105.76 12.1135 106.372 11.9572 107.061 11.9572C107.817 11.9572 108.428 12.1135 108.895 12.426C109.384 12.7385 109.628 13.1068 109.628 13.531V21.1988C109.628 22.4488 109.284 23.6096 108.595 24.6811C107.905 25.7526 106.983 26.612 105.827 27.2594C104.693 27.9067 103.437 28.2304 102.059 28.2304Z" fill="#252525"/>
<path d="M118.971 35.1616C117.659 35.1616 116.414 34.9718 115.236 34.5923C114.08 34.2129 113.146 33.6548 112.435 32.9181C111.723 32.2038 111.368 31.3332 111.368 30.3064C111.368 29.5028 111.579 28.8108 112.001 28.2304C112.424 27.65 112.957 27.1812 113.602 26.8241C113.246 26.6008 112.957 26.3218 112.735 25.987C112.512 25.6521 112.401 25.2392 112.401 24.7481C112.401 24.123 112.557 23.6096 112.868 23.2078C113.202 22.7837 113.613 22.393 114.102 22.0359C113.413 21.5225 112.879 20.9086 112.501 20.1943C112.123 19.4576 111.934 18.654 111.934 17.7834V17.2812C111.934 16.1874 112.212 15.2275 112.768 14.4016C113.346 13.5756 114.146 12.9283 115.169 12.4595C116.214 11.9907 117.414 11.7563 118.77 11.7563C119.482 11.7563 120.16 11.8345 120.805 11.9907C121.449 12.1246 122.027 12.3144 122.539 12.5599C122.939 11.5777 123.283 10.9415 123.572 10.6514C123.861 10.3612 124.15 10.2161 124.439 10.2161C125.062 10.2161 125.54 10.3946 125.873 10.7518C126.229 11.109 126.407 11.4438 126.407 11.7563C126.407 11.9349 126.362 12.1135 126.273 12.2921C126.184 12.4483 126.051 12.6046 125.873 12.7608C125.673 12.9394 125.44 13.1292 125.173 13.3301C124.928 13.5086 124.684 13.7207 124.439 13.9663C124.862 14.4127 125.173 14.915 125.373 15.473C125.595 16.0311 125.706 16.6338 125.706 17.2812V17.7834C125.706 18.8549 125.406 19.8148 124.806 20.663C124.228 21.489 123.417 22.1475 122.372 22.6386C121.327 23.1297 120.127 23.3752 118.77 23.3752C118.037 23.3752 117.37 23.3083 116.77 23.1743C116.725 23.2636 116.692 23.3417 116.67 23.4087C116.647 23.4757 116.636 23.5427 116.636 23.6096C116.636 23.9221 116.87 24.1454 117.337 24.2793C117.826 24.4132 118.437 24.5248 119.171 24.6141C119.926 24.7034 120.727 24.8262 121.572 24.9825C122.416 25.1387 123.205 25.3843 123.939 25.7191C124.695 26.0539 125.306 26.545 125.773 27.1924C126.262 27.8174 126.507 28.6545 126.507 29.7037C126.507 31.0207 126.129 32.081 125.373 32.8847C124.639 33.6883 123.695 34.2687 122.539 34.6258C121.405 34.983 120.215 35.1616 118.971 35.1616ZM118.87 31.8801C119.537 31.8801 120.138 31.6904 120.671 31.3109C121.227 30.9538 121.505 30.4627 121.505 29.8376C121.505 29.4581 121.394 29.1456 121.171 28.9001C120.971 28.6545 120.682 28.4536 120.304 28.2974C119.949 28.1634 119.526 28.0518 119.037 27.9625C118.57 27.8956 118.081 27.8286 117.57 27.7616C117.125 27.9848 116.792 28.275 116.57 28.6322C116.347 28.9894 116.236 29.3688 116.236 29.7707C116.236 30.4627 116.503 30.9872 117.036 31.3444C117.592 31.7016 118.204 31.8801 118.87 31.8801ZM118.837 20.3617C119.415 20.3617 119.871 20.1273 120.204 19.6585C120.538 19.1674 120.705 18.5424 120.705 17.7834V17.2812C120.705 16.5892 120.538 15.9976 120.204 15.5065C119.893 15.0154 119.426 14.7699 118.804 14.7699C118.204 14.7699 117.737 15.0154 117.403 15.5065C117.092 15.9976 116.936 16.5892 116.936 17.2812V17.7499C116.936 18.4866 117.092 19.1116 117.403 19.625C117.737 20.1161 118.215 20.3617 118.837 20.3617Z" fill="#252525"/>
<path d="M136.098 28.2304C134.453 28.2304 132.997 27.9402 131.73 27.3598C130.463 26.7571 129.462 25.92 128.729 24.8485C128.017 23.777 127.662 22.5381 127.662 21.1318V18.6875C127.662 17.4374 128.006 16.2878 128.695 15.2386C129.385 14.1895 130.307 13.3524 131.463 12.7274C132.619 12.08 133.909 11.7563 135.331 11.7563C136.621 11.7563 137.799 12.0242 138.866 12.5599C139.955 13.0957 140.833 13.8435 141.5 14.8034C142.167 15.7409 142.501 16.8459 142.501 18.1183C142.501 19.1228 142.334 19.8483 142.001 20.2947C141.689 20.7188 141.278 20.9867 140.767 21.0983C140.278 21.1876 139.777 21.2323 139.266 21.2323H132.83V21.4332C132.83 22.2591 133.142 22.9288 133.764 23.4422C134.386 23.9333 135.209 24.1788 136.232 24.1788C136.921 24.1788 137.51 24.0784 137.999 23.8775C138.488 23.6543 138.922 23.4422 139.299 23.2413C139.677 23.0404 140.044 22.9399 140.4 22.9399C140.8 22.9399 141.145 23.0739 141.434 23.3417C141.723 23.6096 141.934 23.9221 142.067 24.2793C142.223 24.6365 142.301 24.949 142.301 25.2168C142.301 25.641 142.045 26.0874 141.534 26.5562C141.022 27.025 140.3 27.4268 139.366 27.7616C138.455 28.0741 137.365 28.2304 136.098 28.2304ZM132.83 18.3192H136.965C137.21 18.3192 137.388 18.2634 137.499 18.1517C137.61 18.0401 137.666 17.8281 137.666 17.5156C137.666 17.0691 137.543 16.7008 137.299 16.4106C137.076 16.0981 136.776 15.8748 136.398 15.7409C136.043 15.5846 135.654 15.5065 135.231 15.5065C134.831 15.5065 134.442 15.5846 134.064 15.7409C133.708 15.8748 133.408 16.0981 133.164 16.4106C132.941 16.7008 132.83 17.0691 132.83 17.5156V18.3192Z" fill="#252525"/>
</g>
<path d="M26.3703 19.1327C23.1342 20.786 24.1839 15.908 21.5593 14.2485C19.4816 12.9348 20.4877 8.68837 21.1927 7.27426C22.0574 5.93199 21.5025 5.05907 27.8596 6.93653C34.2168 8.81399 29.5901 17.4877 26.3703 19.1327Z" fill="#D59472"/>
<path d="M15.7373 14.501C17.0673 14.4593 18.3613 14.5638 19.6592 14.6602C20.0278 14.6875 20.5241 14.8146 20.9453 15.041C21.3565 15.2621 21.7684 15.6186 21.8252 16.1348L21.8359 16.3203C21.8383 16.5155 21.8167 16.7348 21.7822 16.9434C21.7475 17.153 21.6975 17.3662 21.6367 17.5488L21.5723 17.7197C21.4171 18.0867 21.1104 18.4643 20.7412 18.8242C20.3679 19.1881 19.9124 19.5516 19.4385 19.8877C18.4928 20.5582 17.4487 21.1372 16.7842 21.4102C16.3363 21.5942 15.9344 21.6742 15.5459 21.5918C15.1563 21.5091 14.8247 21.2722 14.4971 20.917C13.8456 20.2102 13.2066 19.345 12.7881 18.4629C12.4676 17.7874 12.2367 17.2095 12.2959 16.665C12.3581 16.0947 12.725 15.6279 13.4004 15.1377C13.8229 14.8311 14.1259 14.6714 14.4668 14.5928C14.7903 14.5181 15.1423 14.5202 15.6221 14.502L15.7354 14.498L15.7373 14.501Z" fill="#252525" stroke="#252525" stroke-width="0.521038"/>
<path d="M32.3359 0.952148C32.6857 0.743569 33.0155 0.679265 33.3076 0.799805C33.5872 0.915263 33.7574 1.171 33.8672 1.41992C33.9793 1.67419 34.05 1.97123 34.1025 2.23828C34.1588 2.52426 34.1895 2.74678 34.2314 2.93262C34.6086 4.60456 34.9852 6.03625 36.0156 7.37402C36.2308 7.65334 36.4365 7.81691 36.6621 7.96582C36.8804 8.10992 37.1664 8.2681 37.4619 8.49414C37.5398 8.55367 37.6379 8.64481 37.7354 8.73633C37.8373 8.8321 37.9457 8.93569 38.0547 9.0332C38.1643 9.1312 38.2671 9.21604 38.3545 9.27539C38.3979 9.30488 38.4325 9.32449 38.458 9.33594C38.4661 9.33956 38.4725 9.3414 38.4766 9.34277C38.5093 9.34161 38.571 9.32344 38.6582 9.25879C38.7431 9.19585 38.824 9.11143 38.8857 9.03711L39.0312 8.8291C39.0898 8.73655 39.1575 8.62234 39.2314 8.49023C39.3759 8.23205 39.5361 7.92128 39.6865 7.60645C39.8371 7.29133 39.977 6.97497 40.0811 6.70605C40.1786 6.4539 40.233 6.26695 40.249 6.16309C40.2461 6.16194 40.2433 6.16039 40.2402 6.15918C40.1832 6.13688 40.1082 6.11199 40.0254 6.08594L39.5811 5.94336C39.01 5.71191 38.1603 5.29674 37.3662 4.81641C36.5828 4.34253 35.8108 3.78021 35.4346 3.24707C35.3354 3.10658 35.1353 2.78261 35.0059 2.45508C34.9418 2.29306 34.8866 2.10965 34.8799 1.93848C34.8733 1.76794 34.9158 1.54905 35.1182 1.41797L35.1865 1.38086C35.3452 1.30891 35.5051 1.33639 35.6318 1.39648C35.7656 1.45993 35.8838 1.56694 35.9775 1.66504C36.0738 1.76581 36.1655 1.88032 36.2412 1.97266C36.3239 2.07347 36.3809 2.13903 36.4209 2.17383V2.1748C37.4606 3.0804 38.8434 3.9336 40.0986 4.52539C40.2358 4.59003 40.3705 4.63359 40.5361 4.69531C40.6949 4.75446 40.8691 4.82668 41.043 4.93945C41.3746 5.15437 41.5609 5.44227 41.6328 5.76758C41.7025 6.0831 41.6611 6.41681 41.5771 6.72949C41.412 7.34459 41.0453 7.98817 40.8496 8.39453C40.6248 8.86116 40.3336 9.53662 39.9277 10.0664C39.5171 10.6024 38.944 11.0474 38.1465 10.96C37.7468 10.916 37.4636 10.7168 37.2354 10.5049C37.124 10.4015 37.0173 10.2875 36.9219 10.1885C36.823 10.0858 36.7311 9.99462 36.6338 9.91699C36.4411 9.76349 36.2156 9.64272 35.9639 9.50879C35.7205 9.37931 35.4509 9.23679 35.2178 9.04492C34.7954 8.69736 34.3801 8.04826 34.042 7.39746C33.7851 6.90294 33.5613 6.38409 33.4043 5.94824L33.2705 5.54395C33.0959 4.95346 33.0006 4.35198 32.9189 3.7627C32.8527 3.285 32.7934 2.8195 32.7129 2.35938C32.5861 2.45229 32.4607 2.55476 32.4209 2.58887C31.837 3.09017 31.3074 3.62379 30.7324 4.1582C30.1637 4.68674 29.5639 5.2043 28.8691 5.64062H28.8682C28.7958 5.68602 28.6312 5.80106 28.4707 5.84473C28.3827 5.86864 28.262 5.88231 28.1396 5.8291C28.0123 5.77367 27.9306 5.66698 27.8818 5.54688L27.8623 5.49805V5.44531C27.8629 5.40177 27.8746 5.36818 27.8799 5.35352C27.8863 5.33567 27.893 5.31995 27.8984 5.30957C27.9092 5.28891 27.9221 5.26951 27.9326 5.25391C27.9543 5.22178 27.9824 5.18456 28.0117 5.14746C28.0714 5.07209 28.1502 4.97967 28.2295 4.88867C28.3873 4.70744 28.5596 4.51875 28.6133 4.46387C28.7776 4.29606 28.9663 4.13095 29.1465 3.97461C29.3298 3.81558 29.5045 3.66493 29.6562 3.51465C30.0178 3.15631 30.4503 2.66826 30.9307 2.17188C31.3945 1.69253 31.8936 1.21611 32.3359 0.952148Z" fill="#252525" stroke="#252525" stroke-width="0.521038"/>
<path d="M25.3301 29.501C25.4372 29.5052 25.5585 29.5172 25.6689 29.543C25.7702 29.5666 25.9203 29.6143 26.0205 29.7295C26.0778 29.7955 26.1181 29.883 26.1191 29.9854C26.1199 30.058 26.101 30.1248 26.0732 30.1836L26.043 30.2393C26.0024 30.3061 25.9426 30.3429 25.9199 30.3564C25.8882 30.3754 25.8537 30.3915 25.8232 30.4043C25.7616 30.4302 25.688 30.455 25.6201 30.4766C25.5526 30.4981 25.4785 30.5199 25.4229 30.5371C25.3601 30.5565 25.3246 30.5691 25.3105 30.5752C24.9453 30.7338 24.4787 30.983 24.0381 31.2686C23.5944 31.5561 23.1943 31.8695 22.9492 32.1523L22.9482 32.1514C22.7256 32.4085 22.3797 32.9229 22.1328 33.457C22.0097 33.7235 21.9162 33.9851 21.873 34.2148C21.829 34.4495 21.8438 34.6176 21.8955 34.7246V34.7256C21.9182 34.7719 21.9922 34.8419 22.1709 34.9043C22.3414 34.9638 22.5641 35.0009 22.8066 35.0146C23.0472 35.0283 23.2962 35.0191 23.5137 34.9932C23.6035 34.9824 23.6845 34.9677 23.7559 34.9531C23.737 34.9088 23.7184 34.8602 23.6973 34.8086C23.665 34.7298 23.6318 34.6456 23.6064 34.5654C23.5823 34.4888 23.5598 34.398 23.5566 34.3115C23.5292 33.5499 23.9614 33.0493 24.5029 32.7461C25.0346 32.4485 25.6951 32.3223 26.2246 32.2881L26.3623 32.2822C26.4307 32.2807 26.5151 32.2814 26.5938 32.2881C26.6614 32.2938 26.7749 32.3067 26.8652 32.3574C26.9136 32.3847 27.0004 32.4489 27.0254 32.5703C27.0505 32.6926 26.9957 32.7885 26.957 32.8379L26.9004 32.9092L26.8125 32.9307L26.4727 33.0117L26.2959 33.1543C26.134 33.2835 25.9584 33.367 25.8115 33.4375C25.6579 33.5112 25.5303 33.5732 25.4131 33.665C25.1326 33.8849 25.0028 34.0678 24.9678 34.2314C24.9396 34.3635 24.9635 34.5318 25.1123 34.7646L29.2891 34.583C29.1788 34.3309 29.0948 34.0481 29.1582 33.6836C29.1994 33.446 29.3406 33.25 29.4971 33.1064C29.655 32.9615 29.8475 32.8513 30.0303 32.7881C30.1489 32.7471 30.5003 32.6753 30.8203 32.6162C30.986 32.5856 31.1527 32.5561 31.291 32.5352C31.4198 32.5156 31.5484 32.4993 31.6211 32.5C31.7081 32.5009 31.8527 32.5244 31.9639 32.5898C32.0147 32.6199 32.1286 32.7006 32.1445 32.8535C32.1611 33.0135 32.0592 33.122 31.9941 33.1748C31.9286 33.2279 31.841 33.26 31.7842 33.2793C31.7167 33.3022 31.6392 33.323 31.5664 33.3418C31.4065 33.3831 31.2801 33.4119 31.2109 33.4375C30.9777 33.5238 30.7974 33.6086 30.6689 33.6943C30.5389 33.7811 30.4844 33.8531 30.4648 33.9053C30.4492 33.9473 30.4433 34.0105 30.4971 34.1191C30.5465 34.2189 30.6424 34.3434 30.8018 34.498L33.1201 34.3154L33.1289 34.3145H33.1367C34.0074 34.2992 34.8881 34.3696 35.7295 34.4004H35.7305C35.8214 34.4037 35.9703 34.4009 36.1602 34.3984C36.3459 34.396 36.5638 34.3935 36.7773 34.3984C36.9893 34.4034 37.2059 34.4155 37.3896 34.4434C37.4814 34.4573 37.5719 34.4764 37.6523 34.5029C37.7287 34.5281 37.8196 34.5672 37.8916 34.6348C37.9446 34.6845 38.0328 34.7834 38.0381 34.9248C38.0443 35.0936 37.9335 35.2016 37.8428 35.2568L37.7939 35.2861L37.7383 35.293C37.372 35.3372 37.0008 35.4153 36.6172 35.4971C36.2377 35.578 35.8452 35.6627 35.4541 35.7129H35.4531C35.0978 35.7583 34.7513 35.7522 34.4199 35.7393C34.0826 35.7261 33.7669 35.707 33.4443 35.7188C32.8493 35.7404 32.2512 35.8053 31.6445 35.875C31.041 35.9444 30.4268 36.0184 29.8135 36.0566C28.9942 36.1079 28.1546 36.1222 27.3262 36.1426C26.4948 36.163 25.6716 36.1896 24.8721 36.2676C24.5681 36.2972 24.3089 36.3431 24.0654 36.3887C23.8251 36.4337 23.5898 36.4807 23.3525 36.5068C22.8613 36.561 22.361 36.5264 21.6562 36.2598C21.0316 36.0233 20.6743 35.6012 20.5391 35.0791C20.4084 34.5744 20.4921 34.0052 20.6748 33.4648C21.0393 32.3868 21.8421 31.2959 22.4844 30.7861C22.7075 30.6092 23.2215 30.3025 23.7266 30.04C23.9821 29.9072 24.2432 29.7819 24.4727 29.6865C24.6919 29.5954 24.9133 29.5183 25.0771 29.5049L25.3301 29.501Z" fill="#252525" stroke="#252525" stroke-width="0.521038"/>
<path d="M6.70312 29.7568C6.77449 29.7578 6.85101 29.765 6.9209 29.7881C6.98779 29.8102 7.08888 29.8614 7.1416 29.9766C7.19617 30.0961 7.16469 30.2096 7.13184 30.2773C7.09893 30.3451 7.04898 30.404 7 30.4531C6.90005 30.5533 6.75132 30.6631 6.56641 30.7793C6.38448 30.8937 6.19267 30.9845 6.01758 31.0684C5.83812 31.1543 5.67278 31.2335 5.51758 31.333C5.14655 31.5709 4.53192 32.1 3.98047 32.6865C3.7063 32.9781 3.45296 33.2784 3.25684 33.5576C3.05701 33.8421 2.93113 34.0847 2.88867 34.2627C2.87521 34.3193 2.86851 34.3571 2.86426 34.3838C2.88348 34.3957 2.91075 34.4132 2.95312 34.4355C3.20353 34.5676 3.51104 34.6307 3.86133 34.6826C4.04104 34.7092 4.23602 34.7337 4.43066 34.7656C4.36455 34.5465 4.32897 34.3284 4.33887 34.1084C4.35607 33.7261 4.50604 33.3682 4.7959 33.0156C5.16701 32.5643 5.5528 32.3522 6.08887 32.1943C6.17977 32.1676 6.37243 32.1012 6.55078 32.084C6.72517 32.0672 7.01359 32.0871 7.15527 32.3672L7.19727 32.4502L7.17773 32.541C7.15614 32.6393 7.09087 32.6997 7.06055 32.7256C7.02362 32.7571 6.98253 32.7826 6.94727 32.8018C6.87586 32.8404 6.78931 32.8754 6.71094 32.9053C6.63195 32.9354 6.54632 32.9657 6.48145 32.9893C6.40762 33.016 6.36889 33.0319 6.35547 33.0391C6.21159 33.116 6.00032 33.3063 5.82031 33.541C5.73261 33.6554 5.65819 33.7724 5.60645 33.8809C5.55339 33.9921 5.53083 34.0788 5.5293 34.1367C5.5266 34.2479 5.57008 34.4066 5.64746 34.6016C5.68455 34.695 5.72598 34.7896 5.76758 34.8828C5.78565 34.9233 5.8035 34.9645 5.82129 35.0049C6.39686 35.0733 6.99662 35.1067 7.56641 35.0742C7.78512 35.0618 8.01619 35.0298 8.25977 34.9951C8.49946 34.9609 8.75236 34.9235 8.99805 34.9043C9.30966 34.88 9.62241 34.8688 9.92969 34.8584C10.095 34.8528 10.2585 34.8435 10.4209 34.8369C10.2979 34.5734 10.2247 34.2942 10.2363 34.0166C10.2548 33.5783 10.4822 33.1854 10.9502 32.9072C11.1609 32.7819 11.3134 32.7191 11.4795 32.6904C11.5577 32.6769 11.6332 32.6715 11.707 32.668C11.7836 32.6643 11.8588 32.6622 11.9561 32.6553C11.9582 32.6548 11.9725 32.653 12.0049 32.6445C12.0399 32.6354 12.0827 32.622 12.1348 32.6064C12.2357 32.5763 12.3663 32.5368 12.4941 32.5068C12.6175 32.478 12.7648 32.452 12.8965 32.4609C13.0206 32.4694 13.2397 32.522 13.3076 32.7559H13.3066C13.3799 33.0075 13.1879 33.1613 13.1172 33.208L13.1035 33.2178L13.0889 33.2246C12.9591 33.2882 12.7736 33.3531 12.5918 33.417C12.4019 33.4837 12.2005 33.5543 12.0137 33.6357C11.8249 33.7181 11.6672 33.8047 11.5576 33.8955C11.4474 33.9869 11.4156 34.0568 11.4121 34.1064C11.4042 34.2231 11.4421 34.3224 11.5176 34.4512C11.5623 34.5274 11.6368 34.6391 11.7031 34.7627C12.1044 34.7453 12.5068 34.7016 12.916 34.6494C13.3781 34.5904 13.8539 34.5227 14.3291 34.4834C15.136 34.4165 16.2963 34.3203 17.1318 34.4541C17.3561 34.4901 17.5535 34.5667 17.6768 34.7129C17.8158 34.8779 17.8168 35.0762 17.752 35.2373C17.6915 35.3873 17.5742 35.5143 17.4463 35.6094C17.348 35.6824 17.233 35.7447 17.1094 35.7891L16.9824 35.8271C16.773 35.8787 16.4293 35.9166 16.2285 35.9297C15.4104 35.9825 14.5843 35.9763 13.7783 35.9863C12.9674 35.9965 12.1698 36.0233 11.3828 36.1387L11.3613 36.1416H11.3398C10.4157 36.1234 9.47613 36.2317 8.51367 36.335C7.5582 36.4374 6.58163 36.534 5.61621 36.4805C5.22333 36.4586 4.49566 36.3362 3.79297 36.1875C3.09231 36.0392 2.37734 35.8565 2.01367 35.708C1.69571 35.5783 1.4738 35.3864 1.35059 35.1387C1.22932 34.8945 1.21992 34.6291 1.2627 34.3818C1.34647 33.8983 1.64241 33.4003 1.87012 33.0508C2.29153 32.4038 2.97214 31.6803 3.73242 31.0801C4.48956 30.4824 5.35415 29.9853 6.14941 29.8242C6.37074 29.7795 6.55837 29.7548 6.70312 29.7568Z" fill="#252525" stroke="#252525" stroke-width="0.521038"/>
<path d="M10.5293 1.25293C10.7235 1.14988 10.998 1.03016 11.2695 1.09277L11.332 1.1123C11.392 1.13583 11.4445 1.17026 11.4854 1.2002C11.5446 1.24359 11.605 1.29752 11.6631 1.35449C11.7796 1.46877 11.9059 1.61329 12.0254 1.75781C12.1457 1.90326 12.2645 2.05434 12.3652 2.18262C12.4689 2.31462 12.5484 2.41631 12.5986 2.47266C12.7107 2.59843 13.0437 2.93417 13.3818 3.29785C13.5452 3.47353 13.7064 3.65143 13.8281 3.80078C13.8885 3.87483 13.943 3.94645 13.9844 4.00977C14.005 4.04137 14.0257 4.07596 14.042 4.11035C14.056 4.13988 14.0776 4.19156 14.082 4.25293C14.0913 4.38458 14.0644 4.52051 13.9717 4.62793C13.881 4.73282 13.7603 4.77262 13.6621 4.78516C13.4762 4.8088 13.2769 4.74824 13.1494 4.69043C12.8144 4.53867 12.3855 4.16524 12.0088 3.7959C11.7189 3.51168 11.4403 3.21004 11.2285 2.9668L11.041 2.74609C11.0237 2.72503 11.0017 2.69515 10.9756 2.66113C10.9228 2.70027 10.8703 2.74055 10.8203 2.77832C10.7756 2.81216 10.7206 2.85387 10.6816 2.87695C9.9719 3.29715 9.74419 3.51946 9.09375 4.03027C8.26328 4.68241 7.20329 5.10816 6.20508 5.47266L5.23828 5.82227C4.97531 5.91941 4.79149 6.02018 4.63281 6.14355C4.47221 6.26846 4.32649 6.42479 4.14844 6.64941C4.05834 6.76297 3.95693 6.88459 3.87402 7.01367C3.78706 7.14913 3.75402 7.24453 3.75488 7.2998C3.75604 7.37744 3.77956 7.51001 3.8252 7.68945C3.86941 7.86332 3.92989 8.06336 3.99707 8.26758C4.13152 8.67628 4.28655 9.08949 4.37402 9.3252C4.41009 9.42228 4.53243 9.74333 4.6582 10.0469C4.72122 10.199 4.78354 10.3429 4.83594 10.4512C4.84307 10.4659 4.85101 10.4795 4.85742 10.4922C4.86048 10.49 4.86493 10.4896 4.86816 10.4873C4.94932 10.4284 5.03177 10.3439 5.08203 10.29L5.29883 10.04C5.51282 9.77619 5.72037 9.47258 5.93262 9.15332C6.21106 8.73449 6.49907 8.28659 6.80664 7.90332C7.57189 6.94988 8.4102 6.03909 9.2041 5.13184C9.30545 5.01596 9.40683 4.87985 9.52148 4.72852C9.63321 4.58105 9.75596 4.42144 9.89062 4.27539C10.1577 3.98577 10.5064 3.711 10.9766 3.69238L11.0889 3.68848L11.1689 3.7666C11.2385 3.83481 11.2563 3.91735 11.2607 3.9668C11.2653 4.01776 11.2592 4.06561 11.252 4.10156C11.2373 4.17408 11.2074 4.25238 11.1758 4.32617C11.1111 4.47722 11.0134 4.66005 10.9121 4.83594C10.7079 5.19051 10.4717 5.55093 10.4092 5.64551C9.79134 6.58049 9.07842 7.41712 8.37207 8.25488C7.67832 9.07759 6.974 9.98931 6.25 10.792C6.04767 11.0163 5.75056 11.3346 5.41016 11.5264C5.23708 11.6239 5.03819 11.6982 4.82324 11.7012C4.60235 11.7042 4.38444 11.6318 4.18359 11.4717C4.04558 11.3615 3.91806 11.1659 3.80859 10.9697C3.69324 10.763 3.57699 10.5155 3.46875 10.2666C3.25194 9.76798 3.05936 9.24384 2.96582 8.9873C2.71173 8.29179 2.51358 7.77473 2.53418 7.27441C2.55575 6.75113 2.80936 6.28248 3.31738 5.64941C3.67516 5.20349 3.97637 4.96079 4.31738 4.7793C4.48298 4.69117 4.65429 4.61963 4.83496 4.54688C5.01811 4.47313 5.21218 4.39797 5.43848 4.29883C6.08669 4.01458 6.96007 3.57037 7.58887 3.22559C7.89918 3.05544 8.15714 2.8302 8.42676 2.58496C8.69001 2.34551 8.97186 2.07991 9.30469 1.87402C9.44106 1.78976 9.57132 1.73613 9.68652 1.69141C9.80629 1.64492 9.89924 1.61112 9.99609 1.5625C10.0624 1.52918 10.1392 1.48266 10.2324 1.42578C10.3219 1.3712 10.4247 1.30847 10.5293 1.25293Z" fill="#252525" stroke="#252525" stroke-width="0.521038"/>
<path d="M27.3027 23.1426C27.423 23.2274 27.4511 23.3557 27.4473 23.4482C27.4449 23.5036 27.4295 23.5564 27.4131 23.6035V23.6582L27.3936 23.6553C27.3911 23.6611 27.3902 23.6674 27.3877 23.6729C27.3317 23.7981 27.2386 23.9363 27.1484 24.0586C27.0558 24.1843 26.9541 24.3089 26.8721 24.4082L26.7148 24.6016C25.6551 26.1517 24.596 27.4379 22.5596 27.9326C21.9426 28.0825 21.4176 28.1008 20.9551 28.0107C20.4915 27.9204 20.1055 27.7237 19.7627 27.4639C19.4228 27.2062 19.1236 26.8855 18.835 26.5479C18.5386 26.2011 18.2662 25.8537 17.9434 25.4922C17.7371 25.2613 17.4088 24.9794 17.0518 24.7666C16.686 24.5487 16.3351 24.4297 16.0713 24.458C16.0016 24.4655 15.8968 24.5022 15.7627 24.5752C15.6325 24.6461 15.4914 24.7429 15.3516 24.8525C15.0689 25.0742 14.8148 25.3302 14.6904 25.4971V25.498C14.6097 25.6064 14.4906 25.8257 14.3535 26.0684C14.2884 26.1835 14.2205 26.3008 14.1572 26.3994C14.0996 26.4892 14.0272 26.5935 13.9502 26.6582C13.9471 26.6608 13.944 26.6641 13.9385 26.6689C13.9335 26.6732 13.9258 26.68 13.918 26.6865C13.9027 26.6992 13.8774 26.7195 13.8447 26.7373C13.7682 26.779 13.6758 26.7934 13.5771 26.7666V26.7676C13.5753 26.7671 13.5731 26.7661 13.5713 26.7656C13.5684 26.7648 13.5654 26.7646 13.5625 26.7637V26.7617C13.4339 26.7247 13.3428 26.6363 13.3008 26.5225C13.2642 26.4231 13.2706 26.3227 13.2803 26.2539C13.2994 26.1187 13.3585 25.9651 13.373 25.9209L13.4541 25.6973C13.8892 24.5934 14.7955 23.665 15.9561 23.3066C16.422 23.1628 16.8206 23.1193 17.1758 23.1631C17.5332 23.2072 17.8314 23.3378 18.0977 23.5195C18.3598 23.6985 18.5926 23.9282 18.8203 24.167C19.0532 24.4112 19.2784 24.6629 19.5459 24.9189C19.5784 24.95 19.6227 24.9806 19.6904 25.0264C19.7506 25.067 19.8336 25.1223 19.9053 25.1895C20.1221 25.3927 20.2978 25.5974 20.4512 25.7705C20.6088 25.9485 20.7395 26.0893 20.8799 26.1953C21.0145 26.2969 21.1569 26.3646 21.3359 26.3916C21.5191 26.4192 21.7568 26.4065 22.084 26.3213C22.6821 26.1656 23.344 25.8189 23.9961 25.4023C24.6456 24.9875 25.268 24.515 25.79 24.1191L25.8984 24.0303C26.0113 23.931 26.1374 23.8035 26.2734 23.668C26.4419 23.5002 26.6351 23.3094 26.8027 23.2021C26.8244 23.1884 26.8548 23.1699 26.8916 23.1514V22.8525L27.3027 23.1426Z" fill="#252525" stroke="#252525" stroke-width="0.521038"/>
<path d="M27.3027 23.1426C27.423 23.2274 27.4511 23.3557 27.4473 23.4482C27.4449 23.5036 27.4295 23.5564 27.4131 23.6035V23.6582L27.3936 23.6553C27.3911 23.6611 27.3902 23.6674 27.3877 23.6729C27.3317 23.7981 27.2386 23.9363 27.1484 24.0586C27.0558 24.1843 26.9541 24.3089 26.8721 24.4082L26.7148 24.6016C25.6551 26.1517 24.596 27.4379 22.5596 27.9326C21.9426 28.0825 21.4176 28.1008 20.9551 28.0107C20.4915 27.9204 20.1055 27.7237 19.7627 27.4639C19.4228 27.2062 19.1236 26.8855 18.835 26.5479C18.5386 26.2011 18.2662 25.8537 17.9434 25.4922C17.7371 25.2613 17.4088 24.9794 17.0518 24.7666C16.686 24.5487 16.3351 24.4297 16.0713 24.458C16.0016 24.4655 15.8968 24.5022 15.7627 24.5752C15.6325 24.6461 15.4914 24.7429 15.3516 24.8525C15.0689 25.0742 14.8148 25.3302 14.6904 25.4971V25.498C14.6097 25.6064 14.4906 25.8257 14.3535 26.0684C14.2884 26.1835 14.2205 26.3008 14.1572 26.3994C14.0996 26.4892 14.0272 26.5935 13.9502 26.6582C13.9471 26.6608 13.944 26.6641 13.9385 26.6689C13.9335 26.6732 13.9258 26.68 13.918 26.6865C13.9027 26.6992 13.8774 26.7195 13.8447 26.7373C13.7682 26.779 13.6758 26.7934 13.5771 26.7666V26.7676C13.5753 26.7671 13.5731 26.7661 13.5713 26.7656C13.5684 26.7648 13.5654 26.7646 13.5625 26.7637V26.7617C13.4339 26.7247 13.3428 26.6363 13.3008 26.5225C13.2642 26.4231 13.2706 26.3227 13.2803 26.2539C13.2994 26.1187 13.3585 25.9651 13.373 25.9209L13.4541 25.6973C13.8892 24.5934 14.7955 23.665 15.9561 23.3066C16.422 23.1628 16.8206 23.1193 17.1758 23.1631C17.5332 23.2072 17.8314 23.3378 18.0977 23.5195C18.3598 23.6985 18.5926 23.9282 18.8203 24.167C19.0532 24.4112 19.2784 24.6629 19.5459 24.9189C19.5784 24.95 19.6227 24.9806 19.6904 25.0264C19.7506 25.067 19.8336 25.1223 19.9053 25.1895C20.1221 25.3927 20.2978 25.5974 20.4512 25.7705C20.6088 25.9485 20.7395 26.0893 20.8799 26.1953C21.0145 26.2969 21.1569 26.3646 21.3359 26.3916C21.5191 26.4192 21.7568 26.4065 22.084 26.3213C22.6821 26.1656 23.344 25.8189 23.9961 25.4023C24.6456 24.9875 25.268 24.515 25.79 24.1191L25.8984 24.0303C26.0113 23.931 26.1374 23.8035 26.2734 23.668C26.4419 23.5002 26.6351 23.3094 26.8027 23.2021C26.8244 23.1884 26.8548 23.1699 26.8916 23.1514V22.8525L27.3027 23.1426Z" fill="#252525" stroke="#252525" stroke-width="0.521038"/>
<path d="M34.1328 16.8711C34.2452 16.8372 34.3642 16.8278 34.4795 16.8633C34.5975 16.8997 34.6845 16.975 34.7441 17.0605C34.8532 17.2169 34.8844 17.4253 34.8945 17.5928C34.9053 17.7711 34.8937 17.9598 34.8818 18.1133C34.8687 18.2829 34.8575 18.3854 34.8584 18.4375C34.8655 18.8564 35.0542 19.2853 35.2939 19.7676C35.523 20.2282 35.8037 20.7451 35.9033 21.2725C36.1798 22.7373 35.5495 24.0588 34.5664 25.0527C33.5847 26.0451 32.2263 26.7409 30.9668 26.9668C30.8509 26.9875 30.5053 27.0384 30.1836 27.042C30.0263 27.0437 29.8521 27.0347 29.709 26.9941C29.6378 26.9739 29.5526 26.94 29.4814 26.8779C29.4023 26.8088 29.3442 26.707 29.3447 26.5811L29.3525 26.5078C29.3845 26.3468 29.5135 26.2441 29.5879 26.1934C29.6913 26.1228 29.8202 26.0648 29.9385 26.0186C30.0595 25.9713 30.1858 25.9298 30.2891 25.8965C30.4006 25.8605 30.4716 25.8384 30.5068 25.8232C31.5823 25.3622 32.7209 24.7779 33.4551 23.9883C33.8186 23.5972 34.0754 23.1625 34.1816 22.6748C34.2873 22.1892 34.2483 21.6296 33.9863 20.9775C33.91 20.7877 33.8279 20.6209 33.7461 20.458C33.6656 20.2977 33.5817 20.1344 33.5117 19.9658C33.3665 19.6162 33.2781 19.2384 33.3271 18.7129C33.3419 18.5548 33.4281 18.2284 33.5166 17.9375C33.6053 17.646 33.7151 17.3282 33.7891 17.1895L33.8438 17.1035C33.8649 17.0751 33.888 17.0472 33.9111 17.0225C33.9354 16.9965 33.9649 16.9692 33.9971 16.9443C34.0259 16.922 34.0731 16.8901 34.1328 16.8721V16.8711Z" fill="#252525" stroke="#252525" stroke-width="0.521038"/>
<path d="M22.2354 3.57227L23.1094 3.56348H23.124L23.1396 3.56543C23.6009 3.61453 24.0655 3.6136 24.5576 3.62891C24.9207 3.6402 25.2935 3.65986 25.666 3.71973L26.0381 3.79395L26.0986 3.80859L26.1465 3.84961C26.1676 3.86764 26.219 3.89762 26.3135 3.9375C26.4031 3.97535 26.5074 4.01221 26.6201 4.05273C26.7285 4.09173 26.8469 4.13485 26.9482 4.18066C27.0398 4.22206 27.1606 4.28345 27.2402 4.37598C27.341 4.49304 27.436 4.66332 27.4521 4.84766C27.4605 4.94396 27.4479 5.05271 27.3926 5.15527C27.3364 5.25944 27.247 5.33842 27.1367 5.39062C26.7977 5.55117 26.4124 5.53034 26.0791 5.47949C25.9091 5.45355 25.7382 5.41685 25.583 5.38477C25.4242 5.35193 25.2821 5.32382 25.1533 5.30859C22.2025 4.95911 19.2022 4.95313 16.2256 5.09863C16.1867 5.10052 16.0951 5.11478 15.9277 5.13281C15.7786 5.14887 15.5918 5.16495 15.418 5.16016C15.3309 5.15774 15.2398 5.14962 15.1553 5.13184C15.074 5.11472 14.9782 5.08419 14.8965 5.02344C14.8061 4.95619 14.7347 4.85202 14.7266 4.71484C14.7193 4.59161 14.7653 4.47766 14.8232 4.38281L14.8643 4.32812C14.9077 4.2788 14.9585 4.24436 14.999 4.2207C15.0577 4.18652 15.124 4.15796 15.1895 4.13477C15.3208 4.08822 15.4785 4.05088 15.6309 4.02051C15.9372 3.95946 16.26 3.92152 16.3926 3.90527L17.041 3.83301C18.5566 3.68051 20.0832 3.63388 21.5898 3.57812L22.2539 3.55371L22.2354 3.57227Z" fill="#252525" stroke="#252525" stroke-width="0.521038"/>
<path d="M11.0625 17.6973C11.1042 17.702 11.162 17.7127 11.2178 17.7432C11.2817 17.7781 11.3542 17.848 11.3711 17.959C11.3853 18.0531 11.3508 18.1269 11.332 18.1602C11.2951 18.2255 11.2365 18.2791 11.2119 18.3018C11.2001 18.3127 11.1751 18.3352 11.1689 18.3408C11.1633 18.346 11.1585 18.3494 11.1553 18.3525C11.1522 18.3555 11.1514 18.3574 11.1514 18.3574C10.7178 18.8346 10.3071 19.5006 10.0098 20.2158C9.71191 20.9325 9.53568 21.6785 9.55371 22.3145C9.57002 22.8874 9.61836 23.5036 9.77051 24.0684C9.92249 24.6324 10.1735 25.1264 10.584 25.4756C10.584 25.4756 10.5873 25.4781 10.5947 25.4834C10.602 25.4886 10.612 25.495 10.624 25.5029C10.6487 25.5191 10.6773 25.538 10.7129 25.5605C10.781 25.6037 10.8686 25.6597 10.9482 25.7207C11.0225 25.7776 11.1166 25.8582 11.1758 25.958C11.207 26.0107 11.2381 26.0844 11.2383 26.1719C11.2384 26.2654 11.203 26.3496 11.1455 26.417L11.123 26.4434L11.0947 26.4629C10.8927 26.6015 10.653 26.5683 10.498 26.5303C10.342 26.492 10.1597 26.4166 10.0752 26.3877C9.64473 26.2408 9.30412 26.0779 9.02734 25.8262C8.74881 25.5728 8.55526 25.2479 8.38379 24.8115C8.09242 24.0703 8.03803 23.0287 8.1416 22.0283C8.2454 21.0258 8.51292 20.0153 8.90625 19.332C9.07556 19.0382 9.372 18.6473 9.71582 18.3242C10.0481 18.0119 10.4783 17.7111 10.9131 17.6934C10.9661 17.6912 11.0169 17.6921 11.0625 17.6973Z" fill="#252525" stroke="#252525" stroke-width="0.521038"/>
<path d="M36.3408 10.2412C36.4916 10.2254 36.6733 10.2404 36.8291 10.3242C37.0014 10.417 37.1276 10.5894 37.1279 10.8281V10.9941L36.9766 11.0645C36.9528 11.0755 36.9262 11.0971 36.8838 11.1465C36.8569 11.1778 36.847 11.1906 36.8135 11.2305C36.7875 11.2614 36.7537 11.2987 36.7139 11.334L36.7148 11.335C36.5955 11.4406 36.4437 11.5398 36.3232 11.623C36.1921 11.7137 36.0895 11.7906 36.0205 11.8672C35.8757 12.0277 35.749 12.2541 35.6035 12.5186C35.4656 12.7692 35.3099 13.0565 35.1172 13.2793L35.0693 13.334L34.999 13.3564C34.8071 13.4177 34.6062 13.4126 34.4473 13.2832C34.3041 13.1665 34.2526 12.993 34.2334 12.8564C34.1945 12.5794 34.2608 12.2469 34.334 12.0469C34.4754 11.6607 34.7533 11.2395 35.0967 10.9033C35.3797 10.6263 35.7293 10.3893 36.1074 10.2881V10.2656L36.3408 10.2412Z" fill="#252525" stroke="#252525" stroke-width="0.521038"/>
<path d="M7.67773 8.97754C7.84536 8.92613 7.98231 9.01149 8.04883 9.06445C8.12296 9.12356 8.1859 9.20154 8.2334 9.26953C8.33031 9.40827 8.4078 9.56714 8.43945 9.63965L8.50586 9.80664C8.65303 10.2113 8.74533 10.7184 8.78711 11.2168C8.83495 11.7877 8.81865 12.3761 8.72559 12.8232C8.66598 13.1089 8.45362 13.3062 8.18555 13.3047C7.92746 13.3032 7.7122 13.1155 7.64746 12.8457L7.64258 12.8262L7.6416 12.8066C7.56141 11.8667 7.4739 10.9275 7.38281 9.98828C7.38061 9.96624 7.3747 9.93703 7.36426 9.89453C7.35561 9.85937 7.33994 9.79889 7.3291 9.75098C7.30803 9.65779 7.27608 9.49619 7.33789 9.34082H7.33887C7.35311 9.3053 7.37537 9.2743 7.37598 9.27344C7.38379 9.26222 7.39265 9.24976 7.40137 9.23828C7.41914 9.21488 7.44133 9.18748 7.46289 9.16113C7.48439 9.13487 7.50752 9.10714 7.52734 9.08496C7.53688 9.0743 7.54844 9.06178 7.55957 9.05078C7.56489 9.04553 7.57382 9.03771 7.58398 9.0293C7.58915 9.02502 7.59747 9.01799 7.6084 9.01074C7.61634 9.00548 7.64089 8.98955 7.67578 8.97852L7.67773 8.97754Z" fill="#252525" stroke="#252525" stroke-width="0.521038"/>
<path d="M24.2148 11.9307C24.5196 11.8726 24.8162 12.0465 25.0098 12.2217C25.2081 12.4012 25.3917 12.6647 25.4219 12.9277C25.4533 13.202 25.4243 13.5531 25.2939 13.8506C25.1604 14.1551 24.9007 14.4369 24.4727 14.46C24.1275 14.4784 23.8665 14.3138 23.7021 14.0742C23.5454 13.8458 23.4762 13.5523 23.4658 13.2744C23.4554 12.9947 23.5041 12.7004 23.6152 12.458C23.7242 12.2206 23.9162 11.9879 24.2139 11.9307H24.2148Z" fill="#252525" stroke="#252525" stroke-width="0.521038"/>
<path d="M11.6768 11.4688C11.9824 11.3983 12.2653 11.5156 12.4629 11.6924C12.6587 11.8676 12.799 12.125 12.8135 12.3975C12.8197 12.5133 12.7977 12.6585 12.7637 12.7979C12.7284 12.9423 12.6751 13.1018 12.6084 13.252C12.5426 13.4 12.458 13.5513 12.3545 13.6709C12.2559 13.7847 12.1057 13.9095 11.9062 13.918C11.5876 13.9311 11.3558 13.7542 11.2148 13.5303C11.0785 13.3135 11.0131 13.0374 11 12.7744C10.9869 12.51 11.0248 12.2299 11.1221 11.9961C11.1923 11.8276 11.3059 11.6579 11.4746 11.5537V11.5156L11.6768 11.4688ZM11.6768 11.4688L11.7344 11.7227H11.7354L11.6768 11.4688Z" fill="#252525" stroke="#252525" stroke-width="0.521038"/>
<defs>
<filter id="filter0_g_598_6143" x="46.9219" y="2.32813" width="96.0996" height="33.3555" filterUnits="userSpaceOnUse" color-interpolation-filters="sRGB">
<feFlood flood-opacity="0" result="BackgroundImageFix"/>
<feBlend mode="normal" in="SourceGraphic" in2="BackgroundImageFix" result="shape"/>
<feTurbulence type="fractalNoise" baseFrequency="0.15040092170238495 0.15040092170238495" numOctaves="3" seed="3422" />
<feDisplacementMap in="shape" scale="1.042963981628418" xChannelSelector="R" yChannelSelector="G" result="displacedImage" width="100%" height="100%" />
<feMerge result="effect1_texture_598_6143">
<feMergeNode in="displacedImage"/>
</feMerge>
</filter>
</defs>
</svg>
