<svg width="836" height="594" viewBox="0 0 836 594" fill="none" xmlns="http://www.w3.org/2000/svg">
<path d="M138.768 187.935C136.872 187.627 137.698 189.492 137.624 190.795C136.744 207.556 135.918 222.993 134.212 239.373C133.004 251.07 137.147 259.419 141.078 269.897L136.469 267.005L130.684 256.049C128.851 267.852 126.308 277.78 127.357 289.953C127.855 295.696 132.644 317.691 136.956 320.774C138.556 321.918 143.059 321.865 143.186 323.539C143.822 331.74 133.195 328.349 129.286 321.505C109.145 286.245 124.624 237.974 127.188 200.023C127.527 195.076 128.555 182.817 127.877 178.632C125.885 166.279 112.143 164.647 103.053 170.103C105.278 175.92 103.317 181.546 101.749 187.246C101.813 187.977 104.769 188.867 105.881 190.149C114.347 199.843 105.15 238.875 104.102 252.013C102.48 272.132 109.473 300.379 116.466 319.312C120.026 328.964 129.339 338.054 128.978 348.405C127.442 350.683 125.143 351.457 122.579 350.175C120.767 349.274 112.588 332.418 111.2 329.186C101.739 307.138 95.4772 283.013 95.9646 258.857C96.2507 244.766 101.156 231.374 102.957 217.378L98.3167 216.774C98.8888 212.928 101.728 209.898 101.834 205.766C101.877 204.071 100.828 193.433 100.478 192.088C100.309 191.431 99.0583 189.693 98.2955 190.774C96.1129 194.556 87.7641 200.913 86.9377 204.939C86.4398 207.355 89.6288 211.816 90.1056 215.142C92.6272 232.698 85.0306 261.379 84.7022 280.82C84.4691 294.954 85.8994 336.02 90.7413 347.876C91.8326 350.546 105.585 358.863 96.3778 362.062C84.5645 366.173 78.9068 354.137 76.8619 344.994C73.2808 329.07 73.4504 291.86 75.2091 275.088C77.5294 252.881 87.8595 230.961 84.4267 208.669C81.386 207.747 82.5938 210.29 81.2588 210.926C77.7731 212.589 65.5254 214.136 64.8579 216.318L70.4414 238.25C70.6215 239.754 69.562 241.386 69.6574 242.732C71.2572 266.803 71.4161 293.312 59.9524 315.264C55.9793 322.882 51.8897 331.379 41.8033 328.625C41.6444 327.099 40.6591 325.107 40.8392 323.698C40.9875 322.596 49.527 310.507 51.1163 307.594C63.6818 284.507 68.386 246.037 62.5376 220.726C62.0926 218.798 62.6435 216.446 62.4846 214.432L51.4023 215.534C52.9386 225.737 51.8685 234.891 48.0013 244.427C45.5115 250.572 30.329 274.802 23.1562 272.885C19.3527 271.158 17.9223 268.096 19.0348 264.006C19.9566 260.616 22.5629 262.025 24.7455 260.478C39.0698 250.36 49.8449 232.486 48.5947 214.432C46.0837 213.85 46.0307 215.842 44.8864 217.071C37.6713 224.805 13.2818 255.244 10.9721 264.017C9.94436 267.905 11.2369 278.617 4.28667 276.667C2.7504 276.233 2.41137 274.538 1.78627 273.319C-9.02056 252.097 32.2573 227.411 43.9435 213.807L43.9647 212.133C34.9908 210.777 25.5507 184.152 29.439 178.547C35.4993 177.138 35.9019 177.329 38.9427 171.883C50.6183 170.665 64.2222 167.476 75.7601 167.105C82.3395 166.893 89.5017 169.139 95.3501 168.175C100.446 167.338 105.394 161.151 112.842 160.261C116.561 159.816 127.273 160.748 131.14 161.405C147.233 164.149 142.815 181.292 147.943 192.946C143.981 197.788 139.266 192.776 138.726 187.882L138.768 187.935Z" fill="#C0DDED"/>
<path d="M829.823 221.541C834.22 243.621 836.773 264.017 835.788 286.7C834.675 312.255 833.34 339.95 825.67 364.351L805.094 420.016C801.948 420.61 803.463 414.306 803.675 412.822C804.384 407.98 811.186 392.279 811.059 390.594C811.038 390.244 808.071 384.608 807.775 384.428C805.899 383.241 801.969 386.377 802.71 379.586C811.451 345.227 825.172 309.596 827.619 273.955C828.562 260.276 826.104 245.92 821.834 232.973C818.793 234.838 812.034 236.798 811.695 240.697L813.528 267.036C810 304.733 802.848 342.705 776.541 371.28L769.453 371.343C764.028 367.529 770.735 365.908 772.79 363.503C796.555 335.638 805.306 297.645 798.388 261.633C797.794 258.571 797.042 249.162 793.609 249.131L758.296 265.913C769.601 280.333 771.551 304.32 769.538 322.14C768.171 334.25 756.707 367.497 747.341 375.009C742.785 378.675 740.147 375.899 739.808 376.143C738.876 376.8 740.529 382.892 734.606 382.902C726.098 382.902 733.78 370.337 734.882 364.891C738.081 349.062 737.509 306.64 731.004 291.987C730.442 290.716 727.306 285.323 726.49 284.941C723.895 284.242 725.06 286.965 724.763 287.23C723.757 288.099 722.252 287.717 722.507 285.567C723.926 273.679 734.161 289.031 736.206 293.725C740.857 304.426 742.838 327.703 743.315 339.738C743.728 350.016 742.224 360.176 742.68 370.379C758.551 347.452 767.217 324.132 765.268 295.865C764.791 288.968 761.846 267.015 752.098 267.947C742.341 271.539 732.53 275.915 722.475 278.616C705.799 283.087 682.257 287.516 665.103 289.423C651.277 290.959 636.497 291.966 623.063 288.427C634.24 300.177 630.31 324.874 624.249 338.679C622.321 343.086 619.27 350.482 613.813 347.303C612.637 345.693 619.641 335.617 620.785 332.915C624.822 323.348 630.861 299.393 623.084 291.235C620.001 288.003 618.814 293.364 617.712 287.209C607.361 285.206 597.126 281.646 588.407 275.724C588.248 285.916 594.69 294.329 598.196 303.461C599.447 306.714 599.648 310.899 600.76 313.834C604.575 323.931 612.923 333.434 609.862 345.089L602.191 346.731C599.521 345.534 598.578 337.333 597.391 334.303C592.115 320.848 585.726 306.386 581.149 292.792C578.734 285.63 577.261 270.988 574.994 266.549C574.824 266.21 570.766 262.756 570.025 262.364C563.413 258.878 544.342 254.99 540.157 251.175C539.278 250.381 539.405 249.396 539.151 248.41C538.981 247.774 538.939 244.903 539.289 244.522C540.761 243.325 542.997 242.498 544.872 242.604C546.896 242.71 564.452 247.891 567.249 248.94C571.052 250.37 578.056 254.365 580.916 257.225C584.815 261.113 584.815 265.362 587.284 268.18C589.445 270.649 597.698 274.05 601.089 275.173C658.683 294.318 743.527 261.633 795.326 234.806C806.069 229.244 817.014 217.049 829.812 221.605L829.823 221.541ZM827.63 236.417L828.615 231.342L825.341 229.498C825.087 229.774 825.829 236.554 827.63 236.417ZM804.522 275.109C805.158 280.725 804.056 287.272 804.522 293.004L809.131 269.325V241.047L797.519 247.488C799.723 255.509 803.59 267.025 804.512 275.099L804.522 275.109Z" fill="#C0DDED"/>
<path d="M207.89 73.3726C206.842 73.9766 198.736 73.913 197.327 73.4256C196.67 73.2031 188.523 64.8543 187.516 63.5935C183.946 59.1331 166.941 24.7949 163.932 17.8764C162.152 13.7868 160.701 6.28555 165.447 3.82753C172.726 0.0663257 200.94 2.33364 211.058 2.05817C220.456 1.81449 231.687 -0.0820032 241.127 0.00275621C247.378 0.0557309 253.904 -0.336282 254.423 7.23909C255.049 16.5097 247.208 18.671 242.345 24.085C233.816 33.5675 223.783 47.6164 216.409 58.2113C214.873 60.415 208.653 72.9383 207.901 73.3726H207.89ZM230.087 14.7297L181.53 15.3124C184.995 25.0598 191.882 32.3809 196.755 41.6726C197.868 43.8022 198.821 48.411 199.944 49.8095C202.784 53.38 205.591 45.8894 207.382 44.0035C208.929 42.3719 212.044 41.3654 213.252 38.8967L230.076 14.7297H230.087Z" fill="#C0DDED"/>
<path d="M313.185 571.399C312.931 571.218 309.583 572.734 307.072 572.426C305.79 572.267 300.248 570.159 299.38 569.311C292.684 562.796 290.808 540.663 291.497 531.593C291.603 530.142 292.143 524.484 293.648 523.954C298.14 537.219 297.292 554.288 309.837 563.209C309.074 558.95 307.474 555.051 306.732 550.738C301.255 518.922 292.048 481.744 296.116 449.61C296.455 446.887 298.606 433.94 301.181 433.908C303.289 435.296 302.812 436.97 302.961 439.026C303.501 446.114 302.41 453.837 302.929 460.999C304.518 483.249 311.776 503.623 317.868 524.59C323.239 543.047 324.214 565.084 343.889 574.8C348.784 577.226 356.709 576.05 357.196 583.466C358.023 595.852 340.297 595.216 332.34 590.946C330.2 589.802 322.466 584.399 320.834 582.82C318.673 580.712 314.128 572.045 313.185 571.388V571.399Z" fill="#C0DDED"/>
<path d="M265.201 121.684C272.85 131.685 282.057 140.776 290.173 150.417C294.57 155.64 298.098 162.569 303.004 167.623C329.83 179.14 356.72 187.552 384.701 195.7C392.933 198.094 416.242 200.902 416.115 212.652C416.115 213.436 415.257 216.36 414.844 216.625C411.157 218.956 390.136 210.035 384.722 208.382C360.714 201.061 340.245 194.704 317.868 182.795C316.894 182.276 307.21 174.224 308.704 179.235C309.456 181.746 320.623 192.352 310.357 193.718C301.944 194.831 300.906 187.69 295.926 183.632C278.879 148.181 243.45 116.407 232.632 77.4073C232.155 75.7016 231.732 74.3136 234.115 74.7692L265.19 121.684H265.201Z" fill="#C0DDED"/>
<path d="M235.861 440.804V445.423L238.192 444.851C238.721 450.721 232.873 456.124 232.417 461.114C232.121 464.346 234.038 467.344 233.519 471.296C232.47 479.21 223.91 495.389 217.945 500.824C213.866 504.543 203.069 510.497 201.406 502.286C200.124 495.94 208.473 490.346 212.086 484.582C224.302 465.077 229.016 450.858 227.83 427.465C226.611 403.52 220.668 380.148 217.383 356.511C218.972 356.394 220.509 356.352 222.003 357.083C228.434 360.219 242.281 421.521 247.96 431.374L245.82 439.755L235.871 440.793L235.861 440.804Z" fill="#C0DDED"/>
<path d="M156.114 482.356C149.937 482.483 147.754 488.639 146.049 493.672C138.781 515.063 146.08 535.564 159.017 552.802C160.903 544.707 155.86 536.348 160.161 528.55C164.876 525.944 162.026 533.148 162.269 534.759C163.329 541.656 168.393 556.945 171.826 563.1C173.595 566.279 177.717 566.777 176.996 571.82C176.181 577.509 169.029 571.65 166.677 573.759C166.041 574.32 166.741 578.156 163.403 579.183C155.054 581.737 151.23 569.606 147.415 564.403L135.348 537.8C135.009 549.486 137.011 561.543 142.033 572.095C142.457 572.975 149.036 579.989 144.004 579.385C137.488 578.59 133.102 562.369 132.159 556.563C129.764 541.72 133.578 503.483 140.889 490.822C143.516 486.266 151.219 475.459 156.135 482.367L156.114 482.356Z" fill="#C0DDED"/>
<path d="M470.496 433.865L464.722 429.267C465.421 457.651 467.583 500.359 487.84 522.206C491.495 526.147 499.452 530.872 502.588 535.184C508.458 543.247 506.402 555.463 494.345 549.201C491.665 547.803 491.273 545.207 489.747 543.968C485.541 540.556 479.915 537.134 476.281 532.652C459.944 512.49 454.911 466.826 457.804 441.398C459.086 430.125 465.167 413.862 470.496 433.865Z" fill="#C0DDED"/>
<path d="M274.109 584.143C273.674 584.577 274.638 586.696 273.271 587.491C271.979 588.243 258.82 589.588 256.087 589.737C248.765 590.15 241.158 589.059 234.134 589.239C227.809 589.408 202.169 592.661 198.874 589.175C193.312 583.306 198.577 577.425 205.358 576.006C220.657 572.806 237.079 573.781 252.431 573.134C263.153 572.689 277.075 570.412 287.342 571.217C292.311 571.609 305.575 575.518 298.911 581.663C295.139 585.149 274.998 583.231 274.109 584.121V584.143Z" fill="#C0DDED"/>
<path d="M614.715 393.744C621.03 407.073 625.13 421.8 631.858 434.906C634.03 439.133 651.193 468.375 652.836 469.689C658.451 474.202 672.701 473.27 670.815 483.282C668.474 495.742 648.545 490.381 642.071 483.579C638.511 479.839 637.113 474.669 634.453 470.409C633.722 469.233 632.059 466.86 632.324 470.219C638.649 488.05 642.611 504.536 654.298 519.856C660.845 528.427 676.25 541.745 680.69 550.073C681.41 551.429 682.29 552.637 681.845 554.3C680.541 559.587 669.84 557.044 666.143 555.359C663.166 554.003 648.523 543.08 647.559 540.442C646.955 538.789 646.489 536.087 649.064 536.617C652.603 537.338 658.578 541.427 661.788 542.391C663.399 542.879 663.844 542.275 663.494 540.696C643.671 521.053 634.443 496.367 631.137 468.926L633.436 466.839C629.781 457.589 624.113 448.34 620.712 439.101C617.565 430.541 611.78 410.537 610.636 401.828C610.318 399.381 609.661 395.556 610.88 393.416L614.704 393.734L614.715 393.744Z" fill="#C0DDED"/>
<path d="M195.41 260.681C175.058 280.027 169.707 313.888 172.303 340.905C173.172 349.954 182.22 367.679 187.507 375.36C189.403 378.125 194.881 381.717 195.135 382.162C195.516 382.84 197.964 394.039 197.752 395.152C197.582 396.073 197.476 396.974 196.639 397.567C189.138 400.894 189.933 393.297 186.818 391.062C185.07 389.812 182.601 390.32 180.959 388.837C178.374 386.506 168.637 361.46 167.08 356.512C155.372 319.44 156.569 296.354 185.017 268.171C186.002 267.197 194.584 259.907 195.41 260.67V260.681Z" fill="#C0DDED"/>
<path d="M96.0195 21.6576C97.8843 28.7244 102.069 33.7782 103.764 41.0463C104.835 45.6127 106.445 54.8091 106.477 59.2272C106.477 60.594 106.021 62.9248 104.665 63.2109C99.2828 64.3446 94.4515 45.1995 92.7775 41.629C89.6096 34.8589 85.1068 27.3047 81.5469 20.6193C82.0342 8.38215 94.9495 10.872 103.182 9.7489C113.205 8.38215 124.149 5.64866 133.674 4.43024C144.29 3.0635 152.798 14.8239 149.291 24.6454C142.404 28.9681 136.884 23.4587 133.663 17.4196L96.0195 21.6682V21.6576Z" fill="#C0DDED"/>
<path d="M412.701 441.962C414.173 462.368 410.507 481.502 405.432 501.092C399.383 524.454 392.538 540.558 381.668 561.642C377.737 569.271 378.087 580.989 365.988 576.041C362.428 561.324 376.572 549.246 383.257 536.681C393.587 517.228 407.615 477.73 410.094 456.117C410.709 450.756 407.329 442.174 412.701 441.983V441.962Z" fill="#C0DDED"/>
<path d="M183.874 175.223C187.222 174.364 186.269 169.607 189.638 170.614L187.911 175.233C191.693 173.58 192.901 170.095 197.711 170.603L195.423 178.687L198.304 176.388C199.608 177.765 193.166 188.784 192.498 189.07L190.803 189.049L190.284 186.845L186.152 187.915L186.131 180.997L181.511 182.162C185.262 192.471 188.515 203.077 192.52 213.311C195.889 221.914 202.542 228.706 200.01 238.739C195.539 239.258 193.166 238.336 191.036 234.416L175.716 187.936C173.173 189.388 170.334 198.733 168.077 199.411C165.63 200.142 163.097 197.122 162.017 195.183C161.466 193.488 162.568 192.376 163.203 191.009C163.977 189.346 176.383 172.341 177.379 171.684C179.128 170.529 180.791 169.967 182.762 171.08L183.832 175.223H183.874Z" fill="#C0DDED"/>
<path d="M302.915 426.934C302.29 423.766 303.731 424.952 305.257 424.136C317.144 417.748 333.619 411.857 346.588 407.64C357.765 404.006 391.754 393.464 401.755 394.524C408.324 395.212 406.311 401.919 401.766 403.974L353.707 413.595C336.84 418.002 320.121 424.687 302.915 426.923V426.934Z" fill="#C0DDED"/>
<path d="M37.0762 170.602C36.2816 169.839 42.6597 162.327 43.5073 161.448C45.0753 159.827 47.3638 159.71 48.2856 158.714C60.9677 144.835 70.5244 127.141 79.3182 110.634C95.9416 102.847 86.0142 121.102 81.9245 128.243C71.8487 145.841 56.2742 163.016 37.0868 170.612L37.0762 170.602Z" fill="#C0DDED"/>
<path d="M486.346 581.324C480.773 586.028 470.719 583.093 464.478 583.136C451.15 583.22 433.192 584.757 420.372 582.224C418.857 581.928 417.426 582.892 417.32 579.947L476.631 574.511C481.928 573.017 478.252 563.323 481.547 558.64C483.941 555.229 489.959 555.027 490.182 559.149C488.391 564.934 491.262 577.192 486.357 581.334L486.346 581.324Z" fill="#C0DDED"/>
<path d="M690.86 369.966C688.073 372.657 684.609 373.06 680.858 372.668C680.879 371.736 680.699 370.74 680.869 369.807C681.102 368.536 690.15 356.797 691.888 353.089C697.768 340.502 697.217 334.876 695.744 321.431C694.886 313.654 692.523 292.92 684.344 290.006C682.32 289.286 680.265 292.591 680.869 288.385C687.406 287.146 690.584 290.684 693.604 295.855C698.668 304.511 703.68 331.909 702.514 341.784C701.741 348.353 695.532 365.463 690.86 369.966Z" fill="#C0DDED"/>
<path d="M528.274 323.03C532.734 327.162 521.896 350.873 518.834 355.726C515.772 360.578 503.344 375.549 496.997 371.025C495.175 369.722 495.673 365.314 496.521 363.46C497.22 361.913 509.235 353.946 511.979 351.202C515.496 347.695 523.4 337.492 525.063 333.106C526.557 329.175 524.29 322.458 528.263 323.04L528.274 323.03Z" fill="#C0DDED"/>
<path d="M645.798 343.436C651.626 337.8 660.811 323.232 662.072 315.243C663.015 309.299 662.326 291.871 653.119 296.458C650.683 293.99 658.947 289.677 662.941 298.768C669.457 313.59 663.471 330.002 654.772 342.578C652.653 345.64 642.09 359.307 641.454 349.009C641.073 342.79 644.135 345.036 645.798 343.436Z" fill="#C0DDED"/>
<path d="M595.338 579.364C609.483 580.593 628.543 575.752 642.136 578.21C646.639 579.025 646.332 583.433 641.045 584.037C629.422 585.351 616.761 583.412 605.202 582.755C600.477 582.49 594.47 585.965 595.338 579.375V579.364Z" fill="#C0DDED"/>
<path d="M236.349 512.882C232.016 516.273 225.521 521.21 219.556 518.646L219.016 512.342C229.822 508.793 238.51 506.292 246.245 497.382C246.086 504.989 241.752 508.644 236.338 512.882H236.349Z" fill="#C0DDED"/>
<path d="M155.846 73.3415C148.652 80.4719 140.229 68.595 146.915 62.6936C153.6 56.7922 161.112 68.1182 155.846 73.3415Z" fill="#C0DDED"/>
<path d="M122.324 61.1885C124.528 65.7549 123.585 69.1983 121.254 73.4045C105.997 77.3882 108.996 55.0964 122.324 61.1885Z" fill="#C0DDED"/>
<path d="M575.67 543.574C577.937 545.714 574.769 559.498 573.148 562.401C570.817 566.554 565.372 562.867 566.643 557.104C567.215 554.497 569.588 553.014 570.786 550.81C572.131 548.32 571.57 543.267 575.67 543.574Z" fill="#C0DDED"/>
<path d="M385.115 572.277C384.362 571.101 384.934 568.103 385.591 566.704L397.659 549.339C395.434 554.318 394.035 572.277 388.823 573.347C388.134 573.485 385.305 572.595 385.104 572.277H385.115Z" fill="#C0DDED"/>
<path d="M402.878 556.289C406.342 556.141 403.545 575.582 398.396 574.671C392.188 573.58 401.151 559.139 402.878 556.289Z" fill="#C0DDED"/>
<path d="M228.929 530.884C230.646 532.272 212.878 551.957 214.065 536.785L228.929 530.884Z" fill="#C0DDED"/>
<path d="M230.085 14.7295L213.26 38.8965C212.052 41.3651 208.938 42.3611 207.391 44.0033C205.6 45.8998 202.792 53.3798 199.953 49.8093C198.841 48.4108 197.876 43.7914 196.764 41.6724C191.89 32.3806 185.004 25.0701 181.539 15.3122L230.096 14.7295H230.085Z" fill="white"/>
</svg>
