<svg width="273" height="318" viewBox="0 0 273 318" fill="none" xmlns="http://www.w3.org/2000/svg">
<path d="M107.269 198.864L106.792 202.882C112.157 206.117 116.404 211.051 121.788 214.242C127.222 217.459 133.864 219.713 138.895 223.829C140.246 224.937 140.845 226.778 141.346 227.075C144.659 229.016 152.547 223.329 153.828 226.118C153.465 230.832 145.363 231.594 141.666 230.754C134.453 229.114 133.046 226.252 127.554 222.579C119.938 217.48 113.651 213.788 107.193 206.881C102.763 202.141 103.086 201.232 107.521 196.545C108.858 196.917 110.258 196.713 111.565 197.187C115.506 198.605 121.831 203.844 125.789 206.009C124.319 192.931 138.639 189.301 146.017 199.214C147.434 201.116 152.241 212.68 148.073 213.27C143.066 213.977 144.224 205.859 142.097 202.287C141.445 201.19 138.802 198.36 137.695 197.911C132.307 195.724 127.447 199.904 127.047 205.414C126.86 207.975 129.456 207.667 128.484 210.319C127.203 213.809 121.6 207.531 120.202 206.548C118.615 205.436 116.653 204.603 115.183 203.546C112.529 201.629 111.104 198.347 107.268 198.869L107.269 198.864Z" fill="#FF8547"/>
<path d="M166.716 142.261C165.038 143.094 157.646 142.473 155.488 141.996C147.446 140.219 147.544 131.099 150.303 124.849C151.424 122.317 153.964 119.907 154.222 116.947C154.406 114.802 153.298 112.678 153.898 110.53C154.783 107.374 157.938 104.646 159.727 102.007C160.741 102.058 160.046 103.418 159.847 104.004C159.166 106.013 157.186 108.535 156.885 110.427C156.561 112.486 158.045 114.78 157.875 117.068C157.431 122.985 152.9 127.91 153.969 133.732C154.609 137.212 159.543 138.282 162.628 138.012C165.115 137.794 169.841 129.95 170.854 127.654C173.051 122.672 175.749 112.394 173.358 107.326C170.967 102.258 167.846 105.944 164.958 102.67C165.728 95.4323 174.213 98.7843 177.213 102.84C179.246 105.591 179.547 108.217 179.493 111.533C179.37 118.931 176.78 128.749 172.873 135.023C172.012 136.403 167.891 141.676 166.716 142.261Z" fill="#FF8547"/>
<path d="M92.8626 133.03C91.9892 137.467 89.9844 144.519 95.2355 146.769C99.8655 148.757 105.317 150.229 109.752 152.73C112.598 154.337 115.655 158.938 119.363 154.562C122.54 150.817 127.875 137.415 121.016 135.087C117.71 133.965 100.336 132.925 99.7544 131.398C99.0993 126.038 104.503 127.078 108.431 127.386C110.47 127.545 115.082 128.069 116.996 128.471C118.29 128.738 124.009 130.514 124.877 131.077C125.648 131.583 128.028 135.103 128.383 136.045C130.669 142.088 126.81 152.772 122.922 157.664C118.92 162.693 114.386 162.286 109.267 158.874C105.253 154.019 96.1197 152.517 91.4173 148.803C87.1794 145.46 88.7871 135.858 92.8626 133.03Z" fill="#FF8547"/>
<path d="M215.999 187.825L218.997 187.399L220.689 172.969C219.81 172.543 220.227 173.872 219.548 173.919C216.755 174.108 217.862 171.692 217.148 169.726C216.354 167.542 214.254 165.12 211.809 164.838C210.627 167.304 207.926 169.303 206.951 171.837C206.09 174.078 205.856 180.957 203.681 181.552C199.379 182.726 201.865 177.459 201.946 175.4C201.956 175.135 201.658 171.696 201.55 171.536C201.249 171.102 197.709 171.597 197.476 169.118C197.259 166.77 199.746 163.45 198.52 160.41L195.027 163.214C196.083 161.878 197.629 155.313 198.702 155.205C201.971 154.88 201.047 163.575 201.491 164.529C202.042 165.702 204.967 164.941 205.034 167.521C209.041 163.749 212.262 157.564 217.073 164.674C217.449 160.962 218.161 146.178 220.854 144.429C222.002 143.683 223.967 144.233 224.878 145.2C226.637 147.063 225.168 149.964 225.128 151.79C224.853 164.437 224.509 177.262 222.833 189.716C220.078 192.357 214.069 193.384 216.003 187.832L215.999 187.825ZM224.763 149.857C224.929 149.702 223.53 145.521 222.1 146.997C219.744 149.428 219.845 167.636 220.646 171.795C221.683 172 222.79 153.893 223.103 152.18C223.734 148.706 224.405 150.192 224.763 149.857Z" fill="#FF8547"/>
<path d="M116.728 55.5872C115.223 56.6629 112.39 48.0899 112.255 47.1273C110.948 37.5681 118.526 34.9377 122.872 28.6605C125.185 25.3173 128.545 15.2935 133.924 15.8635C135.994 16.0816 142.007 21.1304 144.768 21.7743C151.895 26.9641 148.226 36.9745 144.407 43.1849C143.356 44.891 141.05 46.2731 140.545 48.4296C140.188 49.9578 141.309 52.9023 140.936 54.9354C140.444 57.6185 136.552 60.6861 134.191 57.9021C132.818 55.5654 134.801 53.7555 135.142 51.9301C135.783 48.4582 134.965 47.6488 137.047 43.9013C139.697 39.1327 142.811 37.3013 144.092 31.0043C145.215 25.489 139.347 21.8327 135.62 18.74C130.028 21.0372 128.693 28.0828 125.584 32.6962C122.961 36.5824 116.866 39.5069 116.152 44.5153C115.896 46.3201 117.308 55.1728 116.728 55.5872Z" fill="#FF8547"/>
<path d="M210.464 195.269C212.406 198.098 224.172 195.667 219.876 201.938L214.038 203.106C215.889 204.944 218.789 205.482 220.558 206.817C222.052 207.942 227.707 214.979 228.724 216.726C231.66 221.791 233.597 237.961 232.322 243.773C231.687 246.652 229.415 248.426 227.157 245.695C226.03 244.332 226.583 242.495 226.036 241.093C224.57 237.32 219.963 233.588 221.664 229.406C222.308 227.818 224.164 227.918 225.292 228.955C225.929 229.541 226.12 232.334 227.559 232.314C227.187 224.668 225.183 216.933 220.443 210.784C216.536 205.72 216.998 208.186 212.564 206.803C211.743 206.544 206.825 204.007 206.606 203.407C205.032 199.074 213.055 202.286 215.218 200.143C213.01 198.875 209.909 199.597 208.098 197.564C206.608 195.889 206.485 192.244 209.44 192.301C210.322 193.005 210.017 194.624 210.463 195.274L210.464 195.269Z" fill="#FF8547"/>
<path d="M78.3528 63.9354C79.6095 65.2971 80.5914 67.3797 79.8468 69.2535C74.2009 61.3683 66.7023 66.0359 59.959 64.6606C53.9664 63.4395 52.8156 58.8527 47.5489 57.6688C41.195 66.1518 48.2221 73.4447 51.5545 81.3842C55.8712 86.5029 62.3151 81.9844 67.1173 82.0226C70.6389 82.0475 75.0781 83.1636 71.0804 86.4615C64.5361 85.3824 57.3311 89.798 51.1665 86.008C47.055 83.481 46.4725 78.7235 44.8913 74.6128C43.7871 71.7466 41.789 69.7565 41.8286 65.9513C41.8598 62.8291 44.4258 53.8779 48.0997 53.7618C53.7823 53.5791 53.6536 56.3023 57.0154 58.349C64.4875 62.9012 71.5672 56.5943 78.3476 63.9344L78.3528 63.9354Z" fill="#FF8547"/>
<path d="M211.566 271.773C211.183 271.263 211.315 270.236 210.543 270.029C212.03 276.849 205.761 281.145 204.154 287.132C201.677 296.362 206.865 304.836 211.266 312.554C211.394 314.061 210.719 315.403 209.148 315.706C204.831 315.855 194.327 303.557 192.552 299.632C191.44 297.176 189.94 291.381 194.191 292.685C195.747 297.694 198.848 301.219 202.275 305.107C201.731 301.684 200.181 298.809 199.984 295.214C199.691 289.957 201.145 285.342 203.817 280.808C206.824 275.714 208.786 275.398 209.973 268.44C210.256 266.801 208.533 263.336 211.608 263.224L215.387 269.242C214.287 261.895 216.645 254.533 218.614 247.448C219.66 243.677 221.892 240.098 221.501 236.074C222.347 236.102 222.085 237.216 222.133 237.83C222.488 242.275 221.151 243.582 220.401 247.193C219.23 252.864 217.518 259.83 218.358 265.585C218.713 268.019 222.926 275.176 219.29 276.145C216.205 276.549 213.278 274.086 211.555 271.776L211.566 271.773Z" fill="#FF8547"/>
<path d="M134.359 95.6302C132.949 96.9013 122.469 99.988 121.657 101.153C127.19 102.165 122.103 113.033 119.993 113.973C117.232 115.206 108.303 110.124 110.348 106.188C112.794 109.112 115.503 109.82 119.221 110.291L120.353 101.766C117.869 101.22 113.168 101.164 114.125 97.6212C119.241 98.1604 124.834 98.5854 129.263 95.5014C130.9 94.361 134.502 86.9576 135.915 90.2702C136.366 91.3223 135.224 94.8445 134.354 95.6292L134.359 95.6302Z" fill="#FF8547"/>
<path d="M174.053 270.079C173.64 276.511 178.651 287.008 180.563 293.222C179.93 293.631 178.43 290.991 178.17 290.544C173.84 283.059 169.026 268.483 173.447 260.44C174.283 258.916 177.936 256.015 179.533 257.722C178.937 261.208 183.903 270.675 177.285 268.437C176.915 266.823 176.891 265.15 176.611 263.517C176.46 262.636 177.483 262 175.696 261.961C175.421 264.58 174.222 267.53 174.057 270.085L174.053 270.079Z" fill="#FF8547"/>
<path d="M181.458 256.681C180.462 256.644 181.118 255.212 181.329 254.671C183.979 247.87 187.698 241.704 187.226 233.936L183.447 239.599L180.789 239.654C181.15 236.26 183.691 233.978 184.864 230.783C185.616 228.74 185.104 224.756 187.629 224.668C192.621 225.718 188.816 242.097 187.799 245.345C186.451 249.65 183.513 252.799 181.457 256.686L181.458 256.681Z" fill="#FF8547"/>
<path d="M96.6038 181.566C100.821 174.135 102.168 178.654 102.502 184.485C104.489 183.858 105.122 181.336 107.582 182.584C106.905 185.648 104.872 190.806 100.964 189.384L101.016 183.03C98.2203 185.449 96.4251 188.868 92.043 187.015C91.2207 185.959 94.0655 178.993 94.3974 177.348C94.5592 176.546 94.1261 170.54 95.5301 170.877C97.6704 171.869 94.9478 182.372 96.6038 181.566Z" fill="#FF8547"/>
<path d="M152.308 67.3075C154.518 68.1149 161.504 73.5227 158.781 76.1964C157.665 77.2906 145.241 75.2907 147.924 70.2989L151.004 69.3858C148.158 68.6072 145.507 67.2578 142.716 66.3403C141.978 66.0975 141.28 67.0447 141.845 65.2316C145.005 66.2221 149.304 66.2141 152.308 67.3075Z" fill="#FF8547"/>
<path d="M65.387 108.931C67.1457 108.152 70.5089 103.803 72.4956 105.93C74.8556 108.451 65.7393 114.483 63.4715 114.337C60.7194 113.118 64.8855 102.088 66.4815 100.004L69.5583 96.94C67.5723 100.931 65.744 104.328 65.387 108.931Z" fill="#FF8547"/>
<path d="M115.193 86.2368C115.457 90.3001 114.735 96.2587 109.379 94.2119C100.832 90.9493 108.598 82.7892 115.193 86.2368Z" fill="#FF8547"/>
<path d="M184.284 225.194C184.161 225.961 184.26 226.328 183.571 226.828C182.516 227.597 174.225 230.364 172.815 230.352C169.723 230.332 164.46 227.822 166.325 224.374C168.02 221.24 170.616 225.824 172.572 226.287C174.199 226.669 183.742 224.241 184.284 225.194Z" fill="#FF8547"/>
<path d="M105.361 104.262C109.359 102.675 110.141 102.782 110.778 98.1009C112.75 96.8504 113.666 99.2353 113.497 100.764C113.045 104.824 101.801 110.149 98.0224 108.993C95.3968 108.189 95.3773 103.955 98.3005 104.433C100.018 104.715 100.798 105.897 103.458 105.408C104.83 105.157 104.894 104.442 105.356 104.261L105.361 104.262Z" fill="#FF8547"/>
<path d="M109.91 50.8593C110.162 51.6152 109.569 52.7382 109.487 53.5722L107.648 53.0898L103.835 46.6271C103.546 48.5913 103.042 50.9566 102.925 52.9014C102.885 53.5781 104.097 56.2839 102.484 56.2633C102.472 55.1217 102.092 54.0624 102.039 52.9075C101.943 50.792 102.241 38.7277 105.017 39.2945C106.216 42.495 106.319 45.3499 107.895 48.5504C108.431 49.6354 109.858 50.7153 109.909 50.8644L109.91 50.8593Z" fill="#FF8547"/>
<path d="M95.1666 79.9877C100.509 79.4861 102.157 84.9255 98.95 88.5248C93.0755 90.6482 90.6869 80.4091 95.1666 79.9877Z" fill="#FF8547"/>
<path d="M81.3146 144.28C81.9938 144.067 82.7798 144.501 83.4818 144.577L82.8138 147.942C84.3164 147.55 84.7199 145.389 86.6507 146.376L84.3287 150.563C81.9052 152.606 81.7489 147.286 80.4444 148.06L78.5569 151.081L76.454 150.68C75.4058 146.306 76.0427 142.4 77.1618 138.082L77.543 146.324C78.0977 148.118 81.1009 144.35 81.3249 144.282L81.3146 144.28Z" fill="#FF8547"/>
<path d="M118.28 83.7017C117.127 82.6012 117.477 78.8094 118.486 77.4962C125.182 73.5197 127.319 85.5162 121.051 84.8022C120.451 84.7312 118.673 84.0791 118.286 83.7027L118.28 83.7017Z" fill="#FF8547"/>
<path d="M158.025 171.602C163.474 159.666 163.281 174.682 156.509 174.841C153.96 174.111 157.24 168.194 156.791 166.116C158.522 167.267 156.135 170.494 158.025 171.602Z" fill="#FF8547"/>
<path d="M76.1351 111.064L77.3213 112.454L78.8831 110.994L81.1083 112.42C79.1357 119.419 71.8313 119.087 76.1403 111.065L76.1351 111.064Z" fill="#FF8547"/>
<path d="M183.311 134.022C183.027 131.34 185.91 130.629 186.193 128.236L183.994 127.51C191.276 123.003 188.727 132.166 184.909 134.708L183.311 134.022Z" fill="#FF8547"/>
<path d="M154.528 79.6696C155.082 79.7849 158.667 81.6567 158.805 81.9622L158.336 84.2864C153.453 86.5744 148.449 78.3941 154.528 79.6696Z" fill="#FF8547"/>
<path d="M189.81 139.443C187.215 139.153 188.833 136.398 188.53 135.681L187.108 135.409C190.173 130.45 192.193 136.45 189.811 139.438L189.81 139.443Z" fill="#FF8547"/>
<path d="M224.763 149.857C224.399 150.191 223.729 148.705 223.103 152.18C222.79 153.893 221.683 171.995 220.645 171.794C219.845 167.636 219.743 149.427 222.1 146.996C223.53 145.521 224.934 149.703 224.763 149.857Z" fill="white"/>
</svg>
