<svg width="515" height="433" viewBox="0 0 515 433" fill="none" xmlns="http://www.w3.org/2000/svg">
<path d="M32.6378 297.977C32.033 298.633 30.641 298.781 29.9109 298.364C29.4856 298.12 23.2846 290.985 22.7606 290.144C21.1142 287.466 19.5663 282.416 18.1715 279.29C17.7642 278.388 15.4025 275.27 15.3901 274.667C15.1907 266.891 27.0223 263.742 30.8351 260.023C34.106 259.802 33.8647 262.743 34.9705 263.244C37.1285 264.236 38.6681 261.936 39.2844 268.161C39.8144 273.512 35.3887 295.011 32.6438 297.979L32.6378 297.977ZM36.5802 269.553L35.4754 269.757L35.9132 274.618L37.018 274.414L36.5802 269.553Z" fill="#2F1A0E"/>
<path d="M468.338 313.554L474.423 302.921C474.281 306.179 469.523 318.07 467.148 317.387C465.108 314.123 467.492 314.67 468.337 313.563L468.338 313.554Z" fill="black"/>
<path d="M468.271 286.35C469.023 288.008 467.235 288.963 466.805 289.528C465.43 291.342 463.792 293.315 462.048 294.428C461.775 292.155 467.461 284.565 468.271 286.35Z" fill="black"/>
<path d="M426.626 331.043C427.19 334.382 425.935 336.598 424.868 339.431C421.119 349.398 415.781 356.439 408.609 361.117C416.15 365.385 427.423 369.685 429.19 382.881C430.957 396.077 421.079 396.505 414.274 396.452C405.436 396.375 385.464 390.863 376.886 386.961C369.204 383.463 368.427 374.068 363.816 367.7C356.883 358.128 344.34 351.287 334.902 349.186C330.803 348.271 325.063 349.919 320.743 349.729C302.683 348.958 281.144 340.385 262.679 338.634C261.373 338.227 259.948 338.95 258.691 338.71C220.65 331.458 180.464 311.77 142.208 329.334C130.148 334.868 115.772 353.262 102.901 352.668C98.6065 352.474 93.2175 347.22 92.1452 341.302C88.8214 322.915 98.2432 323.35 106.877 318.775C110.671 316.766 126.539 309.313 128.511 307.032C129.556 305.823 130.279 304.157 130.355 302.207C121.364 305.047 113.318 290.975 109.067 308.421C108.608 310.294 108.722 312.348 108.289 314.209C106.752 314.899 105.278 314.349 104.716 311.924C104.21 307.84 107.361 299.627 109.582 297.028C110.173 296.334 114.614 293.392 115.158 293.288C119.459 292.49 125.877 301.467 131.246 299.422C134.044 296.413 130.597 280.401 134.372 281.252C137.843 282.034 135.503 300.999 134.779 304.649C133.791 309.633 129.975 311.898 126.877 313.977C118.641 319.477 108.385 322.423 100.204 328.258C96.0674 331.208 93.031 333.884 95.1013 340.724C98.4576 351.779 108.025 347.772 114.147 344.285C121.509 340.095 129.931 330.005 137.008 327.056C139.662 325.948 141.037 327.059 143.151 326.682C145.628 326.239 150.524 322.999 153.504 322.155C171.234 317.15 196.195 316.718 213.859 321.988C220.492 323.971 227.636 327.74 234.379 329.443C258.802 335.619 286.556 339.219 311.456 343.953C328.417 347.185 343.759 342.268 360.219 355.842C366.418 360.957 370.136 369.97 375.004 375.785C377.158 378.352 387.681 384.224 390.88 385.589C397.347 388.344 414.828 392.511 420.867 390.216C429.51 386.932 424.083 378.439 418.981 374.564C416.388 372.595 403.737 363.475 402.069 362.864C400.824 362.409 394.412 365.639 394.726 359.903C395.585 360.149 396.475 360.332 397.337 359.952C401.095 358.318 408.211 355.238 411.285 352.283C416.837 346.944 420.33 337.624 424.072 329.979C426.727 329.968 429.306 329.314 431.847 328.293C440.16 324.952 447.927 319.59 455.017 312.735C455.791 311.987 457.72 312.509 456.61 310.282C450.176 314.821 442.734 318.237 435.499 318.539C432.619 318.656 427.061 318.543 424.49 317.258C422.822 316.421 422.407 313.881 423.958 312.855C424.777 312.309 432.759 313.707 434.723 313.637C446.388 313.254 459.706 304.877 468.956 294.974C469.713 294.161 469.959 292.772 470.423 291.683L472.967 292.553C473.755 302.951 464.355 312.603 458.779 317.892C449.258 326.925 438.165 332.225 426.633 331.035L426.626 331.043Z" fill="#2F1A0E"/>
<path d="M246.85 120.351C251.362 129.316 253.067 133.331 254.411 144.891C255.964 158.256 250.371 183.052 245.769 195.082C242.511 203.602 236.872 211.429 231.781 217.847C237.058 219.271 242.469 219.977 247.75 221.42C281.303 230.542 312.594 234.549 346.579 238.03C354.255 238.821 361.081 237.425 369.042 240.221C372.307 241.366 384.765 247.161 382.446 254.108C381.492 256.974 377.714 251.248 376.123 250.105C363.869 241.327 349.931 244.062 336.752 242.449C305.019 238.569 268.283 233.71 237.664 222.011C236.227 221.461 234.076 220.523 232.74 219.726C232.052 219.31 231.476 217.508 231.141 217.72C231.075 217.757 231.231 218.889 230.426 219.369C210.976 230.934 183.562 220.759 165.604 207.195C162.169 204.601 159.168 199.755 155.881 196.759C148.625 190.152 143.415 188.02 134.863 186.467C131.418 185.838 128.397 188.814 128.596 180.919C129.866 176.53 143.813 180.37 146.687 181.68C155.084 185.505 161.17 195.879 168.289 201.132C184.142 212.845 215.955 226.406 231.438 208.724C240.261 198.647 247.473 179.308 249.832 163.595C251.387 153.229 250.411 141.612 248.172 131.662C247.792 129.974 240.507 116.092 239.502 115.23C229.194 106.377 216.135 110.223 205.617 116.463C186.242 127.957 165.306 147.127 145.12 154.695C143.5 155.305 136.592 157.222 135.356 157.065C133.939 156.885 133.847 154.801 134.281 153.21C144.313 149.473 154.608 144.968 164.071 138.822C177.322 130.213 191.028 118.676 204.399 110.703C216.055 103.745 233.197 99.8964 243.729 112.509C245.758 114.942 245.67 117.987 246.851 120.342L246.85 120.351Z" fill="#2F1A0E"/>
<path d="M191.127 46.9654C181.68 57.8686 177.195 80.2243 171.847 95.4468C168.895 103.853 164.364 112.713 161.689 121.764C156.691 131.198 151.396 140.661 144.308 146.898C144.071 144.407 144.918 144.763 145.46 144.015C156.845 128.212 161.979 113.986 168.699 93.7968C178.217 65.202 181.423 38.1789 206.769 30.8248C226.315 25.158 240.504 43.4787 237.654 71.6441C237.359 74.5809 235.07 88.6737 232.548 88.0965C231.654 87.7294 230.72 86.3435 230.655 85.0578C230.572 83.4896 233.514 73.3575 233.955 69.9482C238.892 31.58 207.863 27.6412 191.128 46.9569L191.127 46.9654Z" fill="#2F1A0E"/>
<path d="M123.03 254.071C118.731 274.318 101.659 275.658 89.7281 281.849C79.3151 287.25 71.1926 294.926 60.344 299.845C57.7873 301.01 52.8348 304.203 50.689 304.642C48.3994 305.11 48.4045 301.49 49.9212 299.725C51.1924 298.244 59.1011 296.562 61.4424 295.244C69.2275 290.879 81.3963 278.813 87.2262 270.202C88.5217 268.283 89.6029 263.451 91.3979 262.593C95.3828 260.68 93.8018 265.442 92.5911 268.304C91.4882 270.911 88.6779 274.412 87.811 276.985C87.3991 278.216 87.6935 278.648 88.6143 278.559C98.0318 271.994 110.693 272.219 117.39 259.381C119.045 256.211 117.951 251.864 123.023 254.078L123.03 254.071Z" fill="#2F1A0E"/>
<path d="M85.093 185.888C92.6079 185.658 86.8232 202.332 82.4476 195.66C80.7066 192.073 81.7132 185.988 85.093 185.888Z" fill="#2F1A0E"/>
<path d="M102.655 195.488C107.994 194.323 107.12 211.198 101.376 207.266C98.6775 205.421 100.424 195.977 102.655 195.488Z" fill="#2F1A0E"/>
<path d="M170.999 103.814C198.759 108.208 222.394 102.712 274.395 120.182" stroke="#2F1A0E" stroke-width="8" stroke-linecap="round" stroke-linejoin="round"/>
<path d="M238.312 99.416C255.612 102.155 266.743 112.082 271.005 109.128" stroke="#4F2B17" stroke-width="8" stroke-linecap="round" stroke-linejoin="round"/>
</svg>
