<svg width="76" height="59" viewBox="0 0 76 59" fill="none" xmlns="http://www.w3.org/2000/svg">
<g filter="url(#filter0_g_430_26707)">
<path d="M50.7145 42.8852C45.4969 47.6491 38.2296 39.5108 37.7637 37.1288C36.273 40.3048 30.4698 46.2347 24.9727 43.2573" stroke="#252525" stroke-width="2.55853" stroke-linecap="round" stroke-linejoin="round"/>
</g>
<g filter="url(#filter1_g_430_26707)">
<path d="M46.3336 30.9325C46.1656 29.9053 31.8808 29.7341 29.8641 30.9325C29.0526 31.4148 32.3537 32.3876 34.3859 33.065C36.8698 34.4199 37.3214 36.9037 37.9308 36.5822C37.9308 36.5822 38.9021 34.194 41.386 33.065C44.773 32.6134 46.4041 31.3634 46.3336 30.9325Z" fill="#252525"/>
<path d="M46.3336 30.9325C46.1656 29.9053 31.8808 29.7341 29.8641 30.9325C29.0526 31.4148 32.3537 32.3876 34.3859 33.065C36.8698 34.4199 37.3214 36.9037 37.9308 36.5822C37.9308 36.5822 38.9021 34.194 41.386 33.065C44.773 32.6134 46.4041 31.3634 46.3336 30.9325Z" stroke="#252525" stroke-width="3.44509"/>
</g>
<g filter="url(#filter2_g_430_26707)">
<mask id="path-3-inside-1_430_26707" fill="white">
<path d="M52.5256 25.5383C52.4982 25.861 50.3515 24.7654 47.6084 24.5328C44.8653 24.3003 42.5648 25.0187 42.5921 24.696C42.6195 24.3733 45.0635 21.963 47.8066 22.1956C50.5496 22.4281 52.553 25.2156 52.5256 25.5383Z"/>
</mask>
<path d="M52.5256 25.5383C52.4982 25.861 50.3515 24.7654 47.6084 24.5328C44.8653 24.3003 42.5648 25.0187 42.5921 24.696C42.6195 24.3733 45.0635 21.963 47.8066 22.1956C50.5496 22.4281 52.553 25.2156 52.5256 25.5383Z" fill="#252525"/>
<path d="M52.5256 25.5383L49.0928 25.2472C49.1351 24.7482 49.2965 24.1816 49.6549 23.6467C50.01 23.1168 50.4581 22.7675 50.8614 22.5501C51.5771 22.1644 52.2196 22.1535 52.3945 22.1523C52.796 22.1494 53.0658 22.2321 52.954 22.2046C52.8128 22.1699 52.6324 22.1097 52.0675 21.9417C51.1204 21.66 49.6281 21.2466 47.8995 21.1001L47.6084 24.5328L47.3173 27.9656C48.3318 28.0516 49.2844 28.3024 50.1032 28.5459C50.4214 28.6406 50.9542 28.8083 51.309 28.8955C51.4452 28.929 51.9085 29.0461 52.4434 29.0423C52.685 29.0406 53.3791 29.0204 54.1306 28.6154C55.1265 28.0786 55.8541 27.0591 55.9584 25.8294L52.5256 25.5383ZM47.6084 24.5328L47.8995 21.1001C46.1709 20.9535 44.6303 21.1097 43.6492 21.2279C43.0642 21.2984 42.8762 21.3273 42.7312 21.3378C42.6164 21.346 42.8961 21.31 43.2914 21.3804C43.4636 21.4111 44.0952 21.53 44.7357 22.0307C45.0966 22.3129 45.4795 22.7326 45.7403 23.3148C46.0036 23.9024 46.0672 24.4881 46.0249 24.9871L42.5921 24.696L39.1593 24.405C39.0551 25.6347 39.6007 26.7621 40.492 27.4589C41.1645 27.9847 41.8453 28.1215 42.0832 28.1638C42.6097 28.2576 43.0862 28.2202 43.2261 28.2102C43.5905 28.1839 44.1439 28.1083 44.4735 28.0686C45.3216 27.9664 46.3029 27.8796 47.3173 27.9656L47.6084 24.5328ZM42.5921 24.696L46.0249 24.9871C45.9873 25.4308 45.87 25.7623 45.8079 25.9202C45.7373 26.0999 45.6653 26.235 45.6203 26.3143C45.5315 26.4705 45.4554 26.57 45.4326 26.5993C45.381 26.6657 45.372 26.667 45.4321 26.6086C45.5436 26.5004 45.7567 26.3196 46.0406 26.1376C46.3232 25.9564 46.6181 25.8111 46.8952 25.7217C47.1696 25.6333 47.3736 25.6163 47.5155 25.6283L47.8066 22.1956L48.0977 18.7628C45.6708 18.557 43.6073 19.5129 42.3214 20.3375C41.6479 20.7693 41.0734 21.2371 40.6333 21.6643C40.4176 21.8737 40.1916 22.1144 39.9904 22.3735C39.8929 22.4991 39.7587 22.6832 39.6298 22.9101C39.5639 23.026 39.2275 23.6007 39.1593 24.405L42.5921 24.696ZM47.8066 22.1956L47.5155 25.6283C47.6574 25.6404 47.8556 25.6915 48.1112 25.8249C48.3694 25.9596 48.6355 26.1525 48.8836 26.3787C49.1328 26.6059 49.3124 26.8199 49.4042 26.9454C49.4536 27.0131 49.4449 27.0103 49.4052 26.9361C49.3877 26.9034 49.3294 26.7926 49.2682 26.6236C49.2371 26.5379 49.1889 26.3926 49.1496 26.2036C49.115 26.0374 49.0552 25.6909 49.0928 25.2472L52.5256 25.5383L55.9584 25.8294C56.0266 25.0251 55.7917 24.402 55.7463 24.2767C55.6574 24.0313 55.5562 23.8272 55.4812 23.687C55.3265 23.3977 55.1443 23.1224 54.9669 22.8797C54.605 22.3845 54.1175 21.8266 53.5264 21.2875C52.3976 20.2582 50.5245 18.9686 48.0977 18.7628L47.8066 22.1956Z" fill="#252525" mask="url(#path-3-inside-1_430_26707)"/>
</g>
<g filter="url(#filter3_g_430_26707)">
<mask id="path-5-inside-2_430_26707" fill="white">
<path d="M32.0441 24.689C32.0798 25.0109 29.7614 24.3523 27.0253 24.6558C24.2892 24.9593 22.1715 26.1101 22.1358 25.7882C22.1001 25.4663 24.0306 22.628 26.7667 22.3244C29.5028 22.0209 32.0084 24.3671 32.0441 24.689Z"/>
</mask>
<path d="M32.0441 24.689C32.0798 25.0109 29.7614 24.3523 27.0253 24.6558C24.2892 24.9593 22.1715 26.1101 22.1358 25.7882C22.1001 25.4663 24.0306 22.628 26.7667 22.3244C29.5028 22.0209 32.0084 24.3671 32.0441 24.689Z" fill="#252525"/>
<path d="M32.0441 24.689L28.62 25.0689C28.5648 24.5711 28.6133 23.984 28.8612 23.3898C29.1069 22.8011 29.4788 22.3716 29.8323 22.0801C30.4596 21.563 31.0879 21.4278 31.2592 21.3926C31.6525 21.312 31.9332 21.3408 31.8182 21.3355C31.6729 21.3288 31.4843 21.3047 30.8976 21.2494C29.9138 21.1566 28.3697 21.0404 26.6454 21.2317L27.0253 24.6558L27.4052 28.0799C28.4171 27.9676 29.4002 28.029 30.2507 28.1092C30.5812 28.1403 31.1364 28.2016 31.5014 28.2184C31.6415 28.2248 32.1187 28.2499 32.6427 28.1425C32.8794 28.094 33.5565 27.9396 34.2151 27.3966C35.0881 26.677 35.6043 25.5358 35.4682 24.3092L32.0441 24.689ZM27.0253 24.6558L26.6454 21.2317C24.9212 21.423 23.4401 21.8748 22.5006 22.181C21.9403 22.3635 21.7615 22.4284 21.6212 22.4667C21.5102 22.4971 21.7777 22.4075 22.1791 22.4C22.354 22.3967 22.9966 22.3909 23.722 22.758C24.1309 22.9648 24.5879 23.3024 24.9565 23.8229C25.3287 24.3484 25.5047 24.9106 25.5599 25.4084L22.1358 25.7882L18.7117 26.1681C18.8478 27.3947 19.6016 28.395 20.611 28.9058C21.3727 29.2913 22.0672 29.2935 22.3087 29.2889C22.8435 29.2789 23.3036 29.1498 23.4389 29.1128C23.7913 29.0165 24.3196 28.835 24.6352 28.7321C25.4475 28.4675 26.3933 28.1921 27.4052 28.0799L27.0253 24.6558ZM22.1358 25.7882L25.5599 25.4084C25.609 25.8509 25.5582 26.1989 25.5279 26.3659C25.4935 26.5558 25.4491 26.7024 25.4202 26.7888C25.3634 26.9593 25.308 27.0717 25.2913 27.1048C25.2536 27.18 25.245 27.183 25.2926 27.1141C25.3811 26.9862 25.5551 26.7676 25.7983 26.5341C26.0405 26.3015 26.3015 26.1018 26.5561 25.9604C26.8082 25.8204 27.005 25.7642 27.1465 25.7485L26.7667 22.3244L26.3868 18.9003C23.9661 19.1689 22.127 20.5066 21.0253 21.5648C20.4483 22.119 19.9754 22.6894 19.6265 23.1937C19.4554 23.441 19.2804 23.7209 19.1333 24.0141C19.0619 24.1562 18.966 24.3629 18.8835 24.6104C18.8413 24.7369 18.6227 25.3659 18.7117 26.1681L22.1358 25.7882ZM26.7667 22.3244L27.1465 25.7485C27.2881 25.7328 27.4924 25.7445 27.769 25.8258C28.0484 25.908 28.3469 26.0456 28.6342 26.2195C28.9226 26.394 29.1403 26.5692 29.2547 26.6745C29.3163 26.7313 29.3072 26.7303 29.2539 26.6652C29.2304 26.6365 29.1517 26.5391 29.0589 26.3852C29.0118 26.3071 28.9364 26.1739 28.8611 25.9961C28.7949 25.8398 28.6691 25.5114 28.62 25.0689L32.0441 24.689L35.4682 24.3092C35.3792 23.5069 35.028 22.9411 34.9592 22.827C34.8245 22.6035 34.6856 22.423 34.5848 22.2999C34.377 22.0461 34.1449 21.8113 33.9238 21.6076C33.4728 21.192 32.8864 20.7392 32.2019 20.3249C30.8951 19.5339 28.8075 18.6318 26.3868 18.9003L26.7667 22.3244Z" fill="#252525" mask="url(#path-5-inside-2_430_26707)"/>
</g>
<g filter="url(#filter4_g_430_26707)">
<path d="M22.605 14.305C17.3032 22.5063 14.1675 20.0779 11.7251 25.8509C9.43447 31.265 1.48395 16.307 15.4997 5.42352C17.7575 4.13245 19.7663 2.19009 25.7134 3.20313" stroke="#252525" stroke-width="3.44509" stroke-linecap="round"/>
</g>
<g filter="url(#filter5_g_430_26707)">
<path d="M51.2388 14.305C56.5406 22.5063 59.6762 20.0779 62.1187 25.8509C64.4093 31.265 72.3598 16.307 58.344 5.42352C56.0863 4.13245 54.0775 2.19009 48.1303 3.20313" stroke="#252525" stroke-width="3.44509" stroke-linecap="round"/>
</g>
<g filter="url(#filter6_g_430_26707)">
<path d="M66.6783 55.866L65.0742 52.2568" stroke="#252525" stroke-width="3.19817" stroke-linecap="round"/>
</g>
<g filter="url(#filter7_g_430_26707)">
<path d="M56.4936 55.702L57.5376 52.2566" stroke="#252525" stroke-width="3.19817" stroke-linecap="round"/>
</g>
<g filter="url(#filter8_g_430_26707)">
<path d="M73.6761 54.4106C73.2172 46.4394 50.8782 42.9489 48.2773 54.4106C60.4188 57.3762 65.0728 57.1435 73.6761 54.4106Z" stroke="#252525" stroke-width="3.19817" stroke-linejoin="round"/>
</g>
<g filter="url(#filter9_g_430_26707)">
<path d="M20.7213 56.3172L19.1172 52.708" stroke="#252525" stroke-width="3.19817" stroke-linecap="round"/>
</g>
<g filter="url(#filter10_g_430_26707)">
<path d="M10.5405 56.1542L11.5844 52.7087" stroke="#252525" stroke-width="3.19817" stroke-linecap="round"/>
</g>
<g filter="url(#filter11_g_430_26707)">
<path d="M27.723 54.8617C27.2641 46.8906 4.92508 43.4001 2.32422 54.8617C14.4657 57.8273 19.1196 57.5946 27.723 54.8617Z" stroke="#252525" stroke-width="3.19817" stroke-linejoin="round"/>
</g>
<defs>
<filter id="filter0_g_430_26707" x="23.3321" y="35.4903" width="29.0193" height="10.5027" filterUnits="userSpaceOnUse" color-interpolation-filters="sRGB">
<feFlood flood-opacity="0" result="BackgroundImageFix"/>
<feBlend mode="normal" in="SourceGraphic" in2="BackgroundImageFix" result="shape"/>
<feTurbulence type="fractalNoise" baseFrequency="0.21830384433269501 0.21830384433269501" numOctaves="3" seed="3422" />
<feDisplacementMap in="shape" scale="0.71855241060256958" xChannelSelector="R" yChannelSelector="G" result="displacedImage" width="100%" height="100%" />
<feMerge result="effect1_texture_430_26707">
<feMergeNode in="displacedImage"/>
</feMerge>
</filter>
<filter id="filter1_g_430_26707" x="27.6563" y="28.0147" width="20.7615" height="10.6775" filterUnits="userSpaceOnUse" color-interpolation-filters="sRGB">
<feFlood flood-opacity="0" result="BackgroundImageFix"/>
<feBlend mode="normal" in="SourceGraphic" in2="BackgroundImageFix" result="shape"/>
<feTurbulence type="fractalNoise" baseFrequency="0.21830384433269501 0.21830384433269501" numOctaves="3" seed="3422" />
<feDisplacementMap in="shape" scale="0.71855241060256958" xChannelSelector="R" yChannelSelector="G" result="displacedImage" width="100%" height="100%" />
<feMerge result="effect1_texture_430_26707">
<feMergeNode in="displacedImage"/>
</feMerge>
</filter>
<filter id="filter2_g_430_26707" x="42.2345" y="21.8204" width="10.6521" height="4.13652" filterUnits="userSpaceOnUse" color-interpolation-filters="sRGB">
<feFlood flood-opacity="0" result="BackgroundImageFix"/>
<feBlend mode="normal" in="SourceGraphic" in2="BackgroundImageFix" result="shape"/>
<feTurbulence type="fractalNoise" baseFrequency="0.21830384433269501 0.21830384433269501" numOctaves="3" seed="3422" />
<feDisplacementMap in="shape" scale="0.71855241060256958" xChannelSelector="R" yChannelSelector="G" result="displacedImage" width="100%" height="100%" />
<feMerge result="effect1_texture_430_26707">
<feMergeNode in="displacedImage"/>
</feMerge>
</filter>
<filter id="filter3_g_430_26707" x="21.7774" y="21.9386" width="10.6248" height="4.26543" filterUnits="userSpaceOnUse" color-interpolation-filters="sRGB">
<feFlood flood-opacity="0" result="BackgroundImageFix"/>
<feBlend mode="normal" in="SourceGraphic" in2="BackgroundImageFix" result="shape"/>
<feTurbulence type="fractalNoise" baseFrequency="0.21830384433269501 0.21830384433269501" numOctaves="3" seed="3422" />
<feDisplacementMap in="shape" scale="0.71855241060256958" xChannelSelector="R" yChannelSelector="G" result="displacedImage" width="100%" height="100%" />
<feMerge result="effect1_texture_430_26707">
<feMergeNode in="displacedImage"/>
</feMerge>
</filter>
<filter id="filter4_g_430_26707" x="5.26958" y="0.788131" width="22.578" height="28.3417" filterUnits="userSpaceOnUse" color-interpolation-filters="sRGB">
<feFlood flood-opacity="0" result="BackgroundImageFix"/>
<feBlend mode="normal" in="SourceGraphic" in2="BackgroundImageFix" result="shape"/>
<feTurbulence type="fractalNoise" baseFrequency="0.19124399125576019 0.19124399125576019" numOctaves="3" seed="3422" />
<feDisplacementMap in="shape" scale="0.82022297382354736" xChannelSelector="R" yChannelSelector="G" result="displacedImage" width="100%" height="100%" />
<feMerge result="effect1_texture_430_26707">
<feMergeNode in="displacedImage"/>
</feMerge>
</filter>
<filter id="filter5_g_430_26707" x="45.9961" y="0.788131" width="22.578" height="28.3417" filterUnits="userSpaceOnUse" color-interpolation-filters="sRGB">
<feFlood flood-opacity="0" result="BackgroundImageFix"/>
<feBlend mode="normal" in="SourceGraphic" in2="BackgroundImageFix" result="shape"/>
<feTurbulence type="fractalNoise" baseFrequency="0.19124399125576019 0.19124399125576019" numOctaves="3" seed="3422" />
<feDisplacementMap in="shape" scale="0.82022297382354736" xChannelSelector="R" yChannelSelector="G" result="displacedImage" width="100%" height="100%" />
<feMerge result="effect1_texture_430_26707">
<feMergeNode in="displacedImage"/>
</feMerge>
</filter>
<filter id="filter6_g_430_26707" x="63.1" y="50.2807" width="5.55383" height="7.56165" filterUnits="userSpaceOnUse" color-interpolation-filters="sRGB">
<feFlood flood-opacity="0" result="BackgroundImageFix"/>
<feBlend mode="normal" in="SourceGraphic" in2="BackgroundImageFix" result="shape"/>
<feTurbulence type="fractalNoise" baseFrequency="0.20830270648002625 0.20830270648002625" numOctaves="3" seed="3422" />
<feDisplacementMap in="shape" scale="0.75305193662643433" xChannelSelector="R" yChannelSelector="G" result="displacedImage" width="100%" height="100%" />
<feMerge result="effect1_texture_430_26707">
<feMergeNode in="displacedImage"/>
</feMerge>
</filter>
<filter id="filter7_g_430_26707" x="54.518" y="50.2807" width="4.99524" height="7.39758" filterUnits="userSpaceOnUse" color-interpolation-filters="sRGB">
<feFlood flood-opacity="0" result="BackgroundImageFix"/>
<feBlend mode="normal" in="SourceGraphic" in2="BackgroundImageFix" result="shape"/>
<feTurbulence type="fractalNoise" baseFrequency="0.20830270648002625 0.20830270648002625" numOctaves="3" seed="3422" />
<feDisplacementMap in="shape" scale="0.75305193662643433" xChannelSelector="R" yChannelSelector="G" result="displacedImage" width="100%" height="100%" />
<feMerge result="effect1_texture_430_26707">
<feMergeNode in="displacedImage"/>
</feMerge>
</filter>
<filter id="filter8_g_430_26707" x="46.3032" y="45.0903" width="29.3468" height="13.4337" filterUnits="userSpaceOnUse" color-interpolation-filters="sRGB">
<feFlood flood-opacity="0" result="BackgroundImageFix"/>
<feBlend mode="normal" in="SourceGraphic" in2="BackgroundImageFix" result="shape"/>
<feTurbulence type="fractalNoise" baseFrequency="0.20830270648002625 0.20830270648002625" numOctaves="3" seed="3422" />
<feDisplacementMap in="shape" scale="0.75305193662643433" xChannelSelector="R" yChannelSelector="G" result="displacedImage" width="100%" height="100%" />
<feMerge result="effect1_texture_430_26707">
<feMergeNode in="displacedImage"/>
</feMerge>
</filter>
<filter id="filter9_g_430_26707" x="17.143" y="50.7319" width="5.55383" height="7.56165" filterUnits="userSpaceOnUse" color-interpolation-filters="sRGB">
<feFlood flood-opacity="0" result="BackgroundImageFix"/>
<feBlend mode="normal" in="SourceGraphic" in2="BackgroundImageFix" result="shape"/>
<feTurbulence type="fractalNoise" baseFrequency="0.20830270648002625 0.20830270648002625" numOctaves="3" seed="3422" />
<feDisplacementMap in="shape" scale="0.75305193662643433" xChannelSelector="R" yChannelSelector="G" result="displacedImage" width="100%" height="100%" />
<feMerge result="effect1_texture_430_26707">
<feMergeNode in="displacedImage"/>
</feMerge>
</filter>
<filter id="filter10_g_430_26707" x="8.56488" y="50.7328" width="4.99524" height="7.39758" filterUnits="userSpaceOnUse" color-interpolation-filters="sRGB">
<feFlood flood-opacity="0" result="BackgroundImageFix"/>
<feBlend mode="normal" in="SourceGraphic" in2="BackgroundImageFix" result="shape"/>
<feTurbulence type="fractalNoise" baseFrequency="0.20830270648002625 0.20830270648002625" numOctaves="3" seed="3422" />
<feDisplacementMap in="shape" scale="0.75305193662643433" xChannelSelector="R" yChannelSelector="G" result="displacedImage" width="100%" height="100%" />
<feMerge result="effect1_texture_430_26707">
<feMergeNode in="displacedImage"/>
</feMerge>
</filter>
<filter id="filter11_g_430_26707" x="0.350037" y="45.5414" width="29.3468" height="13.4337" filterUnits="userSpaceOnUse" color-interpolation-filters="sRGB">
<feFlood flood-opacity="0" result="BackgroundImageFix"/>
<feBlend mode="normal" in="SourceGraphic" in2="BackgroundImageFix" result="shape"/>
<feTurbulence type="fractalNoise" baseFrequency="0.20830270648002625 0.20830270648002625" numOctaves="3" seed="3422" />
<feDisplacementMap in="shape" scale="0.75305193662643433" xChannelSelector="R" yChannelSelector="G" result="displacedImage" width="100%" height="100%" />
<feMerge result="effect1_texture_430_26707">
<feMergeNode in="displacedImage"/>
</feMerge>
</filter>
</defs>
</svg>
