<svg width="120" height="102" viewBox="0 0 120 102" fill="none" xmlns="http://www.w3.org/2000/svg">
<path d="M40.8045 6.77211C40.8001 7.08815 40.8582 7.4799 40.6903 7.76411C40.45 8.17451 39.1892 9.46389 38.7766 9.82601C37.2348 11.179 35.0368 11.9889 33.0518 12.4827C28.4846 13.6184 23.72 14.6784 20.1361 17.9364C19.8387 18.2064 19.5238 18.6563 19.1375 18.912L23.0539 17.323C24.1831 17.2747 23.7441 17.7949 23.9493 18.3172C23.9823 18.4006 24.1644 18.3315 24.1666 18.4324C24.1688 18.5476 23.3689 19.3685 23.213 19.5122C22.1815 20.4647 21.2674 21.032 20.4005 22.2073C18.9784 24.1375 16.5401 28.4061 16.3832 30.7522C16.2493 32.7724 17.1843 34.6258 17.6418 36.5473C18.0237 38.1472 18.4561 40.0445 18.7666 41.6499C19.6445 46.1841 20.1953 51.9034 16.9801 55.6267C14.0876 58.9758 10.4477 59.2161 6.88573 61.447C4.85127 62.721 3.03298 66.0174 2.51833 68.3262C2.47882 68.5051 2.42067 68.6466 2.67305 68.6005C3.00555 68.2088 3.41266 67.3957 3.90317 67.197C4.24883 67.0577 5.30996 66.9008 5.46797 67.3649C5.77962 68.2757 4.49683 68.8562 4.29711 69.8636C3.81319 72.3106 4.76238 75.313 5.90691 77.4495C6.99766 79.485 8.09719 81.3571 10.2908 82.5181C10.7659 82.7705 11.3157 82.8999 11.7733 83.1896C11.8753 82.6882 11.2872 82.2657 11.161 81.7587C11.1017 81.5228 11.1226 80.939 11.3157 80.7909C11.7107 80.5835 12.1299 80.5066 12.5403 80.7481C13.0495 81.0476 13.9976 83.0931 14.4387 83.7559C14.9599 84.5394 16.3031 85.7914 16.1308 86.7088C15.3956 90.6219 13.6431 93.9106 15.9256 97.9368C15.9969 98.0619 16.7058 99.1636 16.8583 98.977C17.0438 97.6109 17.8975 96.2897 18.4769 95.0332C19.2099 94.7106 19.5743 94.6678 19.6214 95.5676C19.6763 96.6233 18.3222 98.7279 17.9974 99.9361C17.8207 100.592 18.0051 101.671 17.373 101.822C16.6169 102.004 16.3777 101.718 15.975 101.119C15.2529 100.043 14.2324 97.9532 13.946 96.688C13.2668 93.6901 13.7825 90.3443 15.3012 87.6767C15.2881 87.4265 13.2788 87.1752 12.9343 87.0556C11.7316 86.6375 10.5761 84.9267 9.24172 84.287C7.97978 83.6812 7.73617 83.8996 6.68931 82.6574C4.74154 80.3464 3.67053 77.5054 3.00664 74.6106C2.69719 73.2642 3.11418 71.864 3.21294 70.5176C2.22863 71.0311 2.00368 73.1885 0.872321 73.2642C-0.181124 73.3344 -0.0187176 72.2898 0.0559014 71.5809C0.488253 67.4769 1.36064 64.4427 3.91304 61.2352C6.89342 57.4889 15.039 57.0818 16.7058 52.2458C18.1027 48.1955 17.024 42.6836 16.201 38.5203C15.6162 35.5608 14.442 32.8942 14.8392 29.8107C15.2683 26.4781 18.5548 21.528 21.3695 19.7119C21.5637 19.5868 21.7777 19.4881 22.0071 19.4497L21.8414 19.2236C20.8362 19.8612 19.5655 20.2705 18.5504 20.84C17.9282 21.1889 17.8021 21.7716 16.9209 21.6037C15.8718 21.404 17.0976 19.3268 17.4081 18.8604C20.2085 14.6576 26.5786 12.6363 31.296 11.3272C32.2551 11.0616 34.5771 10.7609 35.3309 10.3352C35.6459 10.1574 35.6931 9.80735 35.8972 9.7053C36.9363 9.18516 37.6836 8.76707 38.68 8.08673C39.0893 7.8069 39.9233 7.02889 40.3271 6.83576C40.4851 6.76004 40.6344 6.76004 40.8034 6.77321L40.8045 6.77211Z" fill="black"/>
<path d="M106.718 48.4348C108.652 50.7908 111.497 52.1613 113.937 53.8425C116.499 55.6081 120.23 61.5853 119.987 64.7138C119.836 66.6583 119.614 69.4247 119.251 71.3307C119.023 72.5301 118.552 72.3008 117.501 72.1976C117.079 71.9211 117.187 70.387 117.127 69.8801C116.953 68.4305 116.833 66.9194 116.165 65.6037C116.076 65.4282 116.165 65.314 115.864 65.3722C115.941 65.8331 116.069 66.2753 116.096 66.745C116.525 74.084 113.004 77.3178 108.021 81.8751C106.932 82.8703 105.371 84.7545 103.801 84.1202C102.733 82.1955 104.812 81.7456 105.988 80.7997C108.314 78.9276 111.434 75.1692 112.569 72.4259C114.212 68.4623 114.279 66.0481 113.9 61.8662C113.868 61.4986 113.494 61.018 114.006 60.9477L114.967 62.5005C115.075 62.0374 115.305 61.8497 115.788 61.8146C116.182 61.8552 117.126 63.6318 117.471 64.0686C117.57 64.1936 117.468 64.3703 117.78 64.2935C117.375 63.6966 117.585 62.9471 117.325 62.2953C116.817 61.0201 115.079 58.5478 114.114 57.4856C112.203 55.3765 109.905 54.7642 107.841 52.9942C104.026 49.7209 102.339 45.0912 102.581 40.0709C102.665 38.3393 103.043 35.822 103.835 34.278C103.905 34.1408 103.945 33.9466 104.131 33.917C104.237 34.695 103.916 35.4906 103.888 36.2433C103.749 40.0851 104.215 45.3798 106.719 48.4315L106.718 48.4348Z" fill="black"/>
<path d="M83.6962 8.76845C84.8977 9.62657 87.1363 10.9181 88.565 11.1343C89.9938 11.3505 92.5681 11.4503 93.9672 11.2495C94.5313 11.1683 95.1008 10.9039 95.7065 10.8545C99.5702 10.5385 104.679 13.7657 107.472 16.2907C109.216 17.8687 110.3 19.3578 110.989 21.6271C111.159 22.1889 111.798 24.4768 111.543 24.8697C110.728 26.1229 109.237 24.298 108.323 23.9929C108.767 25.008 108.838 25.9692 108.98 27.049C109.151 28.3603 109.405 30.1358 109.285 31.4724C109.234 32.0386 109.119 32.3075 108.503 32.3667C107.278 32.4852 107.619 31.2134 107.21 30.3048C106.995 29.8275 106.67 29.168 106.428 28.695C105.888 27.6405 104.837 26.4905 104.961 25.245C105.11 23.7548 106.948 25.8573 107.186 26.3829C107.253 25.1495 106.804 23.114 106.101 22.0857C105.766 21.5974 103.389 19.4587 104.491 18.9079C105.172 18.5677 105.901 19.7769 106.468 20.0447C106.548 20.0699 106.555 19.9394 106.526 19.868C106.376 19.5004 105.22 17.9455 104.902 17.5439C103.354 15.5884 102.489 15.3942 100.377 14.411C99.8457 14.1641 99.0611 13.4574 98.6606 13.3751C96.1762 12.867 94.0671 13.8831 91.7396 13.7109C89.6141 13.5539 86.9509 13.0426 85.1106 11.9617C83.7313 11.1519 80.606 8.59617 79.9882 7.15317C79.8895 6.92383 79.5098 5.72443 80.0124 5.81003C81.1405 6.68351 82.2652 7.55479 83.4207 8.39206C83.5732 8.5029 83.6215 8.71139 83.6994 8.76735L83.6962 8.76845ZM107.568 19.2447C107.53 19.2041 107.258 19.079 107.244 19.09L107.001 19.687H107.364C107.134 20.1632 107.586 20.2082 107.771 20.5352C107.91 20.7832 108.17 21.6666 108.223 21.7028C108.368 21.8026 108.717 21.671 108.678 22.1143L109.037 22.1988C108.903 21.9233 108.886 21.615 108.767 21.3341C108.595 20.9259 107.836 19.5388 107.567 19.2447H107.568ZM107.601 21.0038V20.8271L107.243 20.5264C107.214 20.747 107.235 20.8776 107.423 21.0038H107.599H107.601Z" fill="black"/>
<path d="M65.8807 43.1983C66.4447 43.8359 66.64 43.6581 66.4974 44.7236C66.166 47.1992 62.9815 51.9145 60.4675 52.5421C59.5435 52.7726 58.0643 52.6892 57.3214 52.0439C56.9396 51.7115 55.5657 50.1137 55.2694 49.6682C54.115 47.93 52.694 44.6918 54.3312 42.9448C56.2011 40.9499 60.8121 40.7754 63.3129 41.3932C64.5277 41.6928 65.095 42.3116 65.8796 43.1972L65.8807 43.1983Z" fill="black"/>
<path d="M90.8167 50.8084C90.9023 50.8929 91.0548 51.5316 91.0702 51.6929C91.1865 52.9515 90.0431 55.1868 89.8192 56.5157C89.4066 58.9616 89.2442 59.5334 88.1524 61.7862C87.6739 62.7727 87.1845 63.7669 86.7006 64.7611C85.3004 67.6372 82.4934 70.5693 81.5914 73.6495C80.4842 77.4342 80.8002 82.0299 83.0103 85.3362C84.619 87.7437 86.6578 89.1121 88.5749 91.1378C89.4012 92.0113 88.3181 91.7622 87.742 91.4911C87.2965 91.2826 85.713 90.1699 85.2269 89.8177C80.4765 86.3874 78.8371 81.4384 79.1454 75.718C79.422 70.5945 81.8043 68.1365 84.236 63.9721C84.6113 63.329 84.8757 62.3678 85.3992 61.8992C85.5155 61.795 85.7141 61.8268 85.8238 61.7006C86.1706 61.3023 87.4446 58.075 87.6904 57.376C88.148 56.0724 88.6045 54.3188 88.8986 52.9625C89.1927 51.6062 88.746 49.9613 90.8178 50.8062L90.8167 50.8084Z" fill="black"/>
<path d="M24.548 86.7511C24.1837 85.8173 24.7631 84.8966 24.8684 83.954C24.8827 83.8234 24.9749 83.5228 24.7642 83.5513C24.413 84.1779 24.1453 84.8714 23.7601 85.4793C23.4748 85.9292 22.4554 87.3316 22.0702 87.618C21.5676 87.9922 20.3233 88.2666 20.5723 87.3766L20.332 87.4359C20.5098 87.0123 20.2486 86.6195 20.5691 86.2365C20.7754 85.9907 21.1144 85.9995 21.3526 85.8239C22.3248 85.1095 23.33 83.6237 23.9741 82.5834C24.5019 81.7308 24.943 81.1525 25.0188 80.0991L26.1194 80.1013L26.5594 80.9188C26.7679 81.0768 27.3879 78.8591 27.4384 78.6561C27.9772 76.4932 27.795 74.2623 27.3155 72.0885C25.9899 66.0828 22.0856 64.6178 24.0147 57.5071C24.1661 56.9496 24.5798 55.5384 24.83 55.0951C25.4248 54.0428 27.2156 53.087 27.7972 51.9008L30.1477 49.9453C30.1773 50.1538 30.1269 50.3173 30.0544 50.5082C29.914 50.8781 29.2688 52.1433 29.0548 52.4999C28.3843 53.6192 26.4398 55.218 25.9855 56.131C25.7803 56.5425 24.8772 60.1923 24.8717 60.6498C24.8421 63.1617 26.5265 65.071 27.6162 67.1252C29.0153 69.761 29.7691 72.9697 29.7955 75.9533C29.8218 78.9381 28.2976 82.1544 26.9501 84.7221C26.3542 85.859 26.3257 87.4699 24.5458 86.7522L24.548 86.7511Z" fill="black"/>
<path d="M73.5616 60.7859C72.6497 61.61 69.3731 63.482 68.2198 63.7618C66.8591 64.091 65.0945 63.6411 63.9434 62.884C63.1347 62.3529 63.2741 61.8821 62.8779 61.1974C62.6321 60.7716 62.2919 60.4435 62.0538 59.9881C61.8289 59.5568 60.5033 56.2187 60.6756 56.0443C60.8588 56.0026 60.9565 56.0849 61.1024 56.1551C61.4645 56.3307 63.2126 58.1358 63.6098 58.5539C64.9343 59.9475 65.6224 61.7954 68.0222 61.2906C68.2988 61.2325 69.7736 60.6959 70.0413 60.5565C71.1277 59.9881 71.909 58.5133 72.7101 57.7166C72.8472 57.5805 73.0755 57.6694 73.1644 57.4499C73.2159 57.3238 73.3729 55.32 73.3652 55.0325C73.3542 54.6495 73.2061 53.7366 73.0974 53.3799C72.9745 52.9783 72.6706 52.7281 72.6069 52.1959C72.552 51.7328 72.6069 50.8637 73.1918 50.7781C73.2434 50.7704 74.1706 50.7957 74.2343 50.8078C74.8828 50.9285 75.6037 52.9904 75.5774 53.651C76.0558 53.1539 76.0174 51.5715 75.7519 50.9965C75.6937 50.8692 75.5269 50.8549 75.4765 50.7683C75.1023 50.1307 74.7226 49.7071 75.2361 48.9774C75.8594 48.8271 76.2578 48.6252 76.7164 49.1661C78.0256 50.7079 77.7414 53.1363 76.6945 54.7691C76.4267 55.1861 75.8035 55.4703 75.6619 55.7765C75.4644 56.2067 75.4808 57.4785 75.3689 57.9898C75.189 58.8074 74.164 60.2394 73.5594 60.7859H73.5616Z" fill="black"/>
<path d="M43.1671 49.494C43.7706 50.091 42.6667 51.1971 42.5317 51.6108C42.2727 52.4031 43.2472 54.4562 43.8551 55.0861C43.9802 54.1479 43.9528 52.2999 44.3961 51.4714C44.4685 51.3365 44.6704 51.3189 44.7363 51.1883C45.1939 50.2885 45.1895 49.3931 46.6083 50.1821C46.8914 51.0896 46.2385 51.8862 46.041 52.7235C45.77 53.8746 45.8577 55.7664 46.0629 56.9351C46.221 57.8349 46.8289 59.0979 47.2448 59.9517C47.5718 60.6222 48.0568 61.2037 48.3663 61.8808C48.9314 61.8797 49.4702 62.2638 50.0397 62.1957C50.5785 62.131 52.6448 61.0534 53.0903 60.6638C54.3533 59.561 55.984 56.9998 57.2141 56.1187C57.3436 56.0265 57.4895 55.8487 57.6256 56.0386C57.8977 56.5137 57.2119 57.9128 57.0232 58.433C56.8717 58.8489 56.9387 59.1265 56.6501 59.6148C55.1994 62.0673 50.3821 66.1143 47.4621 64.0349C45.4133 62.5754 44.7714 59.1561 44.0087 56.9066C41.5244 56.2284 40.0386 52.3021 41.419 50.1393C41.746 49.6268 42.614 48.9443 43.1682 49.4929L43.1671 49.494Z" fill="black"/>
<path d="M42.5715 83.5804C42.8492 84.0863 42.6088 84.7776 42.746 85.2593C42.8162 85.5073 43.2738 85.763 43.2859 86.0955C43.366 88.1772 42.1326 91.0664 41.077 92.8463C40.221 94.2904 37.5787 96.394 36.0961 97.2039C32.2489 99.3075 28.4729 100.855 24.0397 99.5214C23.0609 99.2274 20.4119 97.2752 20.0399 96.3413C19.9159 96.0297 19.985 95.7082 19.9763 95.3889L20.3274 95.3943C20.3899 95.6072 20.3878 95.8135 20.5414 95.9935C20.9386 96.4555 23.5075 97.7075 24.1648 97.8403C27.1945 98.4515 29.6317 97.8403 32.386 96.6069C36.1027 94.9422 39.4233 92.7509 40.5327 88.6007C40.7094 87.9423 40.7181 87.0754 40.8729 86.4851C41.1505 85.4261 41.1626 85.8058 41.1867 84.5658C41.2032 83.7242 41.7145 83.0976 42.5715 83.5804Z" fill="black"/>
<path d="M52.6197 0.592713C53.3187 1.01958 54.5378 2.8247 54.9537 3.58186C56.8258 6.99678 58.1953 12.0215 58.2896 15.9159C58.339 17.9735 58.1591 19.9048 57.4447 21.8416C57.2768 22.0128 57.2263 21.8328 57.2066 21.6649C57.1506 21.2051 57.2735 20.6981 57.0859 20.223C57.2066 15.0853 55.847 8.56268 53.2792 4.0592C52.8831 3.36459 51.642 1.45632 50.7114 1.64725C48.9568 2.00718 47.9604 6.01576 47.1736 7.45217C46.1498 9.32204 44.4412 11.249 42.5933 12.3233C41.7934 12.7885 41.3928 13.0332 40.4425 12.6942C39.8599 12.4868 40.1912 11.4794 40.4842 11.114C42.3047 10.3107 43.7214 8.91163 44.9954 7.42693C45.3268 7.04067 45.5583 6.47774 45.8766 6.09477C46.1103 5.81385 46.8323 5.47806 46.8927 5.01279C46.9168 4.82954 46.795 4.69017 46.7939 4.57056C46.7939 4.53216 47.2043 4.25124 47.3207 4.00982C47.4216 3.80023 47.4139 3.1967 47.4666 3.06172C47.5368 2.88286 48.7406 1.1348 48.8844 1.03384C49.0281 0.932888 50.5699 0.224007 50.6884 0.200963C51.1668 0.109884 52.2071 0.340325 52.6208 0.592713H52.6197Z" fill="black"/>
<path d="M40.069 43.2653C40.2303 43.634 40.26 44.0828 40.1788 44.4779C40.1195 44.761 39.3327 46.4772 39.1528 46.8009C38.3572 48.2308 36.7595 49.4334 36.2876 50.8753C35.0575 54.6359 35.0652 58.4788 36.8824 62.0561C38.0883 64.4308 39.866 67.624 40.6023 70.1797C40.7439 70.6724 41.2915 72.3173 40.5047 72.4347C40.2731 72.4699 40.3368 72.3151 40.2523 72.2076C39.7936 71.6216 39.4205 70.5824 39.0551 69.9306C35.3658 63.3389 31.4077 57.8116 34.4869 49.913C35.1113 48.3109 35.9617 47.6766 36.8527 46.4169C37.6966 45.223 38.1399 42.9723 40.069 43.2653Z" fill="black"/>
<path d="M84.7829 46.9251C84.8026 46.9624 84.9563 46.9954 85.0144 47.1018C86.1721 49.2164 86.3422 50.3521 86.2676 52.7564C86.2577 53.09 86.1458 55.018 86.0503 55.0882C85.0024 54.0381 85.0671 52.2143 84.7028 50.8745C84.2145 49.0803 82.8044 47.8436 82.0099 46.2689C81.7564 45.7663 81.6434 45.0289 81.4448 44.5615C80.9532 43.406 80.185 42.3668 79.7889 41.073C78.3262 36.2908 79.1283 28.6226 80.9422 23.9721C81.1737 23.3785 81.3252 22.7771 82.0725 23.125C82.8198 23.4728 82.3435 25.6017 82.1855 26.2897C81.7839 28.0465 81.1617 29.7573 80.9159 31.5986C80.5439 34.3815 81.0026 39.0111 82.1603 41.5734C82.4115 42.1309 83.0063 42.8595 83.2675 43.4575C83.7964 44.6701 84.1311 45.7301 84.7829 46.9229V46.9251Z" fill="black"/>
<path d="M77.1182 8.16785C77.5242 8.76151 78.0674 9.71729 78.5799 10.2341C78.8827 10.5392 79.6355 10.965 79.9395 11.2656C80.3126 11.6343 80.3971 12.6077 79.9921 12.9764C79.0846 13.1421 78.5426 12.9939 77.8534 12.3937C76.2568 11.0045 73.8339 6.58549 73.1217 4.56419C72.8792 3.87616 72.5895 1.63649 72.2932 1.32594C72.2065 1.23596 72.1297 1.15147 71.9914 1.15476C71.5404 1.14927 70.1622 2.15882 69.8154 2.50997C66.7495 5.60886 64.0654 13.5492 63.5672 17.853C63.3817 19.4529 63.6506 21.4303 63.43 22.8601C63.4125 22.972 63.3356 23.2036 63.1886 23.1004C63.0383 22.9139 62.9318 22.6966 62.8649 22.4662C61.2924 17.0629 64.3595 7.14184 67.7843 2.75139C68.3977 1.96569 70.6966 -0.0819398 71.705 0.139722C71.7709 0.153988 72.8781 0.649985 72.933 0.688392C73.4191 1.02857 73.6934 2.59776 74.061 3.26933C74.9104 4.82097 76.1152 6.7018 77.1193 8.17004L77.1182 8.16785Z" fill="black"/>
<path d="M50.4379 12.8175C51.8908 12.778 53.494 13.9489 53.8023 15.3809C54.1414 16.9589 54.1063 20.2607 53.4611 21.7476C52.7467 23.3915 50.2569 24.4482 49.0114 22.7868C47.699 21.0366 47.4356 18.6224 47.9009 16.5517C48.207 15.1921 48.7502 12.8625 50.4379 12.8164V12.8175Z" fill="black"/>
<path d="M68.6683 13.7296C69.6274 13.5902 71.0386 14.828 71.5488 15.5819C72.8766 17.545 72.8602 20.3707 71.7551 22.4424C70.9058 24.0347 69.0612 24.3847 67.627 23.3269C66.8533 22.7563 65.9305 21.1827 65.8229 20.2258C65.6353 18.5623 66.6448 14.0248 68.6683 13.7296Z" fill="black"/>
<path d="M98.6014 78.501C98.2053 78.9717 96.0666 78.5383 95.485 78.377C92.8953 77.6571 90.4449 75.886 90.8048 72.9254C91.3535 68.4143 95.1086 66.0144 97.1288 62.2637C97.3658 63.0285 97.0454 63.7253 96.7667 64.4134C95.9349 66.4643 94.5457 68.0401 93.5767 69.956C92.9545 71.1872 92.1184 73.2744 92.9995 74.5198C93.4297 75.1289 95.0065 76.01 95.7308 76.2163C96.7491 76.5071 98.2986 76.1604 98.7441 77.4004C98.8044 77.5693 98.6936 78.3902 98.6014 78.4999V78.501Z" fill="black"/>
<path d="M93.134 96.928C93.0166 96.7392 93.1307 96.0688 93.3008 95.8724C93.6442 95.4751 94.3696 95.8581 94.8952 94.9539C95.299 94.2593 95.9684 92.8097 96.2888 92.0415C96.4896 91.5609 96.8079 89.3333 97.6726 90.3012C98.7962 91.5576 95.7555 95.3818 95.9903 95.6287C96.3678 95.6518 96.3755 95.2041 96.5961 94.9791C96.8386 94.7322 97.4114 94.4634 97.7219 94.1901C98.1872 93.7808 98.8061 92.8645 99.0859 92.3236C99.7795 90.9815 100.065 89.4793 100.528 88.0516C101.332 87.9386 101.259 87.5293 101.375 86.8369L101.438 85.3467C101.98 85.9063 102.111 86.7063 102.201 87.4525C102.501 89.9489 101.414 92.8294 99.8738 94.7849C99.6247 95.1009 98.0654 96.6844 97.7933 96.7722C97.103 96.9949 96.2921 96.782 95.5734 96.8281C95.1432 96.8556 93.3787 97.3197 93.1351 96.928H93.134Z" fill="black"/>
<path d="M33.2607 28.1798L32.0964 28.2599C31.6399 27.8221 31.6114 27.0463 32.2182 26.7204C32.6385 26.4943 33.3562 26.3133 33.7051 25.8743C33.8467 25.6966 33.8006 25.4036 33.9817 25.251C34.1627 25.0985 35.2568 24.7858 35.3522 25.1962L35.6562 26.3264C36.1785 25.4793 36.8753 24.4116 37.0641 23.4262C37.1091 23.1902 37.1288 21.3599 37.3922 21.3643L38.0199 23.3658C38.0703 23.7345 38.0791 24.1482 38.0374 24.518C37.8443 26.2375 35.7999 29.681 34.5193 30.8091C33.9948 31.271 33.0665 31.925 32.4915 31.1613C31.7167 30.132 33.287 29.1641 33.2618 28.1787L33.2607 28.1798Z" fill="black"/>
<path d="M107.569 19.2443C107.838 19.5384 108.596 20.9254 108.77 21.3336C108.889 21.6145 108.906 21.9229 109.039 22.1983L108.681 22.1138C108.719 21.6694 108.369 21.8011 108.225 21.7023C108.173 21.6661 107.913 20.7827 107.773 20.5347C107.589 20.2066 107.137 20.1627 107.366 19.6876H107.004L107.246 19.0895C107.261 19.0786 107.533 19.2037 107.57 19.2443H107.569Z" fill="white"/>
<path d="M107.602 21.0037H107.425C107.238 20.8775 107.216 20.7458 107.245 20.5264L107.602 20.827V21.0037Z" fill="white"/>
</svg>
