<svg width="120" height="120" viewBox="0 0 120 120" fill="none" xmlns="http://www.w3.org/2000/svg">
<rect width="120" height="120" rx="60" fill="#E2E3BE"/>
<path d="M40.8045 15.7721C40.8001 16.0881 40.8582 16.4799 40.6903 16.7641C40.45 17.1745 39.1892 18.4639 38.7766 18.826C37.2348 20.179 35.0368 20.9889 33.0518 21.4827C28.4846 22.6184 23.72 23.6784 20.1361 26.9364C19.8387 27.2064 19.5238 27.6563 19.1375 27.912L23.0539 26.323C24.1831 26.2747 23.7441 26.7949 23.9493 27.3172C23.9823 27.4006 24.1644 27.3315 24.1666 27.4324C24.1688 27.5476 23.3689 28.3685 23.213 28.5122C22.1815 29.4647 21.2674 30.032 20.4005 31.2073C18.9784 33.1375 16.5401 37.4061 16.3832 39.7522C16.2493 41.7724 17.1843 43.6258 17.6418 45.5473C18.0237 47.1472 18.4561 49.0445 18.7666 50.6499C19.6445 55.1841 20.1953 60.9034 16.9801 64.6267C14.0876 67.9758 10.4477 68.2161 6.88573 70.447C4.85127 71.721 3.03298 75.0174 2.51833 77.3262C2.47882 77.5051 2.42067 77.6466 2.67305 77.6005C3.00555 77.2088 3.41266 76.3957 3.90317 76.197C4.24883 76.0577 5.30996 75.9008 5.46797 76.3649C5.77962 77.2757 4.49683 77.8562 4.29711 78.8636C3.81319 81.3106 4.76238 84.313 5.90691 86.4495C6.99766 88.485 8.09719 90.3571 10.2908 91.5181C10.7659 91.7705 11.3157 91.8999 11.7733 92.1896C11.8753 91.6882 11.2872 91.2657 11.161 90.7587C11.1017 90.5228 11.1226 89.939 11.3157 89.7909C11.7107 89.5835 12.1299 89.5066 12.5403 89.7481C13.0495 90.0476 13.9976 92.0931 14.4387 92.7559C14.9599 93.5394 16.3031 94.7914 16.1308 95.7088C15.3956 99.6219 13.6431 102.911 15.9256 106.937C15.9969 107.062 16.7058 108.164 16.8583 107.977C17.0438 106.611 17.8975 105.29 18.4769 104.033C19.2099 103.711 19.5743 103.668 19.6214 104.568C19.6763 105.623 18.3222 107.728 17.9974 108.936C17.8207 109.592 18.0051 110.671 17.373 110.822C16.6169 111.004 16.3777 110.718 15.975 110.119C15.2529 109.043 14.2324 106.953 13.946 105.688C13.2668 102.69 13.7825 99.3443 15.3012 96.6767C15.2881 96.4265 13.2788 96.1752 12.9343 96.0556C11.7316 95.6375 10.5761 93.9267 9.24172 93.287C7.97978 92.6812 7.73617 92.8996 6.68931 91.6574C4.74154 89.3464 3.67053 86.5054 3.00664 83.6106C2.69719 82.2642 3.11418 80.864 3.21294 79.5176C2.22863 80.0311 2.00368 82.1885 0.872321 82.2642C-0.181124 82.3344 -0.0187176 81.2898 0.0559014 80.5809C0.488253 76.4769 1.36064 73.4427 3.91304 70.2352C6.89342 66.4889 15.039 66.0818 16.7058 61.2458C18.1027 57.1955 17.024 51.6836 16.201 47.5203C15.6162 44.5608 14.442 41.8942 14.8392 38.8107C15.2683 35.4781 18.5548 30.528 21.3695 28.7119C21.5637 28.5868 21.7777 28.4881 22.0071 28.4497L21.8414 28.2236C20.8362 28.8612 19.5655 29.2705 18.5504 29.84C17.9282 30.1889 17.8021 30.7716 16.9209 30.6037C15.8718 30.404 17.0976 28.3268 17.4081 27.8604C20.2085 23.6576 26.5786 21.6363 31.296 20.3272C32.2551 20.0616 34.5771 19.7609 35.3309 19.3352C35.6459 19.1574 35.6931 18.8074 35.8972 18.7053C36.9363 18.1852 37.6836 17.7671 38.68 17.0867C39.0893 16.8069 39.9233 16.0289 40.3271 15.8358C40.4851 15.76 40.6344 15.76 40.8034 15.7732L40.8045 15.7721Z" fill="black"/>
<path d="M106.718 57.4348C108.652 59.7908 111.497 61.1613 113.937 62.8425C116.499 64.6081 120.23 70.5853 119.987 73.7138C119.836 75.6583 119.614 78.4247 119.251 80.3307C119.023 81.5301 118.552 81.3008 117.501 81.1976C117.079 80.9211 117.187 79.387 117.127 78.8801C116.953 77.4305 116.833 75.9194 116.165 74.6037C116.076 74.4282 116.165 74.314 115.864 74.3722C115.941 74.8331 116.069 75.2753 116.096 75.745C116.525 83.084 113.004 86.3178 108.021 90.8751C106.932 91.8703 105.371 93.7545 103.801 93.1202C102.733 91.1955 104.812 90.7456 105.988 89.7997C108.314 87.9276 111.434 84.1692 112.569 81.4259C114.212 77.4623 114.279 75.0481 113.9 70.8662C113.868 70.4986 113.494 70.018 114.006 69.9477L114.967 71.5005C115.075 71.0374 115.305 70.8497 115.788 70.8146C116.182 70.8552 117.126 72.6318 117.471 73.0686C117.57 73.1936 117.468 73.3703 117.78 73.2935C117.375 72.6966 117.585 71.9471 117.325 71.2953C116.817 70.0201 115.079 67.5478 114.114 66.4856C112.203 64.3765 109.905 63.7642 107.841 61.9942C104.026 58.7209 102.339 54.0912 102.581 49.0709C102.665 47.3393 103.043 44.822 103.835 43.278C103.905 43.1408 103.945 42.9466 104.131 42.917C104.237 43.695 103.916 44.4906 103.888 45.2433C103.749 49.0851 104.215 54.3798 106.719 57.4315L106.718 57.4348Z" fill="black"/>
<path d="M83.6962 17.7685C84.8977 18.6266 87.1363 19.9181 88.565 20.1343C89.9938 20.3505 92.5681 20.4503 93.9672 20.2495C94.5313 20.1683 95.1008 19.9039 95.7065 19.8545C99.5702 19.5385 104.679 22.7657 107.472 25.2907C109.216 26.8687 110.3 28.3578 110.989 30.6271C111.159 31.1889 111.798 33.4768 111.543 33.8697C110.728 35.1229 109.237 33.298 108.323 32.9929C108.767 34.008 108.838 34.9692 108.98 36.049C109.151 37.3603 109.405 39.1358 109.285 40.4724C109.234 41.0386 109.119 41.3075 108.503 41.3667C107.278 41.4852 107.619 40.2134 107.21 39.3048C106.995 38.8275 106.67 38.168 106.428 37.695C105.888 36.6405 104.837 35.4905 104.961 34.245C105.11 32.7548 106.948 34.8573 107.186 35.3829C107.253 34.1495 106.804 32.114 106.101 31.0857C105.766 30.5974 103.389 28.4587 104.491 27.9079C105.172 27.5677 105.901 28.7769 106.468 29.0447C106.548 29.0699 106.555 28.9394 106.526 28.868C106.376 28.5004 105.22 26.9455 104.902 26.5439C103.354 24.5884 102.489 24.3942 100.377 23.411C99.8457 23.1641 99.0611 22.4574 98.6606 22.3751C96.1762 21.867 94.0671 22.8831 91.7396 22.7109C89.6141 22.5539 86.9509 22.0426 85.1106 20.9617C83.7313 20.1519 80.606 17.5962 79.9882 16.1532C79.8895 15.9238 79.5098 14.7244 80.0124 14.81C81.1405 15.6835 82.2652 16.5548 83.4207 17.3921C83.5732 17.5029 83.6215 17.7114 83.6994 17.7674L83.6962 17.7685ZM107.568 28.2447C107.53 28.2041 107.258 28.079 107.244 28.09L107.001 28.687H107.364C107.134 29.1632 107.586 29.2082 107.771 29.5352C107.91 29.7832 108.17 30.6666 108.223 30.7028C108.368 30.8026 108.717 30.671 108.678 31.1143L109.037 31.1988C108.903 30.9233 108.886 30.615 108.767 30.3341C108.595 29.9259 107.836 28.5388 107.567 28.2447H107.568ZM107.601 30.0038V29.8271L107.243 29.5264C107.214 29.747 107.235 29.8776 107.423 30.0038H107.599H107.601Z" fill="black"/>
<path d="M65.8807 52.1983C66.4447 52.8359 66.64 52.6581 66.4974 53.7236C66.166 56.1992 62.9815 60.9145 60.4675 61.5421C59.5435 61.7726 58.0643 61.6892 57.3214 61.0439C56.9396 60.7115 55.5657 59.1137 55.2694 58.6682C54.115 56.93 52.694 53.6918 54.3312 51.9448C56.2011 49.9499 60.8121 49.7754 63.3129 50.3932C64.5277 50.6928 65.095 51.3116 65.8796 52.1972L65.8807 52.1983Z" fill="black"/>
<path d="M90.8167 59.8084C90.9023 59.8929 91.0548 60.5316 91.0702 60.6929C91.1865 61.9515 90.0431 64.1868 89.8192 65.5157C89.4066 67.9616 89.2442 68.5334 88.1524 70.7862C87.6739 71.7727 87.1845 72.7669 86.7006 73.7611C85.3004 76.6372 82.4934 79.5693 81.5914 82.6495C80.4842 86.4342 80.8002 91.0299 83.0103 94.3362C84.619 96.7437 86.6578 98.1121 88.5749 100.138C89.4012 101.011 88.3181 100.762 87.742 100.491C87.2965 100.283 85.713 99.1699 85.2269 98.8177C80.4765 95.3874 78.8371 90.4384 79.1454 84.718C79.422 79.5945 81.8043 77.1365 84.236 72.9721C84.6113 72.329 84.8757 71.3678 85.3992 70.8992C85.5155 70.795 85.7141 70.8268 85.8238 70.7006C86.1706 70.3023 87.4446 67.075 87.6904 66.376C88.148 65.0724 88.6045 63.3188 88.8986 61.9625C89.1927 60.6062 88.746 58.9613 90.8178 59.8062L90.8167 59.8084Z" fill="black"/>
<path d="M24.548 95.7511C24.1837 94.8173 24.7631 93.8966 24.8684 92.954C24.8827 92.8234 24.9749 92.5228 24.7642 92.5513C24.413 93.1779 24.1453 93.8714 23.7601 94.4793C23.4748 94.9292 22.4554 96.3316 22.0702 96.618C21.5676 96.9922 20.3233 97.2666 20.5723 96.3766L20.332 96.4359C20.5098 96.0123 20.2486 95.6195 20.5691 95.2365C20.7754 94.9907 21.1144 94.9995 21.3526 94.8239C22.3248 94.1095 23.33 92.6237 23.9741 91.5834C24.5019 90.7308 24.943 90.1525 25.0188 89.0991L26.1194 89.1013L26.5594 89.9188C26.7679 90.0768 27.3879 87.8591 27.4384 87.6561C27.9772 85.4932 27.795 83.2623 27.3155 81.0885C25.9899 75.0828 22.0856 73.6178 24.0147 66.5071C24.1661 65.9496 24.5798 64.5384 24.83 64.0951C25.4248 63.0428 27.2156 62.087 27.7972 60.9008L30.1477 58.9453C30.1773 59.1538 30.1269 59.3173 30.0544 59.5082C29.914 59.8781 29.2688 61.1433 29.0548 61.4999C28.3843 62.6192 26.4398 64.218 25.9855 65.131C25.7803 65.5425 24.8772 69.1923 24.8717 69.6498C24.8421 72.1617 26.5265 74.071 27.6162 76.1252C29.0153 78.761 29.7691 81.9697 29.7955 84.9533C29.8218 87.9381 28.2976 91.1544 26.9501 93.7221C26.3542 94.859 26.3257 96.4699 24.5458 95.7522L24.548 95.7511Z" fill="black"/>
<path d="M73.5616 69.7859C72.6497 70.61 69.3731 72.482 68.2198 72.7618C66.8591 73.091 65.0945 72.6411 63.9434 71.884C63.1347 71.3529 63.2741 70.8821 62.8779 70.1974C62.6321 69.7716 62.2919 69.4435 62.0538 68.9881C61.8289 68.5568 60.5033 65.2187 60.6756 65.0443C60.8588 65.0026 60.9565 65.0849 61.1024 65.1551C61.4645 65.3307 63.2126 67.1358 63.6098 67.5539C64.9343 68.9475 65.6224 70.7954 68.0222 70.2906C68.2988 70.2325 69.7736 69.6959 70.0413 69.5565C71.1277 68.9881 71.909 67.5133 72.7101 66.7166C72.8472 66.5805 73.0755 66.6694 73.1644 66.4499C73.2159 66.3238 73.3729 64.32 73.3652 64.0325C73.3542 63.6495 73.2061 62.7366 73.0974 62.3799C72.9745 61.9783 72.6706 61.7281 72.6069 61.1959C72.552 60.7328 72.6069 59.8637 73.1918 59.7781C73.2434 59.7704 74.1706 59.7957 74.2343 59.8078C74.8828 59.9285 75.6037 61.9904 75.5774 62.651C76.0558 62.1539 76.0174 60.5715 75.7519 59.9965C75.6937 59.8692 75.5269 59.8549 75.4765 59.7683C75.1023 59.1307 74.7226 58.7071 75.2361 57.9774C75.8594 57.8271 76.2578 57.6252 76.7164 58.1661C78.0256 59.7079 77.7414 62.1363 76.6945 63.7691C76.4267 64.1861 75.8035 64.4703 75.6619 64.7765C75.4644 65.2067 75.4808 66.4785 75.3689 66.9898C75.189 67.8074 74.164 69.2394 73.5594 69.7859H73.5616Z" fill="black"/>
<path d="M43.1671 58.494C43.7706 59.091 42.6667 60.1971 42.5317 60.6108C42.2727 61.4031 43.2472 63.4562 43.8551 64.0861C43.9802 63.1479 43.9528 61.2999 44.3961 60.4714C44.4685 60.3365 44.6704 60.3189 44.7363 60.1883C45.1939 59.2885 45.1895 58.3931 46.6083 59.1821C46.8914 60.0896 46.2385 60.8862 46.041 61.7235C45.77 62.8746 45.8577 64.7664 46.0629 65.9351C46.221 66.8349 46.8289 68.0979 47.2448 68.9517C47.5718 69.6222 48.0568 70.2037 48.3663 70.8808C48.9314 70.8797 49.4702 71.2638 50.0397 71.1957C50.5785 71.131 52.6448 70.0534 53.0903 69.6638C54.3533 68.561 55.984 65.9998 57.2141 65.1187C57.3436 65.0265 57.4895 64.8487 57.6256 65.0386C57.8977 65.5137 57.2119 66.9128 57.0232 67.433C56.8717 67.8489 56.9387 68.1265 56.6501 68.6148C55.1994 71.0673 50.3821 75.1143 47.4621 73.0349C45.4133 71.5754 44.7714 68.1561 44.0087 65.9066C41.5244 65.2284 40.0386 61.3021 41.419 59.1393C41.746 58.6268 42.614 57.9443 43.1682 58.4929L43.1671 58.494Z" fill="black"/>
<path d="M42.5715 92.5804C42.8492 93.0863 42.6088 93.7776 42.746 94.2593C42.8162 94.5073 43.2738 94.763 43.2859 95.0955C43.366 97.1772 42.1326 100.066 41.077 101.846C40.221 103.29 37.5787 105.394 36.0961 106.204C32.2489 108.307 28.4729 109.855 24.0397 108.521C23.0609 108.227 20.4119 106.275 20.0399 105.341C19.9159 105.03 19.985 104.708 19.9763 104.389L20.3274 104.394C20.3899 104.607 20.3878 104.814 20.5414 104.993C20.9386 105.455 23.5075 106.708 24.1648 106.84C27.1945 107.452 29.6317 106.84 32.386 105.607C36.1027 103.942 39.4233 101.751 40.5327 97.6007C40.7094 96.9423 40.7181 96.0754 40.8729 95.4851C41.1505 94.4261 41.1626 94.8058 41.1867 93.5658C41.2032 92.7242 41.7145 92.0976 42.5715 92.5804Z" fill="black"/>
<path d="M52.6197 9.59271C53.3187 10.0196 54.5378 11.8247 54.9537 12.5819C56.8258 15.9968 58.1953 21.0215 58.2896 24.9159C58.339 26.9735 58.1591 28.9048 57.4447 30.8416C57.2768 31.0128 57.2263 30.8328 57.2066 30.6649C57.1506 30.2051 57.2735 29.6981 57.0859 29.223C57.2066 24.0853 55.847 17.5627 53.2792 13.0592C52.8831 12.3646 51.642 10.4563 50.7114 10.6473C48.9568 11.0072 47.9604 15.0158 47.1736 16.4522C46.1498 18.322 44.4412 20.249 42.5933 21.3233C41.7934 21.7885 41.3928 22.0332 40.4425 21.6942C39.8599 21.4868 40.1912 20.4794 40.4842 20.114C42.3047 19.3107 43.7214 17.9116 44.9954 16.4269C45.3268 16.0407 45.5583 15.4777 45.8766 15.0948C46.1103 14.8138 46.8323 14.4781 46.8927 14.0128C46.9168 13.8295 46.795 13.6902 46.7939 13.5706C46.7939 13.5322 47.2043 13.2512 47.3207 13.0098C47.4216 12.8002 47.4139 12.1967 47.4666 12.0617C47.5368 11.8829 48.7406 10.1348 48.8844 10.0338C49.0281 9.93289 50.5699 9.22401 50.6884 9.20096C51.1668 9.10988 52.2071 9.34033 52.6208 9.59271H52.6197Z" fill="black"/>
<path d="M40.069 52.2653C40.2303 52.634 40.26 53.0828 40.1788 53.4779C40.1195 53.761 39.3327 55.4772 39.1528 55.8009C38.3572 57.2308 36.7595 58.4334 36.2876 59.8753C35.0575 63.6359 35.0652 67.4788 36.8824 71.0561C38.0883 73.4308 39.866 76.624 40.6023 79.1797C40.7439 79.6724 41.2915 81.3173 40.5047 81.4347C40.2731 81.4699 40.3368 81.3151 40.2523 81.2076C39.7936 80.6216 39.4205 79.5824 39.0551 78.9306C35.3658 72.3389 31.4077 66.8116 34.4869 58.913C35.1113 57.3109 35.9617 56.6766 36.8527 55.4169C37.6966 54.223 38.1399 51.9723 40.069 52.2653Z" fill="black"/>
<path d="M84.7829 55.9251C84.8026 55.9624 84.9563 55.9954 85.0144 56.1018C86.1721 58.2164 86.3422 59.3521 86.2676 61.7564C86.2577 62.09 86.1458 64.018 86.0503 64.0882C85.0024 63.0381 85.0671 61.2143 84.7028 59.8745C84.2145 58.0803 82.8044 56.8436 82.0099 55.2689C81.7564 54.7663 81.6434 54.0289 81.4448 53.5615C80.9532 52.406 80.185 51.3668 79.7889 50.073C78.3262 45.2908 79.1283 37.6226 80.9422 32.9721C81.1737 32.3785 81.3252 31.7771 82.0725 32.125C82.8198 32.4728 82.3435 34.6017 82.1855 35.2897C81.7839 37.0465 81.1617 38.7573 80.9159 40.5986C80.5439 43.3815 81.0026 48.0111 82.1603 50.5734C82.4115 51.1309 83.0063 51.8595 83.2675 52.4575C83.7964 53.6701 84.1311 54.7301 84.7829 55.9229V55.9251Z" fill="black"/>
<path d="M77.1182 17.1678C77.5242 17.7615 78.0674 18.7173 78.5799 19.2341C78.8827 19.5392 79.6355 19.965 79.9395 20.2656C80.3126 20.6343 80.3971 21.6077 79.9921 21.9764C79.0846 22.1421 78.5426 21.9939 77.8534 21.3937C76.2568 20.0045 73.8339 15.5855 73.1217 13.5642C72.8792 12.8762 72.5895 10.6365 72.2932 10.3259C72.2065 10.236 72.1297 10.1515 71.9914 10.1548C71.5404 10.1493 70.1622 11.1588 69.8154 11.51C66.7495 14.6089 64.0654 22.5492 63.5672 26.853C63.3817 28.4529 63.6506 30.4303 63.43 31.8601C63.4125 31.972 63.3356 32.2036 63.1886 32.1004C63.0383 31.9139 62.9318 31.6966 62.8649 31.4662C61.2924 26.0629 64.3595 16.1418 67.7843 11.7514C68.3977 10.9657 70.6966 8.91806 71.705 9.13972C71.7709 9.15399 72.8781 9.64998 72.933 9.68839C73.4191 10.0286 73.6934 11.5978 74.061 12.2693C74.9104 13.821 76.1152 15.7018 77.1193 17.17L77.1182 17.1678Z" fill="black"/>
<path d="M50.4379 21.8175C51.8908 21.778 53.494 22.9489 53.8023 24.3809C54.1414 25.9589 54.1063 29.2607 53.4611 30.7476C52.7467 32.3915 50.2569 33.4482 49.0114 31.7868C47.699 30.0366 47.4356 27.6224 47.9009 25.5517C48.207 24.1921 48.7502 21.8625 50.4379 21.8164V21.8175Z" fill="black"/>
<path d="M68.6683 22.7296C69.6274 22.5902 71.0386 23.828 71.5488 24.5819C72.8766 26.545 72.8602 29.3707 71.7551 31.4424C70.9058 33.0347 69.0612 33.3847 67.627 32.3269C66.8533 31.7563 65.9305 30.1827 65.8229 29.2258C65.6353 27.5623 66.6448 23.0248 68.6683 22.7296Z" fill="black"/>
<path d="M98.6014 87.501C98.2053 87.9717 96.0666 87.5383 95.485 87.377C92.8953 86.6571 90.4449 84.886 90.8048 81.9254C91.3535 77.4143 95.1086 75.0144 97.1288 71.2637C97.3658 72.0285 97.0454 72.7253 96.7667 73.4134C95.9349 75.4643 94.5457 77.0401 93.5767 78.956C92.9545 80.1872 92.1184 82.2744 92.9995 83.5198C93.4297 84.1289 95.0065 85.01 95.7308 85.2163C96.7491 85.5071 98.2986 85.1604 98.7441 86.4004C98.8044 86.5693 98.6936 87.3902 98.6014 87.4999V87.501Z" fill="black"/>
<path d="M93.134 105.928C93.0166 105.739 93.1307 105.069 93.3008 104.872C93.6442 104.475 94.3696 104.858 94.8952 103.954C95.299 103.259 95.9684 101.81 96.2888 101.042C96.4896 100.561 96.8079 98.3333 97.6726 99.3012C98.7962 100.558 95.7555 104.382 95.9903 104.629C96.3678 104.652 96.3755 104.204 96.5961 103.979C96.8386 103.732 97.4114 103.463 97.7219 103.19C98.1872 102.781 98.8061 101.865 99.0859 101.324C99.7795 99.9815 100.065 98.4793 100.528 97.0516C101.332 96.9386 101.259 96.5293 101.375 95.8369L101.438 94.3467C101.98 94.9063 102.111 95.7063 102.201 96.4525C102.501 98.9489 101.414 101.829 99.8738 103.785C99.6247 104.101 98.0654 105.684 97.7933 105.772C97.103 105.995 96.2921 105.782 95.5734 105.828C95.1432 105.856 93.3787 106.32 93.1351 105.928H93.134Z" fill="black"/>
<path d="M33.2607 37.1798L32.0964 37.2599C31.6399 36.8221 31.6114 36.0463 32.2182 35.7204C32.6385 35.4943 33.3562 35.3133 33.7051 34.8743C33.8467 34.6966 33.8006 34.4036 33.9817 34.251C34.1627 34.0985 35.2568 33.7858 35.3522 34.1962L35.6562 35.3264C36.1785 34.4793 36.8753 33.4116 37.0641 32.4262C37.1091 32.1902 37.1288 30.3599 37.3922 30.3643L38.0199 32.3658C38.0703 32.7345 38.0791 33.1482 38.0374 33.518C37.8443 35.2375 35.7999 38.681 34.5193 39.8091C33.9948 40.271 33.0665 40.925 32.4915 40.1613C31.7167 39.132 33.287 38.1641 33.2618 37.1787L33.2607 37.1798Z" fill="black"/>
<path d="M107.569 28.2443C107.838 28.5384 108.596 29.9254 108.77 30.3336C108.889 30.6145 108.906 30.9229 109.039 31.1983L108.681 31.1138C108.719 30.6694 108.369 30.8011 108.225 30.7023C108.173 30.6661 107.913 29.7827 107.773 29.5347C107.589 29.2066 107.137 29.1627 107.366 28.6876H107.004L107.246 28.0895C107.261 28.0786 107.533 28.2037 107.57 28.2443H107.569Z" fill="white"/>
<path d="M107.602 30.0037H107.425C107.238 29.8775 107.216 29.7458 107.245 29.5264L107.602 29.827V30.0037Z" fill="white"/>
</svg>
