<svg width="112" height="112" viewBox="0 0 112 112" fill="none" xmlns="http://www.w3.org/2000/svg">
<rect width="112" height="112" rx="56" fill="#EBE1D6"/>
<path d="M95.4769 10.5439C103.409 14.8424 108.091 22.8649 110.348 31.4875C113.125 42.0901 112.413 49.9071 108.118 59.8734C99.2181 80.5177 79.804 96.0127 59.3214 103.955C58.6876 104.202 57.4606 105.084 56.8056 104.993C55.5183 104.191 53.9548 103.837 52.6222 103.242C50.947 102.494 49.1571 101.284 47.5076 100.616C44.0229 99.2033 41.4256 98.1982 38.1914 96.1019C36.2536 94.8459 33.7423 93.3194 31.9358 91.9833C30.1293 90.6472 28.5915 88.3136 26.8001 86.7432C23.3592 83.7249 19.4851 80.9696 15.9581 78.1463C12.401 75.2973 10.5462 74.0534 8.13906 69.9983C3.21913 61.7022 0.463364 54.3869 0.0453211 44.6625C-0.404415 34.2156 2.47208 26.3896 9.61051 18.8446C11.26 17.1004 12.0765 16.8994 13.9675 15.7507C18.2204 13.1677 22.2514 10.0195 27.4687 9.6522C35.6122 9.07937 41.5267 10.0875 48.3482 14.2862C50.8413 15.8203 52.8063 17.8093 54.818 19.9222C55.4398 20.5737 55.9982 21.3309 56.6049 22.0019C57.6025 20.5208 58.339 18.8355 59.418 17.4088C61.6727 14.4267 65.6268 11.9511 68.9908 10.3505C73.6255 8.14532 78.1168 7.18709 83.2691 7.01025C87.7363 6.85609 91.627 8.45969 95.4769 10.5454V10.5439ZM97.626 14.8137C95.8527 13.2887 89.8688 10.4366 87.5658 9.80787C84.6757 9.0174 77.3743 9.77613 74.4314 10.686C71.4884 11.5959 65.2253 14.9255 63.0174 17.0566C61.6426 18.3851 58.68 22.5944 58.3405 24.4021C58.1231 25.5583 59.092 27.7105 57.2674 27.7876C55.6285 27.8571 56.2336 26.2052 55.8141 25.1033C55.1787 23.4332 49.5057 17.9907 47.8501 16.9281C39.1588 11.351 28.2112 9.65824 18.9312 14.9527C17.2153 15.9321 14.1788 17.7428 12.6455 18.8763C10.9069 20.1625 6.60271 25.6278 5.58703 27.6274C3.77602 31.1898 2.81316 35.452 2.19892 39.3756C2.81165 43.0559 2.55207 47.0596 3.05463 50.7112C3.79715 56.1084 8.46806 65.3326 11.5076 69.9257C13.5963 73.0816 17.7782 75.5089 20.7105 77.8501C23.6429 80.1912 26.6054 82.4009 29.2797 84.925C31.6883 87.1981 32.7221 88.7443 35.5956 90.6306C38.7121 92.677 42.2149 95.7346 45.5456 97.3125C47.4668 98.2224 50.212 98.6924 52.2419 99.5086C53.819 100.143 55.6662 101.12 57.0984 102.013C60.3703 100.619 63.6603 99.235 66.8462 97.6435C76.505 92.8176 85.2975 85.9739 92.8328 78.0163C98.9329 71.5747 103.006 64.8595 106.489 56.7583C110.706 46.9508 109.986 38.2299 106.654 28.2667C105.202 23.9244 101.093 17.7896 97.6275 14.8122L97.626 14.8137Z" fill="black"/>
<path d="M42.8303 75.5177C42.5794 75.326 42.2001 75.3725 42.0882 75.2676C41.8147 75.0085 42.2515 71.9998 42.395 71.4771C42.9301 69.5272 44.5518 67.6536 45.5478 65.9478C46.1115 64.9834 46.3654 63.9305 47.0969 62.9121C48.2501 61.3082 52.8749 56.8662 54.5042 55.7175C55.6634 54.9013 59.862 54.2273 61.1663 54.8324C64.3674 56.3195 67.6637 61.0251 69.6587 63.8901C71.4194 66.4196 74.5601 70.5171 73.5308 73.7356C73.3676 74.2448 72.6678 75.1284 72.1857 75.341C70.827 75.9416 67.9236 76.1393 66.3805 76.1048C62.6641 76.0239 61.3476 74.4215 57.2579 75.2527C53.3298 76.0509 50.168 77.288 45.9241 76.939C44.1558 76.7937 44.0485 76.4463 42.8318 75.5162L42.8303 75.5177ZM49.8597 63.929C48.4662 65.843 47.511 67.8528 46.4259 69.9181C45.318 72.0253 42.6474 75.3275 47.7241 74.3047C51.5827 73.5274 56.7213 71.2929 60.5632 71.9129C62.8258 72.2783 65.2334 73.6202 67.6939 73.8299C70.833 74.098 72.0149 72.9777 70.7 70.0379C69.5484 67.4664 65.2591 61.8473 63.1598 59.8749C61.4247 58.244 60.79 57.8187 58.4942 57.3125C57.4755 57.0878 57.805 56.5681 56.4735 57.3424C54.4029 58.5465 51.2547 62.012 49.8582 63.9305L49.8597 63.929Z" fill="black"/>
<path d="M72.0102 53.4703C72.1281 53.3204 72.4443 53.2254 72.6113 53.0175C74.4518 50.7236 76.9545 47.0772 80.4132 48.3169C83.4618 49.4097 83.6422 52.4192 82.1716 54.9194C81.0441 56.8362 78.428 61.1284 76.6293 62.19C74.7993 63.2694 72.759 63.3585 71.1332 61.9139C70.3905 61.2532 70.1772 60.6103 70.0594 59.6616C69.7671 57.3291 70.5754 55.2965 72.0117 53.4703H72.0102ZM80.0493 51.3472L78.3057 51.2358C76.4533 53.1259 71.9685 56.3625 72.9021 59.3468C73.2854 60.5702 74.5771 60.3163 75.4526 59.7239C76.6532 58.9133 78.0969 56.3195 78.8904 55.053C79.6839 53.7866 80.7368 53.0012 80.0493 51.3472Z" fill="black"/>
<path d="M65.8314 38.8719C70.5469 38.1925 74.27 39.952 73.6713 45.4808C73.4661 47.3733 70.1594 52.7817 68.6139 53.8507C67.2994 54.7597 65.1658 54.8579 63.7753 54.0565C58.3639 50.9382 60.6464 41.2538 65.8314 38.8719ZM65.6536 51.6715C65.763 51.7602 65.7858 52.0294 65.9864 52.1007C67.0684 52.4855 68.6382 50.4235 69.1655 49.5905C70.0013 48.2665 71.4875 45.3398 71.3082 43.7989C70.8037 39.4468 65.4743 40.0106 64.0929 43.4473C63.8483 44.0554 63.555 45.3651 63.5595 45.997C63.5626 46.5482 64.3528 50.8321 64.5792 51.0538C64.6081 51.0823 64.8117 50.9731 64.8801 51.0285C65.14 51.2375 65.3922 51.4624 65.6536 51.6731V51.6715Z" fill="black"/>
<path d="M48.8863 52.9902C47.889 52.109 45.333 48.6582 44.7638 47.447C43.7386 45.2703 43.4346 42.6422 44.6986 40.5192C45.2043 39.6703 46.2962 38.4853 47.2981 38.2381C48.3001 37.991 51.0826 37.7223 52.114 37.8206C54.0698 38.0063 55.5696 39.7885 55.9 41.6352C56.1032 42.7727 55.9837 47.8661 55.6735 48.9514C55.3912 49.9369 53.6789 52.9119 52.7809 53.3616C51.7681 53.8697 49.7363 53.7408 48.8863 52.9886V52.9902ZM51.7774 50.7812C53.7193 49.0066 53.7038 46.2389 53.6386 43.7644C53.5998 42.3229 53.6619 40.2997 51.7774 40.0111C51.0236 39.896 48.4412 39.939 47.7727 40.2107C47.1647 40.4578 46.307 41.844 46.1597 42.4642C45.6649 44.5427 46.4807 45.9764 47.6052 47.6496C47.948 48.1593 49.7627 50.643 50.0884 50.8825C50.7289 51.3538 51.2733 51.2432 51.779 50.7812H51.7774Z" fill="black"/>
<path d="M39.2578 63.1935C37.4383 59.3651 32.2193 54.5796 35.7119 50.3288C37.107 48.6302 40.0363 48.7617 41.9108 49.6021C46.2993 51.5695 47.6106 62.5466 42.0772 63.8404C40.8606 64.1255 40.3034 63.7105 39.2578 63.192V63.1935ZM41.0712 61.4388C42.3825 62.1877 43.4449 59.0077 43.5441 58.1628C43.7715 56.2501 42.5855 51.8442 40.5767 51.051C38.429 50.2047 36.7514 51.2726 36.5911 53.4792L41.0712 61.4374V61.4388Z" fill="black"/>
</svg>
