<svg width="114" height="112" viewBox="0 0 114 112" fill="none" xmlns="http://www.w3.org/2000/svg">
<rect x="1" width="112" height="112" rx="56" fill="#C0DDED"/>
<path d="M0.945312 15.2042C2.08035 15.5133 2.93941 16.4647 3.91086 17.109C6.75297 18.9977 8.5594 20.22 10.7773 22.9317C11.9073 24.3136 14.4363 27.3373 15.0334 28.8557C15.205 29.2913 15.4941 30.7936 15.753 31.0345C16.049 31.3095 17.6166 31.4971 18.28 31.9558C21.2315 33.996 23.5417 40.3015 24.2382 43.7226C24.6928 45.9576 25.1484 48.3471 25.1414 50.5871C25.1324 53.4603 26.7441 53.2977 28.5867 54.799C29.9094 55.8769 30.6048 56.6366 32.2216 57.5117C32.8438 57.8489 34.5328 58.7682 35.157 58.7401C35.8876 58.7069 35.8023 58.2011 36.0904 57.8057C36.544 57.1835 37.0287 56.9055 37.2625 56.1298C37.7693 54.4468 36.7407 52.0784 35.7421 50.7125C35.2524 50.0431 33.0094 48.0671 33.1981 47.3536C33.2252 47.2522 33.6316 46.7514 33.732 46.6932C34.4274 46.2888 35.1159 47.5101 35.4862 47.9055C37.4442 49.998 39.0659 51.979 38.8321 55.074C38.7378 56.3255 38.4487 56.5984 38.0082 57.6452C37.95 57.7847 38.0654 57.9362 38.0072 58.0717C37.8948 58.3336 37.409 58.3798 37.3147 58.8113C37.2143 59.2669 37.5475 59.84 37.386 60.3006C37.1722 60.9088 36.3683 60.4562 36.005 60.403C33.9487 60.0999 32.4805 59.8089 30.7835 58.5103C29.7869 57.7475 28.8245 56.8714 27.7617 56.1699C25.8178 54.8864 23.8388 54.3886 23.352 51.707C23.1905 50.8159 23.4313 49.8896 23.337 48.9964C23.1162 46.8979 22.6335 43.7457 22.0444 41.7566C21.4352 39.6983 19.3729 34.6283 17.6688 33.434C16.8228 32.8409 15.6918 33.0507 14.914 32.3642C13.9275 31.4941 13.7449 30.0831 13.232 29.0133C12.6399 27.7779 11.5832 26.8566 10.7522 25.8039C10.5696 25.5731 10.4662 25.1576 10.3217 24.9749C8.75309 22.9969 6.17994 20.9536 4.1738 19.36C3.14414 18.5431 2.02214 17.8074 0.946316 17.0608V15.2012L0.945312 15.2042Z" fill="black"/>
<path d="M113.053 97.1248C111.738 96.2898 110.456 95.3936 109.219 94.4472C106.441 92.3177 104.891 90.2272 102.488 87.8287C99.7839 85.1311 97.5248 83.4682 95.5538 79.9908C95.1655 79.3054 94.9497 78.5266 94.4961 77.8763C94.3536 78.4102 94.3827 79.0214 94.0003 79.4669C92.1276 79.8031 93.1182 77.5953 93.2235 76.6048C93.3289 75.6142 93.2366 74.9097 92.9104 73.9915C92.2109 72.0174 90.2189 69.8106 88.8369 68.2119C88.6433 67.9881 87.5935 66.7738 87.4972 66.7116C87.1519 66.4898 86.6271 66.7557 86.3511 66.3252C86.2999 66.2459 85.9667 65.3547 85.9296 65.2142C85.3987 63.1951 85.6988 60.8236 84.7775 58.8185C84.353 57.8942 82.5215 56.0215 81.6835 55.3471C80.5685 54.4499 78.7802 53.346 77.3139 53.3711C77.2015 53.3731 76.4157 53.5076 76.3736 53.5357C76.2752 53.6019 75.657 55.0902 75.2777 54.5312C74.9184 54.0034 75.5798 53.2005 75.6952 52.6385C75.8297 51.9812 75.4413 50.1205 76.6978 50.9264C77.1092 51.1913 77.9121 52.0343 78.3577 52.217C78.9237 52.4488 80.14 52.4027 80.6016 52.8211C80.7462 52.9516 80.714 53.1483 80.7873 53.2346C80.9619 53.4424 82.1963 54.0776 82.5616 54.3616C85.1127 56.3407 86.3661 57.9835 86.9683 61.225C87.1971 62.4544 87.2643 64.7747 87.8273 65.8354C88.0802 66.3131 89.7 67.1903 90.2399 67.7442C91.8597 69.4051 93.6521 71.6351 94.3636 73.852C94.6155 74.6378 94.5573 75.552 94.8262 76.2334C95.2106 77.2099 96.7912 79.4388 97.4636 80.3802C98.7623 82.1997 100.157 83.6518 101.767 85.1592C104.907 88.0987 107.394 91.2208 110.874 93.8883C111.568 94.4202 112.348 94.8617 113.055 95.3735V97.1238L113.053 97.1248Z" fill="black"/>
<path d="M26.4533 0.00100357C26.8125 0.773753 27.0675 1.59467 27.4197 2.37144C28.4203 4.5813 29.7329 6.76607 30.6341 9.00303C31.6648 11.5601 32.269 13.488 33.674 15.9196C35.1552 18.4848 36.3896 19.8095 38.5804 21.7644C39.1916 22.3104 39.8961 22.9958 40.5544 23.5086C42.8767 25.3171 45.8493 26.6147 48.3863 28.2365C50.3754 29.509 53.2255 31.0916 54.5281 33.0375C54.9958 33.735 56.6005 36.9123 56.73 37.6188C56.9869 39.0198 56.7059 40.1117 57.1645 41.5589C57.2769 41.9121 58.0888 43.1585 57.3693 43.285C57.1525 43.3231 54.781 42.734 54.474 42.6026C54.0645 42.4259 53.8347 41.9141 53.7484 41.5037C53.7654 41.3391 54.487 41.0129 54.6255 41.037C54.8814 41.0812 55.8539 42.0356 55.7866 40.9758C55.6281 38.4929 54.193 34.6001 52.4056 32.8639C51.9741 32.4444 51.5696 32.1243 51.0779 31.7821C47.9427 29.5973 44.4674 27.9765 41.3182 25.8851C35.1311 21.7785 32.2097 17.8174 29.4289 10.972C28.4173 8.48117 26.9139 5.71935 26.1241 3.22748C25.7919 2.17875 25.6223 1.06278 25.3594 0H26.4543L26.4533 0.00100357Z" fill="black"/>
<path d="M88.2413 76.6006C86.9166 78.0518 85.0449 79.3163 83.8848 80.7243C82.4467 82.4695 81.4802 85.7823 79.737 87.2445C79.2643 87.6409 77.5613 88.4989 76.9722 88.5832C76.2496 88.6866 75.4759 88.4056 75.0062 87.8326C74.6288 87.3719 73.6614 85.2283 73.4316 84.593C72.6588 82.4574 72.4882 79.53 72.3768 77.273C72.2915 75.5358 71.9634 71.5266 72.8425 70.1406C73.7869 68.6513 76.0278 68.844 77.4479 68.4958C78.4314 68.2549 78.9723 67.8916 80.1575 67.8133C83.0719 67.6197 86.8764 67.6377 88.6869 70.3373C89.5831 71.6741 89.7557 74.3315 89.017 75.7887C88.8625 76.0928 88.4621 76.3587 88.2423 76.6006H88.2413ZM86.0836 76.8525C86.481 76.4832 87.6973 75.2889 87.881 74.8745C88.2353 74.0776 88.1871 72.0936 87.7636 71.368C86.9768 70.0172 84.8532 69.0116 83.3338 68.9022C81.147 68.7447 78.4755 68.9644 76.5848 69.9339C75.6394 70.4186 74.8747 70.5671 74.1271 71.4162C73.9565 71.6098 73.818 71.9069 73.7758 72.1588C73.3383 74.8092 73.7256 77.1937 74.0648 79.802C74.2656 81.3445 74.2786 82.6521 74.8737 84.1344C75.0323 84.5308 75.9937 86.5219 76.2055 86.7407C76.3831 86.9243 76.6681 87.0688 76.926 87.0137C77.1839 86.9585 78.608 86.0683 78.8398 85.8585C80.4174 84.4305 81.4893 81.2512 83.1642 79.4608C84.1517 78.405 85.079 77.7838 86.0816 76.8515L86.0836 76.8525Z" fill="black"/>
<path d="M45.6779 42.7027C47.8416 44.7641 51.5277 47.6674 51.8418 50.8186C52.178 54.1906 50.0133 56.3774 49.4844 59.351C49.4352 59.626 49.7142 59.8166 49.2175 60.0936C48.5912 60.4429 48.4889 59.9852 48.0242 59.7725C46.7657 59.1944 45.0476 59.6751 43.5864 59.2837C42.5146 58.9967 41.6827 58.6806 41.1367 57.673L41.8362 56.55C42.067 56.7357 42.2557 57.0398 42.5086 57.1883C44.1936 58.1768 45.3969 57.7864 47.1712 58.1086C47.5736 58.1818 48.1386 58.5863 48.5089 58.0744C48.7237 57.1672 49.2375 56.3563 49.5276 55.4822C49.7484 54.8179 50.2782 52.9733 50.3224 52.333C50.5492 49.0483 47.9048 47.1967 46.0532 44.8976C45.6277 44.3687 45.2694 43.6963 44.8439 43.1524C43.8323 41.8557 42.5477 40.9184 42.4464 39.118C42.5307 38.9855 42.5889 38.8771 42.7685 38.9915C43.0124 39.1471 43.451 40.3474 43.754 40.7418C44.2036 41.3259 45.1169 42.1729 45.6749 42.7048L45.6779 42.7027Z" fill="black"/>
<path d="M65.4706 62.6336C66.3538 63.6302 67.1737 64.6809 68.0438 65.6945C68.6289 67.1065 69.0624 69.0926 67.8973 70.334C66.8807 71.4169 63.9402 71.735 62.5844 71.2583C61.1493 70.7545 60.8632 69.4549 60.2711 68.3199C59.2987 66.4542 58.6684 65.4637 58.5319 63.2759C58.3844 60.9145 59.0076 59.5246 61.6019 60.1006C63.0872 60.4308 64.5062 61.5447 65.4716 62.6346L65.4706 62.6336ZM62.2321 61.604C62.1047 61.4193 60.6234 61.4153 60.3936 61.5247C60.1015 61.6642 59.9721 62.4189 59.949 62.728C59.7854 64.8846 60.5311 65.7507 61.4022 67.518C61.6009 67.9204 61.6882 68.4664 61.908 68.8718C62.5071 69.9727 63.7023 70.3972 64.9307 70.2136C65.1354 70.1835 66.3949 69.8352 66.5545 69.759C67.2449 69.4278 67.5249 68.3811 67.3754 67.6746C67.3543 67.5762 67.0001 66.5235 66.968 66.4683C66.9118 66.3709 66.0527 65.7848 65.8108 65.5189C65.2047 64.8505 64.176 63.0531 63.4826 62.6818C63.2347 62.5483 62.7479 62.5333 62.5071 62.3115C62.2662 62.0897 62.3164 61.7294 62.2311 61.605L62.2321 61.604Z" fill="black"/>
<path d="M64.4176 73.2021C65.9189 73.0445 67.4865 73.8233 68.6526 74.7074C69.2729 75.1771 70.6036 76.3372 70.7682 77.0768C70.8113 77.2685 70.8204 78.3383 70.7993 78.5832C70.718 79.5336 70.3116 81.069 69.2578 81.329C69.0461 81.3812 68.8664 81.2708 68.7068 81.3139C68.1699 81.4604 67.63 81.7856 67.0981 81.896C64.8983 82.3496 61.5594 81.2788 60.1243 79.5085C59.5362 78.7829 58.5638 76.6373 58.5357 75.729C58.4955 74.4274 60.891 74.314 61.7099 74.1063C62.6393 73.8704 63.3458 73.3145 64.4176 73.2021ZM68.5643 76.7105C67.8056 75.8625 66.0404 74.6101 64.8953 74.5488C63.7502 74.4876 63.2474 75.0105 62.3 75.2423C61.7852 75.3678 59.6677 75.2323 59.6175 75.8545C59.6095 75.9538 60.3351 77.3548 60.4525 77.5395C61.714 79.5155 63.6719 80.9677 66.1377 80.7168C67.0419 80.6245 67.9341 79.9691 68.7691 79.6269C68.9106 79.1151 68.7088 78.1185 69.3672 78.0403C69.1675 77.5766 68.9015 77.0879 68.5633 76.7105H68.5643Z" fill="black"/>
<path d="M72.0467 57.7048C72.2575 57.9165 72.2374 58.0038 72.3608 58.1564C72.4251 58.2357 72.6017 58.2648 72.7061 58.4103C73.2952 59.2292 74.6971 62.3483 74.7413 63.2696C74.8226 64.9345 73.8893 65.3721 72.3879 65.4112C71.1495 65.4433 67.6792 63.8215 66.6887 63.0026C65.6981 62.1837 64.0422 59.3496 63.9399 58.0791C63.7853 56.1523 65.4171 55.8903 66.9235 55.797C69.1494 55.6595 70.4791 56.1322 72.0457 57.7048H72.0467ZM66.9145 60.5318C67.2527 60.9192 67.3821 61.3929 67.7274 61.7472C68.3034 62.3373 71.3974 63.7924 72.1993 63.8506C72.6268 63.8818 73.4427 63.7995 73.2721 63.2174C72.8014 62.3583 72.6348 61.2875 72.2203 60.4295C71.3954 58.7194 69.7375 57.2562 67.7785 57.1087C67.2507 57.0695 65.5085 56.9762 65.2355 57.4449C64.9053 58.0119 65.674 59.7541 65.8707 60.3763C66.3906 60.1053 66.5472 60.1134 66.9135 60.5318H66.9145Z" fill="black"/>
<path d="M97.6158 112C97.6037 111.992 97.5987 111.819 97.5104 111.728C95.9177 110.099 94.4515 108.361 92.8558 106.748C89.4939 103.351 85.8328 100.269 82.2912 97.069C81.8667 96.6857 81.2977 96.5151 81.0609 95.8908C80.7598 95.096 81.5727 95.0107 82.1748 95.2165C82.2501 95.2415 83.1884 95.92 83.3299 96.0314C84.2512 96.7609 85.1885 97.6642 86.0667 98.4379C89.6283 101.576 92.9913 104.899 96.3753 108.21L99.4784 112H97.6168H97.6158Z" fill="black"/>
<path d="M82.6871 58.0091C82.9481 58.3835 83.1819 58.8682 83.3073 59.3057C83.7258 60.7679 84.1443 64.6217 82.7855 65.6272C81.6404 66.4742 79.8641 66.8024 78.712 65.8099C78.1931 65.3633 76.7811 63.322 76.6466 62.6777C76.3215 61.1182 76.2583 58.5852 76.74 57.0718C77.0792 56.008 78.1931 55.4731 79.266 55.5735C80.5475 55.6929 81.9796 56.9955 82.6861 58.0091H82.6871ZM77.3813 61.6722C77.4073 61.7003 77.6442 61.7033 77.8068 61.8458C78.2273 62.2171 78.5263 63.1414 78.8956 63.603C79.0231 63.7626 79.8199 64.5103 79.9865 64.5905C80.5325 64.8535 81.6324 64.6467 81.9676 64.152C82.5456 63.3 82.2526 60.0564 81.7267 59.1331C81.6063 58.9214 80.5505 57.4853 80.4191 57.3779C80.2244 57.2183 79.282 56.843 79.0241 56.8249C77.9152 56.7496 77.9392 58.0001 77.7516 58.7367C77.5398 59.5677 77.5157 59.6068 77.4646 60.4408C77.4485 60.6947 77.2468 61.5236 77.3813 61.6712V61.6722Z" fill="black"/>
<path d="M56.0463 75.9831C56.1076 76.0674 56.3103 76.1065 56.4006 76.228C56.9064 76.9034 56.9485 77.4694 57.2857 78.19C58.2712 80.2954 61.0983 82.5695 63.3252 83.2038C64.8968 83.6514 66.6531 83.542 68.1956 84.1351C68.5699 84.2786 68.9332 84.383 68.8138 84.8667C68.1143 85.1026 67.4138 85.1196 66.6802 85.0955C61.7898 84.9309 58.0936 82.8877 55.9189 78.4639C55.7784 78.1769 55.7623 77.8598 55.6208 77.5587C55.3549 76.9917 54.7808 76.8131 54.9093 76.1367C54.3884 75.9761 52.019 75.6188 51.7982 75.2545C51.6647 75.0347 51.7119 74.3483 51.9889 74.2309C52.2318 74.1285 54.5038 74.0121 54.8561 74.0583C56.502 74.271 55.5646 75.3187 56.0483 75.9851L56.0463 75.9831Z" fill="black"/>
<path d="M54.6135 56.3545C55.1133 56.1327 55.6351 56.219 56.0677 56.5462C56.3025 56.7238 56.433 57.0761 56.6387 57.1795C57.1124 57.4153 58.2555 57.5307 58.965 57.8087C59.2339 57.9141 59.5892 57.7645 59.6775 58.175C59.9214 59.297 58.3709 58.6888 57.848 58.7551C56.9659 58.8655 56.7923 59.7155 56.6809 60.4421C56.0958 64.2566 57.3864 66.8178 58.8867 70.1386C58.9529 70.2861 59.1336 70.3935 59.1697 70.5169C59.3132 71.0087 58.8606 71.11 58.4702 70.8822C58.2013 70.7257 57.4807 69.7532 57.279 69.4481C55.5809 66.878 55.0029 64.1503 55.2488 61.0894C55.3301 60.0798 55.9794 58.8705 55.4063 57.9753C55.0792 57.4645 54.2492 57.1935 54.6145 56.3555L54.6135 56.3545Z" fill="black"/>
<path d="M72.8107 54.533C73.2884 55.1281 74.9422 57.7103 73.8283 58.2201C72.5136 58.4529 72.4835 56.8913 71.9476 55.9972C70.9942 54.4055 69.8341 54.265 68.1059 54.0382C67.7035 53.985 67.2539 54.0693 66.9267 54.0241C65.9553 53.8877 64.0224 53.153 63.1563 53.5655C62.797 53.7361 62.9446 54.4346 62.5823 54.6323C62.4117 54.7246 61.9681 54.7397 61.8125 54.6373C61.5225 54.4467 61.6459 53.5555 61.5757 53.2343C61.5115 52.9453 60.6313 51.7862 61.4563 51.5383C62.0012 51.3747 63.9251 52.1445 64.5924 52.299C66.5865 52.7597 68.5395 52.5108 70.379 52.9704C71.5231 53.2564 72.0821 53.6257 72.8107 54.533Z" fill="black"/>
<path d="M55.0003 44.2193C55.1488 44.3638 55.5934 45.835 55.6556 46.1331C56.0932 48.2215 55.7951 49.3054 55.7861 51.2443C55.7841 51.6296 56.055 52.5068 55.9968 52.7526C55.8704 53.2946 54.9009 53.0116 54.4282 53.0507C54.0268 53.0838 53.518 53.3257 53.1386 53.2494C52.8416 53.1892 51.9474 52.5881 52.2304 52.1686C52.5265 51.734 54.4834 52.2719 54.6972 51.3517C54.6239 50.5739 54.8357 49.8232 54.8136 49.0525C54.7865 48.1452 54.1412 44.8294 54.5316 44.1862C54.641 44.0176 54.8889 44.1139 54.9993 44.2213L55.0003 44.2193Z" fill="black"/>
<path d="M50.2549 35.3936C50.8781 36.0791 50.7326 36.339 49.7672 36.2657C48.9944 35.7248 48.2046 34.949 47.3987 34.4733C46.8418 34.1442 46.1383 33.9043 45.5381 33.5972C44.8999 33.2711 44.3178 32.6298 43.5892 32.7041C43.3694 32.1882 44.0589 32.123 44.4352 32.1802C44.8738 32.2464 46.7846 33.0463 47.2803 33.2791C48.1564 33.6906 49.6046 34.6781 50.2549 35.3936Z" fill="black"/>
</svg>
