<svg width="110" height="104" viewBox="0 0 110 104" fill="none" xmlns="http://www.w3.org/2000/svg">
<path d="M87.2204 8.97285C89.9141 11.3815 91.5051 13.5816 93.3335 16.7114C94.5906 18.8638 95.7322 21.1271 96.3846 23.5202C96.5665 23.6578 97.9134 21.9514 98.1198 21.7484C99.0761 20.8053 100.161 19.9089 101.162 19.0435C101.615 18.6519 102.979 17.2939 103.431 17.1885C103.517 17.1685 104.464 17.1097 104.548 17.1152C104.765 17.1297 104.951 17.336 105.165 17.3482C106.236 17.4048 107.687 17.1874 108.667 17.5956C109.181 17.8098 109.006 18.248 109.071 18.7151C105.883 24.1681 101.538 28.7569 98.0887 33.9914C96.5033 44.0553 92.8698 54.491 84.6298 60.9403C83.386 63.9004 82.3176 67.0058 81.2925 70.0502C79.7969 74.4936 78.2326 80.4503 77.984 85.1201C77.9319 86.1031 78.4578 87.8072 76.9079 87.9093C76.5739 87.9315 75.9104 87.906 75.4811 87.9159C73.9722 87.9526 72.5343 87.7595 71.0532 87.4566C70.2899 87.2214 70.1323 84.9858 69.9138 84.2414C69.7063 83.5369 69.2381 82.7747 69.0229 82.109C67.7891 78.2858 66.7152 74.6301 65.2474 70.8878C64.8235 69.8072 64.3076 68.7665 63.9304 67.6693C63.399 67.7447 62.7743 67.5506 62.2995 67.5439C58.7536 67.4962 56.6678 67.7569 53.1752 66.6241C51.4578 66.0672 49.737 65.3227 48.085 64.6959C47.2629 64.3841 46.6405 63.7262 45.8772 63.4333L40.2266 68.5591C41.3006 69.2636 41.2695 70.9466 40.7969 72.0328C40.0891 73.6593 37.7403 75.3967 36.47 76.6582C31.6793 81.4122 27.2747 86.508 22.676 91.413C19.9278 94.3442 17.4382 96.623 14.1919 99.0184C12.5754 100.211 8.74992 102.985 6.86715 103.188C5.43039 103.343 4.44851 102.753 3.63527 101.598C2.91634 100.576 2.61012 100.158 1.80576 99.2003C0.76064 97.9555 0.729575 96.9137 1.27876 95.4281C2.05872 93.3191 5.68779 90.8483 7.36641 89.3006C8.20961 88.5228 8.91634 87.6153 9.71848 86.8109C16.1057 80.4026 22.6327 74.1907 29.1697 67.9733C29.6989 67.4707 31.2621 65.5058 31.8379 65.3793C32.0565 65.3316 33.0317 65.2318 33.2647 65.234C33.5465 65.2362 34.1124 65.4836 34.301 65.4093C34.413 65.3649 35.2107 64.7147 35.3772 64.5661C36.7917 63.3068 38.0554 61.8346 39.4345 60.5132C39.9304 60.0383 40.5883 59.7754 40.9411 59.1086C40.9689 58.9544 39.8195 57.8527 39.6231 57.6718C37.2388 55.4684 36.4644 53.8531 34.686 51.238C33.4611 49.4363 32.0965 48.0905 31.3309 46.0047C30.8195 44.6101 30.5144 43.9178 29.9097 42.5886C29.0909 40.7913 28.9478 37.809 28.5761 35.8198C28.4463 35.1219 28.0436 34.312 28.007 33.6197C27.855 30.7617 29.7832 26.4825 30.9659 23.8819C33.034 19.3353 35.8476 14.6212 39.9249 11.5513C46.1068 6.89593 52.3431 3.2713 59.9519 1.45066C62.4559 0.851547 65.9951 0.76057 68.6113 0.792745C75.2403 0.875955 82.3731 4.63816 87.2215 8.97285H87.2204ZM84.1227 8.44253C81.044 6.05384 77.4681 4.5372 73.8957 3.12041C69.2026 1.25872 59.3916 2.5335 54.632 4.23875C49.666 6.01834 44.7333 9.39667 40.646 12.6408C37.1423 15.4211 34.5806 19.1966 32.7466 23.2439C31.4385 26.1308 29.9252 28.9743 29.5868 32.1785C29.4249 33.7062 30.4156 36.7262 30.7562 38.3616C30.8938 39.0239 30.8849 39.9459 31.0569 40.6005C31.3021 41.5346 32.1419 42.5687 32.5025 43.5095C32.7577 44.1752 32.8575 44.9984 33.1205 45.6729C33.7019 47.1585 35.0077 48.4766 35.8465 49.8412C36.997 51.7118 38.021 53.9862 39.2137 55.788C39.7407 56.5835 40.4774 57.157 40.9722 58.0213C41.5025 58.9499 41.6778 59.2528 41.2518 60.2758C40.7847 61.3974 37.1845 64.9988 36.1161 66.0273C35.8686 66.2658 34.9356 67.0735 34.6771 67.1079C33.9138 67.2099 33.1671 65.9207 32.0499 66.5598C30.2658 68.3205 28.5018 70.1156 26.6667 71.8231C24.4655 73.8712 22.0757 75.8505 19.9345 77.9751C16.0813 81.8006 13.1756 85.91 8.99955 89.4814C7.16782 91.0469 3.3102 93.6907 2.37603 95.802C1.94888 96.7684 1.76693 97.3908 2.57906 98.1907C3.25472 98.8564 3.90931 99.1992 4.57055 100.07C5.05095 100.703 5.49696 101.261 5.60125 102.063C5.85421 102.159 6.1227 102.129 6.38342 102.103C8.48919 101.889 13.2033 98.1086 14.9862 96.6707C20.1031 92.5457 24.0295 87.6197 28.4885 82.8335C31.3043 79.8124 34.1423 77.1907 37.0047 74.2928C38.2163 73.0657 41.0199 70.7292 38.5291 69.4056C38.4726 69.1848 39.4167 68.0898 39.622 67.8401C41.2762 65.8287 42.7207 64.271 44.7266 62.5701C45.2259 62.1463 45.1638 62.1541 45.7562 61.8135C45.9637 61.6948 45.744 61.4673 46.4585 61.4818C47.4215 61.5017 47.7033 62.1008 48.4922 62.4803C49.6471 63.0361 51.6564 63.7273 52.9356 64.2077C55.4308 65.1474 57.7928 65.3582 60.3779 65.3815C61.1368 65.3882 61.9456 65.6345 62.7377 65.3571C62.3339 64.596 62.0399 63.6674 61.494 63.0284L59.953 59.7366C58.5661 59.2784 56.9397 59.3727 55.5717 58.9133C54.2514 58.4707 52.6815 57.4777 51.389 56.9263C50.0055 56.336 48.4334 55.9965 47.082 55.3042C46.4308 54.9703 45.9082 54.2802 45.298 53.822C44.6379 53.3261 43.737 53.0276 43.19 52.4218C42.7207 51.9026 42.5787 51.2602 42.2181 50.7299C41.3749 49.4884 40.0203 48.5964 39.4167 47.123C39.0406 46.2044 38.9108 45.1803 38.5347 44.2562C38.2263 43.4995 37.6072 42.7018 37.3797 41.9041C37.1257 41.0165 37.2754 40.2976 37.1856 39.4377C37.0902 38.5269 36.6231 37.5705 36.5942 36.6374C36.5765 36.0572 36.8006 35.782 36.8383 35.3127C36.9848 33.4999 36.9038 31.5827 37.1312 29.7754C37.7969 24.5032 42.6874 17.447 46.5306 13.92C47.8986 12.6652 50.9197 11.6322 52.6937 10.8889C57.5831 8.83972 62.2573 6.56975 67.7326 7.58935C68.7954 7.78794 70.0025 8.29497 71.0421 8.51575C74.5868 9.26908 78.1449 9.36339 81.0706 11.9185C81.9016 12.6441 82.7392 13.8645 83.5502 14.5202C84.3613 15.1759 84.9182 15.3323 85.5695 16.3719C86.5691 17.9673 86.3949 19.2576 86.8842 20.8619C87.5754 23.1308 89.1974 25.4939 89.8143 27.8493C90.1028 28.951 89.9497 30.0616 90.1028 31.1899C90.2725 32.4425 90.9515 30.5642 91.1257 30.299C92.0465 28.8967 93.1904 27.643 94.2056 26.3283C94.4663 25.991 95.0687 25.1999 95.031 24.8272C94.9489 24.0139 94.0869 21.8615 93.7074 21.0572C91.4186 16.2077 88.3132 11.6944 84.1238 8.44475L84.1227 8.44253ZM83.3528 16.586C82.0092 15.2192 79.9389 13.0135 78.2758 12.1659C75.9881 10.9999 73.6627 10.6737 71.1763 10.3109C70.0902 10.1522 68.5025 9.42108 67.3653 9.16035C64.4851 8.49911 61.291 9.08824 58.5528 10.0912C55.9289 11.052 49.686 13.4607 47.7255 15.1138C42.6419 19.4007 38.8797 26.6378 38.5347 33.2469C38.2296 39.0772 39.4356 44.1574 43.0081 48.815C43.4896 49.4429 44.0099 50.3671 44.4093 50.8342C44.5613 51.0117 47.9552 53.5091 48.1649 53.6112C49.1878 54.106 50.5946 54.3867 51.6608 54.8338C53.1808 55.4707 54.7939 56.6112 56.3749 57.1371C57.0451 57.3601 57.8017 57.3889 58.4973 57.4943C58.5972 56.9318 57.9604 56.5169 57.7751 56.1951C56.9341 54.7362 56.2718 53.3427 55.2799 51.9426C54.1183 50.3028 52.676 49.0368 51.3601 47.5202C51.0062 47.113 50.6523 46.5028 50.3161 46.1389C49.555 45.3124 48.3257 45.0239 49.0713 43.5417C49.4896 42.7107 50.305 43.2166 51.0484 43.231C52.3875 43.2565 53.9996 43.3475 55.2888 43.3231C56.1031 43.3076 57.9781 42.7584 58.6283 43.2765C58.7791 43.3974 59.9851 45.1781 60.1726 45.4821C62.0754 48.5709 63.8627 51.7062 65.7078 54.8249C66.1604 55.5894 66.987 56.4026 67.0935 57.3701C67.1856 57.4488 69.0972 56.832 69.4134 56.7343C72.6741 55.7181 79.696 52.6604 81.3923 49.596C82.7825 47.0842 83.7 44.1563 84.9548 41.5468C85.7481 39.8971 86.6412 38.1341 87.541 36.5132C87.6886 36.2469 87.9659 36.1204 88.0225 35.9962C88.7015 34.4895 88.4541 30.7195 88.2566 29.032C88.0325 27.1149 86.3195 24.6053 85.6039 22.7347C84.7196 20.4237 85.1956 18.4621 83.3494 16.5838L83.3528 16.586ZM107.517 19.0468L104.697 19.4019C94.1257 27.0949 87.926 38.6933 83.1919 50.6667C80.2252 58.1722 77.7799 65.8664 75.0195 73.4562C74.629 74.5291 74.3328 75.7517 73.9578 76.7491C73.6316 77.619 72.0406 78.1881 71.5314 77.1719C69.977 71.0354 68.2019 64.9011 65.4581 59.1896C63.0417 54.1604 60.7596 49.6326 57.3025 45.2048C57.2204 45.0994 57.2037 44.934 57.156 44.8087C56.1164 44.9196 54.8095 45.41 53.8076 45.4988C53.5846 45.5187 53.3938 45.3911 53.173 45.4056C52.8502 45.7129 55.7625 48.1692 56.0066 48.4377C58.0735 50.7033 59.5968 53.6644 61.0192 56.3682C64.6782 63.3268 67.3875 70.7403 69.957 78.1504C70.7425 80.4159 71.3339 82.7569 72.1715 85.0069C72.7496 85.0835 73.3376 85.1833 73.899 85.3375C74.1519 85.4074 74.3283 85.6493 74.5391 85.6682C74.6468 85.6781 75.5465 85.5195 75.5776 85.4773C75.7973 83.6689 75.9959 81.7151 76.4164 79.9433C79.6815 66.1992 84.6741 53.7177 91.3975 41.3338C94.8047 35.0587 101.427 24.5376 106.589 19.8135C106.862 19.5638 107.277 19.3331 107.515 19.0468H107.517ZM87.1094 56.0909C89.7266 53.3505 92.3627 48.6341 93.6908 45.0738C94.4963 42.9148 95.1719 40.5439 95.5336 38.2706L93.4589 41.9396C92.0798 44.1541 91.129 46.657 89.9874 48.9914C88.7059 51.6108 87.1438 54.1171 86.2152 56.8897C86.4093 57.075 86.9951 56.2085 87.1094 56.0897V56.0909ZM79.6804 53.8708C79.4874 53.7155 78.0107 54.9204 77.7033 55.099C76.4741 55.8135 74.659 56.6855 73.3465 57.2758C71.6312 58.0491 69.9337 58.4451 68.1908 59.0787C68.0876 59.2251 68.9152 60.7539 69.0362 61.0557C69.4167 62.0054 69.8306 63.0417 70.1634 64.0258C70.2067 64.1545 70.1212 64.2643 70.1179 64.3875C71.3006 63.9037 72.7584 64.0424 73.8979 63.7506C74.7732 63.5265 75.6053 62.8863 76.504 62.6678C77.3749 59.6767 78.318 56.6766 79.6793 53.8708H79.6804ZM75.4434 65.3571C74.0088 66.0328 72.3424 65.6944 70.9567 66.3989C71.6146 68.173 72.2181 69.9215 72.7107 71.751C72.7418 71.8653 72.6564 72.035 72.6908 72.1582C72.8128 72.5964 73.1401 73.0524 73.1468 73.5783L73.3908 73.403L75.4445 65.3571H75.4434Z" fill="black"/>
</svg>
