<svg width="112" height="112" viewBox="0 0 112 112" fill="none" xmlns="http://www.w3.org/2000/svg">
<rect width="112" height="112" rx="56" fill="#FFC9AD"/>
<path d="M88.2204 12.9729C90.9141 15.3815 92.5051 17.5816 94.3335 20.7114C95.5906 22.8638 96.7322 25.1271 97.3846 27.5202C97.5665 27.6578 98.9134 25.9514 99.1198 25.7484C100.076 24.8053 101.161 23.9089 102.162 23.0435C102.615 22.6519 103.979 21.2939 104.431 21.1885C104.517 21.1685 105.464 21.1097 105.548 21.1152C105.765 21.1297 105.951 21.336 106.165 21.3482C107.236 21.4048 108.687 21.1874 109.667 21.5956C110.181 21.8098 110.006 22.248 110.071 22.7151C106.883 28.1681 102.538 32.7569 99.0887 37.9914C97.5033 48.0553 93.8698 58.491 85.6298 64.9403C84.386 67.9004 83.3176 71.0058 82.2925 74.0502C80.7969 78.4936 79.2326 84.4503 78.984 89.1201C78.9319 90.1031 79.4578 91.8072 77.9079 91.9093C77.5739 91.9315 76.9104 91.906 76.4811 91.9159C74.9722 91.9526 73.5343 91.7595 72.0532 91.4566C71.2899 91.2214 71.1323 88.9858 70.9138 88.2414C70.7063 87.5369 70.2381 86.7747 70.0229 86.109C68.7891 82.2858 67.7152 78.6301 66.2474 74.8878C65.8235 73.8072 65.3076 72.7665 64.9304 71.6693C64.399 71.7447 63.7743 71.5506 63.2995 71.5439C59.7536 71.4962 57.6678 71.7569 54.1752 70.6241C52.4578 70.0672 50.737 69.3227 49.085 68.6959C48.2629 68.3841 47.6405 67.7262 46.8772 67.4333L41.2266 72.5591C42.3006 73.2636 42.2695 74.9466 41.7969 76.0328C41.0891 77.6593 38.7403 79.3967 37.47 80.6582C32.6793 85.4122 28.2747 90.508 23.676 95.413C20.9278 98.3442 18.4382 100.623 15.1919 103.018C13.5754 104.211 9.74992 106.985 7.86715 107.188C6.43039 107.343 5.44851 106.753 4.63527 105.598C3.91634 104.576 3.61012 104.158 2.80576 103.2C1.76064 101.956 1.72958 100.914 2.27876 99.4281C3.05872 97.3191 6.68779 94.8483 8.36641 93.3006C9.20961 92.5228 9.91634 91.6153 10.7185 90.8109C17.1057 84.4026 23.6327 78.1907 30.1697 71.9733C30.6989 71.4707 32.2621 69.5058 32.8379 69.3793C33.0565 69.3316 34.0317 69.2318 34.2647 69.234C34.5465 69.2362 35.1124 69.4836 35.301 69.4093C35.413 69.3649 36.2107 68.7147 36.3772 68.5661C37.7917 67.3068 39.0554 65.8346 40.4345 64.5132C40.9304 64.0383 41.5883 63.7754 41.9411 63.1086C41.9689 62.9544 40.8195 61.8527 40.6231 61.6718C38.2388 59.4684 37.4644 57.8531 35.686 55.238C34.4611 53.4363 33.0965 52.0905 32.3309 50.0047C31.8195 48.6101 31.5144 47.9178 30.9097 46.5886C30.0909 44.7913 29.9478 41.809 29.5761 39.8198C29.4463 39.1219 29.0436 38.312 29.007 37.6197C28.855 34.7617 30.7832 30.4825 31.9659 27.8819C34.034 23.3353 36.8476 18.6212 40.9249 15.5513C47.1068 10.8959 53.3431 7.2713 60.9519 5.45066C63.4559 4.85155 66.9951 4.76057 69.6113 4.79274C76.2403 4.87596 83.3731 8.63816 88.2215 12.9729H88.2204ZM85.1227 12.4425C82.044 10.0538 78.4681 8.5372 74.8957 7.12041C70.2026 5.25872 60.3916 6.5335 55.632 8.23875C50.666 10.0183 45.7333 13.3967 41.646 16.6408C38.1423 19.4211 35.5806 23.1966 33.7466 27.2439C32.4385 30.1308 30.9252 32.9743 30.5868 36.1785C30.4249 37.7062 31.4156 40.7262 31.7562 42.3616C31.8938 43.0239 31.8849 43.9459 32.0569 44.6005C32.3021 45.5346 33.1419 46.5687 33.5025 47.5095C33.7577 48.1752 33.8575 48.9984 34.1205 49.6729C34.7019 51.1585 36.0077 52.4766 36.8465 53.8412C37.997 55.7118 39.021 57.9862 40.2137 59.788C40.7407 60.5835 41.4774 61.157 41.9722 62.0213C42.5025 62.9499 42.6778 63.2528 42.2518 64.2758C41.7847 65.3974 38.1845 68.9988 37.1161 70.0273C36.8686 70.2658 35.9356 71.0735 35.6771 71.1079C34.9138 71.2099 34.1671 69.9207 33.0499 70.5598C31.2658 72.3205 29.5018 74.1156 27.6667 75.8231C25.4655 77.8712 23.0757 79.8505 20.9345 81.9751C17.0813 85.8006 14.1756 89.91 9.99955 93.4814C8.16782 95.0469 4.3102 97.6907 3.37603 99.802C2.94888 100.768 2.76693 101.391 3.57906 102.191C4.25472 102.856 4.90931 103.199 5.57055 104.07C6.05095 104.703 6.49696 105.261 6.60125 106.063C6.85421 106.159 7.1227 106.129 7.38342 106.103C9.48919 105.889 14.2033 102.109 15.9862 100.671C21.1031 96.5457 25.0295 91.6197 29.4885 86.8335C32.3043 83.8124 35.1423 81.1907 38.0047 78.2928C39.2163 77.0657 42.0199 74.7292 39.5291 73.4056C39.4726 73.1848 40.4167 72.0898 40.622 71.8401C42.2762 69.8287 43.7207 68.271 45.7266 66.5701C46.2259 66.1463 46.1638 66.1541 46.7562 65.8135C46.9637 65.6948 46.744 65.4673 47.4585 65.4818C48.4215 65.5017 48.7033 66.1008 49.4922 66.4803C50.6471 67.0361 52.6564 67.7273 53.9356 68.2077C56.4308 69.1474 58.7928 69.3582 61.3779 69.3815C62.1368 69.3882 62.9456 69.6345 63.7377 69.3571C63.3339 68.596 63.0399 67.6674 62.494 67.0284L60.953 63.7366C59.5661 63.2784 57.9397 63.3727 56.5717 62.9133C55.2514 62.4707 53.6815 61.4777 52.389 60.9263C51.0055 60.336 49.4334 59.9965 48.082 59.3042C47.4308 58.9703 46.9082 58.2802 46.298 57.822C45.6379 57.3261 44.737 57.0276 44.19 56.4218C43.7207 55.9026 43.5787 55.2602 43.2181 54.7299C42.3749 53.4884 41.0203 52.5964 40.4167 51.123C40.0406 50.2044 39.9108 49.1803 39.5347 48.2562C39.2263 47.4995 38.6072 46.7018 38.3797 45.9041C38.1257 45.0165 38.2754 44.2976 38.1856 43.4377C38.0902 42.5269 37.6231 41.5705 37.5942 40.6374C37.5765 40.0572 37.8006 39.782 37.8383 39.3127C37.9848 37.4999 37.9038 35.5827 38.1312 33.7754C38.7969 28.5032 43.6874 21.447 47.5306 17.92C48.8986 16.6652 51.9197 15.6322 53.6937 14.8889C58.5831 12.8397 63.2573 10.5697 68.7326 11.5893C69.7954 11.7879 71.0025 12.295 72.0421 12.5158C75.5868 13.2691 79.1449 13.3634 82.0706 15.9185C82.9016 16.6441 83.7392 17.8645 84.5502 18.5202C85.3613 19.1759 85.9182 19.3323 86.5695 20.3719C87.5691 21.9673 87.3949 23.2576 87.8842 24.8619C88.5754 27.1308 90.1974 29.4939 90.8143 31.8493C91.1028 32.951 90.9497 34.0616 91.1028 35.1899C91.2725 36.4425 91.9515 34.5642 92.1257 34.299C93.0465 32.8967 94.1904 31.643 95.2056 30.3283C95.4663 29.991 96.0687 29.1999 96.031 28.8272C95.9489 28.0139 95.0869 25.8615 94.7074 25.0572C92.4186 20.2077 89.3132 15.6944 85.1238 12.4447L85.1227 12.4425ZM84.3528 20.586C83.0092 19.2192 80.9389 17.0135 79.2758 16.1659C76.9881 14.9999 74.6627 14.6737 72.1763 14.3109C71.0902 14.1522 69.5025 13.4211 68.3653 13.1604C65.4851 12.4991 62.291 13.0882 59.5528 14.0912C56.9289 15.052 50.686 17.4607 48.7255 19.1138C43.6419 23.4007 39.8797 30.6378 39.5347 37.2469C39.2296 43.0772 40.4356 48.1574 44.0081 52.815C44.4896 53.4429 45.0099 54.3671 45.4093 54.8342C45.5613 55.0117 48.9552 57.5091 49.1649 57.6112C50.1878 58.106 51.5946 58.3867 52.6608 58.8338C54.1808 59.4707 55.7939 60.6112 57.3749 61.1371C58.0451 61.3601 58.8017 61.3889 59.4973 61.4943C59.5972 60.9318 58.9604 60.5169 58.7751 60.1951C57.9341 58.7362 57.2718 57.3427 56.2799 55.9426C55.1183 54.3028 53.676 53.0368 52.3601 51.5202C52.0062 51.113 51.6523 50.5028 51.3161 50.1389C50.555 49.3124 49.3257 49.0239 50.0713 47.5417C50.4896 46.7107 51.305 47.2166 52.0484 47.231C53.3875 47.2565 54.9996 47.3475 56.2888 47.3231C57.1031 47.3076 58.9781 46.7584 59.6283 47.2765C59.7791 47.3974 60.9851 49.1781 61.1726 49.4821C63.0754 52.5709 64.8627 55.7062 66.7078 58.8249C67.1604 59.5894 67.987 60.4026 68.0935 61.3701C68.1856 61.4488 70.0972 60.832 70.4134 60.7343C73.6741 59.7181 80.696 56.6604 82.3923 53.596C83.7825 51.0842 84.7 48.1563 85.9548 45.5468C86.7481 43.8971 87.6412 42.1341 88.541 40.5132C88.6886 40.2469 88.9659 40.1204 89.0225 39.9962C89.7015 38.4895 89.4541 34.7195 89.2566 33.032C89.0325 31.1149 87.3195 28.6053 86.6039 26.7347C85.7196 24.4237 86.1956 22.4621 84.3494 20.5838L84.3528 20.586ZM108.517 23.0468L105.697 23.4019C95.1257 31.0949 88.926 42.6933 84.1919 54.6667C81.2252 62.1722 78.7799 69.8664 76.0195 77.4562C75.629 78.5291 75.3328 79.7517 74.9578 80.7491C74.6316 81.619 73.0406 82.1881 72.5314 81.1719C70.977 75.0354 69.2019 68.9011 66.4581 63.1896C64.0417 58.1604 61.7596 53.6326 58.3025 49.2048C58.2204 49.0994 58.2037 48.934 58.156 48.8087C57.1164 48.9196 55.8095 49.41 54.8076 49.4988C54.5846 49.5187 54.3938 49.3911 54.173 49.4056C53.8502 49.7129 56.7625 52.1692 57.0066 52.4377C59.0735 54.7033 60.5968 57.6644 62.0192 60.3682C65.6782 67.3268 68.3875 74.7403 70.957 82.1504C71.7425 84.4159 72.3339 86.7569 73.1715 89.0069C73.7496 89.0835 74.3376 89.1833 74.899 89.3375C75.1519 89.4074 75.3283 89.6493 75.5391 89.6682C75.6468 89.6781 76.5465 89.5195 76.5776 89.4773C76.7973 87.6689 76.9959 85.7151 77.4164 83.9433C80.6815 70.1992 85.6741 57.7177 92.3975 45.3338C95.8047 39.0587 102.427 28.5376 107.589 23.8135C107.862 23.5638 108.277 23.3331 108.515 23.0468H108.517ZM88.1094 60.0909C90.7266 57.3505 93.3627 52.6341 94.6908 49.0738C95.4963 46.9148 96.1719 44.5439 96.5336 42.2706L94.4589 45.9396C93.0798 48.1541 92.129 50.657 90.9874 52.9914C89.7059 55.6108 88.1438 58.1171 87.2152 60.8897C87.4093 61.075 87.9951 60.2085 88.1094 60.0897V60.0909ZM80.6804 57.8708C80.4874 57.7155 79.0107 58.9204 78.7033 59.099C77.4741 59.8135 75.659 60.6855 74.3465 61.2758C72.6312 62.0491 70.9337 62.4451 69.1908 63.0787C69.0876 63.2251 69.9152 64.7539 70.0362 65.0557C70.4167 66.0054 70.8306 67.0417 71.1634 68.0258C71.2067 68.1545 71.1212 68.2643 71.1179 68.3875C72.3006 67.9037 73.7584 68.0424 74.8979 67.7506C75.7732 67.5265 76.6053 66.8863 77.504 66.6678C78.3749 63.6767 79.318 60.6766 80.6793 57.8708H80.6804ZM76.4434 69.3571C75.0088 70.0328 73.3424 69.6944 71.9567 70.3989C72.6146 72.173 73.2181 73.9215 73.7107 75.751C73.7418 75.8653 73.6564 76.035 73.6908 76.1582C73.8128 76.5964 74.1401 77.0524 74.1468 77.5783L74.3908 77.403L76.4445 69.3571H76.4434Z" fill="black"/>
</svg>
