<svg width="85" height="86" viewBox="0 0 85 86" fill="none" xmlns="http://www.w3.org/2000/svg">
<path d="M11.4706 46.7998C11.4926 45.9616 11.5626 45.3924 11.8554 44.608C12.6992 42.3473 14.4056 40.8165 14.5094 38.338C14.5606 37.1225 14.3613 35.8405 14.5026 34.6321C14.6029 33.768 14.7297 32.9204 14.8252 32.052C14.9305 31.1042 16.8477 27.624 17.5506 27.0128C17.9921 26.6295 18.4533 26.4376 18.9094 25.9452C19.2454 25.5824 19.4019 25.1686 19.7981 24.8228C21.1963 23.6051 23.1506 22.7898 24.6723 21.7662C27.0331 20.1789 30.6725 17.2326 33.6479 17.2522C34.0653 17.255 34.6336 17.5019 35.043 17.4426C36.3908 17.2466 38.4205 16.1412 39.8847 15.8213C40.5064 15.6852 41.3618 15.9039 41.9772 15.803C42.7542 15.6754 43.4244 15.2341 44.2541 15.0822C45.1504 14.9181 45.9625 15.0351 46.7665 14.9928C47.2427 14.9679 47.788 14.7302 48.3622 14.7242C49.0827 14.7168 49.6647 15.0904 50.3178 15.2303C52.797 15.7606 54.2751 16.0662 56.5885 17.3376C59.1913 18.7679 60.0136 20.262 61.9446 22.3138C62.5611 22.9688 63.3688 23.456 63.9671 24.0873C65.889 26.1151 66.2929 28.5355 67.7396 30.8112C68.9104 32.652 70.1324 34.4576 71.1732 36.3785C72.2486 38.3639 71.4458 41.7101 71.5734 43.9242C71.6658 45.5377 72.2784 47.0568 72.3521 48.503C72.4304 50.0215 71.1046 52.5564 70.5494 54.0456C70.1147 55.2108 70.0556 56.3722 69.1947 57.3745C67.0551 59.8659 64.0857 61.3792 61.6015 63.4584C60.5457 64.3425 60.5612 64.4964 59.2612 65.2084C57.4787 66.1855 56.2355 67.4214 54.6196 68.5012C53.908 68.9767 53.0733 69.327 52.3551 69.7969C50.946 70.72 49.1063 72.3632 47.3508 72.6316C46.8954 72.7009 47.303 72.2865 46.4338 72.9223C46.3764 72.9645 46.3054 72.991 46.2451 73.0302C45.4976 72.765 44.6941 73.17 43.9152 73.1898C41.163 73.2594 36.2378 71.0406 33.5201 70.0587C31.7169 69.4071 30.1076 69.0124 28.2916 68.4792C26.2522 67.8805 23.8932 66.5896 22.3562 65.095C21.8362 64.5887 21.4622 63.8573 20.7914 63.5636C20.5592 63.2899 20.2593 63.1146 20.0135 62.8592C19.9371 62.7798 19.9094 62.6387 19.7542 62.6243C18.7112 60.6836 17.1392 58.9749 15.7934 57.2259C13.649 54.4365 12.8397 53.7616 12.1723 50.2282C12.1031 49.8637 12.0806 49.4503 12.0001 49.0501C11.9197 48.6499 11.4972 47.3853 11.4977 47.2937C11.4982 47.2583 11.7857 47.2931 11.5216 46.8971C11.5008 46.8668 11.4848 46.8327 11.4666 46.8009L11.4706 46.7998ZM15.6872 55.4996C16.7709 56.9205 18.2465 58.4865 19.2192 59.9322C19.6147 60.5201 19.8935 61.2696 20.3283 61.8198C20.671 62.2529 21.2302 62.4921 21.5902 62.8228C22.2511 63.429 22.7308 64.1421 23.4132 64.7477C24.6706 65.8634 27.0363 67.1399 28.6486 67.588C30.2608 68.0361 31.2488 68.2154 32.8625 68.8148C35.6091 69.8352 41.7517 72.5648 44.4235 72.1794C45.8527 71.9732 48.6789 71.2548 49.8707 70.5284C50.6613 70.0465 51.4371 69.2029 52.2325 68.7135C52.7015 68.4245 53.1812 68.3215 53.6137 68.0592C54.4386 67.5589 55.2796 66.5621 56.0827 66.0097C57.1559 65.2726 58.5417 64.761 59.5966 64.0824C60.2967 63.6311 60.8182 62.6681 61.4327 62.1976C62.1132 61.6778 62.8852 61.4149 63.5915 60.7914C66.7958 57.9601 71.4822 51.3594 71.0597 46.8453C70.9272 45.435 70.3419 44.6334 70.4088 42.9488C70.5736 38.7913 70.3305 36.4031 67.9592 32.7339C67.7146 32.356 67.3012 31.982 67.0539 31.5952C66.189 30.2378 65.4461 28.4021 64.5268 27.1566C64.1059 26.5866 63.296 26.5539 62.7782 25.8484C61.4228 24.0042 61.2446 22.5802 59.3392 20.9271C58.3758 20.0909 56.3672 18.2895 55.3447 17.7962C53.5665 16.937 51.8533 16.7305 49.9836 16.5032C49.0433 16.3892 47.1635 15.9393 46.3409 16.0052C45.4013 16.0793 44.4515 16.6885 43.4147 16.7514C42.0749 16.8327 41.6152 16.9489 40.3072 17.2709C38.5191 17.7114 37.1088 18.0895 35.2832 18.3639C34.0833 18.5434 33.4035 19.201 32.3759 19.652C30.206 20.6045 27.2662 21.2847 25.2991 22.4234C24.4902 22.8912 23.5477 24.1146 22.6636 24.6699C22.1859 24.9697 21.3632 25.1561 20.9108 25.4579C20.3817 25.8104 19.2622 26.8726 18.7567 27.3569C17.4511 28.6061 17.3597 29.5541 16.7227 31.1393C16.421 31.89 16.0421 32.2481 15.8972 33.1646C15.6478 34.7369 16.3621 35.7482 16.2853 37.148C16.2643 37.5336 15.5763 40.765 15.4661 40.9521C15.3332 41.1779 15.1383 41.2306 15.0183 41.3905C14.0581 42.6673 12.4576 44.7173 12.4681 46.3987C12.4734 47.172 12.8057 47.8183 12.9425 48.5505C13.1144 49.4688 13.2209 50.3951 13.4189 51.309C13.8838 53.444 14.4192 53.8385 15.6892 55.5031L15.6872 55.4996ZM63.4393 25.0352C63.4937 25.1025 63.7951 25.791 63.902 25.4091C63.9134 25.3687 63.7256 24.4689 63.4246 24.7883C63.3241 24.5401 63.0618 23.9803 62.7419 24.0295C62.8915 24.4441 63.1915 24.7282 63.4401 25.0347L63.4393 25.0352Z" fill="#050607"/>
<path d="M46.2542 73.027C45.9017 73.2565 42.7267 73.7723 42.3542 73.649C41.3422 73.3148 40.1221 73.5233 38.9366 73.3761C38.5387 72.9769 37.6414 72.6767 37.0001 72.489C36.6967 72.4001 36.4563 72.2528 36.1918 72.5175C36.1652 72.4952 36.1633 72.4436 36.1368 72.4212C35.2818 71.6964 34.1931 71.9318 33.3473 71.4242C33.2316 71.3544 33.1962 71.1416 33.1111 71.1071C33.0531 71.084 32.8714 71.2124 32.7322 71.1818C32.2459 71.0743 31.883 70.7687 31.4417 70.5652C30.9275 70.3284 31.1742 70.4205 30.7573 70.127C30.6113 70.0242 30.3692 70.1613 30.2161 70.0239C30.1153 69.9339 30.06 69.5616 29.8561 69.6429C29.7978 69.6656 29.6488 69.9416 29.5701 69.9163C29.5458 69.9079 29.4422 69.624 29.2304 69.5248C29.0626 69.4462 28.5568 69.5278 28.3853 69.3763C28.1559 69.1736 28.6569 69.1158 28.5587 69.0243C28.3262 68.8082 28.3121 69.1898 28.179 69.2483C27.5513 69.5248 27.4541 68.8297 27.2342 68.7141C27.1696 68.6795 26.9662 68.8039 26.819 68.7674C26.3167 68.642 26.4483 68.3596 25.7614 68.5142C25.73 68.5216 25.702 68.5551 25.667 68.5682C25.5315 68.3973 25.4576 68.2639 25.689 68.1703C25.6339 67.9934 25.5039 68.166 25.3527 68.2371C25.2571 68.116 25.2766 68.14 25.1484 68.0985C25.0527 68.0677 24.9976 68.0476 24.9046 68.1101C24.6725 67.8504 24.634 67.9098 24.4677 67.7835C24.4277 67.7537 24.904 67.0613 23.9378 67.5112L24.0457 67.2598L23.6391 67.4265C23.4825 67.249 24.1676 67.1434 23.8796 66.973C23.6522 66.8382 23.3505 67.2752 23.1798 66.6244C23.1504 66.5147 23.3307 66.4644 23.3309 66.4526C23.359 66.1239 23.0548 66.3995 22.955 66.3898C22.6432 66.3606 22.2489 65.3223 22.0267 65.0921C21.9739 65.0379 21.7845 65.1566 21.6046 64.9221C21.4614 64.7358 21.3143 64.3959 21.1332 64.1351C21.0375 63.9977 20.9411 63.7202 20.8034 63.5576C21.4737 63.8505 21.8483 64.5827 22.3683 65.089C23.9058 66.5845 26.2643 67.8745 28.3037 68.4733C30.1196 69.0064 31.729 69.4011 33.5322 70.0527C36.249 71.0351 41.175 73.2534 43.9273 73.1838C44.7062 73.1641 45.5096 72.759 46.2571 73.0242L46.2542 73.027Z" fill="#93C1DD"/>
<path d="M59.9994 68.6122C60.0082 68.6235 60.0635 68.7243 59.9321 68.804C59.1763 69.2603 59.3523 68.6796 59.2829 68.6526C58.9262 69.2708 57.9441 69.8235 57.2329 69.9417C57.133 69.9578 57.0491 69.7949 57.0001 69.8217C56.7061 69.9826 56.2964 70.9121 55.6544 70.8538L55.9127 71.0868C55.705 71.3366 55.6197 70.9579 55.4111 71.0009C55.2025 71.0439 54.9555 71.3595 54.8648 71.5565C54.573 70.8004 54.5416 71.6041 54.5119 71.6304C54.1582 71.9542 53.9271 71.6482 53.5608 71.793C53.2865 71.3993 54.2294 71.3772 54.4362 71.2345C54.7544 71.0153 54.6694 70.9772 55.1618 70.7393C55.2074 70.7167 55.0977 70.5347 55.1422 70.4999C55.3325 70.3526 55.5834 70.5102 55.7257 70.4277C55.8323 70.3669 55.8885 70.1135 56.0804 69.9629C56.2723 69.8123 57.5555 69.1473 57.7452 69.1596C57.9479 69.1726 58.0999 69.3844 58.299 69.341L58.0259 68.8588C58.4667 68.778 58.5126 68.9368 58.7307 68.4539C59.2895 68.8572 59.0531 68.4172 59.4265 68.2344C59.7089 68.0954 59.8536 68.3488 59.9946 68.2578C60.2872 68.0684 60.4458 67.4673 60.6196 67.3715C60.679 67.3387 60.7682 67.5513 60.8288 67.5166C60.957 67.4434 60.9549 67.2386 61.1032 67.1082C62.0822 66.2504 63.4895 65.7605 64.5978 65.2317C65.0043 65.6518 64.1953 65.9968 63.9444 65.7325C63.7572 65.9436 64.4124 66.2322 63.8352 66.2551C63.4557 66.2704 63.5259 66.365 62.9957 66.2814C62.8 66.2503 62.2676 66.4162 62.5395 66.5302C62.5542 66.5359 62.7674 66.3884 62.8037 66.7013C62.8245 66.8804 62.3065 67.2746 62.1338 67.3662C61.2545 67.8356 60.8314 67.7705 59.9984 68.6104C60.0176 68.5374 59.9747 68.4623 59.9026 68.4426C59.8305 68.4229 59.7563 68.4641 59.7372 68.5371C59.718 68.6101 59.7609 68.6852 59.833 68.7049C59.9051 68.7246 59.9792 68.6834 59.9984 68.6104L59.9994 68.6122Z" fill="#A7BDDF"/>
<path d="M11.2913 46.9049C11.2132 46.8546 11.2385 46.6013 10.9926 46.8202C10.5558 45.1667 10.5152 44.2309 10.29 42.6241C10.2756 42.5164 10.116 42.4179 10.1184 42.3357C10.122 42.1931 10.6315 42.1 10.5975 41.7447C10.5752 41.5127 10.3526 41.7101 10.3317 41.6998C10.1116 41.5878 10.387 41.3743 10.3973 41.2455C10.4126 41.047 10.2751 40.8023 10.4267 40.567L10.1571 40.5313C10.8353 40.0035 10.3891 40.1412 10.3419 39.934C10.3245 39.8572 10.6416 39.4291 10.6701 39.3484C10.7325 39.1699 10.6654 38.974 10.7273 38.7969C10.7893 38.6199 11.008 38.4821 11.0531 38.2432C11.1255 37.8634 10.746 37.7136 11.2979 37.7087C10.8568 37.1375 11.3793 36.6528 11.4964 36.1902C11.5596 35.9409 11.5738 35.1413 11.6402 35.0143C11.7391 34.8255 12.0427 34.8805 12.0479 34.8553C12.0512 34.837 11.9305 34.6799 11.9455 34.5413C11.9895 34.1216 12.4092 33.6781 12.425 33.5872C12.4742 33.3073 12.2971 33.0114 12.4835 32.4308C12.6698 31.8501 12.5548 31.89 12.6198 31.6198C12.6683 31.4212 13.2192 30.8735 13.23 30.824C13.2435 30.7613 13.1158 30.6363 13.1335 30.5606C13.1526 30.4795 13.3466 30.4471 13.3583 30.3268C13.3848 30.0576 12.98 29.8133 13.5191 29.6694C13.6427 29.6363 13.6503 29.9071 13.7825 29.7766C13.7085 29.6631 13.7608 29.4974 13.6979 29.3893C13.6351 29.2811 13.4728 29.5401 13.4155 29.3492C13.9551 29.178 14.0406 28.642 14.3589 28.2038C14.5173 27.9845 14.8615 27.7668 14.9547 27.586C15.0478 27.4052 14.8764 27.1494 14.8954 27.1022C14.913 27.0606 15.2786 26.7897 15.4132 26.4845C15.4904 26.3081 15.4138 26.0673 15.4249 26.0445C15.4401 26.0148 15.6618 26.031 15.7589 25.9416C15.9442 25.7714 16.1363 25.4181 16.3111 25.2012C16.8707 24.508 17.604 23.4311 18.1981 22.744C18.3185 22.6049 18.491 22.4022 18.5955 22.2594C18.6921 22.1269 18.5778 21.7519 19.15 21.7342C18.83 21.3912 19.1629 21.5758 19.3313 21.5007L18.0056 23.6677C17.7467 24.0088 17.2798 24.2087 17.1794 24.6443L16.9297 24.5328C17.2605 24.8767 17.0212 25.0953 16.7711 25.4174C16.1612 26.2036 15.5673 26.7724 15.1908 27.6314C15.0732 27.9 14.7189 28.1586 14.624 28.3322C13.9578 29.5547 12.5661 32.3262 12.5036 33.6523C12.4959 33.816 12.632 34.0743 12.6124 34.1265C12.5802 34.2128 12.344 34.2658 12.2839 34.3938C12.1925 34.5877 12.5341 34.8399 12.0629 35.1008C12.0438 35.1117 11.8033 35.0465 11.7252 35.1672C11.7812 35.3436 11.9088 35.1748 12.0629 35.1008C12.2773 35.5064 11.8315 35.87 11.7194 36.2549C11.5479 36.8434 11.5829 37.9101 11.4378 38.5188C11.3004 39.0985 10.9023 39.6221 10.8017 40.3529C10.7717 40.5738 10.9623 40.8432 10.6736 41.0033L10.9427 41.0382C10.7034 41.3611 11.0311 41.7922 11.0135 42.0107C10.9995 42.1873 10.6851 42.2099 10.6633 42.2903C10.6534 42.3252 10.8131 42.5466 10.8239 42.6962C10.8531 43.0871 10.2146 43.6181 10.9132 44.0551C10.3817 44.2345 10.8661 44.4451 10.958 44.8352C10.9966 44.9993 10.8476 45.205 10.8802 45.3023C10.9455 45.4911 11.6419 45.4716 11.0352 45.7829C11.2441 46.0138 11.1547 46.354 11.2792 46.6343C11.3482 46.7892 11.4696 46.7866 11.4761 46.7981C11.4943 46.8299 11.5103 46.8641 11.5311 46.8944C11.4323 46.9707 11.3912 46.9731 11.2873 46.9059L11.2913 46.9049Z" fill="#BDC2E4"/>
<path d="M52.0935 72.504C50.45 72.7132 48.6027 73.2893 47.1814 73.3868C47.1073 73.3917 46.6136 73.2532 46.5725 73.2638C45.9194 73.4272 45.0615 73.8235 44.3595 73.9657C44.2062 73.997 44.0939 73.7802 43.9837 73.8126C43.8071 73.8632 43.6436 74.0596 43.4522 74.1186C43.3738 74.1422 43.2998 73.9784 43.2147 74.0024C43.0777 74.042 42.8905 74.2391 42.8062 74.2182C42.7579 74.206 42.7089 73.9915 42.6402 73.9699C42.5437 73.9395 41.9843 74.3035 41.7489 74.1346L41.9768 73.878C41.7676 73.7551 41.6644 74.0389 41.4713 73.9923C41.2517 73.9397 41.1362 73.6872 41.1042 73.6773C41.0617 73.6653 40.666 73.992 40.3084 73.9632C40.2277 73.9566 39.0343 73.4778 38.9366 73.379C37.9726 73.2598 37.7602 73.0286 36.9256 72.7839C36.4485 72.6443 36.6812 72.9411 36.1908 72.5209C36.4554 72.2562 36.6957 72.4035 36.9992 72.4925C37.6404 72.6801 38.5377 72.9803 38.9357 73.3795C40.1221 73.5263 41.3413 73.3183 42.3533 73.6525C42.7267 73.7753 45.9007 73.2599 46.2532 73.0305C46.3136 72.9913 46.3846 72.9648 46.442 72.9226C46.5254 73.1994 46.6801 73.0279 46.853 73.0228C48.321 72.983 49.6414 72.4736 51.0179 72.4626C51.164 72.4611 51.609 72.3756 51.7376 72.3232L51.9814 72.3117C52.0051 72.3391 52.0143 72.3795 52.0363 72.4079L52.0913 72.5041L52.0935 72.504Z" fill="#BDC2E4"/>
<path d="M19.9448 63.1557C19.7763 63.2367 19.7553 62.655 19.3624 63.2319C19.4791 62.123 18.2949 62.4527 18.0348 61.565L18.318 61.4032L18.5778 61.6389L18.3974 61.1038C18.3079 61.0858 18.1131 61.71 18.0673 60.9703C17.6828 61.3386 17.5744 60.9298 17.267 60.665C17.2034 60.5375 17.8095 60.5168 17.2359 60.1722L17.4921 59.9592C17.4425 59.7779 17.3006 60.01 17.2115 59.9122C16.8821 59.5488 16.1014 58.3084 15.9061 57.8579C15.8351 57.6935 16.1191 57.4728 15.8036 57.222C17.1485 58.9715 18.7214 60.6798 19.7644 62.6205C19.7979 62.6833 19.8739 62.9912 19.9448 63.1557Z" fill="#A7BDDF"/>
<path d="M21.1242 64.14C20.9248 63.7808 20.6502 63.9294 20.6212 63.9167C20.0175 63.6561 20.1519 63.6601 19.9376 63.1584C20.0269 63.1156 19.9853 62.9461 20.0165 62.858C20.2623 63.1135 20.5622 63.2887 20.7944 63.5625C20.9326 63.726 21.0285 64.0026 21.1242 64.14Z" fill="#A7BDDF"/>
<path d="M73.7388 42.3923C73.0626 42.7808 73.5037 42.037 73.4761 41.9404C73.2884 41.27 73.3711 41.5214 73.3426 40.9486C73.3338 40.7663 73.2162 40.104 73.2762 40.0018C73.3483 39.8787 73.8436 39.7386 73.5124 39.587C73.4552 39.5611 73.3372 39.8733 73.0923 39.2637C72.8475 38.6541 73.3174 38.785 73.358 38.6529C73.3684 38.6189 73.0791 38.1928 73.0182 38.032C72.8523 37.5986 72.5825 36.8709 72.4769 36.4406C72.4528 36.3443 72.6206 36.266 72.5906 36.2094C72.3897 35.8417 71.9452 35.8274 72.7631 35.4176C72.841 35.6003 72.871 35.7413 73.038 35.8988C72.7117 36.0817 72.5506 36.0589 72.8258 36.4041C73.2543 35.9076 72.9574 36.5983 72.9743 36.6319C73.2767 37.2438 73.1855 37.42 73.3351 38.0278C73.4071 38.3227 73.8979 39.6666 73.8979 39.8095C73.897 39.9084 73.6965 39.853 73.6836 39.9892C73.6577 40.2616 74.0028 40.6185 73.6882 40.7654C74.691 40.9608 73.8623 40.9938 73.7791 41.1478C73.6615 41.3661 73.8241 41.7252 74.0472 41.8343C73.6648 41.9872 73.6892 42.0341 73.7398 42.394L73.7388 42.3923Z" fill="#A7BDDF"/>
<path d="M25.3753 68.4824C25.2833 68.4682 25.1795 68.5719 24.9375 68.476C24.5215 68.3107 24.1977 67.8926 23.8848 67.6463C23.8036 67.5826 23.68 67.6637 23.6259 67.6032C23.4244 67.3811 23.4201 66.9514 22.9923 67.1595C23.0913 66.5467 22.9823 66.945 22.7382 66.7507C22.4974 66.5604 22.0726 66.05 21.8634 65.7902C21.6813 65.5639 21.9321 65.2872 21.4768 65.5999L21.6774 65.2956C21.2752 65.2631 21.2887 64.6734 20.9032 65.034C20.7594 64.8808 21.0848 64.8835 21.0107 64.7818C20.9463 64.6933 20.8122 64.8928 20.759 64.7897C20.6758 64.6299 20.7438 64.385 20.4631 64.2655L20.6367 63.9099C20.6658 63.9226 20.9403 63.7739 21.1397 64.1331C21.3222 64.3943 21.4679 64.7338 21.6111 64.9201C21.7915 65.1555 21.9813 65.0354 22.0332 65.0901C22.2554 65.3203 22.6492 66.3577 22.9615 66.3878C23.0613 66.3976 23.3656 66.1219 23.3374 66.4506C23.3359 66.4621 23.1569 66.5127 23.1863 66.6224C23.3584 67.2736 23.6592 66.8371 23.8861 66.971C24.1741 67.1414 23.4899 67.2465 23.6456 67.4246L24.0523 67.2579L23.9443 67.5092C24.9108 67.0579 24.4346 67.7503 24.4742 67.7815C24.6406 67.9078 24.6798 67.8479 24.9111 68.1081C24.9759 68.1812 25.0106 68.3124 25.0769 68.3963L25.1549 68.0965C25.284 68.1376 25.2637 68.114 25.3592 68.2351C25.4138 68.3046 25.4526 68.4148 25.3748 68.4815L25.3753 68.4824Z" fill="#BDC2E4"/>
<path d="M69.616 29.9306C69.2902 29.1893 69.1901 29.4643 68.9105 29.0935C68.7871 28.9298 68.7942 28.6868 68.6754 28.4948C68.5565 28.3027 68.3418 28.1782 68.2324 27.9726C68.1611 27.8376 68.386 27.2864 68.2943 27.176C68.2706 27.1486 67.8582 27.1464 67.6612 26.876C67.5655 26.7445 67.5786 26.5403 67.4617 26.3939C67.1899 26.0527 66.9083 25.7568 66.5708 25.4835L66.8666 25.1167C67.2917 25.6338 67.7471 26.403 68.0687 26.7791C68.2044 26.9382 68.8073 27.2718 68.673 27.646C68.6276 27.7737 68.2314 27.7717 68.3663 27.9617L68.9328 27.6404C69.155 27.8566 68.885 27.8563 68.9009 28.0088C68.9671 28.6396 69.7835 28.6031 69.852 28.8216C69.8918 28.9476 69.6853 29.1873 69.797 29.3788C69.8938 29.5483 70.1725 29.4852 70.2369 29.7025L69.616 29.9306Z" fill="#A7BDDF"/>
<path d="M36.144 72.4249C35.9524 72.4231 35.7664 72.4755 35.5731 72.4488C34.833 72.3434 34.0458 71.8258 33.3867 71.6109C33.2356 71.5614 33.0093 71.6438 32.8298 71.5929C32.3606 71.4592 32.4251 71.1297 32.3915 71.1231C32.362 71.1177 32.2396 71.2473 32.1253 71.2341C31.4968 71.1633 31.0326 70.5396 30.5756 70.399C30.485 70.3711 30.4308 70.4712 30.3933 70.4739C30.312 70.4805 30.2304 70.4803 30.1495 70.4855C30.1409 70.392 30.1863 70.194 30.0791 70.1451C30.026 70.1204 29.0248 70.2777 28.9197 70.2546C28.8773 70.2448 28.8165 70.1203 28.7328 70.0721C28.6821 70.0437 28.5574 70.109 28.5273 70.0583C28.4486 69.9264 28.5461 69.7232 28.3334 69.6082C28.2818 69.5802 27.3226 69.244 27.2654 69.2403C27.0991 69.2287 26.7875 69.3728 26.747 69.3561C26.6972 69.3354 26.3373 68.3734 26.0871 68.973L25.7674 68.5198C26.4543 68.3652 26.3219 68.6481 26.825 68.7729C26.9722 68.8094 27.1761 68.6859 27.2402 68.7196C27.4596 68.8343 27.5565 69.5308 28.185 69.2538C28.3173 69.1958 28.3317 68.8129 28.5647 69.0299C28.6629 69.1213 28.1619 69.1792 28.3913 69.3818C28.5628 69.5333 29.0687 69.4517 29.2365 69.5303C29.4468 69.6292 29.5518 69.9135 29.5761 69.9219C29.6548 69.9471 29.8038 69.6711 29.8621 69.6484C30.0669 69.5666 30.1218 69.9404 30.2221 70.0295C30.3761 70.1663 30.6173 70.0297 30.7633 70.1325C31.1802 70.4261 30.9339 70.3326 31.4477 70.5707C31.889 70.7742 32.2519 71.0798 32.7382 71.1873C32.8774 71.2179 33.06 71.0891 33.1171 71.1126C33.2017 71.1463 33.2368 71.3604 33.3533 71.4297C34.1991 71.9373 35.2878 71.7019 36.1428 72.4268L36.144 72.4249Z" fill="#BDC2E4"/>
<path d="M59.0556 18.22C59.0206 18.219 58.9724 18.3297 58.8255 18.2695C58.4761 18.1283 58.1198 17.5929 57.7804 17.4191C57.3354 17.1908 57.0684 17.5377 56.8061 16.6945C57.4428 16.8519 57.7862 17.1054 58.3853 17.549C58.4968 17.6317 58.6466 17.5461 58.707 17.6136C58.8502 17.7718 58.9244 18.0386 59.0551 18.2192L59.0556 18.22Z" fill="#BDC2E4"/>
<path d="M12.0133 49.0519L11.7846 49.309C11.7567 49.1938 11.7688 49.0803 11.7145 48.9673C11.5799 48.6893 11.3584 48.5348 11.2726 48.3824C11.2484 48.3401 11.3259 47.7981 11.2282 47.4581L11.3226 47.4042L11.4211 47.2449L11.5113 47.2964C11.51 47.3885 11.9321 48.6463 12.0138 49.0528L12.0133 49.0519Z" fill="#BDC2E4"/>
<path d="M63.1782 21.4866C62.6478 21.875 62.1049 20.6932 61.8056 20.4367C61.6206 20.2777 61.3652 20.6168 61.2673 19.8964C61.7562 20.0024 62.8524 21.0509 63.1782 21.4866Z" fill="#BDC2E4"/>
<path d="M33.9003 12.7961C33.9552 13.3748 32.7433 13.9335 32.5074 13.2087C33.188 12.9546 33.2307 12.9127 33.9003 12.7961ZM33.4357 13.1891L33.3807 13.0928C33.3374 13.1597 33.356 13.1924 33.4357 13.1891Z" fill="#A7BDDF"/>
<path d="M72.6408 35.2279C72.3813 35.3808 72.3743 35.4832 72.2223 35.1507C72.1282 34.9457 71.67 34.0751 71.7011 33.9929C71.7419 33.8853 72.1325 33.8332 72.0989 33.6216C72.2858 33.9528 72.4294 34.721 72.6408 35.2279Z" fill="#A7BDDF"/>
<path d="M66.7572 24.9267C66.3457 25.28 66.4031 24.8034 66.1635 24.589C65.8625 24.3194 65.463 23.9094 65.2 23.6943C64.954 23.4928 64.8013 23.6819 64.3886 23.1483C64.1776 22.8754 64.1646 22.8547 63.9191 22.5897C64.5197 22.3462 64.7706 23.1737 65.0891 23.4859C65.5825 23.9699 66.1022 24.172 66.7577 24.9276L66.7572 24.9267Z" fill="#A7BDDF"/>
<path d="M55.223 15.6802C55.1246 15.9565 55.0313 15.8212 54.8482 15.7338C54.474 15.5552 53.362 14.9515 53.0668 14.873C52.8067 14.8037 52.4652 15.0503 52.2738 14.683C52.6148 14.4355 52.4379 14.5401 52.2188 14.5868C52.105 14.6108 52.029 14.7713 51.8322 14.6741C51.7489 14.6327 51.6855 14.4675 51.6127 14.4505C51.5343 14.432 50.4864 14.5598 50.0318 14.4998C48.621 14.316 47.6568 13.9932 46.4484 13.2489C46.0474 13.0013 45.9702 13.3487 45.3986 12.736C44.8426 13.0032 44.2403 12.6645 43.7153 12.421C43.8935 12.3228 44.2716 12.1443 44.4615 12.1892C44.6072 12.2231 44.6779 12.4193 44.7598 12.438C44.8591 12.461 44.9771 12.3116 45.0307 12.3091C45.0844 12.3065 45.0483 12.5812 45.1096 12.6282C45.1421 12.653 45.1729 12.4937 45.3986 12.736C45.551 12.663 45.6228 12.5494 45.7203 12.4246C45.7424 12.6322 46.328 12.9617 46.4936 13.0064C46.6237 13.041 47.2031 13.052 47.3714 13.1597C47.4181 13.1892 47.3914 13.4 47.4799 13.5005C47.6519 13.695 47.9769 13.5281 48.1944 13.5632C48.3258 13.5841 48.4235 13.7169 48.5665 13.7441C48.6823 13.7658 48.9112 13.6479 48.9306 13.6556C48.9518 13.6646 48.9638 14.0617 49.0542 14.0932C49.0959 14.108 49.6813 13.8299 49.9109 13.892C50.0546 13.9305 50.2183 14.193 50.4292 14.2143C50.7497 14.2466 50.9163 13.8587 51.0775 14.344L51.2625 14.113C51.2636 14.336 51.7721 14.2974 52.0198 14.2847C52.1289 14.2786 52.2909 14.1299 52.3348 14.1423C52.4098 14.165 52.47 14.4796 52.5628 14.5074C52.6186 14.5247 52.7756 14.3531 52.8319 14.3713C52.9248 14.4013 52.9668 14.6959 53.0664 14.7256C53.1176 14.7409 53.2433 14.5989 53.3314 14.6164C53.4586 14.6421 54.4762 15.2776 54.6958 15.3946C54.9659 15.5378 54.8896 15.4525 55.222 15.6784L55.223 15.6802Z" fill="#BDC2E4"/>
<path d="M53.3737 71.897C53.3633 71.9451 53.5417 72.0645 53.4365 72.1176C53.4152 72.1286 53.1228 71.8237 52.9958 72.1141C52.9699 72.1733 53.3773 72.2732 53.357 72.4148C52.9325 72.4898 52.5194 72.4482 52.0899 72.5026L52.0349 72.4064C52.5741 72.2565 52.9003 71.1346 53.3728 71.8975L53.3737 71.897Z" fill="#A7BDDF"/>
<path d="M61.1062 19.8562C60.5479 19.7454 60.7548 19.6412 60.3345 19.2794C60.0385 19.0245 59.2475 18.7796 59.5504 18.4473C60.0222 18.7364 60.3189 18.8398 60.5788 19.3331C60.5981 19.3689 61.0408 19.3596 61.1076 19.8566L61.1062 19.8562Z" fill="#BDC2E4"/>
<path d="M32.4104 13.2649C32.2212 13.4163 32.4521 13.7259 32.3935 13.7863C32.1794 13.9905 32.1561 13.5073 31.8432 13.5889C31.5855 13.6564 31.8325 13.9322 31.5756 13.997C31.5449 14.0157 31.5123 14.0331 31.4812 14.0509C31.4145 14.0246 31.3286 13.9226 31.2768 13.9123C30.4446 13.7483 30.9509 14.5482 30.9286 14.6218C30.8541 14.8774 30.4471 14.4483 30.2844 14.4792L30.4025 14.7946C30.0757 14.7974 29.8133 15.1827 29.6211 15.2503C29.5101 15.2891 29.2124 14.9087 29.1133 15.1574C29.0982 15.1953 29.3143 15.3787 29.0723 15.4255C28.5815 14.9904 28.5818 15.7209 28.0018 15.5299L28.2137 15.7883C27.7819 16.0478 27.7447 16.1978 27.521 15.6734L27.4503 16.0966C27.2323 16.1111 27.1343 15.7666 27.0381 15.8192C26.8629 15.9146 26.5208 16.5725 26.3865 16.6551C26.2397 16.7459 25.4961 16.954 25.261 17.1035C25.0639 17.229 24.6801 17.8217 24.2959 18.0178C23.9117 18.2138 23.057 18.2335 22.6863 18.4733C22.0631 18.8761 22.1485 19.4339 21.1831 19.9314L20.9393 19.943C20.9272 19.8856 20.8533 19.8165 20.8294 19.7505C21.5782 18.9985 21.8199 18.4565 22.8729 17.9956C23.2636 17.8251 23.7884 17.5757 24.2069 17.2828C24.4054 17.1437 24.6501 16.8564 24.7448 16.622C24.7274 17.0862 25.2168 16.8231 25.3744 16.6184C25.4291 16.5473 25.1818 16.1967 25.5681 16.5312C25.7646 15.9985 25.8281 15.9388 26.3012 15.7295C26.271 15.6625 26.2224 15.6036 26.1921 15.5365L26.6243 15.4185C26.7001 15.7945 26.4269 15.6741 26.3012 15.7295C26.3621 15.8622 26.4554 15.9834 26.5211 16.1145C26.8179 15.9707 26.9017 15.4498 27.2291 15.3694C27.4574 15.3127 27.5257 15.5349 27.6182 15.4937C27.75 15.4349 28.0019 15.0837 28.3096 14.9548C28.5023 14.874 28.5479 15.0764 28.5947 15.0438C29.028 14.7447 29.3683 14.4719 29.9375 14.4208L29.8198 14.104C30.2011 14.4319 30.9718 14.1123 30.9139 13.6067C31.3979 13.9896 31.3802 13.5805 31.7734 13.3641C32.0387 13.2173 32.3104 13.3009 32.4094 13.2631L32.4104 13.2649Z" fill="#A7BDDF"/>
<path d="M12.1693 50.2283C11.9918 50.0382 11.3052 49.1738 11.6985 48.9656C11.7527 49.0787 11.7411 49.193 11.7685 49.3074L11.9972 49.0503C12.0772 49.4519 12.1006 49.8648 12.1693 50.2283Z" fill="#A7BDDF"/>
<path d="M73.8583 47.4312C73.653 46.9934 73.398 47.0032 73.7567 46.5958C73.9914 46.8036 74.1854 47.2619 73.8583 47.4312Z" fill="#A7BDDF"/>
<path d="M19.4256 21.4475C19.4627 21.1687 19.7561 21.0831 19.9022 20.9107C19.9853 20.8129 19.7546 20.5477 20.2055 20.6192C20.1174 21.1285 19.8676 21.2302 19.4256 21.4475Z" fill="#BDC2E4"/>
<path d="M42.7592 12.0756C43.0533 11.9451 43.421 12.2188 43.6562 12.3291C43.2942 12.393 42.9432 12.4963 42.7592 12.0756Z" fill="#BDC2E4"/>
<path d="M63.2892 21.6752C63.5644 21.7287 63.6559 22.1343 63.9412 21.9421C64.0656 22.0935 63.8551 22.085 63.7751 22.16C63.6764 22.2526 63.9238 22.342 63.8774 22.4879C63.5559 22.1423 63.483 21.938 63.2883 21.6757L63.2892 21.6752Z" fill="#BDC2E4"/>
<path d="M55.8338 16.101C56.0527 16.2429 56.5185 16.3083 56.6512 16.6553C56.4589 16.6163 56.3232 16.5194 56.1846 16.4979C56.1288 16.4887 56.0167 16.6382 55.9898 16.5892C55.9587 16.5308 55.9865 16.2093 55.8325 16.1006L55.8338 16.101Z" fill="#BDC2E4"/>
<path d="M42.6765 12.1281C42.6189 12.168 42.4693 12.4713 42.3539 12.44C42.3059 12.4264 42.2116 12.1266 42.134 12.055C42.3664 11.8486 42.4763 11.9345 42.6765 12.1281Z" fill="#BDC2E4"/>
<path d="M10.9853 46.8243C11.2312 46.6054 11.2059 46.8587 11.284 46.909C10.9059 47.0453 11.3581 47.0868 11.3151 47.4018L11.2207 47.4557C11.1673 47.2696 11.0559 47.0908 10.9853 46.8243Z" fill="#A7BDDF"/>
<path d="M25.659 68.5719C25.3083 68.7019 25.4295 68.498 25.3602 68.4873C25.4381 68.4205 25.3993 68.3104 25.3447 68.2409C25.4959 68.1697 25.6267 67.9966 25.681 68.1741C25.4495 68.2676 25.5235 68.4011 25.659 68.5719Z" fill="#A7BDDF"/>
<path d="M64.9758 65.0166L65.0702 64.9627C64.9866 65.0315 64.9801 65.0141 64.9758 65.0166Z" fill="#A7BDDF"/>
<path d="M51.7353 72.322C51.7501 72.3158 51.7695 72.1326 51.8682 72.1184C51.9122 72.1753 51.935 72.2594 51.9781 72.3109L51.7344 72.3225L51.7353 72.322Z" fill="#A7BDDF"/>
<path d="M13.425 51.3031C13.2261 50.3897 13.1205 49.4629 12.9487 48.5446C12.8114 47.8115 12.4795 47.1661 12.4742 46.3928C12.4637 44.7114 14.0642 42.6614 15.0244 41.3846C15.1444 41.2247 15.3393 41.172 15.4722 40.9462C15.5825 40.7591 16.2701 37.529 16.2914 37.1421C16.3682 35.7423 15.6539 34.731 15.9033 33.1587C16.0482 32.2422 16.4266 31.8832 16.7288 31.1333C17.3663 29.549 17.4572 28.6002 18.7628 27.351C19.2692 26.8662 20.3892 25.8049 20.9169 25.452C21.3694 25.1502 22.1925 24.9647 22.6697 24.664C23.5539 24.1087 24.4963 22.8853 25.3053 22.4175C27.2723 21.2788 30.2122 20.5986 32.3821 19.6461C33.4096 19.1951 34.09 18.5383 35.2894 18.358C37.1154 18.0844 38.5252 17.7055 40.3134 17.265C41.6214 16.943 42.0819 16.8263 43.4208 16.7455C44.4576 16.6826 45.4071 16.0748 46.347 15.9993C47.1697 15.9334 49.0494 16.3833 49.9897 16.4973C51.8589 16.7237 53.5727 16.9311 55.3508 17.7903C56.3725 18.2841 58.3819 20.085 59.3453 20.9212C61.2499 22.5747 61.4281 23.9988 62.7843 25.8425C63.303 26.5475 64.1121 26.5807 64.5329 27.1507C65.4522 28.3962 66.1951 30.2319 67.06 31.5893C67.307 31.9775 67.7208 32.3501 67.9653 32.728C70.3366 36.3972 70.5797 38.7854 70.4149 42.9429C70.348 44.6275 70.9338 45.43 71.0658 46.8394C71.4883 51.3535 66.8019 57.9542 63.5976 60.7855C62.8914 61.409 62.1193 61.6719 61.4388 62.1917C60.8243 62.6622 60.3028 63.6252 59.6027 64.0765C58.5483 64.756 57.1621 65.2667 56.0889 66.0038C55.2857 66.5562 54.4442 67.5521 53.6199 68.0533C53.1874 68.3156 52.7076 68.4186 52.2386 68.7076C51.4428 69.1984 50.667 70.042 49.8769 70.5225C48.685 71.2489 45.8588 71.9673 44.4296 72.1735C41.7587 72.5584 35.6152 69.8293 32.8686 68.8089C31.2549 68.2095 30.2382 68.022 28.6547 67.5821C27.0712 67.1422 24.6767 65.8575 23.4194 64.7418C22.7375 64.1371 22.2578 63.4239 21.5964 62.8169C21.2364 62.4862 20.6771 62.247 20.3344 61.8139C19.8987 61.2642 19.6208 60.5142 19.2253 59.9263C18.2531 58.4815 16.7771 56.9146 15.6933 55.4937C16.2603 55.2799 15.7017 55.1505 15.6141 54.8703C15.5546 54.6818 15.6787 54.3439 15.4113 54.1231L14.9384 54.3932C14.9298 53.9075 15.5383 54.1103 15.1056 53.6021C14.9758 53.4491 14.794 53.2555 14.6599 53.1072C14.5708 53.0094 14.4066 53.0095 14.3275 52.8931C14.2816 52.8268 14.44 52.7785 14.4518 52.6664C14.5037 52.1601 14.212 52.4134 14.1404 52.3383C13.8598 52.0442 13.9647 51.4597 13.4227 51.3009L13.425 51.3031ZM35.3888 65.1095C35.1204 65.9045 34.9703 66.7456 34.604 67.5098C34.7498 67.9722 35.0676 68.2451 35.5028 67.9333C36.2757 67.3783 36.551 65.0149 36.9222 64.1307C37.2515 63.3478 38.5929 61.3509 39.178 60.7345C40.3165 59.5327 41.7475 58.6861 42.9992 57.62C46.4606 54.6699 51.2502 49.7621 55.7695 48.8953C58.8297 48.3091 62.3694 48.2711 65.4281 47.5839C65.7223 47.5177 68.8914 46.6176 68.7258 46.3398C68.5866 46.0961 68.4291 46.2446 68.2582 46.2872C67.0898 46.5821 65.9565 46.9003 64.7609 47.0691C61.3233 47.5535 55.956 47.4222 52.9615 48.8913C47.4348 51.6017 42.3004 56.9535 37.5572 60.8405C36.5809 62.3244 35.9504 63.4445 35.3893 65.1104L35.3888 65.1095ZM36.0474 38.2173C40.753 35.292 44.7719 31.0294 49.0448 27.5315C49.6757 27.0154 50.4161 26.6406 51.0145 26.0716C51.9172 25.2129 52.6498 23.6926 53.2805 22.597C53.5025 22.2114 54.4821 21.0008 54.0858 20.4859C53.9607 20.3232 53.8958 20.4469 53.8169 20.5681C53.6434 20.8334 53.5527 21.2658 53.4012 21.5011C52.8002 22.4275 51.0878 24.7943 50.3244 25.4727C49.7867 25.9508 49.0802 26.2583 48.5684 26.6712C43.544 30.7295 38.5131 36.3992 32.4698 38.8788C31.5013 39.2763 30.5201 39.2617 29.5577 39.5713C28.3169 39.9708 26.5503 41.1227 25.4772 41.3492C24.6184 41.5305 23.2582 41.2242 22.4154 41.3894C21.1108 41.645 20.6893 42.2441 19.1868 41.7591C18.9221 41.6738 18.4242 41.2122 18.1564 41.4612C17.8411 41.7537 18.4203 42.3737 18.6537 42.5671C19.3684 43.159 20.7219 43.0312 21.5646 42.7934C21.8476 42.7138 22.0698 42.4955 22.3875 42.4124C23.1324 42.2165 24.6192 42.5313 25.4405 42.4029C26.7101 42.2048 28.5497 41.0077 29.8642 40.5403C30.7361 40.2309 31.8741 40.2449 32.6794 39.9114C33.6486 39.5089 35.1628 38.7658 36.0486 38.2154L36.0474 38.2173Z" fill="#92C3DD"/>
<path d="M15.6936 55.5019C14.4241 53.8381 13.8882 53.4427 13.4233 51.3077C13.9654 51.4665 13.8596 52.0515 14.141 52.3451C14.2126 52.4202 14.5044 52.1669 14.4524 52.6732C14.4406 52.7853 14.2836 52.834 14.3281 52.8999C14.4072 53.0163 14.5719 53.0171 14.6606 53.114C14.7955 53.2618 14.9764 53.4559 15.1063 53.6089C15.5389 54.1171 14.9299 53.9134 14.9381 54.3982L15.4109 54.1281C15.6788 54.3498 15.5553 54.6886 15.6142 54.8762C15.7019 55.1564 16.2605 55.2858 15.6935 55.4996L15.6936 55.5019Z" fill="#A7BDDF"/>
<path d="M63.4484 25.0332C63.1999 24.7267 62.8998 24.4426 62.7503 24.0279C63.0701 23.9787 63.3325 24.5385 63.4329 24.7868C63.4567 24.8446 63.4322 24.9605 63.4484 25.0332Z" fill="#93C1DD"/>
<path d="M63.4254 24.7871C63.7273 24.4671 63.9142 25.3674 63.9028 25.4078C63.7959 25.7897 63.4959 25.1016 63.44 25.034C63.4238 24.9613 63.4483 24.8454 63.4245 24.7876L63.4254 24.7871Z" fill="#070809"/>
<path d="M11.5083 47.2911L11.418 47.2397L11.3195 47.399C11.3633 47.0835 10.9103 47.0425 11.2884 46.9062C11.3922 46.9733 11.4342 46.9704 11.5322 46.8946C11.7962 47.2906 11.5087 47.2558 11.5083 47.2911Z" fill="#93C1DD"/>
<path d="M64.6051 65.2298C63.4976 65.7581 62.0889 66.2477 61.1104 67.1063C60.9621 67.2367 60.9648 67.4425 60.8361 67.5148C60.7755 67.5494 60.6862 67.3369 60.6269 67.3696C60.4525 67.4645 60.2944 68.0665 60.0018 68.2559C59.86 68.3475 59.7152 68.0941 59.4337 68.2326C59.0595 68.4159 59.2967 68.8554 58.7379 68.452C58.5198 68.9349 58.4731 68.7766 58.0331 68.8569L58.3062 69.3391C58.1071 69.3826 57.9551 69.1708 57.7524 69.1577C57.5628 69.1454 56.2757 69.8138 56.0877 69.961C55.8996 70.1083 55.8399 70.3637 55.733 70.4259C55.5892 70.508 55.3398 70.3507 55.1494 70.4981C55.105 70.5328 55.2152 70.7158 55.169 70.7375C54.6766 70.9753 54.7616 71.0135 54.4435 71.2327C54.2367 71.3753 53.2941 71.3961 53.568 71.7912C53.5203 71.8102 53.3813 71.8885 53.3792 71.899C52.9067 71.1361 52.5805 72.258 52.0413 72.4079C52.0193 72.3795 52.0101 72.3391 51.9864 72.3116C51.9428 72.2616 51.9195 72.1765 51.8764 72.1192C51.7769 72.1339 51.7583 72.3166 51.7435 72.3227C51.6149 72.3751 51.1704 72.4615 51.0237 72.4621C49.6459 72.4727 48.3263 72.9816 46.8588 73.0223C46.6855 73.0265 46.5308 73.198 46.4479 72.9222C47.3162 72.2869 46.9086 72.7012 47.3649 72.6314C49.1212 72.3625 50.9609 70.7193 52.3692 69.7967C53.0873 69.3268 53.9221 68.9765 54.6336 68.501C56.2495 67.4212 57.4922 66.1845 59.2752 65.2083C60.5752 64.4962 60.5592 64.3414 61.6155 63.4582C64.0997 61.379 67.0696 59.8666 69.2087 57.3743C70.0696 56.372 70.1287 55.2106 70.5635 54.0454C71.1186 52.5562 72.4445 50.0214 72.3662 48.5028C72.2911 47.0562 71.6798 45.5376 71.5874 43.924C71.4604 41.7108 72.2631 38.3646 71.1872 36.3783C70.1464 34.4575 68.9245 32.6518 67.7537 30.811C66.3069 28.5353 65.903 26.1149 63.9811 24.0872C63.3828 23.4558 62.5751 22.9686 61.9587 22.3136C60.0277 20.2618 59.2053 18.7678 56.6025 17.3374C54.2891 16.0661 52.811 15.7604 50.3318 15.2302C49.6788 15.0902 49.0967 14.7166 48.3763 14.7241C47.802 14.73 47.2562 14.9668 46.7805 14.9926C45.9766 15.0349 45.1644 14.9179 44.2681 15.082C43.4384 15.2339 42.7687 15.6761 41.9912 15.8029C41.3767 15.9032 40.5204 15.685 39.8987 15.8211C38.4345 16.141 36.4039 17.2469 35.057 17.4424C34.6467 17.5022 34.0793 17.2548 33.662 17.252C30.6865 17.2324 27.0467 20.1778 24.6863 21.766C23.1646 22.7897 21.2103 23.6049 19.8122 24.8227C19.4159 25.1684 19.2594 25.5822 18.9234 25.945C18.4673 26.4374 18.0061 26.6294 17.5647 27.0127C16.8617 27.6238 14.9432 31.1037 14.8393 32.0518C14.7429 32.9207 14.6174 33.7687 14.5166 34.6319C14.3758 35.8412 14.5746 37.1223 14.5234 38.3378C14.4196 40.8164 12.7133 42.3472 11.8694 44.6079C11.577 45.3908 11.5067 45.9615 11.4846 46.7996C11.4781 46.7881 11.3566 46.7907 11.2877 46.6357C11.1623 46.356 11.2525 46.0153 11.0437 45.7844C11.6503 45.4731 10.954 45.4925 10.8887 45.3038C10.8547 45.2061 11.0042 45.0013 10.9665 44.8367C10.8746 44.4465 10.3897 44.2351 10.9217 44.0566C10.2231 43.6195 10.8616 43.0886 10.8324 42.6977C10.8211 42.5472 10.6622 42.3253 10.6718 42.2918C10.6941 42.2123 11.008 42.1887 11.022 42.0121C11.0396 41.7936 10.7119 41.3625 10.9512 41.0396L10.6821 41.0048C10.9708 40.8446 10.7793 40.5758 10.8102 40.3544C10.9108 39.6236 11.3083 39.0991 11.4463 38.5202C11.5914 37.9116 11.5564 36.8449 11.7279 36.2563C11.84 35.8715 12.2858 35.5079 12.0714 35.1023C12.5431 34.8422 12.201 34.5891 12.2924 34.3953C12.3525 34.2672 12.5887 34.2143 12.6209 34.128C12.6405 34.0758 12.5044 33.8174 12.5121 33.6538C12.5733 32.3273 13.9663 29.5561 14.6325 28.3337C14.7269 28.1592 15.0817 27.9015 15.1993 27.6329C15.5749 26.7744 16.1689 26.2056 16.7796 25.4188C17.0297 25.0968 17.269 24.8782 16.9382 24.5343L17.1879 24.6458C17.2883 24.2102 17.7547 24.0094 18.0141 23.6692L19.3398 21.5022C19.373 21.4879 19.402 21.4643 19.4342 21.4482C19.8763 21.2309 20.1251 21.1297 20.2141 20.6199C20.2397 20.4718 20.1348 20.3162 20.2426 20.1751C20.3436 20.0424 20.653 19.9406 20.8438 19.7497C20.8677 19.8157 20.9416 19.8847 20.9537 19.9422C20.9558 19.9539 20.844 20.0236 20.9138 20.0915C21.0103 20.0433 21.101 19.981 21.1975 19.9306C22.162 19.4336 22.0774 18.8753 22.7007 18.4725C23.0714 18.2327 23.9447 18.2034 24.3102 18.0169C24.6953 17.8204 25.0783 17.2281 25.2754 17.1027C25.5104 16.9532 26.2541 16.7451 26.4009 16.6542C26.5347 16.5708 26.8781 15.9133 27.0525 15.8184C27.1479 15.7662 27.2462 16.1094 27.4647 16.0958L27.5354 15.6725C27.7591 16.197 27.7963 16.047 28.2281 15.7875L28.0162 15.5291C28.5962 15.7201 28.5963 14.9905 29.0867 15.4247C29.3278 15.3783 29.112 15.1936 29.1277 15.1566C29.2268 14.9079 29.5236 15.2888 29.6355 15.2494C29.8277 15.1818 30.0906 14.7975 30.4169 14.7938L30.2988 14.4783C30.4615 14.4475 30.8689 14.8752 30.943 14.6209C30.9644 14.5478 30.4582 13.7479 31.2912 13.9115L31.2254 14.0135C31.43 14.4903 31.4588 14.0722 31.4955 14.0501C31.5267 14.0323 31.5593 14.0149 31.5899 13.9962C31.6464 13.9604 32.0811 14.1161 31.8576 13.588C32.1705 13.5065 32.1938 13.9897 32.4079 13.7854C32.4664 13.7251 32.2356 13.4154 32.4248 13.2641C32.4585 13.2507 32.4859 13.2222 32.5192 13.2102C32.756 13.9344 33.967 13.3763 33.9121 12.7975C34.398 12.7132 35.3502 12.4621 35.7995 12.5006C35.9573 12.5135 36.1 12.699 36.1645 12.6692C36.3162 12.599 36.3587 12.3135 36.4246 12.256C36.4688 12.2167 36.5392 12.3943 36.6467 12.3774C36.9621 12.3284 37.6578 12.1207 37.973 12.011C38.3404 12.5377 38.3631 12.1933 38.6648 12.1264C39.1157 12.027 39.9635 12.2465 40.3939 12.1436C40.6286 12.088 40.6851 11.8028 40.9594 11.7702C41.1166 11.7519 42.0074 11.9422 42.1341 12.0595C42.2118 12.1311 42.306 12.4309 42.354 12.4445C42.47 12.4766 42.619 12.1725 42.6766 12.1326C42.7045 12.1131 42.74 12.0929 42.771 12.0787C42.9541 12.4999 43.3052 12.3966 43.668 12.3322C43.6949 12.345 43.6962 12.4156 43.723 12.4284C44.248 12.6719 44.8503 13.0106 45.4063 12.7434C45.9779 13.3561 46.0551 13.0087 46.4561 13.2563C47.665 14.0015 48.6278 14.3239 50.0395 14.5072C50.4936 14.5663 51.5429 14.4389 51.6204 14.4579C51.6937 14.4757 51.7571 14.641 51.8399 14.6815C52.0367 14.7787 52.1127 14.6182 52.2265 14.5942L52.2815 14.6904C52.4728 15.0577 52.8152 14.8106 53.0744 14.8804C53.3696 14.9589 54.4817 15.5626 54.8559 15.7412C55.0385 15.8278 55.1323 15.9639 55.2307 15.6876C55.4336 15.8258 55.6384 15.9711 55.8436 16.1033C55.9977 16.2121 55.9699 16.5335 56.001 16.5919C56.027 16.6415 56.1391 16.4919 56.1957 16.5006C56.3339 16.5212 56.4701 16.6191 56.6623 16.658C56.7114 16.6675 56.762 16.6877 56.8117 16.7003C57.074 17.5435 57.341 17.1967 57.786 17.4249C58.1254 17.5988 58.4817 18.1342 58.8311 18.2754C58.978 18.3355 59.0257 18.224 59.0612 18.2259C59.665 18.2535 59.3305 18.3052 59.5643 18.4491C59.2619 18.7823 60.0538 19.0267 60.3484 19.2812C60.7687 19.643 60.5618 19.7472 61.1201 19.8581C61.1719 19.8683 61.2199 19.89 61.2695 19.9004C61.3683 20.6203 61.6237 20.2812 61.8078 20.4407C62.1062 20.6977 62.6499 21.879 63.1803 21.4906C63.2239 21.5488 63.2467 21.6248 63.2903 21.6831C63.4854 21.9463 63.5575 22.151 63.8794 22.4954C63.9035 22.5214 63.9103 22.5655 63.9344 22.5916C64.1804 22.8574 64.1942 22.8776 64.4038 23.1502C64.8157 23.6843 64.9689 23.4961 65.2153 23.6961C65.4782 23.9113 65.8778 24.3213 66.1788 24.5908C66.4184 24.8053 66.361 25.2819 66.7725 24.9286C66.817 24.9804 66.8377 25.067 66.8824 25.1211L66.5866 25.4879C66.9242 25.7612 67.2057 26.0571 67.4775 26.3983C67.5944 26.5447 67.5804 26.7494 67.6771 26.8804C67.8744 27.1494 68.2868 27.1516 68.3101 27.1804C68.4033 27.2912 68.1774 27.8429 68.2482 27.9769C68.3577 28.1826 68.5762 28.3119 68.6912 28.4991C68.8062 28.6864 68.803 28.9341 68.9264 29.0979C69.2059 29.4687 69.3061 29.1937 69.6319 29.935C69.6763 30.0349 69.748 30.1263 69.7968 30.2237C69.9182 29.9155 70.6773 30.0019 70.6143 30.3763C70.6041 30.4407 70.3296 30.5494 70.3431 30.7419C71.1717 30.5779 70.704 30.9012 70.8693 31.1826C71.0537 31.4954 71.6695 31.5722 71.317 32.2279C71.7802 32.1098 71.4985 32.4311 71.5974 32.7107C71.7202 33.0586 71.9674 33.3647 72.1143 33.6239C72.1465 33.835 71.7573 33.8875 71.7165 33.9951C71.6854 34.0773 72.1444 34.9475 72.2377 35.153C72.3897 35.4854 72.3958 35.3836 72.6562 35.2302C72.6842 35.2973 72.7381 35.3555 72.7661 35.4227C71.9477 35.8316 72.3922 35.8458 72.5936 36.2144C72.6245 36.2706 72.4567 36.3488 72.4799 36.4457C72.5855 36.876 72.8553 37.6037 73.0212 38.037C73.0829 38.1973 73.3719 38.6248 73.361 38.658C73.3204 38.79 72.8425 38.6391 73.0953 39.2687C73.3481 39.8984 73.4582 39.5662 73.5154 39.592C73.8466 39.7436 73.3513 39.8837 73.2792 40.0068C73.2184 40.1095 73.3368 40.7714 73.3456 40.9537C73.3741 41.5264 73.2914 41.275 73.4791 41.9454C73.5058 42.0426 73.0652 42.7872 73.7418 42.3973C73.7846 42.6995 73.9149 43.5069 73.9033 43.7559C73.8967 43.9072 73.6266 43.9854 73.6345 44.1822L73.9446 44.0696C74.0784 44.2133 73.8387 44.212 73.8266 44.2751C73.8182 44.3209 74.1034 44.4683 74.1237 44.6043L73.7864 44.6693C74.1729 45.1008 73.5551 45.5473 73.9335 46.0408C73.9883 46.1126 74.2055 45.9077 74.2433 46.1309C74.1716 46.3814 73.9612 46.3728 73.7602 46.6C73.4006 47.008 73.657 46.9985 73.8618 47.4355C74.2438 48.2512 73.6769 48.1172 73.6422 48.342C73.6254 48.4534 73.9411 48.7286 73.8435 48.9237C73.7611 49.0891 73.4006 49.1919 73.3869 49.2383C73.3339 49.4209 74.1339 49.8363 73.2453 50.0862C73.4752 50.2114 73.6101 50.8838 73.5481 51.0609C73.4481 51.3463 73.1162 50.763 73.1632 51.1531C73.2642 51.9935 73.3556 51.9846 73.0769 52.864C72.9885 53.1416 72.9546 53.2512 72.8248 53.5185C72.6581 53.862 72.4933 54.5428 72.4176 54.9994C72.3792 55.2298 72.4768 55.7326 72.4163 55.8678C72.375 55.9605 72.2036 55.8734 72.0044 56.0294C71.974 56.0526 71.9283 56.0611 71.91 56.0833C71.4809 56.5988 71.1473 57.342 70.812 57.8509C70.7629 57.9258 70.5568 57.9569 70.5313 58.037C70.5123 58.0982 70.6813 58.2593 70.6674 58.3094C70.6402 58.4046 70.3325 58.441 70.2424 58.599C70.0959 58.8571 69.864 59.8327 69.6527 60.088C69.4759 60.3014 69.1638 60.1893 68.996 60.6294C68.9609 60.7208 68.7746 61.1809 68.7483 61.2112C68.7073 61.258 68.5902 61.3085 68.5207 61.3376C68.443 61.3703 68.159 61.1648 68.3869 61.5417C68.0741 61.8386 67.833 62.46 67.472 62.6966C67.4345 62.7215 67.3219 62.5364 67.2746 62.5541C67.0318 62.6459 67.0482 62.9621 66.8699 63.1728C66.6099 63.4817 65.9853 63.8338 65.6829 64.1107C65.643 64.1475 65.3596 64.731 65.0794 64.9624L64.985 65.0163C64.8759 65.0927 64.7285 65.1745 64.6075 65.232L64.6051 65.2298ZM72.136 55.8195C72.3078 55.8127 72.3532 55.6146 72.27 55.6177C72.0981 55.6245 72.0528 55.8225 72.136 55.8195ZM71.1118 32.5302L71.4091 32.6144C71.321 32.3978 71.2936 32.39 71.1118 32.5302Z" fill="#93C1DD"/>
<path d="M33.4453 13.1865C33.3657 13.1899 33.347 13.1572 33.3903 13.0903L33.4453 13.1865Z" fill="#93C1DD"/>
<path d="M36.034 38.2195C35.1482 38.7699 33.6339 39.513 32.6648 39.9154C31.86 40.2498 30.7223 40.2345 29.8495 40.5444C28.5354 41.0104 26.695 42.2079 25.4259 42.407C24.6036 42.5358 23.1177 42.2205 22.3728 42.4165C22.0551 42.4996 21.8338 42.7173 21.5499 42.7975C20.7072 43.0352 19.3538 43.163 18.639 42.5712C18.4052 42.3769 17.8264 41.7577 18.1418 41.4652C18.4104 41.2158 18.9075 41.6778 19.1721 41.7632C20.6746 42.2482 21.0957 41.6482 22.4007 41.3935C23.2427 41.2288 24.6029 41.5351 25.4626 41.3532C26.5352 41.1258 28.3023 39.9749 29.543 39.5754C30.505 39.2649 31.4861 39.2795 32.4552 38.8829C38.4984 36.4033 43.5293 30.7335 48.5538 26.6753C49.0656 26.2623 49.772 25.9549 50.3098 25.4768C51.0722 24.7989 52.7855 22.4316 53.3865 21.5052C53.5386 21.2707 53.6293 20.8384 53.8022 20.5721C53.8812 20.4509 53.9461 20.3272 54.0712 20.49C54.4675 21.0049 53.4878 22.2155 53.2659 22.601C52.6352 23.6966 51.9025 25.217 50.9998 26.0757C50.4023 26.6441 49.6611 27.0194 49.0302 27.5355C44.7563 31.0339 40.7384 35.296 36.0327 38.2213L36.034 38.2195Z" fill="#050607"/>
<path d="M35.3771 65.1122C35.939 63.4458 36.5686 62.3262 37.5449 60.8423C42.2882 56.9552 47.4217 51.604 52.9492 48.8931C55.9438 47.424 61.3116 47.5562 64.7487 47.0709C65.9443 46.9021 67.0776 46.5839 68.246 46.289C68.4178 46.2459 68.5735 46.0984 68.7136 46.3416C68.8791 46.6194 65.7101 47.5195 65.4159 47.5856C62.3572 48.2729 58.8169 48.31 55.7573 48.8971C51.238 49.7639 46.4484 54.6716 42.987 57.6217C41.7353 58.6879 40.3043 59.5345 39.1658 60.7363C38.5812 61.3536 37.2393 63.3496 36.91 64.1325C36.5379 65.0172 36.2635 67.3801 35.4906 67.9351C35.0553 68.2469 34.7376 67.974 34.5918 67.5116C34.9576 66.7465 35.1082 65.9063 35.3766 65.1113L35.3771 65.1122Z" fill="#070809"/>
</svg>
