<svg width="24" height="25" viewBox="0 0 24 25" fill="none" xmlns="http://www.w3.org/2000/svg">
<path d="M17.5 6.56836H17.51M7 2.06836H17C19.7614 2.06836 22 4.30694 22 7.06836V17.0684C22 19.8298 19.7614 22.0684 17 22.0684H7C4.23858 22.0684 2 19.8298 2 17.0684V7.06836C2 4.30694 4.23858 2.06836 7 2.06836ZM16 11.4384C16.1234 12.2706 15.9813 13.1206 15.5938 13.8674C15.2063 14.6142 14.5931 15.2198 13.8416 15.598C13.0901 15.9763 12.2384 16.108 11.4078 15.9743C10.5771 15.8406 9.80976 15.4484 9.21484 14.8535C8.61992 14.2586 8.22773 13.4912 8.09407 12.6606C7.9604 11.8299 8.09207 10.9783 8.47033 10.2267C8.84859 9.47521 9.45419 8.8621 10.201 8.4746C10.9478 8.0871 11.7978 7.94495 12.63 8.06836C13.4789 8.19424 14.2649 8.58982 14.8717 9.19667C15.4785 9.80351 15.8741 10.5894 16 11.4384Z" stroke="#173B4F" stroke-width="2" stroke-linecap="round" stroke-linejoin="round"/>
</svg>
