<svg width="257" height="153" viewBox="0 0 257 153" fill="none" xmlns="http://www.w3.org/2000/svg">
<path d="M6.16614 153C5.26838 153 4.44151 152.842 3.68551 152.527C2.94526 152.197 2.29163 151.748 1.72463 151.181C1.17338 150.598 0.748126 149.937 0.448876 149.196C0.149625 148.44 0 147.645 0 146.81C0 145.975 0.149625 145.188 0.448876 144.448C0.748126 143.692 1.17338 143.03 1.72463 142.463C2.29163 141.88 2.94526 141.424 3.68551 141.093C4.44151 140.762 5.26838 140.597 6.16614 140.597C7.03239 140.597 7.78051 140.739 8.41052 141.022C9.04052 141.29 9.47364 141.534 9.70989 141.754V143.715C9.26889 143.385 8.76489 143.101 8.19789 142.865C7.63089 142.613 6.95364 142.487 6.16614 142.487C5.33138 142.487 4.59901 142.692 3.96901 143.101C3.33901 143.495 2.85076 144.022 2.50425 144.684C2.1735 145.33 2.00813 146.038 2.00813 146.81C2.00813 147.566 2.1735 148.275 2.50425 148.936C2.85076 149.582 3.33901 150.11 3.96901 150.519C4.59901 150.913 5.33138 151.11 6.16614 151.11C6.95364 151.11 7.63089 150.992 8.19789 150.756C8.76489 150.504 9.26889 150.212 9.70989 149.881V151.842C9.47364 152.079 9.04052 152.331 8.41052 152.598C7.78051 152.866 7.03239 153 6.16614 153Z" fill="#252525"/>
<path d="M17.577 153C16.569 153 15.6477 152.748 14.8129 152.244C13.9782 151.724 13.3088 151.008 12.8048 150.094C12.3165 149.181 12.0724 148.125 12.0724 146.928C12.0724 145.621 12.3165 144.495 12.8048 143.55C13.3088 142.605 13.9939 141.88 14.8602 141.376C15.7264 140.857 16.695 140.597 17.766 140.597C18.4433 140.597 19.1284 140.762 19.8214 141.093C20.5302 141.408 21.1365 141.849 21.6405 142.416V140.833H23.5778V152.646H21.6405V150.637C21.231 151.267 20.6719 151.819 19.9632 152.291C19.2702 152.764 18.4748 153 17.577 153ZM17.8842 151.11C18.6087 151.11 19.2544 150.921 19.8214 150.543C20.3884 150.165 20.8373 149.645 21.168 148.984C21.4988 148.306 21.6563 147.55 21.6405 146.716L21.6169 144.448C21.1287 143.833 20.601 143.353 20.034 143.007C19.4828 142.66 18.8449 142.487 18.1204 142.487C17.2699 142.487 16.5454 142.699 15.9469 143.125C15.3484 143.55 14.8838 144.101 14.553 144.778C14.238 145.44 14.0805 146.157 14.0805 146.928C14.0805 147.684 14.238 148.385 14.553 149.031C14.868 149.661 15.309 150.165 15.876 150.543C16.4588 150.921 17.1282 151.11 17.8842 151.11Z" fill="#252525"/>
<path d="M35.8156 152.646L35.7919 145.629C35.7919 144.605 35.5636 143.826 35.1068 143.29C34.6658 142.755 33.9807 142.487 33.0514 142.487C32.4214 142.487 31.7914 142.723 31.1614 143.196C30.5472 143.652 30.0038 144.188 29.5313 144.802V142.699C29.7833 142.384 30.1062 142.069 30.4999 141.754C30.8937 141.424 31.3347 141.148 31.8229 140.928C32.3269 140.707 32.8467 140.597 33.3822 140.597C34.1854 140.597 34.9178 140.778 35.5793 141.14C36.2408 141.487 36.7684 142.022 37.1622 142.747C37.5559 143.455 37.7528 144.353 37.7528 145.44V152.646H35.8156ZM27.5941 152.646V140.833H29.5313V152.646H27.5941Z" fill="#252525"/>
<path d="M43.3047 138.376C42.848 138.376 42.4621 138.211 42.1471 137.88C41.8478 137.549 41.6982 137.179 41.6982 136.77C41.6982 136.344 41.8478 135.974 42.1471 135.659C42.4621 135.328 42.848 135.163 43.3047 135.163C43.604 135.163 43.8717 135.242 44.108 135.399C44.36 135.541 44.5568 135.738 44.6986 135.99C44.8403 136.226 44.9112 136.486 44.9112 136.77C44.9112 137.037 44.8403 137.297 44.6986 137.549C44.5568 137.801 44.36 138.006 44.108 138.163C43.8717 138.305 43.604 138.376 43.3047 138.376ZM42.5723 152.646V140.833H44.5096V152.646H42.5723ZM40.7059 142.652V140.833H44.5096V142.652H40.7059Z" fill="#252525"/>
<path d="M56.9127 152.646L56.8891 145.629C56.8891 144.605 56.6607 143.826 56.204 143.29C55.763 142.755 55.0779 142.487 54.1486 142.487C53.5186 142.487 52.8886 142.723 52.2586 143.196C51.6443 143.652 51.101 144.188 50.6285 144.802V142.699C50.8805 142.384 51.2033 142.069 51.5971 141.754C51.9908 141.424 52.4318 141.148 52.9201 140.928C53.4241 140.707 53.9438 140.597 54.4793 140.597C55.2826 140.597 56.015 140.778 56.6765 141.14C57.338 141.487 57.8656 142.022 58.2594 142.747C58.6531 143.455 58.85 144.353 58.85 145.44V152.646H56.9127ZM48.6912 152.646V140.833H50.6285V152.646H48.6912Z" fill="#252525"/>
<path d="M72.4108 153C71.954 153 71.4736 152.937 70.9696 152.811C70.4814 152.701 70.0404 152.567 69.6466 152.409C69.2529 152.236 68.9615 152.086 68.7725 151.96V149.881C68.993 150.039 69.3001 150.22 69.6939 150.425C70.1034 150.614 70.5365 150.779 70.9933 150.921C71.45 151.047 71.8753 151.11 72.269 151.11C73.0093 151.11 73.592 150.945 74.0173 150.614C74.4583 150.283 74.6788 149.874 74.6788 149.385C74.6788 149.007 74.5291 148.708 74.2299 148.488C73.9464 148.267 73.529 148.054 72.9778 147.85L71.2295 147.212C70.316 146.865 69.7096 146.432 69.4104 145.912C69.1111 145.377 68.9615 144.771 68.9615 144.093C68.9615 143.416 69.1269 142.818 69.4576 142.298C69.8041 141.778 70.2924 141.369 70.9224 141.069C71.5524 140.754 72.2848 140.597 73.1195 140.597C73.8125 140.597 74.4583 140.699 75.0568 140.904C75.6553 141.093 76.0884 141.29 76.3561 141.495V143.574C76.0254 143.322 75.5765 143.077 75.0095 142.841C74.4425 142.605 73.8598 142.487 73.2613 142.487C72.521 142.487 71.9619 142.66 71.5839 143.007C71.2216 143.353 71.0405 143.715 71.0405 144.093C71.0405 144.393 71.1429 144.7 71.3476 145.015C71.5681 145.314 71.9461 145.558 72.4816 145.747L74.4661 146.456C75.2379 146.724 75.8128 147.109 76.1908 147.613C76.5688 148.117 76.7578 148.708 76.7578 149.385C76.7578 150.047 76.5688 150.653 76.1908 151.204C75.8285 151.756 75.3166 152.197 74.6551 152.527C74.0094 152.842 73.2613 153 72.4108 153Z" fill="#252525"/>
<path d="M85.0502 153C84.1524 153 83.3255 152.842 82.5695 152.527C81.8293 152.197 81.1756 151.748 80.6086 151.181C80.0574 150.598 79.6321 149.937 79.3329 149.196C79.0336 148.44 78.884 147.645 78.884 146.81C78.884 145.975 79.0336 145.188 79.3329 144.448C79.6321 143.692 80.0574 143.03 80.6086 142.463C81.1756 141.88 81.8293 141.424 82.5695 141.093C83.3255 140.762 84.1524 140.597 85.0502 140.597C85.9479 140.597 86.7669 140.762 87.5072 141.093C88.2632 141.424 88.9168 141.88 89.468 142.463C90.035 143.03 90.4682 143.692 90.7674 144.448C91.0667 145.188 91.2163 145.975 91.2163 146.81C91.2163 147.645 91.0667 148.44 90.7674 149.196C90.4682 149.937 90.035 150.598 89.468 151.181C88.9168 151.748 88.2632 152.197 87.5072 152.527C86.7669 152.842 85.9479 153 85.0502 153ZM85.0502 151.11C85.9007 151.11 86.633 150.913 87.2473 150.519C87.8773 150.11 88.3577 149.582 88.6884 148.936C89.0349 148.275 89.2082 147.566 89.2082 146.81C89.2082 146.038 89.0349 145.33 88.6884 144.684C88.3577 144.022 87.8773 143.495 87.2473 143.101C86.633 142.692 85.9007 142.487 85.0502 142.487C84.2154 142.487 83.483 142.692 82.853 143.101C82.223 143.495 81.7348 144.022 81.3883 144.684C81.0575 145.33 80.8921 146.038 80.8921 146.81C80.8921 147.566 81.0575 148.275 81.3883 148.936C81.7348 149.582 82.223 150.11 82.853 150.519C83.483 150.913 84.2154 151.11 85.0502 151.11Z" fill="#252525"/>
<path d="M94.4057 152.646V135.636H96.3429V152.646H94.4057Z" fill="#252525"/>
<path d="M102.249 138.376C101.792 138.376 101.407 138.211 101.092 137.88C100.792 137.549 100.643 137.179 100.643 136.77C100.643 136.344 100.792 135.974 101.092 135.659C101.407 135.328 101.792 135.163 102.249 135.163C102.548 135.163 102.816 135.242 103.052 135.399C103.304 135.541 103.501 135.738 103.643 135.99C103.785 136.226 103.856 136.486 103.856 136.77C103.856 137.037 103.785 137.297 103.643 137.549C103.501 137.801 103.304 138.006 103.052 138.163C102.816 138.305 102.548 138.376 102.249 138.376ZM101.517 152.646V140.833H103.454V152.646H101.517ZM99.6504 142.652V140.833H103.454V142.652H99.6504Z" fill="#252525"/>
<path d="M112.313 153C111.305 153 110.384 152.748 109.549 152.244C108.715 151.724 108.045 151.008 107.541 150.094C107.053 149.181 106.809 148.125 106.809 146.928C106.809 145.621 107.053 144.495 107.541 143.55C108.045 142.605 108.73 141.88 109.597 141.376C110.463 140.857 111.431 140.597 112.502 140.597C113.18 140.597 113.865 140.762 114.558 141.093C115.267 141.408 115.873 141.849 116.377 142.416V135.636H118.314V152.646H116.377V150.637C115.967 151.267 115.408 151.819 114.7 152.291C114.007 152.764 113.211 153 112.313 153ZM112.621 151.11C113.345 151.11 113.991 150.921 114.558 150.543C115.125 150.165 115.574 149.645 115.904 148.984C116.235 148.306 116.393 147.55 116.377 146.716L116.353 144.448C115.865 143.833 115.337 143.361 114.77 143.03C114.219 142.699 113.581 142.534 112.857 142.534C112.006 142.534 111.282 142.747 110.683 143.172C110.085 143.581 109.62 144.117 109.289 144.778C108.974 145.44 108.817 146.157 108.817 146.928C108.817 147.684 108.974 148.385 109.289 149.031C109.604 149.661 110.045 150.165 110.612 150.543C111.195 150.921 111.865 151.11 112.621 151.11Z" fill="#252525"/>
<path d="M127.008 153C126 153 125.079 152.748 124.244 152.244C123.409 151.724 122.74 151.008 122.236 150.094C121.748 149.181 121.504 148.125 121.504 146.928C121.504 145.621 121.748 144.495 122.236 143.55C122.74 142.605 123.425 141.88 124.291 141.376C125.158 140.857 126.126 140.597 127.197 140.597C127.874 140.597 128.56 140.762 129.253 141.093C129.961 141.408 130.568 141.849 131.072 142.416V140.833H133.009V152.646H131.072V150.637C130.662 151.267 130.103 151.819 129.394 152.291C128.701 152.764 127.906 153 127.008 153ZM127.315 151.11C128.04 151.11 128.686 150.921 129.253 150.543C129.82 150.165 130.268 149.645 130.599 148.984C130.93 148.306 131.087 147.55 131.072 146.716L131.048 144.448C130.56 143.833 130.032 143.353 129.465 143.007C128.914 142.66 128.276 142.487 127.552 142.487C126.701 142.487 125.977 142.699 125.378 143.125C124.78 143.55 124.315 144.101 123.984 144.778C123.669 145.44 123.512 146.157 123.512 146.928C123.512 147.684 123.669 148.385 123.984 149.031C124.299 149.661 124.74 150.165 125.307 150.543C125.89 150.921 126.559 151.11 127.315 151.11Z" fill="#252525"/>
<path d="M138.915 138.376C138.458 138.376 138.073 138.211 137.758 137.88C137.458 137.549 137.309 137.179 137.309 136.77C137.309 136.344 137.458 135.974 137.758 135.659C138.073 135.328 138.458 135.163 138.915 135.163C139.214 135.163 139.482 135.242 139.718 135.399C139.97 135.541 140.167 135.738 140.309 135.99C140.451 136.226 140.522 136.486 140.522 136.77C140.522 137.037 140.451 137.297 140.309 137.549C140.167 137.801 139.97 138.006 139.718 138.163C139.482 138.305 139.214 138.376 138.915 138.376ZM138.183 152.646V140.833H140.12V152.646H138.183ZM136.316 142.652V140.833H140.12V142.652H136.316Z" fill="#252525"/>
<path d="M144.302 152.646V140.833H146.239V152.646H144.302ZM146.239 145.511V143.196C146.696 142.408 147.247 141.778 147.893 141.306C148.539 140.833 149.2 140.597 149.877 140.597C150.334 140.597 150.744 140.676 151.106 140.833V143.077C150.87 142.936 150.625 142.825 150.373 142.747C150.121 142.668 149.862 142.629 149.594 142.629C148.791 142.629 148.137 142.912 147.633 143.479C147.145 144.046 146.68 144.723 146.239 145.511Z" fill="#252525"/>
<path d="M158.926 153C158.028 153 157.201 152.842 156.445 152.527C155.705 152.197 155.051 151.748 154.484 151.181C153.933 150.598 153.508 149.937 153.208 149.196C152.909 148.44 152.76 147.645 152.76 146.81C152.76 145.692 153.004 144.66 153.492 143.715C153.98 142.77 154.65 142.014 155.5 141.447C156.366 140.88 157.351 140.597 158.453 140.597C159.666 140.597 160.674 140.849 161.477 141.353C162.28 141.857 162.879 142.542 163.273 143.408C163.682 144.274 163.887 145.251 163.887 146.338V147.495H154.579V145.842H161.973C161.895 145.07 161.674 144.44 161.312 143.952C160.965 143.463 160.54 143.101 160.036 142.865C159.532 142.613 159.004 142.487 158.453 142.487C157.697 142.487 157.044 142.692 156.492 143.101C155.941 143.495 155.516 144.022 155.217 144.684C154.917 145.33 154.768 146.038 154.768 146.81C154.768 147.566 154.933 148.275 155.264 148.936C155.61 149.582 156.099 150.11 156.729 150.519C157.359 150.913 158.091 151.11 158.926 151.11C159.776 151.11 160.564 150.897 161.288 150.472C162.028 150.031 162.651 149.551 163.155 149.031V151.134C162.934 151.401 162.603 151.685 162.162 151.984C161.737 152.268 161.241 152.504 160.674 152.693C160.123 152.898 159.54 153 158.926 153Z" fill="#252525"/>
<g filter="url(#filter0_g_308_76219)">
<path d="M38.6838 128.99C37.7951 128.99 36.936 128.813 36.1066 128.457C35.3364 128.042 34.7143 127.361 34.2403 126.413L22.0651 102.774H16.1997V124.191C16.1997 125.613 15.4591 126.68 13.9779 127.391C12.556 128.102 10.986 128.457 9.2678 128.457C7.54965 128.457 5.94999 128.102 4.46882 127.391C3.0469 126.68 2.33594 125.613 2.33594 124.191V67.6701C2.33594 66.5444 2.72104 65.5668 3.49125 64.7374C4.26146 63.9079 5.29827 63.4932 6.6017 63.4932H24.9978C29.0858 63.4932 32.7591 64.0857 36.0177 65.2706C39.3355 66.3963 41.972 68.3514 43.9271 71.136C45.8823 73.8614 46.8598 77.6532 46.8598 82.5114C46.8598 85.8292 46.3859 88.7027 45.4379 91.1318C44.5492 93.5017 43.2754 95.4568 41.6165 96.9972C40.0168 98.5376 38.1802 99.7226 36.1066 100.552L46.9487 120.192C47.1264 120.429 47.2449 120.696 47.3042 120.992C47.3634 121.288 47.3931 121.555 47.3931 121.792C47.3931 122.918 46.9487 124.043 46.06 125.169C45.1713 126.295 44.0456 127.213 42.6829 127.924C41.3795 128.635 40.0465 128.99 38.6838 128.99ZM16.1997 92.1094H24.9978C27.4862 92.1094 29.4413 91.5169 30.8632 90.332C32.2851 89.0878 32.9961 86.9253 32.9961 83.8445C32.9961 80.7044 32.2851 78.5419 30.8632 77.3569C29.4413 76.172 27.4862 75.5795 24.9978 75.5795H16.1997V92.1094Z" fill="#252525"/>
<path d="M73.4514 129.346C69.0672 129.346 65.1865 128.576 61.8094 127.035C58.4324 125.436 55.7663 123.214 53.8111 120.37C51.9152 117.526 50.9673 114.238 50.9673 110.505V104.018C50.9673 100.7 51.8856 97.6489 53.7223 94.8643C55.5589 92.0797 58.0177 89.858 61.0985 88.1991C64.1793 86.4809 67.6156 85.6219 71.4074 85.6219C74.8437 85.6219 77.9838 86.3328 80.8276 87.7547C83.7307 89.1767 86.071 91.1614 87.8484 93.709C89.6258 96.1974 90.5145 99.1301 90.5145 102.507C90.5145 105.173 90.0701 107.099 89.1814 108.284C88.352 109.409 87.2559 110.12 85.8932 110.417C84.5898 110.654 83.2568 110.772 81.8941 110.772H64.7422V111.305C64.7422 113.497 65.5716 115.275 67.2305 116.638C68.8894 117.941 71.0816 118.593 73.8069 118.593C75.6435 118.593 77.2136 118.326 78.517 117.793C79.8204 117.2 80.9758 116.638 81.9829 116.104C82.9901 115.571 83.9677 115.304 84.9157 115.304C85.9821 115.304 86.9004 115.66 87.6706 116.371C88.4408 117.082 89.0037 117.911 89.3592 118.859C89.7739 119.807 89.9813 120.637 89.9813 121.348C89.9813 122.473 89.2999 123.658 87.9372 124.902C86.5746 126.147 84.649 127.213 82.1607 128.102C79.7316 128.931 76.8285 129.346 73.4514 129.346ZM64.7422 103.04H75.762C76.4138 103.04 76.8877 102.892 77.184 102.596C77.4802 102.3 77.6283 101.737 77.6283 100.908C77.6283 99.7226 77.3025 98.745 76.6507 97.9748C76.0583 97.1453 75.2584 96.5529 74.2513 96.1974C73.3033 95.7827 72.2665 95.5753 71.1408 95.5753C70.0744 95.5753 69.0375 95.7827 68.0303 96.1974C67.0824 96.5529 66.2826 97.1453 65.6309 97.9748C65.0384 98.745 64.7422 99.7226 64.7422 100.908V103.04Z" fill="#252525"/>
<path d="M103.498 128.457C101.602 128.457 100.002 128.072 98.6988 127.302C97.3954 126.532 96.7437 125.525 96.7437 124.28V79.8453C96.7437 76.409 97.4547 73.3578 98.8766 70.6917C100.299 67.9663 102.194 65.8335 104.564 64.293C106.934 62.7526 109.541 61.9824 112.385 61.9824H118.783C120.502 61.9824 121.775 62.6045 122.605 63.8487C123.494 65.0336 123.938 66.3371 123.938 67.759C123.938 69.2401 123.494 70.5732 122.605 71.7581C121.775 72.9431 120.502 73.5355 118.783 73.5355H115.406C114.458 73.5355 113.599 73.7133 112.829 74.0687C112.118 74.4242 111.555 74.9574 111.141 75.6684C110.726 76.3201 110.519 77.2088 110.519 78.3345V86.1551H120.561C121.687 86.1551 122.516 86.6883 123.049 87.7547C123.642 88.7619 123.938 89.858 123.938 91.0429C123.938 92.2871 123.642 93.4128 123.049 94.42C122.516 95.4272 121.687 95.9308 120.561 95.9308H110.519V124.28C110.519 125.525 109.808 126.532 108.386 127.302C107.023 128.072 105.394 128.457 103.498 128.457Z" fill="#252525"/>
<path d="M147.89 129.346C144.217 129.346 140.839 128.487 137.759 126.769C134.678 124.991 132.219 122.681 130.382 119.837C128.546 116.993 127.627 113.942 127.627 110.683V90.4208C127.627 89.3544 128.309 88.3768 129.671 87.4881C131.034 86.5994 132.663 86.1551 134.559 86.1551C136.396 86.1551 137.996 86.5994 139.358 87.4881C140.721 88.3768 141.402 89.3544 141.402 90.4208V110.683C141.402 111.809 141.699 112.875 142.291 113.883C142.883 114.89 143.654 115.719 144.602 116.371C145.609 117.023 146.705 117.348 147.89 117.348C149.075 117.348 150.141 117.023 151.089 116.371C152.096 115.719 152.867 114.89 153.4 113.883C153.992 112.875 154.288 111.809 154.288 110.683V90.332C154.288 89.2063 154.97 88.2287 156.332 87.3993C157.754 86.5698 159.384 86.1551 161.22 86.1551C163.235 86.1551 164.864 86.5698 166.108 87.3993C167.412 88.2287 168.063 89.2063 168.063 90.332V110.683C168.063 114.001 167.145 117.082 165.308 119.926C163.472 122.77 161.013 125.051 157.932 126.769C154.911 128.487 151.563 129.346 147.89 129.346Z" fill="#252525"/>
<path d="M192.961 147.742C189.465 147.742 186.147 147.238 183.007 146.231C179.927 145.224 177.438 143.743 175.542 141.788C173.646 139.892 172.698 137.581 172.698 134.856C172.698 132.723 173.261 130.886 174.387 129.346C175.513 127.806 176.935 126.561 178.653 125.613C177.705 125.021 176.935 124.28 176.342 123.392C175.75 122.503 175.453 121.407 175.453 120.103C175.453 118.445 175.868 117.082 176.698 116.015C177.586 114.89 178.682 113.853 179.986 112.905C178.149 111.542 176.727 109.913 175.72 108.017C174.713 106.062 174.209 103.929 174.209 101.618V100.285C174.209 97.3823 174.95 94.8347 176.431 92.6426C177.971 90.4505 180.104 88.7323 182.83 87.4881C185.614 86.2439 188.814 85.6219 192.428 85.6219C194.323 85.6219 196.13 85.8292 197.849 86.2439C199.567 86.5994 201.107 87.103 202.47 87.7547C203.536 85.1479 204.455 83.4593 205.225 82.6891C205.995 81.9189 206.765 81.5338 207.536 81.5338C209.194 81.5338 210.468 82.0078 211.357 82.9558C212.305 83.9037 212.779 84.7924 212.779 85.6219C212.779 86.0958 212.66 86.5698 212.423 87.0438C212.186 87.4585 211.831 87.8732 211.357 88.288C210.824 88.7619 210.202 89.2655 209.491 89.7987C208.839 90.2727 208.187 90.8356 207.536 91.4873C208.661 92.6722 209.491 94.0053 210.024 95.4864C210.616 96.9676 210.913 98.5673 210.913 100.285V101.618C210.913 104.462 210.113 107.01 208.513 109.261C206.973 111.453 204.81 113.201 202.026 114.505C199.241 115.808 196.042 116.46 192.428 116.46C190.472 116.46 188.695 116.282 187.095 115.927C186.977 116.164 186.888 116.371 186.829 116.549C186.77 116.726 186.74 116.904 186.74 117.082C186.74 117.911 187.362 118.504 188.606 118.859C189.91 119.215 191.539 119.511 193.494 119.748C195.508 119.985 197.641 120.311 199.893 120.726C202.144 121.14 204.247 121.792 206.202 122.681C208.217 123.569 209.846 124.873 211.09 126.591C212.394 128.25 213.045 130.472 213.045 133.256C213.045 136.752 212.038 139.566 210.024 141.699C208.069 143.832 205.551 145.372 202.47 146.32C199.448 147.268 196.279 147.742 192.961 147.742ZM192.694 139.033C194.472 139.033 196.071 138.529 197.493 137.522C198.974 136.574 199.715 135.271 199.715 133.612C199.715 132.604 199.419 131.775 198.826 131.123C198.293 130.472 197.523 129.938 196.516 129.524C195.568 129.168 194.442 128.872 193.139 128.635C191.894 128.457 190.591 128.279 189.228 128.102C188.043 128.694 187.155 129.464 186.562 130.412C185.97 131.36 185.673 132.368 185.673 133.434C185.673 135.271 186.384 136.663 187.806 137.611C189.288 138.559 190.917 139.033 192.694 139.033ZM192.605 108.461C194.146 108.461 195.36 107.839 196.249 106.595C197.138 105.292 197.582 103.633 197.582 101.618V100.285C197.582 98.4488 197.138 96.8787 196.249 95.5753C195.42 94.2719 194.175 93.6202 192.516 93.6202C190.917 93.6202 189.673 94.2719 188.784 95.5753C187.954 96.8787 187.54 98.4488 187.54 100.285V101.53C187.54 103.485 187.954 105.144 188.784 106.506C189.673 107.81 190.946 108.461 192.605 108.461Z" fill="#252525"/>
<path d="M238.607 129.346C234.223 129.346 230.342 128.576 226.965 127.035C223.588 125.436 220.922 123.214 218.967 120.37C217.071 117.526 216.123 114.238 216.123 110.505V104.018C216.123 100.7 217.042 97.6489 218.878 94.8643C220.715 92.0797 223.174 89.858 226.254 88.1991C229.335 86.4809 232.772 85.6219 236.563 85.6219C240 85.6219 243.14 86.3328 245.984 87.7547C248.887 89.1767 251.227 91.1614 253.004 93.709C254.782 96.1974 255.67 99.1301 255.67 102.507C255.67 105.173 255.226 107.099 254.337 108.284C253.508 109.409 252.412 110.12 251.049 110.417C249.746 110.654 248.413 110.772 247.05 110.772H229.898V111.305C229.898 113.497 230.728 115.275 232.386 116.638C234.045 117.941 236.238 118.593 238.963 118.593C240.8 118.593 242.37 118.326 243.673 117.793C244.976 117.2 246.132 116.638 247.139 116.104C248.146 115.571 249.124 115.304 250.072 115.304C251.138 115.304 252.056 115.66 252.827 116.371C253.597 117.082 254.16 117.911 254.515 118.859C254.93 119.807 255.137 120.637 255.137 121.348C255.137 122.473 254.456 123.658 253.093 124.902C251.731 126.147 249.805 127.213 247.317 128.102C244.888 128.931 241.984 129.346 238.607 129.346ZM229.898 103.04H240.918C241.57 103.04 242.044 102.892 242.34 102.596C242.636 102.3 242.784 101.737 242.784 100.908C242.784 99.7226 242.458 98.745 241.807 97.9748C241.214 97.1453 240.414 96.5529 239.407 96.1974C238.459 95.7827 237.422 95.5753 236.297 95.5753C235.23 95.5753 234.193 95.7827 233.186 96.1974C232.238 96.5529 231.439 97.1453 230.787 97.9748C230.194 98.745 229.898 99.7226 229.898 100.908V103.04Z" fill="#252525"/>
</g>
<path d="M163.086 45.4862C169.83 54.4782 173.463 39.3438 182.955 38.1936C190.469 37.2831 193.376 23.9845 193.32 19.0597C192.725 14.123 195.432 12.4108 175.313 9.16897C155.195 5.92714 156.377 36.5394 163.086 45.4862Z" fill="#B8B997"/>
<g filter="url(#filter1_g_308_76219)">
<path d="M208.893 59.3237C201.503 66.0709 191.21 54.5444 190.55 51.1708C188.439 55.669 180.219 64.0678 172.434 59.8507" stroke="#252525" stroke-width="2.55853" stroke-linecap="round" stroke-linejoin="round"/>
</g>
<g filter="url(#filter2_g_308_76219)">
<path d="M202.684 42.3948C202.446 40.9399 182.214 40.6974 179.358 42.3948C178.209 43.0778 182.884 44.4556 185.762 45.4151C189.28 47.334 189.92 50.852 190.783 50.3965C190.783 50.3965 192.159 47.0142 195.677 45.4151C200.474 44.7755 202.784 43.005 202.684 42.3948Z" fill="#252525"/>
<path d="M202.684 42.3948C202.446 40.9399 182.214 40.6974 179.358 42.3948C178.209 43.0778 182.884 44.4556 185.762 45.4151C189.28 47.334 189.92 50.852 190.783 50.3965C190.783 50.3965 192.159 47.0142 195.677 45.4151C200.474 44.7755 202.784 43.005 202.684 42.3948Z" stroke="#252525" stroke-width="3.44509"/>
</g>
<g filter="url(#filter3_g_308_76219)">
<mask id="path-6-inside-1_308_76219" fill="white">
<path d="M211.457 34.7538C211.418 35.2108 208.377 33.6591 204.492 33.3297C200.607 33.0003 197.349 34.0179 197.387 33.5608C197.426 33.1038 200.888 29.6899 204.773 30.0193C208.658 30.3487 211.495 34.2967 211.457 34.7538Z"/>
</mask>
<path d="M211.457 34.7538C211.418 35.2108 208.377 33.6591 204.492 33.3297C200.607 33.0003 197.349 34.0179 197.387 33.5608C197.426 33.1038 200.888 29.6899 204.773 30.0193C208.658 30.3487 211.495 34.2967 211.457 34.7538Z" fill="#252525"/>
<path d="M211.457 34.7538L208.024 34.4627C208.066 33.9679 208.226 33.4049 208.582 32.8731C208.935 32.3462 209.38 31.9995 209.78 31.7841C210.488 31.4024 211.12 31.3935 211.281 31.3923C211.655 31.3897 211.884 31.4651 211.721 31.4249C211.476 31.3648 211.147 31.2572 210.399 31.0345C209.084 30.6435 207.083 30.0919 204.783 29.8969L204.492 33.3297L204.201 36.7625C205.787 36.8969 207.248 37.2859 208.435 37.6388C208.937 37.7881 209.618 38.0033 210.076 38.1159C210.264 38.1621 210.767 38.2863 211.33 38.2823C211.585 38.2805 212.29 38.2584 213.049 37.8493C214.053 37.3085 214.784 36.283 214.889 35.0448L211.457 34.7538ZM204.492 33.3297L204.783 29.8969C202.484 29.7019 200.418 29.9087 199.056 30.0728C198.281 30.1662 197.938 30.2169 197.687 30.235C197.52 30.2471 197.758 30.2114 198.126 30.2769C198.285 30.3051 198.906 30.4203 199.54 30.9158C199.898 31.1954 200.278 31.6122 200.537 32.1909C200.799 32.7752 200.862 33.3571 200.82 33.8519L197.387 33.5608L193.955 33.2698C193.85 34.5079 194.398 35.642 195.296 36.3441C195.975 36.875 196.667 37.0155 196.918 37.0603C197.472 37.159 197.989 37.1213 198.182 37.1074C198.653 37.0735 199.361 36.9761 199.88 36.9135C201.109 36.7654 202.616 36.628 204.201 36.7625L204.492 33.3297ZM197.387 33.5608L200.82 33.8519C200.783 34.2914 200.667 34.6178 200.607 34.7699C200.539 34.9438 200.47 35.0723 200.429 35.1442C200.349 35.2857 200.285 35.3676 200.278 35.3768C200.257 35.4031 200.293 35.3545 200.411 35.2405C200.637 35.0208 201.014 34.705 201.497 34.3952C202.525 33.7365 203.595 33.3769 204.482 33.4521L204.773 30.0193L205.064 26.5865C202.066 26.3324 199.463 27.5149 197.778 28.5951C196.905 29.1547 196.167 29.7575 195.612 30.2962C195.339 30.5613 195.068 30.8518 194.835 31.151C194.722 31.2967 194.576 31.4984 194.439 31.74C194.365 31.8706 194.024 32.4571 193.955 33.2698L197.387 33.5608ZM204.773 30.0193L204.482 33.4521C205.369 33.5273 206.363 34.062 207.265 34.8843C207.689 35.271 208.007 35.6457 208.194 35.9004C208.29 36.0326 208.318 36.0866 208.302 36.0572C208.296 36.0469 208.247 35.9554 208.191 35.8024C208.163 35.7246 208.117 35.5864 208.079 35.4035C208.046 35.2435 207.987 34.9022 208.024 34.4627L211.457 34.7538L214.889 35.0448C214.958 34.2322 214.721 33.5966 214.67 33.4554C214.575 33.1942 214.465 32.9707 214.378 32.808C214.199 32.474 213.981 32.1419 213.756 31.8346C213.3 31.2103 212.674 30.4917 211.907 29.7931C210.429 28.4448 208.062 26.8407 205.064 26.5865L204.773 30.0193Z" fill="#252525" mask="url(#path-6-inside-1_308_76219)"/>
</g>
<g filter="url(#filter4_g_308_76219)">
<mask id="path-8-inside-2_308_76219" fill="white">
<path d="M182.448 33.5511C182.499 34.007 179.215 33.0741 175.34 33.504C171.465 33.934 168.466 35.5639 168.415 35.108C168.364 34.6521 171.099 30.632 174.974 30.202C178.849 29.7721 182.398 33.0952 182.448 33.5511Z"/>
</mask>
<path d="M182.448 33.5511C182.499 34.007 179.215 33.0741 175.34 33.504C171.465 33.934 168.466 35.5639 168.415 35.108C168.364 34.6521 171.099 30.632 174.974 30.202C178.849 29.7721 182.398 33.0952 182.448 33.5511Z" fill="#252525"/>
<path d="M182.448 33.5511L179.024 33.931C178.97 33.4374 179.018 32.8541 179.264 32.2633C179.508 31.678 179.878 31.2515 180.228 30.9627C180.849 30.451 181.467 30.3198 181.625 30.2874C181.991 30.2124 182.231 30.2419 182.062 30.2342C181.811 30.2226 181.467 30.1808 180.69 30.1075C179.324 29.9787 177.254 29.8255 174.96 30.08L175.34 33.504L175.72 36.9281C177.301 36.7527 178.811 36.851 180.043 36.9672C180.564 37.0164 181.275 37.0954 181.746 37.1171C181.939 37.126 182.457 37.1503 183.008 37.0373C183.258 36.986 183.946 36.8277 184.611 36.2793C185.49 35.5542 186.01 34.4063 185.873 33.1713L182.448 33.5511ZM175.34 33.504L174.96 30.08C172.666 30.3344 170.68 30.9376 169.376 31.3626C168.633 31.6046 168.307 31.7207 168.065 31.7871C167.902 31.8315 168.13 31.7501 168.503 31.7431C168.664 31.7401 169.296 31.7326 170.014 32.0959C170.419 32.3008 170.873 32.636 171.24 33.1535C171.61 33.6759 171.784 34.2345 171.839 34.7281L168.415 35.108L164.991 35.4878C165.128 36.7229 165.886 37.7291 166.903 38.2438C167.672 38.633 168.377 38.6369 168.633 38.6321C169.195 38.6215 169.696 38.4842 169.882 38.4332C170.337 38.3088 171.013 38.076 171.511 37.9138C172.688 37.5303 174.139 37.1036 175.72 36.9281L175.34 33.504ZM168.415 35.108L171.839 34.7281C171.888 35.1665 171.837 35.5092 171.808 35.67C171.775 35.8538 171.732 35.9932 171.706 36.0717C171.655 36.2261 171.608 36.3188 171.602 36.3293C171.587 36.3591 171.613 36.3044 171.707 36.1697C171.886 35.9103 172.195 35.5274 172.609 35.1299C173.489 34.2845 174.469 33.7243 175.354 33.6261L174.974 30.202L174.594 26.778C171.604 27.1097 169.279 28.7745 167.836 30.1606C167.088 30.8788 166.48 31.6134 166.04 32.2494C165.824 32.5624 165.614 32.9 165.444 33.2385C165.362 33.4034 165.257 33.6296 165.169 33.8933C165.122 34.0358 164.901 34.6772 164.991 35.4878L168.415 35.108ZM174.974 30.202L175.354 33.6261C176.239 33.528 177.317 33.8598 178.361 34.4917C178.852 34.7888 179.238 35.0947 179.47 35.3085C179.59 35.4195 179.627 35.4671 179.606 35.4413C179.599 35.4323 179.533 35.3521 179.449 35.2127C179.406 35.1419 179.334 35.0152 179.261 34.8432C179.197 34.6927 179.073 34.3693 179.024 33.931L182.448 33.5511L185.873 33.1713C185.783 32.3606 185.426 31.7832 185.349 31.6546C185.205 31.4166 185.054 31.2187 184.937 31.076C184.697 30.7829 184.419 30.4995 184.139 30.2416C183.57 29.7175 182.816 29.134 181.929 28.5971C180.217 27.561 177.584 26.4462 174.594 26.778L174.974 30.202Z" fill="#252525" mask="url(#path-8-inside-2_308_76219)"/>
</g>
<g filter="url(#filter5_g_308_76219)">
<path d="M169.08 18.8443C161.571 30.4601 157.13 27.0207 153.67 35.1972C150.426 42.8654 139.166 21.6798 159.017 6.26519C162.214 4.43659 165.06 1.68556 173.483 3.12037" stroke="#252525" stroke-width="3.44509" stroke-linecap="round"/>
</g>
<g filter="url(#filter6_g_308_76219)">
<path d="M209.635 18.8443C217.144 30.4601 221.585 27.0207 225.044 35.1972C228.289 42.8654 239.549 21.6798 219.698 6.26519C216.5 4.43659 213.655 1.68556 205.232 3.12037" stroke="#252525" stroke-width="3.44509" stroke-linecap="round"/>
</g>
<g filter="url(#filter7_g_308_76219)">
<path d="M231.498 77.7085L229.227 72.5967" stroke="#252525" stroke-width="3.19817" stroke-linecap="round"/>
</g>
<g filter="url(#filter8_g_308_76219)">
<path d="M217.078 77.4769L218.556 72.597" stroke="#252525" stroke-width="3.19817" stroke-linecap="round"/>
</g>
<g filter="url(#filter9_g_308_76219)">
<path d="M241.415 75.6473C240.765 64.3575 209.125 59.4138 205.441 75.6473C222.638 79.8476 229.229 79.518 241.415 75.6473Z" stroke="#252525" stroke-width="3.19817" stroke-linejoin="round"/>
</g>
<g filter="url(#filter10_g_308_76219)">
<path d="M166.413 78.3472L164.141 73.2354" stroke="#252525" stroke-width="3.19817" stroke-linecap="round"/>
</g>
<g filter="url(#filter11_g_308_76219)">
<path d="M151.992 78.1166L153.47 73.2367" stroke="#252525" stroke-width="3.19817" stroke-linecap="round"/>
</g>
<g filter="url(#filter12_g_308_76219)">
<path d="M176.325 76.286C175.675 64.9962 144.035 60.0524 140.352 76.286C157.548 80.4863 164.139 80.1567 176.325 76.286Z" stroke="#252525" stroke-width="3.19817" stroke-linejoin="round"/>
</g>
<g filter="url(#filter13_g_308_76219)">
<path d="M156.438 44.4303C156.349 53.6773 158.464 58.7235 165.926 65.9279" stroke="#252525" stroke-width="3.44339" stroke-linecap="round"/>
</g>
<g filter="url(#filter14_g_308_76219)">
<path d="M223.097 45.4723C223.246 54.2977 221.165 59.0999 213.757 65.9271" stroke="#252525" stroke-width="3.44339" stroke-linecap="round"/>
</g>
<g filter="url(#filter15_g_308_76219)">
<path d="M198.639 71.3928C192.363 73.9332 188.391 74.1388 181.596 72.0094" stroke="#252525" stroke-width="3.44339" stroke-linecap="round"/>
</g>
<g filter="url(#filter16_g_308_76219)">
<path d="M195.089 4.57657C191.113 6.18611 188.596 6.31636 184.291 4.9672" stroke="#252525" stroke-width="3.44339" stroke-linecap="round"/>
</g>
<defs>
<filter id="filter0_g_308_76219" x="1.82423" y="61.4707" width="254.359" height="86.7832" filterUnits="userSpaceOnUse" color-interpolation-filters="sRGB">
<feFlood flood-opacity="0" result="BackgroundImageFix"/>
<feBlend mode="normal" in="SourceGraphic" in2="BackgroundImageFix" result="shape"/>
<feTurbulence type="fractalNoise" baseFrequency="0.15327407419681549 0.15327407419681549" numOctaves="3" seed="3422" />
<feDisplacementMap in="shape" scale="1.0234134197235107" xChannelSelector="R" yChannelSelector="G" result="displacedImage" width="100%" height="100%" />
<feMerge result="effect1_texture_308_76219">
<feMergeNode in="displacedImage"/>
</feMerge>
</filter>
<filter id="filter1_g_308_76219" x="170.793" y="49.5323" width="39.7381" height="13.5115" filterUnits="userSpaceOnUse" color-interpolation-filters="sRGB">
<feFlood flood-opacity="0" result="BackgroundImageFix"/>
<feBlend mode="normal" in="SourceGraphic" in2="BackgroundImageFix" result="shape"/>
<feTurbulence type="fractalNoise" baseFrequency="0.21830384433269501 0.21830384433269501" numOctaves="3" seed="3422" />
<feDisplacementMap in="shape" scale="0.71855241060256958" xChannelSelector="R" yChannelSelector="G" result="displacedImage" width="100%" height="100%" />
<feMerge result="effect1_texture_308_76219">
<feMergeNode in="displacedImage"/>
</feMerge>
</filter>
<filter id="filter2_g_308_76219" x="177.098" y="39.129" width="27.6717" height="13.3895" filterUnits="userSpaceOnUse" color-interpolation-filters="sRGB">
<feFlood flood-opacity="0" result="BackgroundImageFix"/>
<feBlend mode="normal" in="SourceGraphic" in2="BackgroundImageFix" result="shape"/>
<feTurbulence type="fractalNoise" baseFrequency="0.21830384433269501 0.21830384433269501" numOctaves="3" seed="3422" />
<feDisplacementMap in="shape" scale="0.71855241060256958" xChannelSelector="R" yChannelSelector="G" result="displacedImage" width="100%" height="100%" />
<feMerge result="effect1_texture_308_76219">
<feMergeNode in="displacedImage"/>
</feMerge>
</filter>
<filter id="filter3_g_308_76219" x="197.027" y="29.6378" width="14.7889" height="5.5584" filterUnits="userSpaceOnUse" color-interpolation-filters="sRGB">
<feFlood flood-opacity="0" result="BackgroundImageFix"/>
<feBlend mode="normal" in="SourceGraphic" in2="BackgroundImageFix" result="shape"/>
<feTurbulence type="fractalNoise" baseFrequency="0.21830384433269501 0.21830384433269501" numOctaves="3" seed="3422" />
<feDisplacementMap in="shape" scale="0.71855241060256958" xChannelSelector="R" yChannelSelector="G" result="displacedImage" width="100%" height="100%" />
<feMerge result="effect1_texture_308_76219">
<feMergeNode in="displacedImage"/>
</feMerge>
</filter>
<filter id="filter4_g_308_76219" x="168.055" y="29.8048" width="14.7537" height="5.74199" filterUnits="userSpaceOnUse" color-interpolation-filters="sRGB">
<feFlood flood-opacity="0" result="BackgroundImageFix"/>
<feBlend mode="normal" in="SourceGraphic" in2="BackgroundImageFix" result="shape"/>
<feTurbulence type="fractalNoise" baseFrequency="0.21830384433269501 0.21830384433269501" numOctaves="3" seed="3422" />
<feDisplacementMap in="shape" scale="0.71855241060256958" xChannelSelector="R" yChannelSelector="G" result="displacedImage" width="100%" height="100%" />
<feMerge result="effect1_texture_308_76219">
<feMergeNode in="displacedImage"/>
</feMerge>
</filter>
<filter id="filter5_g_308_76219" x="145.418" y="0.587935" width="30.1991" height="38.3651" filterUnits="userSpaceOnUse" color-interpolation-filters="sRGB">
<feFlood flood-opacity="0" result="BackgroundImageFix"/>
<feBlend mode="normal" in="SourceGraphic" in2="BackgroundImageFix" result="shape"/>
<feTurbulence type="fractalNoise" baseFrequency="0.19124399125576019 0.19124399125576019" numOctaves="3" seed="3422" />
<feDisplacementMap in="shape" scale="0.82022297382354736" xChannelSelector="R" yChannelSelector="G" result="displacedImage" width="100%" height="100%" />
<feMerge result="effect1_texture_308_76219">
<feMergeNode in="displacedImage"/>
</feMerge>
</filter>
<filter id="filter6_g_308_76219" x="203.098" y="0.587935" width="30.1991" height="38.3651" filterUnits="userSpaceOnUse" color-interpolation-filters="sRGB">
<feFlood flood-opacity="0" result="BackgroundImageFix"/>
<feBlend mode="normal" in="SourceGraphic" in2="BackgroundImageFix" result="shape"/>
<feTurbulence type="fractalNoise" baseFrequency="0.19124399125576019 0.19124399125576019" numOctaves="3" seed="3422" />
<feDisplacementMap in="shape" scale="0.82022297382354736" xChannelSelector="R" yChannelSelector="G" result="displacedImage" width="100%" height="100%" />
<feMerge result="effect1_texture_308_76219">
<feMergeNode in="displacedImage"/>
</feMerge>
</filter>
<filter id="filter7_g_308_76219" x="227.252" y="70.6205" width="6.2218" height="9.0636" filterUnits="userSpaceOnUse" color-interpolation-filters="sRGB">
<feFlood flood-opacity="0" result="BackgroundImageFix"/>
<feBlend mode="normal" in="SourceGraphic" in2="BackgroundImageFix" result="shape"/>
<feTurbulence type="fractalNoise" baseFrequency="0.20830270648002625 0.20830270648002625" numOctaves="3" seed="3422" />
<feDisplacementMap in="shape" scale="0.75305193662643433" xChannelSelector="R" yChannelSelector="G" result="displacedImage" width="100%" height="100%" />
<feMerge result="effect1_texture_308_76219">
<feMergeNode in="displacedImage"/>
</feMerge>
</filter>
<filter id="filter8_g_308_76219" x="215.1" y="70.6205" width="5.43274" height="8.83215" filterUnits="userSpaceOnUse" color-interpolation-filters="sRGB">
<feFlood flood-opacity="0" result="BackgroundImageFix"/>
<feBlend mode="normal" in="SourceGraphic" in2="BackgroundImageFix" result="shape"/>
<feTurbulence type="fractalNoise" baseFrequency="0.20830270648002625 0.20830270648002625" numOctaves="3" seed="3422" />
<feDisplacementMap in="shape" scale="0.75305193662643433" xChannelSelector="R" yChannelSelector="G" result="displacedImage" width="100%" height="100%" />
<feMerge result="effect1_texture_308_76219">
<feMergeNode in="displacedImage"/>
</feMerge>
</filter>
<filter id="filter9_g_308_76219" x="203.467" y="63.269" width="39.921" height="17.382" filterUnits="userSpaceOnUse" color-interpolation-filters="sRGB">
<feFlood flood-opacity="0" result="BackgroundImageFix"/>
<feBlend mode="normal" in="SourceGraphic" in2="BackgroundImageFix" result="shape"/>
<feTurbulence type="fractalNoise" baseFrequency="0.20830270648002625 0.20830270648002625" numOctaves="3" seed="3422" />
<feDisplacementMap in="shape" scale="0.75305193662643433" xChannelSelector="R" yChannelSelector="G" result="displacedImage" width="100%" height="100%" />
<feMerge result="effect1_texture_308_76219">
<feMergeNode in="displacedImage"/>
</feMerge>
</filter>
<filter id="filter10_g_308_76219" x="162.166" y="71.2592" width="6.2218" height="9.0636" filterUnits="userSpaceOnUse" color-interpolation-filters="sRGB">
<feFlood flood-opacity="0" result="BackgroundImageFix"/>
<feBlend mode="normal" in="SourceGraphic" in2="BackgroundImageFix" result="shape"/>
<feTurbulence type="fractalNoise" baseFrequency="0.20830270648002625 0.20830270648002625" numOctaves="3" seed="3422" />
<feDisplacementMap in="shape" scale="0.75305193662643433" xChannelSelector="R" yChannelSelector="G" result="displacedImage" width="100%" height="100%" />
<feMerge result="effect1_texture_308_76219">
<feMergeNode in="displacedImage"/>
</feMerge>
</filter>
<filter id="filter11_g_308_76219" x="150.014" y="71.2602" width="5.43274" height="8.83215" filterUnits="userSpaceOnUse" color-interpolation-filters="sRGB">
<feFlood flood-opacity="0" result="BackgroundImageFix"/>
<feBlend mode="normal" in="SourceGraphic" in2="BackgroundImageFix" result="shape"/>
<feTurbulence type="fractalNoise" baseFrequency="0.20830270648002625 0.20830270648002625" numOctaves="3" seed="3422" />
<feDisplacementMap in="shape" scale="0.75305193662643433" xChannelSelector="R" yChannelSelector="G" result="displacedImage" width="100%" height="100%" />
<feMerge result="effect1_texture_308_76219">
<feMergeNode in="displacedImage"/>
</feMerge>
</filter>
<filter id="filter12_g_308_76219" x="138.377" y="63.9077" width="39.921" height="17.382" filterUnits="userSpaceOnUse" color-interpolation-filters="sRGB">
<feFlood flood-opacity="0" result="BackgroundImageFix"/>
<feBlend mode="normal" in="SourceGraphic" in2="BackgroundImageFix" result="shape"/>
<feTurbulence type="fractalNoise" baseFrequency="0.20830270648002625 0.20830270648002625" numOctaves="3" seed="3422" />
<feDisplacementMap in="shape" scale="0.75305193662643433" xChannelSelector="R" yChannelSelector="G" result="displacedImage" width="100%" height="100%" />
<feMerge result="effect1_texture_308_76219">
<feMergeNode in="displacedImage"/>
</feMerge>
</filter>
<filter id="filter13_g_308_76219" x="154.271" y="42.2654" width="13.8208" height="25.8276" filterUnits="userSpaceOnUse" color-interpolation-filters="sRGB">
<feFlood flood-opacity="0" result="BackgroundImageFix"/>
<feBlend mode="normal" in="SourceGraphic" in2="BackgroundImageFix" result="shape"/>
<feTurbulence type="fractalNoise" baseFrequency="0.17680957913398743 0.17680957913398743" numOctaves="3" seed="3422" />
<feDisplacementMap in="shape" scale="0.88718467950820923" xChannelSelector="R" yChannelSelector="G" result="displacedImage" width="100%" height="100%" />
<feMerge result="effect1_texture_308_76219">
<feMergeNode in="displacedImage"/>
</feMerge>
</filter>
<filter id="filter14_g_308_76219" x="211.592" y="43.3074" width="13.6802" height="24.7846" filterUnits="userSpaceOnUse" color-interpolation-filters="sRGB">
<feFlood flood-opacity="0" result="BackgroundImageFix"/>
<feBlend mode="normal" in="SourceGraphic" in2="BackgroundImageFix" result="shape"/>
<feTurbulence type="fractalNoise" baseFrequency="0.17680957913398743 0.17680957913398743" numOctaves="3" seed="3422" />
<feDisplacementMap in="shape" scale="0.88718467950820923" xChannelSelector="R" yChannelSelector="G" result="displacedImage" width="100%" height="100%" />
<feMerge result="effect1_texture_308_76219">
<feMergeNode in="displacedImage"/>
</feMerge>
</filter>
<filter id="filter15_g_308_76219" x="179.431" y="69.2273" width="21.3716" height="6.40379" filterUnits="userSpaceOnUse" color-interpolation-filters="sRGB">
<feFlood flood-opacity="0" result="BackgroundImageFix"/>
<feBlend mode="normal" in="SourceGraphic" in2="BackgroundImageFix" result="shape"/>
<feTurbulence type="fractalNoise" baseFrequency="0.17680957913398743 0.17680957913398743" numOctaves="3" seed="3422" />
<feDisplacementMap in="shape" scale="0.88718467950820923" xChannelSelector="R" yChannelSelector="G" result="displacedImage" width="100%" height="100%" />
<feMerge result="effect1_texture_308_76219">
<feMergeNode in="displacedImage"/>
</feMerge>
</filter>
<filter id="filter16_g_308_76219" x="182.127" y="2.4109" width="15.1294" height="5.64402" filterUnits="userSpaceOnUse" color-interpolation-filters="sRGB">
<feFlood flood-opacity="0" result="BackgroundImageFix"/>
<feBlend mode="normal" in="SourceGraphic" in2="BackgroundImageFix" result="shape"/>
<feTurbulence type="fractalNoise" baseFrequency="0.17680957913398743 0.17680957913398743" numOctaves="3" seed="3422" />
<feDisplacementMap in="shape" scale="0.88718467950820923" xChannelSelector="R" yChannelSelector="G" result="displacedImage" width="100%" height="100%" />
<feMerge result="effect1_texture_308_76219">
<feMergeNode in="displacedImage"/>
</feMerge>
</filter>
</defs>
</svg>
