<svg width="141" height="33" viewBox="0 0 141 33" fill="none" xmlns="http://www.w3.org/2000/svg">
<path d="M8.51694 20.0727C12.1876 23.3588 12.5837 16.6856 16.6574 15.4758C19.8821 14.5181 20.1051 8.67607 19.6905 6.59902C19.0389 4.55797 20.091 3.62796 11.0069 3.79184C1.92294 3.95573 4.86475 16.8032 8.51694 20.0727Z" fill="#B8B997"/>
<g filter="url(#filter0_g_188_72472)">
<path d="M27.3869 25.7927C24.4616 28.6971 20.387 23.7354 20.1258 22.2832C19.29 24.2195 16.1035 27.608 13.0215 25.7927" stroke="#252525" stroke-width="1.36491" stroke-linecap="round" stroke-linejoin="round"/>
</g>
<g filter="url(#filter1_g_188_72472)">
<path d="M15.6521 17.3889C14.7468 17.9269 18.3869 20.367 20.1786 20.5592C22.0647 20.271 24.9692 17.8501 24.8937 17.3889C24.7994 16.8125 16.7837 16.7165 15.6521 17.3889Z" fill="#252525"/>
<path d="M15.6521 17.3889C14.7468 17.9269 18.3869 20.367 20.1786 20.5592C22.0647 20.271 24.9692 17.8501 24.8937 17.3889C24.7994 16.8125 16.7837 16.7165 15.6521 17.3889Z" stroke="#252525" stroke-width="1.36491"/>
</g>
<g filter="url(#filter2_g_188_72472)">
<ellipse cx="14.1711" cy="13.1869" rx="1.72385" ry="2.01116" fill="#252525"/>
<path d="M14.1709 11.8584C14.6511 11.8584 15.2127 12.3505 15.2129 13.1865C15.2129 14.0228 14.6511 14.5156 14.1709 14.5156C13.6907 14.5155 13.1299 14.0227 13.1299 13.1865C13.1301 12.3506 13.6908 11.8585 14.1709 11.8584Z" stroke="#252525" stroke-width="1.36491"/>
</g>
<g filter="url(#filter3_g_188_72472)">
<ellipse cx="26.046" cy="13.2826" rx="1.53231" ry="1.91539" fill="#252525"/>
<path d="M26.0459 12.0498C26.381 12.0498 26.8954 12.4516 26.8955 13.2822C26.8955 14.1131 26.381 14.5156 26.0459 14.5156C25.7108 14.5156 25.1963 14.1131 25.1963 13.2822C25.1964 12.4516 25.7108 12.0499 26.0459 12.0498Z" stroke="#252525" stroke-width="1.36491"/>
</g>
<path d="M9.02471 15.3808C8.3716 11.9563 12.1376 11.0255 14.8462 5.30503C15.8069 3.72375 13.7977 1.46374 6.28251 1.13234C-1.23268 0.800949 1.96775 17.1396 3.85421 18.6356C5.74068 20.1315 9.67782 18.8053 9.02471 15.3808Z" stroke="#252525" stroke-width="1.36491" stroke-linecap="round"/>
<g filter="url(#filter4_g_188_72472)">
<path d="M16.2656 31.9241C14.0718 28.2628 8.1684 23.137 2.10547 31.9241H16.2656Z" stroke="#252525" stroke-width="1.36491" stroke-linejoin="round"/>
</g>
<g filter="url(#filter5_g_188_72472)">
<path d="M12.4933 31.8283L11.1699 29.4023" stroke="#252525" stroke-width="1.36491" stroke-linecap="round"/>
</g>
<g filter="url(#filter6_g_188_72472)">
<path d="M5.08398 31.9233L7.13522 29.7773" stroke="#252525" stroke-width="1.36491" stroke-linecap="round"/>
</g>
<g filter="url(#filter7_g_188_72472)">
<path d="M9.25 31.924V29.498" stroke="#252525" stroke-width="1.36491" stroke-linecap="round"/>
</g>
<g filter="url(#filter8_g_188_72472)">
<path d="M38.4958 31.6296C36.3888 28.1905 30.7193 23.3758 24.8965 31.6296H38.4958Z" stroke="#252525" stroke-width="1.36491" stroke-linejoin="round"/>
</g>
<g filter="url(#filter9_g_188_72472)">
<path d="M34.8725 31.5423L33.6016 29.2637" stroke="#252525" stroke-width="1.36491" stroke-linecap="round"/>
</g>
<g filter="url(#filter10_g_188_72472)">
<path d="M27.7559 31.629L29.7258 29.6133" stroke="#252525" stroke-width="1.36491" stroke-linecap="round"/>
</g>
<g filter="url(#filter11_g_188_72472)">
<path d="M31.7598 31.6302V29.3516" stroke="#252525" stroke-width="1.36491" stroke-linecap="round"/>
</g>
<path d="M31.1683 15.4802C31.5401 12.0138 27.7108 11.393 24.5449 5.91241C23.4586 4.41469 25.2769 1.99844 32.74 1.0556C40.2032 0.112753 38.3452 16.6579 36.5869 18.3026C34.8287 19.9474 30.7965 18.9465 31.1683 15.4802Z" stroke="#252525" stroke-width="1.36491" stroke-linecap="round"/>
<path d="M48.8797 31.0679C48.4494 31.0679 48.0586 30.977 47.7072 30.7952C47.3618 30.6134 47.086 30.3498 46.88 30.0044C46.6801 29.659 46.5801 29.244 46.5801 28.7592V28.641C46.5801 28.1563 46.6801 27.7442 46.88 27.4049C47.086 27.0595 47.3618 26.7959 47.7072 26.6141C48.0586 26.4263 48.4494 26.3324 48.8797 26.3324C49.3099 26.3324 49.6765 26.4111 49.9795 26.5687C50.2825 26.7262 50.5248 26.9353 50.7066 27.1958C50.8945 27.4564 51.0157 27.7442 51.0702 28.0593L50.1613 28.2502C50.131 28.0502 50.0673 27.8685 49.9704 27.7048C49.8734 27.5412 49.7371 27.411 49.5614 27.314C49.3856 27.2171 49.1645 27.1686 48.8979 27.1686C48.6373 27.1686 48.401 27.2292 48.1889 27.3504C47.9829 27.4655 47.8193 27.6352 47.6981 27.8594C47.5769 28.0775 47.5163 28.3441 47.5163 28.6592V28.741C47.5163 29.0561 47.5769 29.3258 47.6981 29.55C47.8193 29.7742 47.9829 29.9438 48.1889 30.059C48.401 30.1741 48.6373 30.2317 48.8979 30.2317C49.2917 30.2317 49.5917 30.1317 49.7977 29.9317C50.0037 29.7257 50.134 29.4651 50.1885 29.15L51.0975 29.3591C51.0247 29.6681 50.8945 29.9529 50.7066 30.2135C50.5248 30.4741 50.2825 30.6831 49.9795 30.8407C49.6765 30.9921 49.3099 31.0679 48.8797 31.0679Z" fill="#252525"/>
<path d="M53.5679 31.0679C53.2468 31.0679 52.9589 31.0134 52.7044 30.9043C52.456 30.7952 52.256 30.6346 52.1045 30.4225C51.9591 30.2105 51.8864 29.9529 51.8864 29.65C51.8864 29.3409 51.9591 29.0864 52.1045 28.8865C52.256 28.6804 52.459 28.5259 52.7135 28.4229C52.9741 28.3199 53.268 28.2684 53.5952 28.2684H54.9586V27.9775C54.9586 27.717 54.8798 27.5079 54.7222 27.3504C54.5647 27.1928 54.3223 27.114 53.9951 27.114C53.6739 27.114 53.4285 27.1898 53.2589 27.3413C53.0892 27.4928 52.9771 27.6897 52.9226 27.9321L52.05 27.6503C52.1227 27.4079 52.2378 27.1898 52.3954 26.9959C52.559 26.7959 52.7741 26.6353 53.0407 26.5141C53.3073 26.393 53.6285 26.3324 54.0042 26.3324C54.5859 26.3324 55.0434 26.4808 55.3767 26.7777C55.71 27.0747 55.8766 27.4958 55.8766 28.0412V29.8863C55.8766 30.0681 55.9614 30.159 56.1311 30.159H56.5128V30.9406H55.813C55.6009 30.9406 55.4282 30.8861 55.2949 30.777C55.1616 30.668 55.0949 30.5195 55.0949 30.3317V30.3044H54.9586C54.9101 30.3953 54.8374 30.5013 54.7404 30.6225C54.6435 30.7437 54.5011 30.8497 54.3132 30.9406C54.1254 31.0255 53.8769 31.0679 53.5679 31.0679ZM53.7042 30.2953C54.0799 30.2953 54.3829 30.1893 54.6132 29.9772C54.8434 29.759 54.9586 29.4621 54.9586 29.0864V28.9955H53.6497C53.4013 28.9955 53.2013 29.0501 53.0498 29.1591C52.8983 29.2621 52.8226 29.4167 52.8226 29.6227C52.8226 29.8287 52.9014 29.9923 53.0589 30.1135C53.2165 30.2347 53.4316 30.2953 53.7042 30.2953Z" fill="#252525"/>
<path d="M57.4231 30.9406V26.4596H58.3411V27.1322H58.4866C58.5714 26.9504 58.7229 26.7808 58.941 26.6232C59.1592 26.4657 59.4834 26.3869 59.9136 26.3869C60.2529 26.3869 60.5529 26.4626 60.8134 26.6141C61.08 26.7656 61.2891 26.9807 61.4406 27.2595C61.5921 27.5321 61.6678 27.8624 61.6678 28.2502V30.9406H60.7316V28.3229C60.7316 27.9351 60.6347 27.6503 60.4408 27.4685C60.2469 27.2807 59.9802 27.1868 59.6409 27.1868C59.2531 27.1868 58.941 27.314 58.7047 27.5685C58.4744 27.823 58.3593 28.1926 58.3593 28.6774V30.9406H57.4231Z" fill="#252525"/>
<path d="M63.0152 30.9406V26.4596H63.9514V30.9406H63.0152ZM63.4878 25.8506C63.306 25.8506 63.1515 25.7931 63.0243 25.6779C62.9031 25.5567 62.8425 25.4022 62.8425 25.2144C62.8425 25.0265 62.9031 24.875 63.0243 24.7599C63.1515 24.6387 63.306 24.5781 63.4878 24.5781C63.6757 24.5781 63.8302 24.6387 63.9514 24.7599C64.0726 24.875 64.1332 25.0265 64.1332 25.2144C64.1332 25.4022 64.0726 25.5567 63.9514 25.6779C63.8302 25.7931 63.6757 25.8506 63.4878 25.8506Z" fill="#252525"/>
<path d="M65.3408 30.9406V26.4596H66.2588V27.1322H66.4042C66.489 26.9504 66.6405 26.7808 66.8587 26.6232C67.0768 26.4657 67.401 26.3869 67.8312 26.3869C68.1706 26.3869 68.4705 26.4626 68.7311 26.6141C68.9977 26.7656 69.2067 26.9807 69.3582 27.2595C69.5097 27.5321 69.5855 27.8624 69.5855 28.2502V30.9406H68.6493V28.3229C68.6493 27.9351 68.5523 27.6503 68.3584 27.4685C68.1645 27.2807 67.8979 27.1868 67.5585 27.1868C67.1707 27.1868 66.8587 27.314 66.6223 27.5685C66.3921 27.823 66.277 28.1926 66.277 28.6774V30.9406H65.3408Z" fill="#252525"/>
<path d="M75.0856 31.0679C74.516 31.0679 74.0433 30.9406 73.6676 30.6861C73.2919 30.4316 73.0617 30.0469 72.9768 29.5318L73.8494 29.3227C73.8979 29.5712 73.9797 29.7681 74.0948 29.9135C74.2099 30.059 74.3523 30.162 74.522 30.2226C74.6977 30.2832 74.8856 30.3135 75.0856 30.3135C75.3825 30.3135 75.6097 30.2559 75.7672 30.1408C75.9309 30.0256 76.0127 29.8772 76.0127 29.6954C76.0127 29.5136 75.9369 29.3803 75.7854 29.2955C75.6339 29.2106 75.4097 29.141 75.1128 29.0864L74.8038 29.0319C74.5008 28.9773 74.2251 28.8986 73.9767 28.7956C73.7282 28.6925 73.5313 28.5502 73.3859 28.3684C73.2404 28.1866 73.1677 27.9533 73.1677 27.6685C73.1677 27.2443 73.3253 26.9171 73.6404 26.6868C73.9554 26.4505 74.3736 26.3324 74.8947 26.3324C75.3976 26.3324 75.8097 26.4475 76.1308 26.6778C76.458 26.902 76.6701 27.208 76.7671 27.5958L75.8945 27.8412C75.84 27.5685 75.7248 27.3776 75.5491 27.2686C75.3734 27.1534 75.1552 27.0959 74.8947 27.0959C74.6402 27.0959 74.4402 27.1443 74.2948 27.2413C74.1494 27.3322 74.0766 27.4625 74.0766 27.6321C74.0766 27.8139 74.1463 27.9472 74.2857 28.0321C74.4311 28.1169 74.625 28.1805 74.8674 28.2229L75.1855 28.2775C75.5067 28.332 75.8006 28.4078 76.0672 28.5047C76.3338 28.6017 76.5429 28.741 76.6944 28.9228C76.8519 29.1046 76.9307 29.347 76.9307 29.65C76.9307 30.0984 76.764 30.4468 76.4308 30.6952C76.0975 30.9437 75.6491 31.0679 75.0856 31.0679Z" fill="#252525"/>
<path d="M80.1246 31.0679C79.6762 31.0679 79.2762 30.977 78.9248 30.7952C78.5794 30.6074 78.3067 30.3407 78.1068 29.9954C77.9068 29.65 77.8068 29.2409 77.8068 28.7683V28.632C77.8068 28.1593 77.9068 27.7533 78.1068 27.414C78.3067 27.0686 78.5794 26.802 78.9248 26.6141C79.2762 26.4263 79.6762 26.3324 80.1246 26.3324C80.573 26.3324 80.9729 26.4263 81.3244 26.6141C81.6758 26.802 81.9515 27.0686 82.1515 27.414C82.3515 27.7533 82.4514 28.1593 82.4514 28.632V28.7683C82.4514 29.2409 82.3515 29.65 82.1515 29.9954C81.9515 30.3407 81.6758 30.6074 81.3244 30.7952C80.9729 30.977 80.573 31.0679 80.1246 31.0679ZM80.1246 30.2317C80.5366 30.2317 80.8699 30.1014 81.1244 29.8408C81.385 29.5742 81.5152 29.2076 81.5152 28.741V28.6592C81.5152 28.1926 81.388 27.8291 81.1335 27.5685C80.879 27.3019 80.5427 27.1686 80.1246 27.1686C79.7186 27.1686 79.3853 27.3019 79.1248 27.5685C78.8703 27.8291 78.743 28.1926 78.743 28.6592V28.741C78.743 29.2076 78.8703 29.5742 79.1248 29.8408C79.3853 30.1014 79.7186 30.2317 80.1246 30.2317Z" fill="#252525"/>
<path d="M83.617 30.9406V24.5781H84.5532V30.9406H83.617Z" fill="#252525"/>
<path d="M85.9426 30.9406V26.4596H86.8788V30.9406H85.9426ZM86.4152 25.8506C86.2334 25.8506 86.0789 25.7931 85.9517 25.6779C85.8305 25.5567 85.7699 25.4022 85.7699 25.2144C85.7699 25.0265 85.8305 24.875 85.9517 24.7599C86.0789 24.6387 86.2334 24.5781 86.4152 24.5781C86.6031 24.5781 86.7576 24.6387 86.8788 24.7599C87 24.875 87.0606 25.0265 87.0606 25.2144C87.0606 25.4022 87 25.5567 86.8788 25.6779C86.7576 25.7931 86.6031 25.8506 86.4152 25.8506Z" fill="#252525"/>
<path d="M90.1224 31.0679C89.7528 31.0679 89.4104 30.977 89.0953 30.7952C88.7802 30.6134 88.5257 30.3529 88.3318 30.0135C88.1439 29.6681 88.05 29.2531 88.05 28.7683V28.632C88.05 28.1533 88.1439 27.7412 88.3318 27.3958C88.5196 27.0504 88.7711 26.7868 89.0862 26.605C89.4013 26.4233 89.7467 26.3324 90.1224 26.3324C90.4132 26.3324 90.6556 26.3687 90.8495 26.4414C91.0495 26.5141 91.2131 26.6081 91.3404 26.7232C91.4676 26.8323 91.5646 26.9474 91.6312 27.0686H91.7766V24.5781H92.7128V30.9406H91.7948V30.3044H91.6494C91.5343 30.4983 91.3585 30.674 91.1222 30.8316C90.8919 30.9891 90.5587 31.0679 90.1224 31.0679ZM90.386 30.2499C90.792 30.2499 91.1252 30.1196 91.3858 29.859C91.6524 29.5985 91.7857 29.2258 91.7857 28.741V28.6592C91.7857 28.1805 91.6554 27.8109 91.3949 27.5503C91.1343 27.2898 90.798 27.1595 90.386 27.1595C89.986 27.1595 89.6528 27.2898 89.3861 27.5503C89.1256 27.8109 88.9953 28.1805 88.9953 28.6592V28.741C88.9953 29.2258 89.1256 29.5985 89.3861 29.859C89.6528 30.1196 89.986 30.2499 90.386 30.2499Z" fill="#252525"/>
<path d="M95.4817 31.0679C95.1605 31.0679 94.8727 31.0134 94.6182 30.9043C94.3697 30.7952 94.1698 30.6346 94.0183 30.4225C93.8729 30.2105 93.8001 29.9529 93.8001 29.65C93.8001 29.3409 93.8729 29.0864 94.0183 28.8865C94.1698 28.6804 94.3728 28.5259 94.6273 28.4229C94.8878 28.3199 95.1817 28.2684 95.5089 28.2684H96.8723V27.9775C96.8723 27.717 96.7936 27.5079 96.636 27.3504C96.4785 27.1928 96.2361 27.114 95.9089 27.114C95.5877 27.114 95.3423 27.1898 95.1726 27.3413C95.003 27.4928 94.8909 27.6897 94.8363 27.9321L93.9638 27.6503C94.0365 27.4079 94.1516 27.1898 94.3091 26.9959C94.4728 26.7959 94.6879 26.6353 94.9545 26.5141C95.2211 26.393 95.5423 26.3324 95.918 26.3324C96.4997 26.3324 96.9572 26.4808 97.2904 26.7777C97.6237 27.0747 97.7903 27.4958 97.7903 28.0412V29.8863C97.7903 30.0681 97.8752 30.159 98.0448 30.159H98.4266V30.9406H97.7267C97.5146 30.9406 97.3419 30.8861 97.2086 30.777C97.0753 30.668 97.0087 30.5195 97.0087 30.3317V30.3044H96.8723C96.8239 30.3953 96.7511 30.5013 96.6542 30.6225C96.5572 30.7437 96.4148 30.8497 96.227 30.9406C96.0391 31.0255 95.7907 31.0679 95.4817 31.0679ZM95.618 30.2953C95.9937 30.2953 96.2967 30.1893 96.5269 29.9772C96.7572 29.759 96.8723 29.4621 96.8723 29.0864V28.9955H95.5635C95.315 28.9955 95.1151 29.0501 94.9636 29.1591C94.8121 29.2621 94.7363 29.4167 94.7363 29.6227C94.7363 29.8287 94.8151 29.9923 94.9727 30.1135C95.1302 30.2347 95.3453 30.2953 95.618 30.2953Z" fill="#252525"/>
<path d="M99.3369 30.9406V26.4596H100.273V30.9406H99.3369ZM99.8095 25.8506C99.6277 25.8506 99.4732 25.7931 99.346 25.6779C99.2248 25.5567 99.1642 25.4022 99.1642 25.2144C99.1642 25.0265 99.2248 24.875 99.346 24.7599C99.4732 24.6387 99.6277 24.5781 99.8095 24.5781C99.9974 24.5781 100.152 24.6387 100.273 24.7599C100.394 24.875 100.455 25.0265 100.455 25.2144C100.455 25.4022 100.394 25.5567 100.273 25.6779C100.152 25.7931 99.9974 25.8506 99.8095 25.8506Z" fill="#252525"/>
<path d="M101.662 30.9406V26.4596H102.58V26.9868H102.726C102.799 26.7989 102.914 26.6626 103.071 26.5778C103.235 26.4869 103.435 26.4414 103.671 26.4414H104.207V27.2867H103.635C103.332 27.2867 103.083 27.3716 102.89 27.5412C102.696 27.7048 102.599 27.9593 102.599 28.3047V30.9406H101.662Z" fill="#252525"/>
<path d="M107.072 31.0679C106.617 31.0679 106.221 30.974 105.881 30.7861C105.542 30.5922 105.275 30.3226 105.081 29.9772C104.893 29.6257 104.8 29.2197 104.8 28.7592V28.6501C104.8 28.1835 104.893 27.7776 105.081 27.4322C105.269 27.0807 105.53 26.8111 105.863 26.6232C106.202 26.4293 106.593 26.3324 107.036 26.3324C107.466 26.3324 107.841 26.4293 108.163 26.6232C108.49 26.8111 108.744 27.0747 108.926 27.414C109.108 27.7533 109.199 28.1502 109.199 28.6047V28.9592H105.754C105.766 29.353 105.896 29.6681 106.145 29.9045C106.399 30.1347 106.714 30.2499 107.09 30.2499C107.442 30.2499 107.705 30.1711 107.881 30.0135C108.063 29.856 108.202 29.6742 108.299 29.4682L109.072 29.8681C108.987 30.0378 108.862 30.2165 108.699 30.4044C108.541 30.5922 108.332 30.7498 108.072 30.877C107.811 31.0043 107.478 31.0679 107.072 31.0679ZM105.763 28.2411H108.244C108.22 27.9018 108.099 27.6382 107.881 27.4503C107.663 27.2564 107.378 27.1595 107.026 27.1595C106.675 27.1595 106.387 27.2564 106.163 27.4503C105.945 27.6382 105.811 27.9018 105.763 28.2411Z" fill="#252525"/>
<g filter="url(#filter12_g_188_72472)">
<path d="M57.8435 21.8304C57.6447 21.8304 57.5054 21.7409 57.4259 21.5619L53.9056 13.6264C53.8658 13.5468 53.8062 13.507 53.7266 13.507H51.7577C51.6582 13.507 51.6085 13.5568 51.6085 13.6562V21.4724C51.6085 21.5718 51.5687 21.6613 51.4892 21.7409C51.4295 21.8006 51.3499 21.8304 51.2505 21.8304H47.0142C46.9148 21.8304 46.8253 21.8006 46.7457 21.7409C46.6861 21.6613 46.6562 21.5718 46.6562 21.4724V1.30543C46.6562 1.20599 46.6861 1.12643 46.7457 1.06677C46.8253 0.987211 46.9148 0.947434 47.0142 0.947434H55.8746C57.1872 0.947434 58.3408 1.21593 59.3352 1.75292C60.3296 2.28991 61.0953 3.05562 61.6323 4.05005C62.1892 5.02458 62.4676 6.14828 62.4676 7.42115C62.4676 8.75368 62.1395 9.90722 61.4831 10.8818C60.8268 11.8563 59.912 12.5623 58.7385 12.9999C58.6391 13.0397 58.6093 13.1093 58.649 13.2087L62.587 21.4127C62.6267 21.4923 62.6466 21.5519 62.6466 21.5917C62.6466 21.7508 62.5372 21.8304 62.3185 21.8304H57.8435ZM51.7577 5.18369C51.6582 5.18369 51.6085 5.23341 51.6085 5.33285V9.56911C51.6085 9.66855 51.6582 9.71827 51.7577 9.71827H55.0691C55.805 9.71827 56.4016 9.51939 56.8591 9.12162C57.3165 8.70396 57.5452 8.15703 57.5452 7.48082C57.5452 6.78472 57.3165 6.22784 56.8591 5.81018C56.4016 5.39252 55.805 5.18369 55.0691 5.18369H51.7577Z" fill="#252525"/>
<path d="M78.8001 12.7612C78.8996 13.3579 78.9294 14.1435 78.8896 15.118C78.8698 15.3567 78.7405 15.476 78.5018 15.476H69.4028C69.363 15.476 69.3233 15.4959 69.2835 15.5357C69.2437 15.5556 69.2338 15.5854 69.2537 15.6252C69.2934 15.8439 69.3929 16.1323 69.552 16.4903C69.7906 16.908 70.1486 17.2461 70.626 17.5046C71.1033 17.7632 71.69 17.8925 72.3861 17.8925C73.6391 17.8925 74.6236 17.4847 75.3395 16.6693C75.4191 16.5699 75.5086 16.5202 75.608 16.5202C75.7075 16.5202 75.787 16.5599 75.8467 16.6395L78.1438 19.2648C78.2234 19.3244 78.2632 19.404 78.2632 19.5034C78.2632 19.583 78.2234 19.6625 78.1438 19.7421C77.4477 20.4979 76.5826 21.0746 75.5484 21.4724C74.5341 21.8702 73.4203 22.0691 72.2071 22.0691C70.3972 22.0691 68.8559 21.6812 67.583 20.9056C66.33 20.11 65.4251 19.0062 64.8682 17.5941C64.4506 16.5997 64.2417 15.3567 64.2417 13.865C64.2417 12.8308 64.4009 11.8364 64.7191 10.8818C65.2362 9.41 66.0814 8.25647 67.2549 7.42115C68.4482 6.56594 69.8603 6.13834 71.4911 6.13834C72.8038 6.13834 73.9772 6.42672 75.0114 7.00349C76.0456 7.56037 76.8809 8.34597 77.5173 9.36028C78.1737 10.3547 78.6013 11.4884 78.8001 12.7612ZM71.4911 10.4044C70.4569 10.4044 69.7708 10.8917 69.4327 11.8662C69.3531 12.085 69.3034 12.2938 69.2835 12.4927C69.2437 12.5922 69.2835 12.6419 69.4028 12.6419H73.6391C73.7186 12.6419 73.7584 12.6021 73.7584 12.5226C73.7584 12.3634 73.7186 12.1646 73.6391 11.9259C73.4999 11.4287 73.2413 11.0508 72.8634 10.7923C72.5054 10.5337 72.048 10.4044 71.4911 10.4044Z" fill="#252525"/>
<path d="M90.0504 6.377C90.1498 6.377 90.2294 6.41678 90.289 6.49633C90.3686 6.556 90.4084 6.63555 90.4084 6.735V10.0763C90.4084 10.1757 90.3686 10.2652 90.289 10.3448C90.2294 10.4044 90.1498 10.4343 90.0504 10.4343H87.2461C87.1466 10.4343 87.0969 10.484 87.0969 10.5834V21.4724C87.0969 21.5718 87.0572 21.6613 86.9776 21.7409C86.9179 21.8006 86.8384 21.8304 86.7389 21.8304H82.5027C82.4032 21.8304 82.3137 21.8006 82.2342 21.7409C82.1745 21.6613 82.1447 21.5718 82.1447 21.4724V10.5834C82.1447 10.484 82.095 10.4343 81.9955 10.4343H80.3249C80.2254 10.4343 80.1359 10.4044 80.0564 10.3448C79.9967 10.2652 79.9669 10.1757 79.9669 10.0763V6.735C79.9669 6.63555 79.9967 6.556 80.0564 6.49633C80.1359 6.41678 80.2254 6.377 80.3249 6.377H81.9955C82.095 6.377 82.1447 6.32728 82.1447 6.22784V5.42235C82.1447 4.24893 82.3535 3.33406 82.7712 2.67774C83.1888 2.00153 83.8551 1.53415 84.77 1.2756C85.6848 0.997157 86.9279 0.887769 88.4991 0.947434H89.7222C89.8217 0.947434 89.9012 0.987211 89.9609 1.06677C90.0404 1.12643 90.0802 1.20599 90.0802 1.30543V4.02021C90.0802 4.11966 90.0404 4.20915 89.9609 4.28871C89.9012 4.34837 89.8217 4.37821 89.7222 4.37821H88.5587C88.0217 4.41798 87.6439 4.54726 87.4251 4.76603C87.2063 4.9848 87.0969 5.35274 87.0969 5.86984V6.22784C87.0969 6.32728 87.1466 6.377 87.2461 6.377H90.0504Z" fill="#252525"/>
<path d="M101.34 6.76483C101.34 6.66539 101.37 6.58583 101.43 6.52617C101.509 6.44661 101.599 6.40684 101.698 6.40684H105.934C106.034 6.40684 106.113 6.44661 106.173 6.52617C106.253 6.58583 106.292 6.66539 106.292 6.76483V21.4724C106.292 21.5718 106.253 21.6613 106.173 21.7409C106.113 21.8006 106.034 21.8304 105.934 21.8304H101.698C101.599 21.8304 101.509 21.8006 101.43 21.7409C101.37 21.6613 101.34 21.5718 101.34 21.4724V20.4282C101.34 20.3686 101.32 20.3288 101.281 20.3089C101.241 20.289 101.201 20.3089 101.161 20.3686C100.366 21.5022 99.1127 22.0691 97.4023 22.0691C95.8908 22.0691 94.6676 21.5917 93.7329 20.6371C92.7981 19.6824 92.3307 18.3499 92.3307 16.6395V6.76483C92.3307 6.66539 92.3605 6.58583 92.4202 6.52617C92.4998 6.44661 92.5893 6.40684 92.6887 6.40684H96.925C97.0244 6.40684 97.104 6.44661 97.1636 6.52617C97.2432 6.58583 97.283 6.66539 97.283 6.76483V15.5058C97.283 16.2019 97.462 16.7588 97.8199 17.1765C98.1779 17.5941 98.6652 17.803 99.2818 17.803C99.8386 17.803 100.296 17.6339 100.654 17.2958C101.032 16.9577 101.261 16.5102 101.34 15.9533V6.76483Z" fill="#252525"/>
<path d="M118.161 6.76483C118.161 6.66539 118.191 6.58583 118.25 6.52617C118.33 6.44661 118.419 6.40684 118.519 6.40684H122.755C122.854 6.40684 122.934 6.44661 122.994 6.52617C123.073 6.58583 123.113 6.66539 123.113 6.76483V20.1001C123.113 22.8248 122.327 24.7739 120.756 25.9473C119.185 27.1207 117.196 27.7074 114.79 27.7074C113.895 27.7074 112.95 27.6279 111.956 27.4688C111.757 27.4489 111.657 27.3196 111.657 27.081L111.806 23.3817C111.806 23.2425 111.846 23.143 111.926 23.0834C112.005 23.0436 112.105 23.0436 112.224 23.0834C113.039 23.2624 113.795 23.3519 114.491 23.3519C115.625 23.3519 116.52 23.0933 117.176 22.5762C117.833 22.0591 118.161 21.2437 118.161 20.1299L117.952 20.3387C117.236 21.0547 116.202 21.4127 114.849 21.4127C113.537 21.4127 112.333 21.1243 111.24 20.5476C110.146 19.9708 109.36 18.9565 108.883 17.5046C108.565 16.55 108.405 15.3766 108.405 13.9844C108.405 12.4529 108.594 11.2 108.972 10.2254C109.43 8.99234 110.156 8.00786 111.15 7.27199C112.164 6.53611 113.338 6.16817 114.67 6.16817C116.102 6.16817 117.206 6.60572 117.982 7.48082C118.022 7.52059 118.061 7.54048 118.101 7.54048C118.141 7.52059 118.161 7.48082 118.161 7.42115V6.76483ZM117.892 16.192C118.071 15.7346 118.161 14.9887 118.161 13.9545C118.161 13.4175 118.141 12.9999 118.101 12.7016C118.061 12.3833 117.982 12.085 117.862 11.8066C117.703 11.369 117.445 11.0309 117.087 10.7923C116.749 10.5337 116.331 10.4044 115.834 10.4044C114.899 10.4044 114.233 10.8718 113.835 11.8066C113.537 12.3634 113.388 13.0993 113.388 14.0142C113.388 14.9887 113.517 15.7047 113.775 16.1622C113.954 16.5798 114.223 16.9179 114.581 17.1765C114.939 17.435 115.366 17.5643 115.864 17.5643C116.878 17.5643 117.554 17.1069 117.892 16.192Z" fill="#252525"/>
<path d="M139.893 12.7612C139.993 13.3579 140.023 14.1435 139.983 15.118C139.963 15.3567 139.834 15.476 139.595 15.476H130.496C130.456 15.476 130.416 15.4959 130.377 15.5357C130.337 15.5556 130.327 15.5854 130.347 15.6252C130.387 15.8439 130.486 16.1323 130.645 16.4903C130.884 16.908 131.242 17.2461 131.719 17.5046C132.196 17.7632 132.783 17.8925 133.479 17.8925C134.732 17.8925 135.717 17.4847 136.433 16.6693C136.512 16.5699 136.602 16.5202 136.701 16.5202C136.801 16.5202 136.88 16.5599 136.94 16.6395L139.237 19.2648C139.317 19.3244 139.356 19.404 139.356 19.5034C139.356 19.583 139.317 19.6625 139.237 19.7421C138.541 20.4979 137.676 21.0746 136.641 21.4724C135.627 21.8702 134.513 22.0691 133.3 22.0691C131.49 22.0691 129.949 21.6812 128.676 20.9056C127.423 20.11 126.518 19.0062 125.961 17.5941C125.544 16.5997 125.335 15.3567 125.335 13.865C125.335 12.8308 125.494 11.8364 125.812 10.8818C126.329 9.41 127.175 8.25647 128.348 7.42115C129.541 6.56594 130.953 6.13834 132.584 6.13834C133.897 6.13834 135.07 6.42672 136.105 7.00349C137.139 7.56037 137.974 8.34597 138.61 9.36028C139.267 10.3547 139.694 11.4884 139.893 12.7612ZM132.584 10.4044C131.55 10.4044 130.864 10.8917 130.526 11.8662C130.446 12.085 130.396 12.2938 130.377 12.4927C130.337 12.5922 130.377 12.6419 130.496 12.6419H134.732C134.812 12.6419 134.852 12.6021 134.852 12.5226C134.852 12.3634 134.812 12.1646 134.732 11.9259C134.593 11.4287 134.334 11.0508 133.957 10.7923C133.599 10.5337 133.141 10.4044 132.584 10.4044Z" fill="#252525"/>
</g>
<defs>
<filter id="filter0_g_188_72472" x="12.1975" y="21.4592" width="16.0152" height="6.05421" filterUnits="userSpaceOnUse" color-interpolation-filters="sRGB">
<feFlood flood-opacity="0" result="BackgroundImageFix"/>
<feBlend mode="normal" in="SourceGraphic" in2="BackgroundImageFix" result="shape"/>
<feTurbulence type="fractalNoise" baseFrequency="0.55100709199905396 0.55100709199905396" numOctaves="3" seed="3422" />
<feDisplacementMap in="shape" scale="0.2846837043762207" xChannelSelector="R" yChannelSelector="G" result="displacedImage" width="100%" height="100%" />
<feMerge result="effect1_texture_188_72472">
<feMergeNode in="displacedImage"/>
</feMerge>
</filter>
<filter id="filter1_g_188_72472" x="14.6858" y="16.0959" width="11.0347" height="5.29445" filterUnits="userSpaceOnUse" color-interpolation-filters="sRGB">
<feFlood flood-opacity="0" result="BackgroundImageFix"/>
<feBlend mode="normal" in="SourceGraphic" in2="BackgroundImageFix" result="shape"/>
<feTurbulence type="fractalNoise" baseFrequency="0.55100709199905396 0.55100709199905396" numOctaves="3" seed="3422" />
<feDisplacementMap in="shape" scale="0.2846837043762207" xChannelSelector="R" yChannelSelector="G" result="displacedImage" width="100%" height="100%" />
<feMerge result="effect1_texture_188_72472">
<feMergeNode in="displacedImage"/>
</feMerge>
</filter>
<filter id="filter2_g_188_72472" x="12.3049" y="11.0334" width="3.73195" height="4.30617" filterUnits="userSpaceOnUse" color-interpolation-filters="sRGB">
<feFlood flood-opacity="0" result="BackgroundImageFix"/>
<feBlend mode="normal" in="SourceGraphic" in2="BackgroundImageFix" result="shape"/>
<feTurbulence type="fractalNoise" baseFrequency="0.55100709199905396 0.55100709199905396" numOctaves="3" seed="3422" />
<feDisplacementMap in="shape" scale="0.2846837043762207" xChannelSelector="R" yChannelSelector="G" result="displacedImage" width="100%" height="100%" />
<feMerge result="effect1_texture_188_72472">
<feMergeNode in="displacedImage"/>
</feMerge>
</filter>
<filter id="filter3_g_188_72472" x="24.3713" y="11.2248" width="3.34914" height="4.11476" filterUnits="userSpaceOnUse" color-interpolation-filters="sRGB">
<feFlood flood-opacity="0" result="BackgroundImageFix"/>
<feBlend mode="normal" in="SourceGraphic" in2="BackgroundImageFix" result="shape"/>
<feTurbulence type="fractalNoise" baseFrequency="0.55100709199905396 0.55100709199905396" numOctaves="3" seed="3422" />
<feDisplacementMap in="shape" scale="0.2846837043762207" xChannelSelector="R" yChannelSelector="G" result="displacedImage" width="100%" height="100%" />
<feMerge result="effect1_texture_188_72472">
<feMergeNode in="displacedImage"/>
</feMerge>
</filter>
<filter id="filter4_g_188_72472" x="1.28149" y="26.2483" width="15.8081" height="6.50148" filterUnits="userSpaceOnUse" color-interpolation-filters="sRGB">
<feFlood flood-opacity="0" result="BackgroundImageFix"/>
<feBlend mode="normal" in="SourceGraphic" in2="BackgroundImageFix" result="shape"/>
<feTurbulence type="fractalNoise" baseFrequency="0.55100709199905396 0.55100709199905396" numOctaves="3" seed="3422" />
<feDisplacementMap in="shape" scale="0.2846837043762207" xChannelSelector="R" yChannelSelector="G" result="displacedImage" width="100%" height="100%" />
<feMerge result="effect1_texture_188_72472">
<feMergeNode in="displacedImage"/>
</feMerge>
</filter>
<filter id="filter5_g_188_72472" x="10.3459" y="28.5784" width="2.97218" height="4.0757" filterUnits="userSpaceOnUse" color-interpolation-filters="sRGB">
<feFlood flood-opacity="0" result="BackgroundImageFix"/>
<feBlend mode="normal" in="SourceGraphic" in2="BackgroundImageFix" result="shape"/>
<feTurbulence type="fractalNoise" baseFrequency="0.55100709199905396 0.55100709199905396" numOctaves="3" seed="3422" />
<feDisplacementMap in="shape" scale="0.2846837043762207" xChannelSelector="R" yChannelSelector="G" result="displacedImage" width="100%" height="100%" />
<feMerge result="effect1_texture_188_72472">
<feMergeNode in="displacedImage"/>
</feMerge>
</filter>
<filter id="filter6_g_188_72472" x="4.26" y="28.9534" width="3.7007" height="3.79445" filterUnits="userSpaceOnUse" color-interpolation-filters="sRGB">
<feFlood flood-opacity="0" result="BackgroundImageFix"/>
<feBlend mode="normal" in="SourceGraphic" in2="BackgroundImageFix" result="shape"/>
<feTurbulence type="fractalNoise" baseFrequency="0.55100709199905396 0.55100709199905396" numOctaves="3" seed="3422" />
<feDisplacementMap in="shape" scale="0.2846837043762207" xChannelSelector="R" yChannelSelector="G" result="displacedImage" width="100%" height="100%" />
<feMerge result="effect1_texture_188_72472">
<feMergeNode in="displacedImage"/>
</feMerge>
</filter>
<filter id="filter7_g_188_72472" x="8.42602" y="28.6741" width="1.64796" height="4.07375" filterUnits="userSpaceOnUse" color-interpolation-filters="sRGB">
<feFlood flood-opacity="0" result="BackgroundImageFix"/>
<feBlend mode="normal" in="SourceGraphic" in2="BackgroundImageFix" result="shape"/>
<feTurbulence type="fractalNoise" baseFrequency="0.55100709199905396 0.55100709199905396" numOctaves="3" seed="3422" />
<feDisplacementMap in="shape" scale="0.2846837043762207" xChannelSelector="R" yChannelSelector="G" result="displacedImage" width="100%" height="100%" />
<feMerge result="effect1_texture_188_72472">
<feMergeNode in="displacedImage"/>
</feMerge>
</filter>
<filter id="filter8_g_188_72472" x="24.0725" y="26.2483" width="15.2476" height="6.20656" filterUnits="userSpaceOnUse" color-interpolation-filters="sRGB">
<feFlood flood-opacity="0" result="BackgroundImageFix"/>
<feBlend mode="normal" in="SourceGraphic" in2="BackgroundImageFix" result="shape"/>
<feTurbulence type="fractalNoise" baseFrequency="0.55100709199905396 0.55100709199905396" numOctaves="3" seed="3422" />
<feDisplacementMap in="shape" scale="0.2846837043762207" xChannelSelector="R" yChannelSelector="G" result="displacedImage" width="100%" height="100%" />
<feMerge result="effect1_texture_188_72472">
<feMergeNode in="displacedImage"/>
</feMerge>
</filter>
<filter id="filter9_g_188_72472" x="32.7776" y="28.4397" width="2.91945" height="3.92726" filterUnits="userSpaceOnUse" color-interpolation-filters="sRGB">
<feFlood flood-opacity="0" result="BackgroundImageFix"/>
<feBlend mode="normal" in="SourceGraphic" in2="BackgroundImageFix" result="shape"/>
<feTurbulence type="fractalNoise" baseFrequency="0.55100709199905396 0.55100709199905396" numOctaves="3" seed="3422" />
<feDisplacementMap in="shape" scale="0.2846837043762207" xChannelSelector="R" yChannelSelector="G" result="displacedImage" width="100%" height="100%" />
<feMerge result="effect1_texture_188_72472">
<feMergeNode in="displacedImage"/>
</feMerge>
</filter>
<filter id="filter10_g_188_72472" x="26.9319" y="28.7893" width="3.61867" height="3.66359" filterUnits="userSpaceOnUse" color-interpolation-filters="sRGB">
<feFlood flood-opacity="0" result="BackgroundImageFix"/>
<feBlend mode="normal" in="SourceGraphic" in2="BackgroundImageFix" result="shape"/>
<feTurbulence type="fractalNoise" baseFrequency="0.55100709199905396 0.55100709199905396" numOctaves="3" seed="3422" />
<feDisplacementMap in="shape" scale="0.2846837043762207" xChannelSelector="R" yChannelSelector="G" result="displacedImage" width="100%" height="100%" />
<feMerge result="effect1_texture_188_72472">
<feMergeNode in="displacedImage"/>
</feMerge>
</filter>
<filter id="filter11_g_188_72472" x="30.9358" y="28.5276" width="1.64796" height="3.92726" filterUnits="userSpaceOnUse" color-interpolation-filters="sRGB">
<feFlood flood-opacity="0" result="BackgroundImageFix"/>
<feBlend mode="normal" in="SourceGraphic" in2="BackgroundImageFix" result="shape"/>
<feTurbulence type="fractalNoise" baseFrequency="0.55100709199905396 0.55100709199905396" numOctaves="3" seed="3422" />
<feDisplacementMap in="shape" scale="0.2846837043762207" xChannelSelector="R" yChannelSelector="G" result="displacedImage" width="100%" height="100%" />
<feMerge result="effect1_texture_188_72472">
<feMergeNode in="displacedImage"/>
</feMerge>
</filter>
<filter id="filter12_g_188_72472" x="46.4845" y="0.759866" width="93.6873" height="27.1189" filterUnits="userSpaceOnUse" color-interpolation-filters="sRGB">
<feFlood flood-opacity="0" result="BackgroundImageFix"/>
<feBlend mode="normal" in="SourceGraphic" in2="BackgroundImageFix" result="shape"/>
<feTurbulence type="fractalNoise" baseFrequency="0.45659410953521729 0.45659410953521729" numOctaves="3" seed="3422" />
<feDisplacementMap in="shape" scale="0.34354966878890991" xChannelSelector="R" yChannelSelector="G" result="displacedImage" width="100%" height="100%" />
<feMerge result="effect1_texture_188_72472">
<feMergeNode in="displacedImage"/>
</feMerge>
</filter>
</defs>
</svg>
