<svg width="267" height="177" viewBox="0 0 267 177" fill="none" xmlns="http://www.w3.org/2000/svg">
<path d="M157.588 61.9122C168.882 72.0228 170.1 51.4908 182.634 47.7684C192.556 44.8218 193.242 26.847 191.966 20.4564C189.961 14.1765 193.198 11.3151 165.249 11.8193C137.299 12.3236 146.351 51.8525 157.588 61.9122Z" fill="#B8B997"/>
<g filter="url(#filter0_g_206_109170)">
<path d="M215.645 79.508C206.644 88.4443 194.108 73.1781 193.304 68.71C190.732 74.6675 180.928 85.0932 171.445 79.508" stroke="#252525" stroke-width="4.19955" stroke-linecap="round" stroke-linejoin="round"/>
</g>
<g filter="url(#filter1_g_206_109170)">
<path d="M179.547 53.6511C176.762 55.3063 187.962 62.814 193.474 63.4052C199.277 62.5185 208.214 55.0699 207.982 53.6511C207.692 51.8776 183.029 51.582 179.547 53.6511Z" fill="#252525"/>
<path d="M179.547 53.6511C176.762 55.3063 187.962 62.814 193.474 63.4052C199.277 62.5185 208.214 55.0699 207.982 53.6511C207.692 51.8776 183.029 51.582 179.547 53.6511Z" stroke="#252525" stroke-width="4.19955"/>
</g>
<g filter="url(#filter2_g_206_109170)">
<ellipse cx="174.988" cy="40.7172" rx="5.30393" ry="6.18792" fill="#252525"/>
<path d="M174.987 36.6289C176.465 36.6289 178.191 38.1439 178.191 40.7168C178.191 43.2899 176.465 44.8057 174.987 44.8057C173.51 44.8055 171.783 43.2898 171.783 40.7168C171.783 38.144 173.51 36.6291 174.987 36.6289Z" stroke="#252525" stroke-width="4.19955"/>
</g>
<g filter="url(#filter3_g_206_109170)">
<ellipse cx="211.523" cy="41.0104" rx="4.7146" ry="5.89326" fill="#252525"/>
<path d="M211.523 37.2168C212.555 37.217 214.138 38.4544 214.138 41.0107C214.138 43.5669 212.555 44.8035 211.523 44.8037C210.492 44.8037 208.908 43.5671 208.908 41.0107C208.908 38.4542 210.492 37.2168 211.523 37.2168Z" stroke="#252525" stroke-width="4.19955"/>
</g>
<path d="M159.153 47.4699C157.144 36.9333 168.731 34.0694 177.065 16.4688C180.021 11.6036 173.839 4.65001 150.716 3.63038C127.593 2.61075 137.44 52.8812 143.245 57.484C149.049 62.0869 161.163 58.0065 159.153 47.4699Z" stroke="#252525" stroke-width="4.19955" stroke-linecap="round"/>
<g filter="url(#filter4_g_206_109170)">
<path d="M181.431 98.3695C174.681 87.1044 156.518 71.3333 137.863 98.3695H181.431Z" stroke="#252525" stroke-width="4.19955" stroke-linejoin="round"/>
</g>
<g filter="url(#filter5_g_206_109170)">
<path d="M169.83 98.0822L165.758 90.6182" stroke="#252525" stroke-width="4.19955" stroke-linecap="round"/>
</g>
<g filter="url(#filter6_g_206_109170)">
<path d="M147.031 98.3714L153.342 91.7686" stroke="#252525" stroke-width="4.19955" stroke-linecap="round"/>
</g>
<g filter="url(#filter7_g_206_109170)">
<path d="M159.855 98.3703V90.9062" stroke="#252525" stroke-width="4.19955" stroke-linecap="round"/>
</g>
<g filter="url(#filter8_g_206_109170)">
<path d="M249.834 97.4634C243.352 86.8821 225.908 72.0682 207.992 97.4634H249.834Z" stroke="#252525" stroke-width="4.19955" stroke-linejoin="round"/>
</g>
<g filter="url(#filter9_g_206_109170)">
<path d="M238.684 97.1956L234.773 90.1846" stroke="#252525" stroke-width="4.19955" stroke-linecap="round"/>
</g>
<g filter="url(#filter10_g_206_109170)">
<path d="M216.785 97.4647L222.846 91.2627" stroke="#252525" stroke-width="4.19955" stroke-linecap="round"/>
</g>
<g filter="url(#filter11_g_206_109170)">
<path d="M229.105 97.4641V90.4531" stroke="#252525" stroke-width="4.19955" stroke-linecap="round"/>
</g>
<path d="M227.288 47.7737C228.432 37.1085 216.65 35.1985 206.91 18.3358C203.567 13.7276 209.162 6.29332 232.124 3.39239C255.087 0.49146 249.37 51.3972 243.96 56.4579C238.551 61.5185 226.145 58.439 227.288 47.7737Z" stroke="#252525" stroke-width="4.19955" stroke-linecap="round"/>
<path d="M10.2966 173.977C9.09449 173.977 8.00246 173.723 7.02048 173.215C6.05543 172.707 5.28509 171.97 4.70944 171.005C4.15073 170.04 3.87137 168.881 3.87137 167.526V167.196C3.87137 165.841 4.15073 164.69 4.70944 163.742C5.28509 162.777 6.05543 162.041 7.02048 161.533C8.00246 161.008 9.09449 160.745 10.2966 160.745C11.4986 160.745 12.523 160.965 13.3695 161.406C14.216 161.846 14.8932 162.43 15.4012 163.158C15.926 163.886 16.2646 164.69 16.417 165.571L13.8774 166.104C13.7928 165.545 13.615 165.037 13.3441 164.58C13.0732 164.123 12.6923 163.759 12.2013 163.488C11.7103 163.217 11.0923 163.082 10.3474 163.082C9.61934 163.082 8.95904 163.251 8.36647 163.59C7.79083 163.911 7.3337 164.385 6.99509 165.012C6.65647 165.621 6.48716 166.366 6.48716 167.247V167.475C6.48716 168.356 6.65647 169.109 6.99509 169.736C7.3337 170.362 7.79083 170.836 8.36647 171.158C8.95904 171.479 9.61934 171.64 10.3474 171.64C11.4479 171.64 12.2859 171.361 12.8616 170.802C13.4372 170.226 13.8012 169.498 13.9536 168.618L16.4932 169.202C16.29 170.066 15.926 170.861 15.4012 171.589C14.8932 172.317 14.216 172.902 13.3695 173.342C12.523 173.765 11.4986 173.977 10.2966 173.977ZM23.3958 173.977C22.4984 173.977 21.6942 173.824 20.9831 173.52C20.289 173.215 19.7303 172.766 19.307 172.174C18.9007 171.581 18.6975 170.861 18.6975 170.015C18.6975 169.151 18.9007 168.44 19.307 167.882C19.7303 167.306 20.2974 166.874 21.0085 166.586C21.7365 166.299 22.5577 166.155 23.4719 166.155H27.2813V165.342C27.2813 164.614 27.0612 164.03 26.6211 163.59C26.1809 163.149 25.5036 162.929 24.5894 162.929C23.692 162.929 23.0063 163.141 22.5323 163.564C22.0582 163.988 21.745 164.538 21.5926 165.215L19.1546 164.428C19.3578 163.751 19.6795 163.141 20.1197 162.599C20.5768 162.041 21.1778 161.592 21.9228 161.253C22.6677 160.915 23.5651 160.745 24.6148 160.745C26.2401 160.745 27.5184 161.16 28.4496 161.99C29.3808 162.819 29.8463 163.996 29.8463 165.52V170.675C29.8463 171.183 30.0834 171.437 30.5574 171.437H31.6241V173.621H29.6686C29.076 173.621 28.5935 173.469 28.221 173.164C27.8485 172.859 27.6623 172.444 27.6623 171.92V171.843H27.2813C27.1459 172.097 26.9427 172.394 26.6718 172.732C26.401 173.071 26.0031 173.367 25.4782 173.621C24.9534 173.858 24.2592 173.977 23.3958 173.977ZM23.7767 171.818C24.8264 171.818 25.6729 171.522 26.3163 170.929C26.9597 170.32 27.2813 169.49 27.2813 168.44V168.186H23.6243C22.9302 168.186 22.3714 168.339 21.9482 168.643C21.5249 168.931 21.3133 169.363 21.3133 169.939C21.3133 170.514 21.5334 170.971 21.9736 171.31C22.4138 171.649 23.0148 171.818 23.7767 171.818ZM34.1674 173.621V161.101H36.7324V162.98H37.1388C37.3758 162.472 37.7991 161.998 38.4086 161.558C39.0181 161.118 39.9239 160.898 41.1259 160.898C42.0741 160.898 42.9121 161.109 43.6402 161.533C44.3851 161.956 44.9692 162.557 45.3925 163.336C45.8157 164.098 46.0274 165.02 46.0274 166.104V173.621H43.4116V166.307C43.4116 165.223 43.1407 164.428 42.5989 163.92C42.0571 163.395 41.3122 163.133 40.3641 163.133C39.2805 163.133 38.4086 163.488 37.7483 164.199C37.1049 164.91 36.7832 165.943 36.7832 167.297V173.621H34.1674ZM49.7919 173.621V161.101H52.4077V173.621H49.7919ZM51.1125 159.399C50.6046 159.399 50.1729 159.238 49.8173 158.917C49.4787 158.578 49.3094 158.146 49.3094 157.622C49.3094 157.097 49.4787 156.673 49.8173 156.352C50.1729 156.013 50.6046 155.844 51.1125 155.844C51.6374 155.844 52.0691 156.013 52.4077 156.352C52.7463 156.673 52.9157 157.097 52.9157 157.622C52.9157 158.146 52.7463 158.578 52.4077 158.917C52.0691 159.238 51.6374 159.399 51.1125 159.399ZM56.2898 173.621V161.101H58.8548V162.98H59.2611C59.4981 162.472 59.9214 161.998 60.5309 161.558C61.1404 161.118 62.0462 160.898 63.2483 160.898C64.1964 160.898 65.0345 161.109 65.7625 161.533C66.5074 161.956 67.0915 162.557 67.5148 163.336C67.9381 164.098 68.1497 165.02 68.1497 166.104V173.621H65.5339V166.307C65.5339 165.223 65.263 164.428 64.7212 163.92C64.1795 163.395 63.4345 163.133 62.4864 163.133C61.4028 163.133 60.5309 163.488 59.8706 164.199C59.2272 164.91 58.9055 165.943 58.9055 167.297V173.621H56.2898ZM83.5173 173.977C81.9258 173.977 80.6052 173.621 79.5555 172.91C78.5058 172.199 77.8624 171.124 77.6254 169.685L80.0634 169.101C80.1988 169.795 80.4274 170.345 80.7491 170.751C81.0708 171.158 81.4687 171.446 81.9427 171.615C82.4337 171.784 82.9586 171.869 83.5173 171.869C84.3469 171.869 84.9818 171.708 85.422 171.386C85.8791 171.065 86.1077 170.65 86.1077 170.142C86.1077 169.634 85.896 169.261 85.4728 169.024C85.0495 168.787 84.4231 168.593 83.5935 168.44L82.73 168.288C81.8835 168.136 81.1131 167.915 80.4189 167.628C79.7248 167.34 79.1745 166.942 78.7682 166.434C78.3619 165.926 78.1587 165.274 78.1587 164.479C78.1587 163.293 78.5989 162.379 79.4793 161.736C80.3597 161.075 81.5279 160.745 82.9839 160.745C84.3892 160.745 85.5405 161.067 86.4378 161.71C87.3521 162.337 87.9446 163.192 88.2155 164.275L85.7775 164.961C85.6251 164.199 85.3034 163.666 84.8125 163.361C84.3215 163.039 83.712 162.879 82.9839 162.879C82.2729 162.879 81.7141 163.014 81.3078 163.285C80.9015 163.539 80.6983 163.903 80.6983 164.377C80.6983 164.885 80.893 165.257 81.2824 165.494C81.6887 165.731 82.2305 165.909 82.9078 166.028L83.7966 166.18C84.6939 166.332 85.5151 166.544 86.26 166.815C87.005 167.086 87.5891 167.475 88.0124 167.983C88.4526 168.491 88.6727 169.168 88.6727 170.015C88.6727 171.268 88.2071 172.241 87.2759 172.935C86.3447 173.63 85.0918 173.977 83.5173 173.977ZM97.5966 173.977C96.3437 173.977 95.2263 173.723 94.2443 173.215C93.2793 172.69 92.5174 171.945 91.9587 170.98C91.4 170.015 91.1206 168.872 91.1206 167.551V167.171C91.1206 165.85 91.4 164.716 91.9587 163.767C92.5174 162.802 93.2793 162.057 94.2443 161.533C95.2263 161.008 96.3437 160.745 97.5966 160.745C98.8495 160.745 99.9669 161.008 100.949 161.533C101.931 162.057 102.701 162.802 103.26 163.767C103.819 164.716 104.098 165.85 104.098 167.171V167.551C104.098 168.872 103.819 170.015 103.26 170.98C102.701 171.945 101.931 172.69 100.949 173.215C99.9669 173.723 98.8495 173.977 97.5966 173.977ZM97.5966 171.64C98.7479 171.64 99.6791 171.276 100.39 170.548C101.118 169.803 101.482 168.779 101.482 167.475V167.247C101.482 165.943 101.127 164.927 100.416 164.199C99.7045 163.454 98.7648 163.082 97.5966 163.082C96.4622 163.082 95.531 163.454 94.803 164.199C94.0919 164.927 93.7364 165.943 93.7364 167.247V167.475C93.7364 168.779 94.0919 169.803 94.803 170.548C95.531 171.276 96.4622 171.64 97.5966 171.64ZM107.355 173.621V155.844H109.97V173.621H107.355ZM113.852 173.621V161.101H116.468V173.621H113.852ZM115.173 159.399C114.665 159.399 114.233 159.238 113.878 158.917C113.539 158.578 113.37 158.146 113.37 157.622C113.37 157.097 113.539 156.673 113.878 156.352C114.233 156.013 114.665 155.844 115.173 155.844C115.698 155.844 116.13 156.013 116.468 156.352C116.807 156.673 116.976 157.097 116.976 157.622C116.976 158.146 116.807 158.578 116.468 158.917C116.13 159.238 115.698 159.399 115.173 159.399ZM125.531 173.977C124.498 173.977 123.542 173.723 122.661 173.215C121.781 172.707 121.07 171.979 120.528 171.031C120.003 170.066 119.741 168.906 119.741 167.551V167.171C119.741 165.833 120.003 164.682 120.528 163.717C121.053 162.752 121.755 162.015 122.636 161.507C123.516 160.999 124.481 160.745 125.531 160.745C126.344 160.745 127.021 160.847 127.563 161.05C128.121 161.253 128.579 161.516 128.934 161.837C129.29 162.142 129.561 162.464 129.747 162.802H130.153V155.844H132.769V173.621H130.204V171.843H129.798C129.476 172.385 128.985 172.876 128.325 173.316C127.681 173.757 126.75 173.977 125.531 173.977ZM126.267 171.691C127.402 171.691 128.333 171.327 129.061 170.599C129.806 169.871 130.178 168.83 130.178 167.475V167.247C130.178 165.909 129.814 164.876 129.086 164.148C128.358 163.42 127.419 163.056 126.267 163.056C125.15 163.056 124.219 163.42 123.474 164.148C122.746 164.876 122.382 165.909 122.382 167.247V167.475C122.382 168.83 122.746 169.871 123.474 170.599C124.219 171.327 125.15 171.691 126.267 171.691ZM140.505 173.977C139.608 173.977 138.804 173.824 138.093 173.52C137.398 173.215 136.84 172.766 136.416 172.174C136.01 171.581 135.807 170.861 135.807 170.015C135.807 169.151 136.01 168.44 136.416 167.882C136.84 167.306 137.407 166.874 138.118 166.586C138.846 166.299 139.667 166.155 140.581 166.155H144.391V165.342C144.391 164.614 144.171 164.03 143.73 163.59C143.29 163.149 142.613 162.929 141.699 162.929C140.801 162.929 140.116 163.141 139.642 163.564C139.168 163.988 138.854 164.538 138.702 165.215L136.264 164.428C136.467 163.751 136.789 163.141 137.229 162.599C137.686 162.041 138.287 161.592 139.032 161.253C139.777 160.915 140.674 160.745 141.724 160.745C143.349 160.745 144.628 161.16 145.559 161.99C146.49 162.819 146.956 163.996 146.956 165.52V170.675C146.956 171.183 147.193 171.437 147.667 171.437H148.733V173.621H146.778C146.185 173.621 145.703 173.469 145.33 173.164C144.958 172.859 144.772 172.444 144.772 171.92V171.843H144.391C144.255 172.097 144.052 172.394 143.781 172.732C143.51 173.071 143.112 173.367 142.588 173.621C142.063 173.858 141.369 173.977 140.505 173.977ZM140.886 171.818C141.936 171.818 142.782 171.522 143.426 170.929C144.069 170.32 144.391 169.49 144.391 168.44V168.186H140.734C140.04 168.186 139.481 168.339 139.058 168.643C138.634 168.931 138.423 169.363 138.423 169.939C138.423 170.514 138.643 170.971 139.083 171.31C139.523 171.649 140.124 171.818 140.886 171.818ZM151.277 173.621V161.101H153.893V173.621H151.277ZM152.597 159.399C152.089 159.399 151.658 159.238 151.302 158.917C150.964 158.578 150.794 158.146 150.794 157.622C150.794 157.097 150.964 156.673 151.302 156.352C151.658 156.013 152.089 155.844 152.597 155.844C153.122 155.844 153.554 156.013 153.893 156.352C154.231 156.673 154.401 157.097 154.401 157.622C154.401 158.146 154.231 158.578 153.893 158.917C153.554 159.238 153.122 159.399 152.597 159.399ZM157.775 173.621V161.101H160.34V162.574H160.746C160.949 162.049 161.271 161.668 161.711 161.431C162.168 161.177 162.727 161.05 163.387 161.05H164.886V163.412H163.286C162.439 163.412 161.745 163.649 161.203 164.123C160.661 164.58 160.39 165.291 160.39 166.256V173.621H157.775ZM172.889 173.977C171.619 173.977 170.51 173.714 169.562 173.189C168.614 172.648 167.869 171.894 167.327 170.929C166.802 169.947 166.54 168.813 166.54 167.526V167.221C166.54 165.918 166.802 164.783 167.327 163.818C167.852 162.836 168.58 162.083 169.511 161.558C170.459 161.016 171.551 160.745 172.787 160.745C173.989 160.745 175.039 161.016 175.936 161.558C176.851 162.083 177.562 162.819 178.07 163.767C178.578 164.716 178.832 165.825 178.832 167.094V168.085H169.206C169.24 169.185 169.604 170.066 170.298 170.726C171.01 171.369 171.89 171.691 172.94 171.691C173.922 171.691 174.658 171.471 175.149 171.031C175.657 170.591 176.046 170.083 176.317 169.507L178.476 170.624C178.239 171.098 177.892 171.598 177.435 172.123C176.995 172.648 176.41 173.088 175.682 173.443C174.954 173.799 174.023 173.977 172.889 173.977ZM169.232 166.078H176.165C176.097 165.13 175.759 164.394 175.149 163.869C174.54 163.327 173.744 163.056 172.762 163.056C171.78 163.056 170.976 163.327 170.349 163.869C169.74 164.394 169.367 165.13 169.232 166.078Z" fill="#252525"/>
<g filter="url(#filter12_g_206_109170)">
<path d="M35.3423 147.773C34.7866 147.773 34.3976 147.523 34.1753 147.023L24.3395 124.851C24.2284 124.629 24.0617 124.518 23.8394 124.518H18.338C18.0601 124.518 17.9212 124.656 17.9212 124.934V146.773C17.9212 147.051 17.8101 147.301 17.5878 147.523C17.4211 147.69 17.1988 147.773 16.921 147.773H5.08462C4.80678 147.773 4.55671 147.69 4.33443 147.523C4.16772 147.301 4.08437 147.051 4.08437 146.773V90.4256C4.08437 90.1477 4.16772 89.9254 4.33443 89.7587C4.55671 89.5364 4.80678 89.4253 5.08462 89.4253H29.8409C33.5085 89.4253 36.7315 90.1755 39.51 91.6759C42.2885 93.1763 44.4279 95.3157 45.9283 98.0942C47.4843 100.817 48.2622 103.957 48.2622 107.513C48.2622 111.236 47.3453 114.459 45.5115 117.182C43.6777 119.905 41.1215 121.878 37.8429 123.101C37.5651 123.212 37.4817 123.406 37.5929 123.684L48.5957 146.606C48.7068 146.829 48.7624 146.995 48.7624 147.107C48.7624 147.551 48.4567 147.773 47.8455 147.773H35.3423ZM18.338 101.262C18.0601 101.262 17.9212 101.401 17.9212 101.678V113.515C17.9212 113.793 18.0601 113.932 18.338 113.932H27.5903C29.6464 113.932 31.3135 113.376 32.5916 112.264C33.8697 111.097 34.5088 109.569 34.5088 107.68C34.5088 105.735 33.8697 104.179 32.5916 103.012C31.3135 101.845 29.6464 101.262 27.5903 101.262H18.338ZM93.8962 122.434C94.1741 124.101 94.2574 126.296 94.1463 129.019C94.0907 129.686 93.7295 130.019 93.0627 130.019H67.6396C67.5284 130.019 67.4173 130.075 67.3061 130.186C67.195 130.241 67.1672 130.325 67.2228 130.436C67.3339 131.047 67.6118 131.853 68.0563 132.853C68.7232 134.02 69.7234 134.965 71.0571 135.687C72.3908 136.409 74.0301 136.771 75.975 136.771C79.4759 136.771 82.2266 135.631 84.2271 133.353C84.4494 133.075 84.6994 132.936 84.9773 132.936C85.2551 132.936 85.4774 133.047 85.6441 133.27L92.0624 140.605C92.2847 140.772 92.3958 140.994 92.3958 141.272C92.3958 141.494 92.2847 141.716 92.0624 141.939C90.1175 144.05 87.7002 145.662 84.8106 146.773C81.9765 147.885 78.8646 148.44 75.4749 148.44C70.418 148.44 66.1114 147.357 62.5549 145.189C59.054 142.967 56.5256 139.883 54.9697 135.937C53.8027 133.159 53.2192 129.686 53.2192 125.518C53.2192 122.628 53.6638 119.85 54.5529 117.182C55.9977 113.07 58.3594 109.847 61.638 107.513C64.9722 105.124 68.9177 103.929 73.4744 103.929C77.142 103.929 80.4206 104.735 83.3102 106.346C86.1998 107.902 88.5337 110.097 90.312 112.931C92.1458 115.71 93.3405 118.877 93.8962 122.434ZM73.4744 115.849C70.5847 115.849 68.6676 117.21 67.7229 119.933C67.5006 120.544 67.3617 121.128 67.3061 121.683C67.195 121.961 67.3061 122.1 67.6396 122.1H79.4759C79.6982 122.1 79.8093 121.989 79.8093 121.767C79.8093 121.322 79.6982 120.767 79.4759 120.1C79.0869 118.711 78.3645 117.655 77.3087 116.932C76.3084 116.21 75.0303 115.849 73.4744 115.849ZM125.33 104.596C125.608 104.596 125.83 104.707 125.997 104.929C126.219 105.096 126.33 105.318 126.33 105.596V114.932C126.33 115.21 126.219 115.46 125.997 115.682C125.83 115.849 125.608 115.932 125.33 115.932H117.495C117.217 115.932 117.078 116.071 117.078 116.349V146.773C117.078 147.051 116.967 147.301 116.744 147.523C116.578 147.69 116.355 147.773 116.078 147.773H104.241C103.963 147.773 103.713 147.69 103.491 147.523C103.324 147.301 103.241 147.051 103.241 146.773V116.349C103.241 116.071 103.102 115.932 102.824 115.932H98.1564C97.8786 115.932 97.6285 115.849 97.4062 115.682C97.2395 115.46 97.1562 115.21 97.1562 114.932V105.596C97.1562 105.318 97.2395 105.096 97.4062 104.929C97.6285 104.707 97.8786 104.596 98.1564 104.596H102.824C103.102 104.596 103.241 104.457 103.241 104.179V101.928C103.241 98.6499 103.825 96.0937 104.991 94.2599C106.158 92.3705 108.02 91.0646 110.576 90.3422C113.132 89.5642 116.606 89.2586 120.996 89.4253H124.413C124.691 89.4253 124.913 89.5364 125.08 89.7587C125.302 89.9254 125.413 90.1477 125.413 90.4256V98.0108C125.413 98.2887 125.302 98.5387 125.08 98.761C124.913 98.9277 124.691 99.0111 124.413 99.0111H121.162C119.662 99.1222 118.606 99.4834 117.995 100.095C117.384 100.706 117.078 101.734 117.078 103.179V104.179C117.078 104.457 117.217 104.596 117.495 104.596H125.33ZM156.874 105.679C156.874 105.402 156.958 105.179 157.124 105.013C157.347 104.79 157.597 104.679 157.875 104.679H169.711C169.989 104.679 170.211 104.79 170.378 105.013C170.6 105.179 170.711 105.402 170.711 105.679V146.773C170.711 147.051 170.6 147.301 170.378 147.523C170.211 147.69 169.989 147.773 169.711 147.773H157.875C157.597 147.773 157.347 147.69 157.124 147.523C156.958 147.301 156.874 147.051 156.874 146.773V143.856C156.874 143.689 156.819 143.578 156.708 143.522C156.597 143.467 156.485 143.522 156.374 143.689C154.152 146.857 150.651 148.44 145.872 148.44C141.648 148.44 138.231 147.107 135.619 144.439C133.007 141.772 131.701 138.049 131.701 133.27V105.679C131.701 105.402 131.785 105.179 131.951 105.013C132.174 104.79 132.424 104.679 132.702 104.679H144.538C144.816 104.679 145.038 104.79 145.205 105.013C145.427 105.179 145.538 105.402 145.538 105.679V130.102C145.538 132.047 146.038 133.603 147.039 134.77C148.039 135.937 149.4 136.521 151.123 136.521C152.679 136.521 153.957 136.048 154.957 135.104C156.013 134.159 156.652 132.909 156.874 131.353V105.679ZM203.872 105.679C203.872 105.402 203.955 105.179 204.122 105.013C204.344 104.79 204.594 104.679 204.872 104.679H216.709C216.986 104.679 217.209 104.79 217.375 105.013C217.598 105.179 217.709 105.402 217.709 105.679V142.939C217.709 150.552 215.514 155.998 211.124 159.276C206.734 162.555 201.177 164.194 194.453 164.194C191.952 164.194 189.313 163.972 186.534 163.527C185.979 163.472 185.701 163.111 185.701 162.444L186.118 152.108C186.118 151.719 186.229 151.441 186.451 151.274C186.673 151.163 186.951 151.163 187.284 151.274C189.563 151.774 191.674 152.025 193.619 152.025C196.787 152.025 199.288 151.302 201.121 149.857C202.955 148.412 203.872 146.134 203.872 143.022L203.289 143.606C201.288 145.606 198.398 146.606 194.62 146.606C190.952 146.606 187.59 145.801 184.534 144.189C181.477 142.578 179.282 139.744 177.949 135.687C177.06 133.02 176.615 129.741 176.615 125.851C176.615 121.572 177.143 118.071 178.199 115.349C179.477 111.903 181.505 109.153 184.284 107.096C187.118 105.04 190.396 104.012 194.12 104.012C198.121 104.012 201.205 105.235 203.372 107.68C203.483 107.791 203.594 107.847 203.705 107.847C203.816 107.791 203.872 107.68 203.872 107.513V105.679ZM203.122 132.019C203.622 130.741 203.872 128.657 203.872 125.768C203.872 124.267 203.816 123.101 203.705 122.267C203.594 121.378 203.372 120.544 203.038 119.766C202.594 118.544 201.872 117.599 200.871 116.932C199.927 116.21 198.76 115.849 197.37 115.849C194.759 115.849 192.897 117.155 191.786 119.766C190.952 121.322 190.535 123.378 190.535 125.935C190.535 128.657 190.897 130.658 191.619 131.936C192.119 133.103 192.869 134.048 193.869 134.77C194.87 135.493 196.064 135.854 197.454 135.854C200.288 135.854 202.177 134.576 203.122 132.019ZM264.594 122.434C264.872 124.101 264.955 126.296 264.844 129.019C264.788 129.686 264.427 130.019 263.76 130.019H238.337C238.226 130.019 238.115 130.075 238.004 130.186C237.893 130.241 237.865 130.325 237.92 130.436C238.032 131.047 238.309 131.853 238.754 132.853C239.421 134.02 240.421 134.965 241.755 135.687C243.088 136.409 244.728 136.771 246.673 136.771C250.173 136.771 252.924 135.631 254.925 133.353C255.147 133.075 255.397 132.936 255.675 132.936C255.953 132.936 256.175 133.047 256.342 133.27L262.76 140.605C262.982 140.772 263.093 140.994 263.093 141.272C263.093 141.494 262.982 141.716 262.76 141.939C260.815 144.05 258.398 145.662 255.508 146.773C252.674 147.885 249.562 148.44 246.172 148.44C241.116 148.44 236.809 147.357 233.253 145.189C229.752 142.967 227.223 139.883 225.667 135.937C224.5 133.159 223.917 129.686 223.917 125.518C223.917 122.628 224.361 119.85 225.25 117.182C226.695 113.07 229.057 109.847 232.336 107.513C235.67 105.124 239.615 103.929 244.172 103.929C247.84 103.929 251.118 104.735 254.008 106.346C256.897 107.902 259.231 110.097 261.01 112.931C262.843 115.71 264.038 118.877 264.594 122.434ZM244.172 115.849C241.282 115.849 239.365 117.21 238.421 119.933C238.198 120.544 238.059 121.128 238.004 121.683C237.893 121.961 238.004 122.1 238.337 122.1H250.173C250.396 122.1 250.507 121.989 250.507 121.767C250.507 121.322 250.396 120.767 250.173 120.1C249.784 118.711 249.062 117.655 248.006 116.932C247.006 116.21 245.728 115.849 244.172 115.849Z" fill="#252525"/>
</g>
<defs>
<filter id="filter0_g_206_109170" x="168.906" y="66.1724" width="49.2783" height="18.6298" filterUnits="userSpaceOnUse" color-interpolation-filters="sRGB">
<feFlood flood-opacity="0" result="BackgroundImageFix"/>
<feBlend mode="normal" in="SourceGraphic" in2="BackgroundImageFix" result="shape"/>
<feTurbulence type="fractalNoise" baseFrequency="0.17908520996570587 0.17908520996570587" numOctaves="3" seed="3422" />
<feDisplacementMap in="shape" scale="0.87591123580932617" xChannelSelector="R" yChannelSelector="G" result="displacedImage" width="100%" height="100%" />
<feMerge result="effect1_texture_206_109170">
<feMergeNode in="displacedImage"/>
</feMerge>
</filter>
<filter id="filter1_g_206_109170" x="176.57" y="49.6704" width="33.954" height="16.29" filterUnits="userSpaceOnUse" color-interpolation-filters="sRGB">
<feFlood flood-opacity="0" result="BackgroundImageFix"/>
<feBlend mode="normal" in="SourceGraphic" in2="BackgroundImageFix" result="shape"/>
<feTurbulence type="fractalNoise" baseFrequency="0.17908520996570587 0.17908520996570587" numOctaves="3" seed="3422" />
<feDisplacementMap in="shape" scale="0.87591123580932617" xChannelSelector="R" yChannelSelector="G" result="displacedImage" width="100%" height="100%" />
<feMerge result="effect1_texture_206_109170">
<feMergeNode in="displacedImage"/>
</feMerge>
</filter>
<filter id="filter2_g_206_109170" x="169.246" y="34.0913" width="11.4853" height="13.2519" filterUnits="userSpaceOnUse" color-interpolation-filters="sRGB">
<feFlood flood-opacity="0" result="BackgroundImageFix"/>
<feBlend mode="normal" in="SourceGraphic" in2="BackgroundImageFix" result="shape"/>
<feTurbulence type="fractalNoise" baseFrequency="0.17908520996570587 0.17908520996570587" numOctaves="3" seed="3422" />
<feDisplacementMap in="shape" scale="0.87591123580932617" xChannelSelector="R" yChannelSelector="G" result="displacedImage" width="100%" height="100%" />
<feMerge result="effect1_texture_206_109170">
<feMergeNode in="displacedImage"/>
</feMerge>
</filter>
<filter id="filter3_g_206_109170" x="206.371" y="34.6792" width="10.3056" height="12.662" filterUnits="userSpaceOnUse" color-interpolation-filters="sRGB">
<feFlood flood-opacity="0" result="BackgroundImageFix"/>
<feBlend mode="normal" in="SourceGraphic" in2="BackgroundImageFix" result="shape"/>
<feTurbulence type="fractalNoise" baseFrequency="0.17908520996570587 0.17908520996570587" numOctaves="3" seed="3422" />
<feDisplacementMap in="shape" scale="0.87591123580932617" xChannelSelector="R" yChannelSelector="G" result="displacedImage" width="100%" height="100%" />
<feMerge result="effect1_texture_206_109170">
<feMergeNode in="displacedImage"/>
</feMerge>
</filter>
<filter id="filter4_g_206_109170" x="135.324" y="80.9038" width="48.6454" height="20.0038" filterUnits="userSpaceOnUse" color-interpolation-filters="sRGB">
<feFlood flood-opacity="0" result="BackgroundImageFix"/>
<feBlend mode="normal" in="SourceGraphic" in2="BackgroundImageFix" result="shape"/>
<feTurbulence type="fractalNoise" baseFrequency="0.17908520996570587 0.17908520996570587" numOctaves="3" seed="3422" />
<feDisplacementMap in="shape" scale="0.87591123580932617" xChannelSelector="R" yChannelSelector="G" result="displacedImage" width="100%" height="100%" />
<feMerge result="effect1_texture_206_109170">
<feMergeNode in="displacedImage"/>
</feMerge>
</filter>
<filter id="filter5_g_206_109170" x="163.218" y="88.0796" width="9.14935" height="12.541" filterUnits="userSpaceOnUse" color-interpolation-filters="sRGB">
<feFlood flood-opacity="0" result="BackgroundImageFix"/>
<feBlend mode="normal" in="SourceGraphic" in2="BackgroundImageFix" result="shape"/>
<feTurbulence type="fractalNoise" baseFrequency="0.17908520996570587 0.17908520996570587" numOctaves="3" seed="3422" />
<feDisplacementMap in="shape" scale="0.87591123580932617" xChannelSelector="R" yChannelSelector="G" result="displacedImage" width="100%" height="100%" />
<feMerge result="effect1_texture_206_109170">
<feMergeNode in="displacedImage"/>
</feMerge>
</filter>
<filter id="filter6_g_206_109170" x="144.492" y="89.231" width="11.3876" height="11.6777" filterUnits="userSpaceOnUse" color-interpolation-filters="sRGB">
<feFlood flood-opacity="0" result="BackgroundImageFix"/>
<feBlend mode="normal" in="SourceGraphic" in2="BackgroundImageFix" result="shape"/>
<feTurbulence type="fractalNoise" baseFrequency="0.17908520996570587 0.17908520996570587" numOctaves="3" seed="3422" />
<feDisplacementMap in="shape" scale="0.87591123580932617" xChannelSelector="R" yChannelSelector="G" result="displacedImage" width="100%" height="100%" />
<feMerge result="effect1_texture_206_109170">
<feMergeNode in="displacedImage"/>
</feMerge>
</filter>
<filter id="filter7_g_206_109170" x="157.316" y="88.3687" width="5.07904" height="12.539" filterUnits="userSpaceOnUse" color-interpolation-filters="sRGB">
<feFlood flood-opacity="0" result="BackgroundImageFix"/>
<feBlend mode="normal" in="SourceGraphic" in2="BackgroundImageFix" result="shape"/>
<feTurbulence type="fractalNoise" baseFrequency="0.17908520996570587 0.17908520996570587" numOctaves="3" seed="3422" />
<feDisplacementMap in="shape" scale="0.87591123580932617" xChannelSelector="R" yChannelSelector="G" result="displacedImage" width="100%" height="100%" />
<feMerge result="effect1_texture_206_109170">
<feMergeNode in="displacedImage"/>
</feMerge>
</filter>
<filter id="filter8_g_206_109170" x="205.453" y="80.9038" width="46.9189" height="19.0976" filterUnits="userSpaceOnUse" color-interpolation-filters="sRGB">
<feFlood flood-opacity="0" result="BackgroundImageFix"/>
<feBlend mode="normal" in="SourceGraphic" in2="BackgroundImageFix" result="shape"/>
<feTurbulence type="fractalNoise" baseFrequency="0.17908520996570587 0.17908520996570587" numOctaves="3" seed="3422" />
<feDisplacementMap in="shape" scale="0.87591123580932617" xChannelSelector="R" yChannelSelector="G" result="displacedImage" width="100%" height="100%" />
<feMerge result="effect1_texture_206_109170">
<feMergeNode in="displacedImage"/>
</feMerge>
</filter>
<filter id="filter9_g_206_109170" x="232.234" y="87.646" width="8.98919" height="12.0878" filterUnits="userSpaceOnUse" color-interpolation-filters="sRGB">
<feFlood flood-opacity="0" result="BackgroundImageFix"/>
<feBlend mode="normal" in="SourceGraphic" in2="BackgroundImageFix" result="shape"/>
<feTurbulence type="fractalNoise" baseFrequency="0.17908520996570587 0.17908520996570587" numOctaves="3" seed="3422" />
<feDisplacementMap in="shape" scale="0.87591123580932617" xChannelSelector="R" yChannelSelector="G" result="displacedImage" width="100%" height="100%" />
<feMerge result="effect1_texture_206_109170">
<feMergeNode in="displacedImage"/>
</feMerge>
</filter>
<filter id="filter10_g_206_109170" x="214.246" y="88.7251" width="11.1376" height="11.2773" filterUnits="userSpaceOnUse" color-interpolation-filters="sRGB">
<feFlood flood-opacity="0" result="BackgroundImageFix"/>
<feBlend mode="normal" in="SourceGraphic" in2="BackgroundImageFix" result="shape"/>
<feTurbulence type="fractalNoise" baseFrequency="0.17908520996570587 0.17908520996570587" numOctaves="3" seed="3422" />
<feDisplacementMap in="shape" scale="0.87591123580932617" xChannelSelector="R" yChannelSelector="G" result="displacedImage" width="100%" height="100%" />
<feMerge result="effect1_texture_206_109170">
<feMergeNode in="displacedImage"/>
</feMerge>
</filter>
<filter id="filter11_g_206_109170" x="226.566" y="87.9156" width="5.07904" height="12.0859" filterUnits="userSpaceOnUse" color-interpolation-filters="sRGB">
<feFlood flood-opacity="0" result="BackgroundImageFix"/>
<feBlend mode="normal" in="SourceGraphic" in2="BackgroundImageFix" result="shape"/>
<feTurbulence type="fractalNoise" baseFrequency="0.17908520996570587 0.17908520996570587" numOctaves="3" seed="3422" />
<feDisplacementMap in="shape" scale="0.87591123580932617" xChannelSelector="R" yChannelSelector="G" result="displacedImage" width="100%" height="100%" />
<feMerge result="effect1_texture_206_109170">
<feMergeNode in="displacedImage"/>
</feMerge>
</filter>
<filter id="filter12_g_206_109170" x="3.60599" y="88.6949" width="261.886" height="75.9794" filterUnits="userSpaceOnUse" color-interpolation-filters="sRGB">
<feFlood flood-opacity="0" result="BackgroundImageFix"/>
<feBlend mode="normal" in="SourceGraphic" in2="BackgroundImageFix" result="shape"/>
<feTurbulence type="fractalNoise" baseFrequency="0.16341623663902283 0.16341623663902283" numOctaves="3" seed="3422" />
<feDisplacementMap in="shape" scale="0.95989698171615601" xChannelSelector="R" yChannelSelector="G" result="displacedImage" width="100%" height="100%" />
<feMerge result="effect1_texture_206_109170">
<feMergeNode in="displacedImage"/>
</feMerge>
</filter>
</defs>
</svg>
