<svg width="144" height="36" viewBox="0 0 144 36" fill="none" xmlns="http://www.w3.org/2000/svg">
<path d="M51.206 34.5787C50.8757 34.5787 50.5715 34.5207 50.2934 34.4049C50.021 34.2832 49.7806 34.1181 49.572 33.9095C49.3692 33.6952 49.2127 33.4518 49.1026 33.1795C48.9925 32.9015 48.9375 32.6089 48.9375 32.3018C48.9375 31.9948 48.9925 31.7051 49.1026 31.4328C49.2127 31.1547 49.3692 30.9114 49.572 30.7028C49.7806 30.4885 50.021 30.3205 50.2934 30.1988C50.5715 30.0772 50.8757 30.0163 51.206 30.0163C51.5247 30.0163 51.7999 30.0685 52.0317 30.1727C52.2635 30.2712 52.4228 30.361 52.5097 30.4421V31.1634C52.3475 31.0418 52.1621 30.9375 51.9535 30.8506C51.7449 30.7579 51.4957 30.7115 51.206 30.7115C50.8989 30.7115 50.6294 30.7868 50.3977 30.9375C50.1659 31.0823 49.9863 31.2764 49.8588 31.5197C49.7371 31.7573 49.6763 32.018 49.6763 32.3018C49.6763 32.5799 49.7371 32.8406 49.8588 33.084C49.9863 33.3215 50.1659 33.5156 50.3977 33.6662C50.6294 33.811 50.8989 33.8834 51.206 33.8834C51.4957 33.8834 51.7449 33.84 51.9535 33.7531C52.1621 33.6604 52.3475 33.5532 52.5097 33.4316V34.1528C52.4228 34.2397 52.2635 34.3324 52.0317 34.4309C51.7999 34.5294 51.5247 34.5787 51.206 34.5787Z" fill="#252525"/>
<path d="M55.404 34.5787C55.0332 34.5787 54.6942 34.486 54.3871 34.3006C54.08 34.1094 53.8337 33.8458 53.6483 33.5098C53.4687 33.1737 53.3789 32.7856 53.3789 32.3453C53.3789 31.8644 53.4687 31.4502 53.6483 31.1026C53.8337 30.755 54.0858 30.4885 54.4045 30.3031C54.7232 30.1119 55.0795 30.0163 55.4735 30.0163C55.7227 30.0163 55.9747 30.0772 56.2297 30.1988C56.4904 30.3147 56.7135 30.4769 56.8989 30.6855V30.1032H57.6116V34.4483H56.8989V33.7096C56.7483 33.9414 56.5426 34.1442 56.2818 34.318C56.0269 34.4918 55.7343 34.5787 55.404 34.5787ZM55.517 33.8834C55.7835 33.8834 56.0211 33.8139 56.2297 33.6749C56.4383 33.5358 56.6034 33.3447 56.7251 33.1013C56.8468 32.8522 56.9047 32.5741 56.8989 32.2671L56.8902 31.4328C56.7106 31.2069 56.5165 31.0302 56.3079 30.9027C56.1051 30.7753 55.8704 30.7115 55.6039 30.7115C55.291 30.7115 55.0245 30.7897 54.8043 30.9462C54.5841 31.1026 54.4132 31.3054 54.2915 31.5545C54.1756 31.7978 54.1176 32.0614 54.1176 32.3453C54.1176 32.6234 54.1756 32.8812 54.2915 33.1187C54.4074 33.3505 54.5696 33.5358 54.7782 33.6749C54.9926 33.8139 55.2389 33.8834 55.517 33.8834Z" fill="#252525"/>
<path d="M62.1138 34.4483L62.1052 31.8673C62.1052 31.4908 62.0211 31.204 61.8531 31.007C61.6909 30.81 61.4388 30.7115 61.0969 30.7115C60.8652 30.7115 60.6334 30.7984 60.4016 30.9722C60.1756 31.1402 59.9757 31.3372 59.8019 31.5632V30.7897C59.8946 30.6739 60.0134 30.558 60.1583 30.4421C60.3031 30.3205 60.4654 30.2191 60.645 30.138C60.8304 30.0569 61.0216 30.0163 61.2186 30.0163C61.5141 30.0163 61.7836 30.0829 62.0269 30.2162C62.2703 30.3436 62.4644 30.5406 62.6093 30.8071C62.7541 31.0678 62.8266 31.3981 62.8266 31.7978V34.4483H62.1138ZM59.0892 34.4483V30.1032H59.8019V34.4483H59.0892Z" fill="#252525"/>
<path d="M64.8691 29.1994C64.701 29.1994 64.5591 29.1386 64.4432 29.0169C64.3331 28.8953 64.278 28.7591 64.278 28.6085C64.278 28.4521 64.3331 28.3159 64.4432 28.2001C64.5591 28.0784 64.701 28.0176 64.8691 28.0176C64.9792 28.0176 65.0777 28.0465 65.1646 28.1045C65.2573 28.1566 65.3297 28.229 65.3819 28.3217C65.434 28.4086 65.4601 28.5042 65.4601 28.6085C65.4601 28.707 65.434 28.8026 65.3819 28.8953C65.3297 28.988 65.2573 29.0633 65.1646 29.1212C65.0777 29.1734 64.9792 29.1994 64.8691 29.1994ZM64.5996 34.4483V30.1032H65.3123V34.4483H64.5996ZM63.913 30.7724V30.1032H65.3123V30.7724H63.913Z" fill="#252525"/>
<path d="M69.8754 34.4483L69.8667 31.8673C69.8667 31.4908 69.7827 31.204 69.6146 31.007C69.4524 30.81 69.2003 30.7115 68.8585 30.7115C68.6267 30.7115 68.3949 30.7984 68.1631 30.9722C67.9372 31.1402 67.7373 31.3372 67.5634 31.5632V30.7897C67.6561 30.6739 67.7749 30.558 67.9198 30.4421C68.0646 30.3205 68.2269 30.2191 68.4065 30.138C68.5919 30.0569 68.7831 30.0163 68.9801 30.0163C69.2757 30.0163 69.5451 30.0829 69.7885 30.2162C70.0318 30.3436 70.2259 30.5406 70.3708 30.8071C70.5157 31.0678 70.5881 31.3981 70.5881 31.7978V34.4483H69.8754ZM66.8507 34.4483V30.1032H67.5634V34.4483H66.8507Z" fill="#252525"/>
<path d="M75.577 34.5787C75.409 34.5787 75.2323 34.5555 75.0468 34.5091C74.8672 34.4686 74.705 34.4193 74.5601 34.3614C74.4152 34.2977 74.3081 34.2426 74.2385 34.1963V33.4316C74.3196 33.4895 74.4326 33.5561 74.5775 33.6314C74.7281 33.701 74.8875 33.7618 75.0555 33.8139C75.2236 33.8603 75.38 33.8834 75.5249 33.8834C75.7972 33.8834 76.0116 33.8226 76.168 33.701C76.3303 33.5793 76.4114 33.4287 76.4114 33.2491C76.4114 33.11 76.3564 32.9999 76.2463 32.9188C76.142 32.8377 75.9884 32.7595 75.7856 32.6842L75.1424 32.4496C74.8064 32.3221 74.5833 32.1628 74.4732 31.9716C74.3631 31.7746 74.3081 31.5516 74.3081 31.3025C74.3081 31.0533 74.3689 30.8332 74.4906 30.642C74.618 30.4508 74.7977 30.3002 75.0294 30.1901C75.2612 30.0743 75.5307 30.0163 75.8378 30.0163C76.0927 30.0163 76.3303 30.054 76.5505 30.1293C76.7706 30.1988 76.93 30.2712 77.0285 30.3465V31.1113C76.9068 31.0186 76.7417 30.9288 76.5331 30.8419C76.3245 30.755 76.1101 30.7115 75.8899 30.7115C75.6176 30.7115 75.4119 30.7753 75.2728 30.9027C75.1395 31.0302 75.0729 31.1634 75.0729 31.3025C75.0729 31.4125 75.1106 31.5255 75.1859 31.6414C75.267 31.7515 75.4061 31.8413 75.6031 31.9108L76.3332 32.1715C76.6171 32.27 76.8286 32.4119 76.9677 32.5973C77.1067 32.7827 77.1763 32.9999 77.1763 33.2491C77.1763 33.4924 77.1067 33.7154 76.9677 33.9182C76.8344 34.121 76.6461 34.2832 76.4027 34.4049C76.1651 34.5207 75.8899 34.5787 75.577 34.5787Z" fill="#252525"/>
<path d="M80.227 34.5787C79.8967 34.5787 79.5925 34.5207 79.3144 34.4049C79.042 34.2832 78.8016 34.1181 78.593 33.9095C78.3902 33.6952 78.2337 33.4518 78.1236 33.1795C78.0135 32.9015 77.9585 32.6089 77.9585 32.3018C77.9585 31.9948 78.0135 31.7051 78.1236 31.4328C78.2337 31.1547 78.3902 30.9114 78.593 30.7028C78.8016 30.4885 79.042 30.3205 79.3144 30.1988C79.5925 30.0772 79.8967 30.0163 80.227 30.0163C80.5573 30.0163 80.8586 30.0772 81.1309 30.1988C81.409 30.3205 81.6495 30.4885 81.8523 30.7028C82.0609 30.9114 82.2202 31.1547 82.3303 31.4328C82.4404 31.7051 82.4955 31.9948 82.4955 32.3018C82.4955 32.6089 82.4404 32.9015 82.3303 33.1795C82.2202 33.4518 82.0609 33.6952 81.8523 33.9095C81.6495 34.1181 81.409 34.2832 81.1309 34.4049C80.8586 34.5207 80.5573 34.5787 80.227 34.5787ZM80.227 33.8834C80.5399 33.8834 80.8093 33.811 81.0353 33.6662C81.2671 33.5156 81.4438 33.3215 81.5655 33.084C81.6929 32.8406 81.7567 32.5799 81.7567 32.3018C81.7567 32.018 81.6929 31.7573 81.5655 31.5197C81.4438 31.2764 81.2671 31.0823 81.0353 30.9375C80.8093 30.7868 80.5399 30.7115 80.227 30.7115C79.9199 30.7115 79.6504 30.7868 79.4187 30.9375C79.1869 31.0823 79.0073 31.2764 78.8798 31.5197C78.7581 31.7573 78.6973 32.018 78.6973 32.3018C78.6973 32.5799 78.7581 32.8406 78.8798 33.084C79.0073 33.3215 79.1869 33.5156 79.4187 33.6662C79.6504 33.811 79.9199 33.8834 80.227 33.8834Z" fill="#252525"/>
<path d="M83.6688 34.4483V28.1914H84.3815V34.4483H83.6688Z" fill="#252525"/>
<path d="M86.5544 29.1994C86.3864 29.1994 86.2444 29.1386 86.1285 29.0169C86.0184 28.8953 85.9634 28.7591 85.9634 28.6085C85.9634 28.4521 86.0184 28.3159 86.1285 28.2001C86.2444 28.0784 86.3864 28.0176 86.5544 28.0176C86.6645 28.0176 86.763 28.0465 86.8499 28.1045C86.9426 28.1566 87.0151 28.229 87.0672 28.3217C87.1194 28.4086 87.1454 28.5042 87.1454 28.6085C87.1454 28.707 87.1194 28.8026 87.0672 28.8953C87.0151 28.988 86.9426 29.0633 86.8499 29.1212C86.763 29.1734 86.6645 29.1994 86.5544 29.1994ZM86.285 34.4483V30.1032H86.9977V34.4483H86.285ZM85.5983 30.7724V30.1032H86.9977V30.7724H85.5983Z" fill="#252525"/>
<path d="M90.257 34.5787C89.8862 34.5787 89.5472 34.486 89.2401 34.3006C88.933 34.1094 88.6867 33.8458 88.5013 33.5098C88.3217 33.1737 88.2319 32.7856 88.2319 32.3453C88.2319 31.8644 88.3217 31.4502 88.5013 31.1026C88.6867 30.755 88.9388 30.4885 89.2575 30.3031C89.5762 30.1119 89.9325 30.0163 90.3265 30.0163C90.5757 30.0163 90.8277 30.0772 91.0827 30.1988C91.3434 30.3147 91.5665 30.4769 91.7519 30.6855V28.1914H92.4646V34.4483H91.7519V33.7096C91.6013 33.9414 91.3956 34.1442 91.1348 34.318C90.8799 34.4918 90.5873 34.5787 90.257 34.5787ZM90.37 33.8834C90.6365 33.8834 90.8741 33.8139 91.0827 33.6749C91.2913 33.5358 91.4564 33.3447 91.5781 33.1013C91.6998 32.8522 91.7577 32.5741 91.7519 32.2671L91.7432 31.4328C91.5636 31.2069 91.3695 31.0331 91.1609 30.9114C90.9581 30.7897 90.7234 30.7289 90.4569 30.7289C90.144 30.7289 89.8775 30.8071 89.6573 30.9635C89.4371 31.1142 89.2662 31.3112 89.1445 31.5545C89.0286 31.7978 88.9706 32.0614 88.9706 32.3453C88.9706 32.6234 89.0286 32.8812 89.1445 33.1187C89.2604 33.3505 89.4226 33.5358 89.6312 33.6749C89.8456 33.8139 90.0919 33.8834 90.37 33.8834Z" fill="#252525"/>
<path d="M95.6631 34.5787C95.2923 34.5787 94.9533 34.486 94.6462 34.3006C94.3391 34.1094 94.0929 33.8458 93.9074 33.5098C93.7278 33.1737 93.638 32.7856 93.638 32.3453C93.638 31.8644 93.7278 31.4502 93.9074 31.1026C94.0929 30.755 94.3449 30.4885 94.6636 30.3031C94.9823 30.1119 95.3386 30.0163 95.7327 30.0163C95.9818 30.0163 96.2339 30.0772 96.4888 30.1988C96.7496 30.3147 96.9726 30.4769 97.1581 30.6855V30.1032H97.8708V34.4483H97.1581V33.7096C97.0074 33.9414 96.8017 34.1442 96.541 34.318C96.286 34.4918 95.9934 34.5787 95.6631 34.5787ZM95.7761 33.8834C96.0427 33.8834 96.2802 33.8139 96.4888 33.6749C96.6974 33.5358 96.8626 33.3447 96.9842 33.1013C97.1059 32.8522 97.1639 32.5741 97.1581 32.2671L97.1494 31.4328C96.9697 31.2069 96.7756 31.0302 96.567 30.9027C96.3642 30.7753 96.1296 30.7115 95.863 30.7115C95.5501 30.7115 95.2836 30.7897 95.0634 30.9462C94.8432 31.1026 94.6723 31.3054 94.5506 31.5545C94.4347 31.7978 94.3768 32.0614 94.3768 32.3453C94.3768 32.6234 94.4347 32.8812 94.5506 33.1187C94.6665 33.3505 94.8287 33.5358 95.0373 33.6749C95.2517 33.8139 95.498 33.8834 95.7761 33.8834Z" fill="#252525"/>
<path d="M100.044 29.1994C99.8756 29.1994 99.7337 29.1386 99.6178 29.0169C99.5077 28.8953 99.4526 28.7591 99.4526 28.6085C99.4526 28.4521 99.5077 28.3159 99.6178 28.2001C99.7337 28.0784 99.8756 28.0176 100.044 28.0176C100.154 28.0176 100.252 28.0465 100.339 28.1045C100.432 28.1566 100.504 28.229 100.556 28.3217C100.609 28.4086 100.635 28.5042 100.635 28.6085C100.635 28.707 100.609 28.8026 100.556 28.8953C100.504 28.988 100.432 29.0633 100.339 29.1212C100.252 29.1734 100.154 29.1994 100.044 29.1994ZM99.7742 34.4483V30.1032H100.487V34.4483H99.7742ZM99.0876 30.7724V30.1032H100.487V30.7724H99.0876Z" fill="#252525"/>
<path d="M102.025 34.4483V30.1032H102.738V34.4483H102.025ZM102.738 31.8239V30.9722C102.906 30.6826 103.109 30.4508 103.346 30.277C103.584 30.1032 103.827 30.0163 104.077 30.0163C104.245 30.0163 104.395 30.0453 104.528 30.1032V30.9288C104.442 30.8766 104.352 30.8361 104.259 30.8071C104.166 30.7782 104.071 30.7637 103.972 30.7637C103.677 30.7637 103.436 30.868 103.251 31.0765C103.071 31.2851 102.9 31.5342 102.738 31.8239Z" fill="#252525"/>
<path d="M107.405 34.5787C107.075 34.5787 106.771 34.5207 106.493 34.4049C106.22 34.2832 105.98 34.1181 105.771 33.9095C105.569 33.6952 105.412 33.4518 105.302 33.1795C105.192 32.9015 105.137 32.6089 105.137 32.3018C105.137 31.8905 105.227 31.511 105.406 31.1634C105.586 30.8158 105.832 30.5377 106.145 30.3292C106.464 30.1206 106.826 30.0163 107.232 30.0163C107.678 30.0163 108.049 30.109 108.344 30.2944C108.64 30.4798 108.86 30.7318 109.005 31.0504C109.155 31.3691 109.231 31.7283 109.231 32.128V32.5539H105.806V31.9455H108.527C108.498 31.6617 108.416 31.4299 108.283 31.2503C108.156 31.0707 107.999 30.9375 107.814 30.8506C107.628 30.7579 107.434 30.7115 107.232 30.7115C106.953 30.7115 106.713 30.7868 106.51 30.9375C106.307 31.0823 106.151 31.2764 106.041 31.5197C105.931 31.7573 105.876 32.018 105.876 32.3018C105.876 32.5799 105.937 32.8406 106.058 33.084C106.186 33.3215 106.365 33.5156 106.597 33.6662C106.829 33.811 107.098 33.8834 107.405 33.8834C107.718 33.8834 108.008 33.8052 108.275 33.6488C108.547 33.4866 108.776 33.3099 108.961 33.1187V33.8921C108.88 33.9906 108.758 34.0949 108.596 34.205C108.44 34.3093 108.257 34.3962 108.049 34.4657C107.846 34.541 107.631 34.5787 107.405 34.5787Z" fill="#252525"/>
<g filter="url(#filter0_g_362_1028)">
<path d="M63.173 25.7477C62.846 25.7477 62.53 25.6823 62.2248 25.5515C61.9415 25.399 61.7126 25.1484 61.5382 24.7997L57.059 16.1042H54.9012V23.9824C54.9012 24.5055 54.6287 24.8977 54.0838 25.1593C53.5607 25.4208 52.9831 25.5515 52.351 25.5515C51.7189 25.5515 51.1304 25.4208 50.5855 25.1593C50.0623 24.8977 49.8008 24.5055 49.8008 23.9824V3.19175C49.8008 2.77768 49.9425 2.4181 50.2258 2.11299C50.5092 1.80789 50.8906 1.65534 51.3701 1.65534H58.138C59.6419 1.65534 60.9933 1.87327 62.1921 2.30913C63.4127 2.7232 64.3827 3.44237 65.1019 4.46665C65.8212 5.46914 66.1809 6.8639 66.1809 8.65094C66.1809 9.87136 66.0065 10.9283 65.6578 11.8218C65.3308 12.6936 64.8622 13.4127 64.2519 13.9794C63.6634 14.546 62.9877 14.9819 62.2248 15.287L66.2136 22.5114C66.279 22.5986 66.3226 22.6966 66.3444 22.8056C66.3661 22.9146 66.377 23.0126 66.377 23.0998C66.377 23.5139 66.2136 23.9279 65.8866 24.342C65.5597 24.7561 65.1455 25.0939 64.6442 25.3554C64.1647 25.6169 63.6743 25.7477 63.173 25.7477ZM54.9012 12.1814H58.138C59.0534 12.1814 59.7727 11.9635 60.2958 11.5276C60.8189 11.07 61.0805 10.2745 61.0805 9.14128C61.0805 7.98625 60.8189 7.1908 60.2958 6.75493C59.7727 6.31907 59.0534 6.10114 58.138 6.10114H54.9012V12.1814Z" fill="#252525"/>
<path d="M75.9638 25.8784C74.3508 25.8784 72.9232 25.5951 71.6808 25.0285C70.4384 24.4401 69.4575 23.6228 68.7382 22.5768C68.0407 21.5307 67.692 20.3212 67.692 18.9482V16.5619C67.692 15.3414 68.0298 14.2191 68.7055 13.1948C69.3812 12.1705 70.2858 11.3533 71.4192 10.7431C72.5526 10.1111 73.8168 9.79508 75.2118 9.79508C76.476 9.79508 77.6312 10.0566 78.6774 10.5796C79.7455 11.1027 80.6064 11.8327 81.2603 12.7698C81.9142 13.6852 82.2412 14.7639 82.2412 16.0061C82.2412 16.9868 82.0777 17.6951 81.7508 18.131C81.4456 18.545 81.0424 18.8066 80.541 18.9155C80.0615 19.0027 79.5711 19.0463 79.0698 19.0463H72.7597V19.2424C72.7597 20.0488 73.0648 20.7026 73.6751 21.2038C74.2854 21.6832 75.0919 21.923 76.0946 21.923C76.7702 21.923 77.3479 21.8249 77.8274 21.6288C78.3069 21.4108 78.7319 21.2038 79.1025 21.0077C79.473 20.8115 79.8327 20.7135 80.1814 20.7135C80.5737 20.7135 80.9116 20.8442 81.1949 21.1057C81.4783 21.3672 81.6854 21.6724 81.8161 22.021C81.9687 22.3697 82.045 22.6748 82.045 22.9364C82.045 23.3504 81.7943 23.7863 81.293 24.2439C80.7917 24.7016 80.0833 25.0939 79.1679 25.4208C78.2742 25.7259 77.2062 25.8784 75.9638 25.8784ZM72.7597 16.2023H76.8138C77.0536 16.2023 77.228 16.1478 77.337 16.0388C77.4459 15.9299 77.5004 15.7228 77.5004 15.4177C77.5004 14.9819 77.3806 14.6223 77.1408 14.339C76.9228 14.0338 76.6286 13.8159 76.258 13.6852C75.9093 13.5326 75.5278 13.4563 75.1137 13.4563C74.7214 13.4563 74.3399 13.5326 73.9694 13.6852C73.6207 13.8159 73.3264 14.0338 73.0866 14.339C72.8687 14.6223 72.7597 14.9819 72.7597 15.4177V16.2023Z" fill="#252525"/>
<path d="M87.0177 25.5515C86.3202 25.5515 85.7317 25.4099 85.2522 25.1266C84.7726 24.8433 84.5329 24.4728 84.5329 24.0151V7.67025C84.5329 6.40624 84.7944 5.2839 85.3176 4.3032C85.8407 3.30072 86.5382 2.51616 87.41 1.94954C88.2819 1.38292 89.2409 1.09961 90.2872 1.09961H92.6412C93.2733 1.09961 93.7419 1.32844 94.0471 1.78609C94.374 2.22196 94.5375 2.70141 94.5375 3.22444C94.5375 3.76927 94.374 4.25962 94.0471 4.69548C93.7419 5.13134 93.2733 5.34928 92.6412 5.34928H91.3988C91.05 5.34928 90.734 5.41465 90.4506 5.54541C90.1891 5.67617 89.982 5.87231 89.8294 6.13383C89.6769 6.37355 89.6006 6.70045 89.6006 7.11452V9.99122H93.2951C93.7092 9.99122 94.0144 10.1874 94.2105 10.5796C94.4285 10.9501 94.5375 11.3533 94.5375 11.7892C94.5375 12.2468 94.4285 12.6609 94.2105 13.0314C94.0144 13.4018 93.7092 13.5871 93.2951 13.5871H89.6006V24.0151C89.6006 24.4728 89.339 24.8433 88.8159 25.1266C88.3146 25.4099 87.7152 25.5515 87.0177 25.5515Z" fill="#252525"/>
<path d="M103.349 25.8784C101.998 25.8784 100.755 25.5624 99.622 24.9304C98.4886 24.2766 97.5841 23.4267 96.9084 22.3806C96.2327 21.3346 95.8948 20.2122 95.8948 19.0136V11.5603C95.8948 11.168 96.1455 10.8085 96.6468 10.4816C97.1481 10.1547 97.7475 9.99122 98.445 9.99122C99.1207 9.99122 99.7092 10.1547 100.211 10.4816C100.712 10.8085 100.963 11.168 100.963 11.5603V19.0136C100.963 19.4277 101.072 19.8199 101.289 20.1904C101.507 20.5609 101.791 20.866 102.14 21.1057C102.51 21.3455 102.913 21.4653 103.349 21.4653C103.785 21.4653 104.178 21.3455 104.526 21.1057C104.897 20.866 105.18 20.5609 105.376 20.1904C105.594 19.8199 105.703 19.4277 105.703 19.0136V11.5276C105.703 11.1136 105.954 10.754 106.455 10.4489C106.978 10.1438 107.578 9.99122 108.253 9.99122C108.995 9.99122 109.594 10.1438 110.052 10.4489C110.531 10.754 110.771 11.1136 110.771 11.5276V19.0136C110.771 20.234 110.433 21.3672 109.757 22.4133C109.082 23.4594 108.177 24.2984 107.044 24.9304C105.932 25.5624 104.701 25.8784 103.349 25.8784Z" fill="#252525"/>
<path d="M119.931 32.6452C118.645 32.6452 117.424 32.46 116.269 32.0895C115.135 31.719 114.22 31.1742 113.522 30.455C112.825 29.7576 112.476 28.9077 112.476 27.9052C112.476 27.1206 112.683 26.4451 113.097 25.8784C113.512 25.3118 114.035 24.8542 114.667 24.5055C114.318 24.2875 114.035 24.0151 113.817 23.6882C113.599 23.3613 113.49 22.9581 113.49 22.4787C113.49 21.8685 113.642 21.3672 113.947 20.975C114.274 20.5609 114.678 20.1795 115.157 19.8308C114.481 19.3296 113.958 18.7303 113.588 18.0329C113.217 17.3137 113.032 16.5292 113.032 15.6792V15.1889C113.032 14.121 113.304 13.1839 113.849 12.3776C114.416 11.5712 115.201 10.9392 116.203 10.4816C117.228 10.0239 118.405 9.79508 119.734 9.79508C120.432 9.79508 121.097 9.87136 121.729 10.0239C122.361 10.1547 122.928 10.3399 123.429 10.5796C123.821 9.62073 124.159 8.99963 124.443 8.71632C124.726 8.43301 125.009 8.29135 125.293 8.29135C125.903 8.29135 126.371 8.4657 126.698 8.81439C127.047 9.16308 127.222 9.48997 127.222 9.79508C127.222 9.96942 127.178 10.1438 127.091 10.3181C127.004 10.4707 126.873 10.6232 126.698 10.7758C126.502 10.9501 126.273 11.1354 126.012 11.3315C125.772 11.5058 125.532 11.7129 125.293 11.9526C125.707 12.3885 126.012 12.8788 126.208 13.4236C126.426 13.9685 126.535 14.5569 126.535 15.1889V15.6792C126.535 16.7253 126.241 17.6624 125.652 18.4906C125.086 19.2969 124.29 19.9398 123.265 20.4192C122.241 20.8987 121.064 21.1384 119.734 21.1384C119.015 21.1384 118.361 21.073 117.773 20.9423C117.729 21.0295 117.696 21.1057 117.675 21.1711C117.653 21.2365 117.642 21.3019 117.642 21.3672C117.642 21.6724 117.871 21.8903 118.329 22.021C118.808 22.1518 119.408 22.2608 120.127 22.3479C120.868 22.4351 121.653 22.555 122.481 22.7075C123.309 22.8601 124.083 23.0998 124.802 23.4267C125.543 23.7536 126.143 24.233 126.6 24.865C127.08 25.4753 127.32 26.2925 127.32 27.3168C127.32 28.6026 126.949 29.6378 126.208 30.4223C125.489 31.2069 124.562 31.7735 123.429 32.1222C122.317 32.4709 121.151 32.6452 119.931 32.6452ZM119.833 29.4416C120.486 29.4416 121.075 29.2564 121.598 28.8859C122.143 28.5372 122.415 28.0577 122.415 27.4475C122.415 27.0771 122.306 26.772 122.088 26.5322C121.892 26.2925 121.609 26.0964 121.238 25.9438C120.89 25.8131 120.476 25.7041 119.996 25.6169C119.538 25.5515 119.059 25.4862 118.557 25.4208C118.122 25.6387 117.795 25.922 117.577 26.2707C117.359 26.6194 117.25 26.9899 117.25 27.3822C117.25 28.0577 117.511 28.5699 118.034 28.9186C118.579 29.2673 119.179 29.4416 119.833 29.4416ZM119.8 18.1963C120.367 18.1963 120.813 17.9675 121.14 17.5099C121.467 17.0304 121.631 16.4202 121.631 15.6792V15.1889C121.631 14.5133 121.467 13.9358 121.14 13.4563C120.835 12.9769 120.377 12.7372 119.767 12.7372C119.179 12.7372 118.721 12.9769 118.394 13.4563C118.089 13.9358 117.936 14.5133 117.936 15.1889V15.6465C117.936 16.3657 118.089 16.9759 118.394 17.4772C118.721 17.9566 119.19 18.1963 119.8 18.1963Z" fill="#252525"/>
<path d="M136.724 25.8784C135.111 25.8784 133.683 25.5951 132.441 25.0285C131.198 24.4401 130.217 23.6228 129.498 22.5768C128.801 21.5307 128.452 20.3212 128.452 18.9482V16.5619C128.452 15.3414 128.79 14.2191 129.465 13.1948C130.141 12.1705 131.046 11.3533 132.179 10.7431C133.313 10.1111 134.577 9.79508 135.972 9.79508C137.236 9.79508 138.391 10.0566 139.437 10.5796C140.505 11.1027 141.366 11.8327 142.02 12.7698C142.674 13.6852 143.001 14.7639 143.001 16.0061C143.001 16.9868 142.838 17.6951 142.511 18.131C142.206 18.545 141.802 18.8066 141.301 18.9155C140.822 19.0027 140.331 19.0463 139.83 19.0463H133.52V19.2424C133.52 20.0488 133.825 20.7026 134.435 21.2038C135.045 21.6832 135.852 21.923 136.855 21.923C137.53 21.923 138.108 21.8249 138.587 21.6288C139.067 21.4108 139.492 21.2038 139.862 21.0077C140.233 20.8115 140.593 20.7135 140.941 20.7135C141.334 20.7135 141.672 20.8442 141.955 21.1057C142.238 21.3672 142.445 21.6724 142.576 22.021C142.729 22.3697 142.805 22.6748 142.805 22.9364C142.805 23.3504 142.554 23.7863 142.053 24.2439C141.552 24.7016 140.843 25.0939 139.928 25.4208C139.034 25.7259 137.966 25.8784 136.724 25.8784ZM133.52 16.2023H137.574C137.814 16.2023 137.988 16.1478 138.097 16.0388C138.206 15.9299 138.26 15.7228 138.26 15.4177C138.26 14.9819 138.141 14.6223 137.901 14.339C137.683 14.0338 137.389 13.8159 137.018 13.6852C136.669 13.5326 136.288 13.4563 135.874 13.4563C135.481 13.4563 135.1 13.5326 134.729 13.6852C134.381 13.8159 134.086 14.0338 133.847 14.339C133.629 14.6223 133.52 14.9819 133.52 15.4177V16.2023Z" fill="#252525"/>
</g>
<path d="M10.6896 20.4816C13.5639 24.3136 15.1124 17.864 19.158 17.3738C22.3606 16.9858 23.5997 11.3186 23.5758 9.21985C23.3223 7.11605 24.476 6.38638 15.901 5.00486C7.326 3.62333 7.82979 16.6689 10.6896 20.4816Z" fill="#D59472"/>
<g filter="url(#filter1_g_362_1028)">
<path d="M30.2154 26.3806C27.0657 29.256 22.6786 24.3439 22.3974 22.9062C21.4975 24.8231 17.9942 28.4023 14.6758 26.6052" stroke="#252525" stroke-width="1.0905" stroke-linecap="round" stroke-linejoin="round"/>
</g>
<g filter="url(#filter2_g_362_1028)">
<path d="M27.5689 19.1666C27.4674 18.5466 18.8442 18.4433 17.6267 19.1666C17.1369 19.4577 19.1296 20.0449 20.3564 20.4537C21.8559 21.2715 22.1285 22.7707 22.4964 22.5766C22.4964 22.5766 23.0827 21.1352 24.5821 20.4537C26.6268 20.1811 27.6114 19.4267 27.5689 19.1666Z" fill="#252525"/>
<path d="M27.5689 19.1666C27.4674 18.5466 18.8442 18.4433 17.6267 19.1666C17.1369 19.4577 19.1296 20.0449 20.3564 20.4537C21.8559 21.2715 22.1285 22.7707 22.4964 22.5766C22.4964 22.5766 23.0827 21.1352 24.5821 20.4537C26.6268 20.1811 27.6114 19.4267 27.5689 19.1666Z" stroke="#252525" stroke-width="1.46837"/>
</g>
<g filter="url(#filter3_g_362_1028)">
<mask id="path-6-inside-1_362_1028" fill="white">
<path d="M31.3079 15.9105C31.2914 16.1052 29.9955 15.444 28.3396 15.3036C26.6837 15.1632 25.2949 15.5969 25.3114 15.4021C25.3279 15.2073 26.8033 13.7525 28.4592 13.8929C30.1151 14.0332 31.3245 15.7157 31.3079 15.9105Z"/>
</mask>
<path d="M31.3079 15.9105C31.2914 16.1052 29.9955 15.444 28.3396 15.3036C26.6837 15.1632 25.2949 15.5969 25.3114 15.4021C25.3279 15.2073 26.8033 13.7525 28.4592 13.8929C30.1151 14.0332 31.3245 15.7157 31.3079 15.9105Z" fill="#252525"/>
<path d="M31.3079 15.9105L29.8448 15.7864C29.8627 15.5755 29.931 15.3355 30.0829 15.1088C30.2334 14.8843 30.4232 14.7365 30.5935 14.6447C30.8953 14.482 31.1646 14.4782 31.2332 14.4777C31.3925 14.4766 31.4902 14.5088 31.4206 14.4916C31.3164 14.466 31.1762 14.4202 30.8571 14.3253C30.2967 14.1586 29.4438 13.9236 28.4637 13.8405L28.3396 15.3036L28.2155 16.7667C28.8913 16.824 29.5142 16.9898 30.0199 17.1402C30.2339 17.2038 30.5243 17.2955 30.7195 17.3435C30.7995 17.3632 31.0142 17.4161 31.2539 17.4144C31.3628 17.4136 31.6632 17.4042 31.9867 17.2299C32.4143 16.9994 32.7263 16.5623 32.7711 16.0345L31.3079 15.9105ZM28.3396 15.3036L28.4637 13.8405C27.4835 13.7574 26.6032 13.8455 26.0227 13.9154C25.6922 13.9552 25.5463 13.9769 25.4393 13.9846C25.3678 13.9897 25.4695 13.9745 25.6263 14.0024C25.6939 14.0144 25.9587 14.0635 26.2288 14.2747C26.3812 14.3938 26.5434 14.5714 26.6539 14.8181C26.7655 15.0672 26.7924 15.3152 26.7745 15.5261L25.3114 15.4021L23.8483 15.278C23.8035 15.8059 24.0374 16.2893 24.4202 16.5884C24.7096 16.8147 25.0042 16.8746 25.1114 16.8936C25.3474 16.9357 25.5679 16.9196 25.6501 16.9137C25.8506 16.8993 26.1523 16.8578 26.3739 16.8311C26.8977 16.768 27.5397 16.7094 28.2155 16.7667L28.3396 15.3036ZM25.3114 15.4021L26.7745 15.5261C26.7586 15.7135 26.7092 15.8526 26.6837 15.9175C26.6546 15.9916 26.6253 16.0464 26.6079 16.077C26.5736 16.1374 26.5462 16.1722 26.5432 16.1762C26.5345 16.1874 26.5498 16.1667 26.5999 16.1181C26.6964 16.0245 26.8571 15.8899 27.063 15.7579C27.5009 15.4772 27.9569 15.3239 28.3351 15.356L28.4592 13.8929L28.5833 12.4297C27.3056 12.3214 26.196 12.8254 25.478 13.2857C25.106 13.5242 24.7913 13.7811 24.5548 14.0106C24.4383 14.1236 24.3228 14.2474 24.2238 14.3749C24.1755 14.437 24.1132 14.523 24.0547 14.626C24.0231 14.6816 23.8776 14.9316 23.8483 15.278L25.3114 15.4021ZM28.4592 13.8929L28.3351 15.356C28.7134 15.388 29.1371 15.6159 29.5214 15.9663C29.7021 16.1311 29.8379 16.2908 29.9172 16.3993C29.9584 16.4557 29.9701 16.4787 29.9634 16.4661C29.961 16.4617 29.94 16.4227 29.9163 16.3575C29.9043 16.3244 29.8847 16.2654 29.8684 16.1875C29.8542 16.1193 29.8289 15.9738 29.8448 15.7864L31.3079 15.9105L32.7711 16.0345C32.8004 15.6881 32.6992 15.4172 32.6774 15.357C32.6371 15.2456 32.5901 15.1504 32.553 15.0811C32.4769 14.9387 32.3838 14.7972 32.2881 14.6662C32.0936 14.4001 31.8266 14.0939 31.5001 13.7962C30.8699 13.2216 29.861 12.5381 28.5833 12.4297L28.4592 13.8929Z" fill="#252525" mask="url(#path-6-inside-1_362_1028)"/>
</g>
<g filter="url(#filter4_g_362_1028)">
<mask id="path-8-inside-2_362_1028" fill="white">
<path d="M18.9422 15.3963C18.9637 15.5906 17.5642 15.193 15.9124 15.3762C14.2607 15.5594 12.9823 16.254 12.9608 16.0597C12.9392 15.8654 14.1046 14.1523 15.7563 13.9691C17.408 13.7858 18.9206 15.202 18.9422 15.3963Z"/>
</mask>
<path d="M18.9422 15.3963C18.9637 15.5906 17.5642 15.193 15.9124 15.3762C14.2607 15.5594 12.9823 16.254 12.9608 16.0597C12.9392 15.8654 14.1046 14.1523 15.7563 13.9691C17.408 13.7858 18.9206 15.202 18.9422 15.3963Z" fill="#252525"/>
<path d="M18.9422 15.3963L17.4827 15.5582C17.4594 15.3477 17.4798 15.0991 17.5849 14.8473C17.689 14.5978 17.8466 14.416 17.9959 14.293C18.2604 14.0749 18.5239 14.019 18.5911 14.0052C18.7471 13.9732 18.8492 13.9858 18.7776 13.9825C18.6704 13.9776 18.524 13.9598 18.1926 13.9285C17.6105 13.8736 16.7282 13.8084 15.7505 13.9168L15.9124 15.3762L16.0744 16.8356C16.7484 16.7609 17.3917 16.8028 17.917 16.8523C18.1392 16.8732 18.4419 16.9069 18.6427 16.9162C18.725 16.9199 18.9459 16.9303 19.1808 16.8821C19.2874 16.8603 19.5803 16.7928 19.8638 16.5591C20.2387 16.2502 20.46 15.7609 20.4016 15.2344L18.9422 15.3963ZM15.9124 15.3762L15.7505 13.9168C14.7729 14.0252 13.9263 14.2823 13.3704 14.4634C13.0539 14.5665 12.9149 14.616 12.8114 14.6443C12.7423 14.6632 12.8392 14.6286 12.9984 14.6256C13.067 14.6243 13.3363 14.6211 13.6422 14.7759C13.8149 14.8632 14.0084 15.006 14.1647 15.2266C14.3224 15.4493 14.3969 15.6874 14.4202 15.8979L12.9608 16.0597L11.5014 16.2216C11.5598 16.7481 11.883 17.177 12.3165 17.3963C12.6443 17.5622 12.9449 17.5638 13.0537 17.5618C13.2934 17.5573 13.5067 17.4988 13.5862 17.477C13.7801 17.424 14.068 17.3248 14.2802 17.2557C14.7818 17.0922 15.4003 16.9104 16.0744 16.8356L15.9124 15.3762ZM12.9608 16.0597L14.4202 15.8979C14.4409 16.0847 14.4194 16.2308 14.407 16.2994C14.3928 16.3777 14.3747 16.4372 14.3635 16.4706C14.3416 16.5364 14.3215 16.5759 14.3193 16.5804C14.3129 16.5931 14.324 16.5698 14.3637 16.5124C14.4402 16.4019 14.5718 16.2387 14.7482 16.0693C15.1233 15.7091 15.541 15.4703 15.9182 15.4285L15.7563 13.9691L15.5944 12.5096C14.3199 12.651 13.3291 13.3604 12.714 13.9512C12.3953 14.2572 12.1363 14.5703 11.9487 14.8413C11.8564 14.9747 11.7671 15.1186 11.6947 15.2629C11.6594 15.3331 11.6149 15.4295 11.5775 15.5419C11.5572 15.6026 11.463 15.8761 11.5014 16.2216L12.9608 16.0597ZM15.7563 13.9691L15.9182 15.4285C16.2955 15.3866 16.7554 15.5281 17.2003 15.7973C17.4096 15.924 17.5737 16.0543 17.6726 16.1454C17.7239 16.1927 17.7398 16.213 17.7308 16.202C17.7277 16.1981 17.6994 16.164 17.6636 16.1045C17.6454 16.0744 17.6147 16.0204 17.5836 15.947C17.5565 15.8829 17.5035 15.745 17.4827 15.5582L18.9422 15.3963L20.4016 15.2344C20.3632 14.8888 20.2114 14.6427 20.1784 14.5879C20.1172 14.4865 20.0526 14.4021 20.0028 14.3413C19.9005 14.2164 19.7818 14.0956 19.6625 13.9857C19.4201 13.7623 19.0988 13.5137 18.7208 13.2849C17.9911 12.8433 16.8688 12.3683 15.5944 12.5096L15.7563 13.9691Z" fill="#252525" mask="url(#path-8-inside-2_362_1028)"/>
</g>
<g filter="url(#filter5_g_362_1028)">
<path d="M13.2471 9.13019C10.0465 14.0803 8.15364 12.6146 6.6792 16.0991C5.29642 19.3669 0.496927 10.3385 8.95783 3.76955C10.3208 2.99028 11.5334 1.81792 15.1236 2.42937" stroke="#252525" stroke-width="1.46837" stroke-linecap="round"/>
</g>
<g filter="url(#filter6_g_362_1028)">
<path d="M30.5303 9.13019C33.7308 14.0803 35.6237 12.6146 37.0981 16.0991C38.4809 19.3669 43.2804 10.3385 34.8195 3.76955C33.4566 2.99028 32.2439 1.81792 28.6538 2.42937" stroke="#252525" stroke-width="1.46837" stroke-linecap="round"/>
</g>
<g filter="url(#filter7_g_362_1028)">
<path d="M39.8472 34.2136L38.8789 32.0352" stroke="#252525" stroke-width="1.36312" stroke-linecap="round"/>
</g>
<g filter="url(#filter8_g_362_1028)">
<path d="M33.7029 34.1166L34.3331 32.037" stroke="#252525" stroke-width="1.36312" stroke-linecap="round"/>
</g>
<g filter="url(#filter9_g_362_1028)">
<path d="M44.0747 33.3377C43.7976 28.5265 30.3123 26.4197 28.7422 33.3377C36.0716 35.1276 38.8811 34.9872 44.0747 33.3377Z" stroke="#252525" stroke-width="1.36312" stroke-linejoin="round"/>
</g>
<g filter="url(#filter10_g_362_1028)">
<path d="M12.109 34.489L11.1406 32.3105" stroke="#252525" stroke-width="1.36312" stroke-linecap="round"/>
</g>
<g filter="url(#filter11_g_362_1028)">
<path d="M5.96074 34.3881L6.59091 32.3085" stroke="#252525" stroke-width="1.36312" stroke-linecap="round"/>
</g>
<g filter="url(#filter12_g_362_1028)">
<path d="M16.3325 33.6091C16.0554 28.7979 2.57006 26.6911 1 33.6091C8.32944 35.3991 11.1389 35.2587 16.3325 33.6091Z" stroke="#252525" stroke-width="1.36312" stroke-linejoin="round"/>
</g>
<g filter="url(#filter13_g_362_1028)">
<path d="M7.85505 20.0332C7.81702 23.9739 8.71875 26.1243 11.8991 29.1945" stroke="#252525" stroke-width="1.46764" stroke-linecap="round"/>
</g>
<g filter="url(#filter14_g_362_1028)">
<path d="M36.266 20.4785C36.3295 24.2395 35.4426 26.286 32.285 29.1954" stroke="#252525" stroke-width="1.46764" stroke-linecap="round"/>
</g>
<g filter="url(#filter15_g_362_1028)">
<path d="M25.8427 31.522C23.1678 32.6046 21.4747 32.6922 18.5787 31.7847" stroke="#252525" stroke-width="1.46764" stroke-linecap="round"/>
</g>
<g filter="url(#filter16_g_362_1028)">
<path d="M24.3272 3.05055C22.6325 3.73646 21.5598 3.79197 19.7249 3.21702" stroke="#252525" stroke-width="1.46764" stroke-linecap="round"/>
</g>
<defs>
<filter id="filter0_g_362_1028" x="49.6125" y="0.911355" width="93.5757" height="31.9214" filterUnits="userSpaceOnUse" color-interpolation-filters="sRGB">
<feFlood flood-opacity="0" result="BackgroundImageFix"/>
<feBlend mode="normal" in="SourceGraphic" in2="BackgroundImageFix" result="shape"/>
<feTurbulence type="fractalNoise" baseFrequency="0.41662505269050598 0.41662505269050598" numOctaves="3" seed="3422" />
<feDisplacementMap in="shape" scale="0.3765082061290741" xChannelSelector="R" yChannelSelector="G" result="displacedImage" width="100%" height="100%" />
<feMerge result="effect1_texture_362_1028">
<feMergeNode in="displacedImage"/>
</feMerge>
</filter>
<filter id="filter1_g_362_1028" x="13.9758" y="22.2082" width="16.9391" height="5.75743" filterUnits="userSpaceOnUse" color-interpolation-filters="sRGB">
<feFlood flood-opacity="0" result="BackgroundImageFix"/>
<feBlend mode="normal" in="SourceGraphic" in2="BackgroundImageFix" result="shape"/>
<feTurbulence type="fractalNoise" baseFrequency="0.51218515634536743 0.51218515634536743" numOctaves="3" seed="3422" />
<feDisplacementMap in="shape" scale="0.30626177787780762" xChannelSelector="R" yChannelSelector="G" result="displacedImage" width="100%" height="100%" />
<feMerge result="effect1_texture_362_1028">
<feMergeNode in="displacedImage"/>
</feMerge>
</filter>
<filter id="filter2_g_362_1028" x="16.6633" y="17.7746" width="11.7945" height="5.70665" filterUnits="userSpaceOnUse" color-interpolation-filters="sRGB">
<feFlood flood-opacity="0" result="BackgroundImageFix"/>
<feBlend mode="normal" in="SourceGraphic" in2="BackgroundImageFix" result="shape"/>
<feTurbulence type="fractalNoise" baseFrequency="0.51218515634536743 0.51218515634536743" numOctaves="3" seed="3422" />
<feDisplacementMap in="shape" scale="0.30626177787780762" xChannelSelector="R" yChannelSelector="G" result="displacedImage" width="100%" height="100%" />
<feMerge result="effect1_texture_362_1028">
<feMergeNode in="displacedImage"/>
</feMerge>
</filter>
<filter id="filter3_g_362_1028" x="25.1594" y="13.7297" width="6.30236" height="2.36876" filterUnits="userSpaceOnUse" color-interpolation-filters="sRGB">
<feFlood flood-opacity="0" result="BackgroundImageFix"/>
<feBlend mode="normal" in="SourceGraphic" in2="BackgroundImageFix" result="shape"/>
<feTurbulence type="fractalNoise" baseFrequency="0.51218515634536743 0.51218515634536743" numOctaves="3" seed="3422" />
<feDisplacementMap in="shape" scale="0.30626177787780762" xChannelSelector="R" yChannelSelector="G" result="displacedImage" width="100%" height="100%" />
<feMerge result="effect1_texture_362_1028">
<feMergeNode in="displacedImage"/>
</feMerge>
</filter>
<filter id="filter4_g_362_1028" x="12.8078" y="13.8" width="6.28673" height="2.44689" filterUnits="userSpaceOnUse" color-interpolation-filters="sRGB">
<feFlood flood-opacity="0" result="BackgroundImageFix"/>
<feBlend mode="normal" in="SourceGraphic" in2="BackgroundImageFix" result="shape"/>
<feTurbulence type="fractalNoise" baseFrequency="0.51218515634536743 0.51218515634536743" numOctaves="3" seed="3422" />
<feDisplacementMap in="shape" scale="0.30626177787780762" xChannelSelector="R" yChannelSelector="G" result="displacedImage" width="100%" height="100%" />
<feMerge result="effect1_texture_362_1028">
<feMergeNode in="displacedImage"/>
</feMerge>
</filter>
<filter id="filter5_g_362_1028" x="3.16114" y="1.35059" width="12.873" height="16.3496" filterUnits="userSpaceOnUse" color-interpolation-filters="sRGB">
<feFlood flood-opacity="0" result="BackgroundImageFix"/>
<feBlend mode="normal" in="SourceGraphic" in2="BackgroundImageFix" result="shape"/>
<feTurbulence type="fractalNoise" baseFrequency="0.4486972987651825 0.4486972987651825" numOctaves="3" seed="3422" />
<feDisplacementMap in="shape" scale="0.34959590435028076" xChannelSelector="R" yChannelSelector="G" result="displacedImage" width="100%" height="100%" />
<feMerge result="effect1_texture_362_1028">
<feMergeNode in="displacedImage"/>
</feMerge>
</filter>
<filter id="filter6_g_362_1028" x="27.7432" y="1.35059" width="12.873" height="16.3496" filterUnits="userSpaceOnUse" color-interpolation-filters="sRGB">
<feFlood flood-opacity="0" result="BackgroundImageFix"/>
<feBlend mode="normal" in="SourceGraphic" in2="BackgroundImageFix" result="shape"/>
<feTurbulence type="fractalNoise" baseFrequency="0.4486972987651825 0.4486972987651825" numOctaves="3" seed="3422" />
<feDisplacementMap in="shape" scale="0.34959590435028076" xChannelSelector="R" yChannelSelector="G" result="displacedImage" width="100%" height="100%" />
<feMerge result="effect1_texture_362_1028">
<feMergeNode in="displacedImage"/>
</feMerge>
</filter>
<filter id="filter7_g_362_1028" x="38.0348" y="31.193" width="2.653" height="3.86198" filterUnits="userSpaceOnUse" color-interpolation-filters="sRGB">
<feFlood flood-opacity="0" result="BackgroundImageFix"/>
<feBlend mode="normal" in="SourceGraphic" in2="BackgroundImageFix" result="shape"/>
<feTurbulence type="fractalNoise" baseFrequency="0.48872038722038269 0.48872038722038269" numOctaves="3" seed="3422" />
<feDisplacementMap in="shape" scale="0.3209662139415741" xChannelSelector="R" yChannelSelector="G" result="displacedImage" width="100%" height="100%" />
<feMerge result="effect1_texture_362_1028">
<feMergeNode in="displacedImage"/>
</feMerge>
</filter>
<filter id="filter8_g_362_1028" x="32.859" y="31.195" width="2.31706" height="3.76433" filterUnits="userSpaceOnUse" color-interpolation-filters="sRGB">
<feFlood flood-opacity="0" result="BackgroundImageFix"/>
<feBlend mode="normal" in="SourceGraphic" in2="BackgroundImageFix" result="shape"/>
<feTurbulence type="fractalNoise" baseFrequency="0.48872038722038269 0.48872038722038269" numOctaves="3" seed="3422" />
<feDisplacementMap in="shape" scale="0.3209662139415741" xChannelSelector="R" yChannelSelector="G" result="displacedImage" width="100%" height="100%" />
<feMerge result="effect1_texture_362_1028">
<feMergeNode in="displacedImage"/>
</feMerge>
</filter>
<filter id="filter9_g_362_1028" x="27.8981" y="28.0622" width="17.0202" height="7.4069" filterUnits="userSpaceOnUse" color-interpolation-filters="sRGB">
<feFlood flood-opacity="0" result="BackgroundImageFix"/>
<feBlend mode="normal" in="SourceGraphic" in2="BackgroundImageFix" result="shape"/>
<feTurbulence type="fractalNoise" baseFrequency="0.48872038722038269 0.48872038722038269" numOctaves="3" seed="3422" />
<feDisplacementMap in="shape" scale="0.3209662139415741" xChannelSelector="R" yChannelSelector="G" result="displacedImage" width="100%" height="100%" />
<feMerge result="effect1_texture_362_1028">
<feMergeNode in="displacedImage"/>
</feMerge>
</filter>
<filter id="filter10_g_362_1028" x="10.2965" y="31.4684" width="2.653" height="3.86198" filterUnits="userSpaceOnUse" color-interpolation-filters="sRGB">
<feFlood flood-opacity="0" result="BackgroundImageFix"/>
<feBlend mode="normal" in="SourceGraphic" in2="BackgroundImageFix" result="shape"/>
<feTurbulence type="fractalNoise" baseFrequency="0.48872038722038269 0.48872038722038269" numOctaves="3" seed="3422" />
<feDisplacementMap in="shape" scale="0.3209662139415741" xChannelSelector="R" yChannelSelector="G" result="displacedImage" width="100%" height="100%" />
<feMerge result="effect1_texture_362_1028">
<feMergeNode in="displacedImage"/>
</feMerge>
</filter>
<filter id="filter11_g_362_1028" x="5.11686" y="31.4665" width="2.31706" height="3.76433" filterUnits="userSpaceOnUse" color-interpolation-filters="sRGB">
<feFlood flood-opacity="0" result="BackgroundImageFix"/>
<feBlend mode="normal" in="SourceGraphic" in2="BackgroundImageFix" result="shape"/>
<feTurbulence type="fractalNoise" baseFrequency="0.48872038722038269 0.48872038722038269" numOctaves="3" seed="3422" />
<feDisplacementMap in="shape" scale="0.3209662139415741" xChannelSelector="R" yChannelSelector="G" result="displacedImage" width="100%" height="100%" />
<feMerge result="effect1_texture_362_1028">
<feMergeNode in="displacedImage"/>
</feMerge>
</filter>
<filter id="filter12_g_362_1028" x="0.155923" y="28.3337" width="17.0202" height="7.4069" filterUnits="userSpaceOnUse" color-interpolation-filters="sRGB">
<feFlood flood-opacity="0" result="BackgroundImageFix"/>
<feBlend mode="normal" in="SourceGraphic" in2="BackgroundImageFix" result="shape"/>
<feTurbulence type="fractalNoise" baseFrequency="0.48872038722038269 0.48872038722038269" numOctaves="3" seed="3422" />
<feDisplacementMap in="shape" scale="0.3209662139415741" xChannelSelector="R" yChannelSelector="G" result="displacedImage" width="100%" height="100%" />
<feMerge result="effect1_texture_362_1028">
<feMergeNode in="displacedImage"/>
</feMerge>
</filter>
<filter id="filter13_g_362_1028" x="6.93203" y="19.1098" width="5.88986" height="11.007" filterUnits="userSpaceOnUse" color-interpolation-filters="sRGB">
<feFlood flood-opacity="0" result="BackgroundImageFix"/>
<feBlend mode="normal" in="SourceGraphic" in2="BackgroundImageFix" result="shape"/>
<feTurbulence type="fractalNoise" baseFrequency="0.41483116149902344 0.41483116149902344" numOctaves="3" seed="3422" />
<feDisplacementMap in="shape" scale="0.37813639640808105" xChannelSelector="R" yChannelSelector="G" result="displacedImage" width="100%" height="100%" />
<feMerge result="effect1_texture_362_1028">
<feMergeNode in="displacedImage"/>
</feMerge>
</filter>
<filter id="filter14_g_362_1028" x="31.3617" y="19.5551" width="5.83126" height="10.5637" filterUnits="userSpaceOnUse" color-interpolation-filters="sRGB">
<feFlood flood-opacity="0" result="BackgroundImageFix"/>
<feBlend mode="normal" in="SourceGraphic" in2="BackgroundImageFix" result="shape"/>
<feTurbulence type="fractalNoise" baseFrequency="0.41483116149902344 0.41483116149902344" numOctaves="3" seed="3422" />
<feDisplacementMap in="shape" scale="0.37813639640808105" xChannelSelector="R" yChannelSelector="G" result="displacedImage" width="100%" height="100%" />
<feMerge result="effect1_texture_362_1028">
<feMergeNode in="displacedImage"/>
</feMerge>
</filter>
<filter id="filter15_g_362_1028" x="17.6547" y="30.598" width="9.11251" height="2.7297" filterUnits="userSpaceOnUse" color-interpolation-filters="sRGB">
<feFlood flood-opacity="0" result="BackgroundImageFix"/>
<feBlend mode="normal" in="SourceGraphic" in2="BackgroundImageFix" result="shape"/>
<feTurbulence type="fractalNoise" baseFrequency="0.41483116149902344 0.41483116149902344" numOctaves="3" seed="3422" />
<feDisplacementMap in="shape" scale="0.37813639640808105" xChannelSelector="R" yChannelSelector="G" result="displacedImage" width="100%" height="100%" />
<feMerge result="effect1_texture_362_1028">
<feMergeNode in="displacedImage"/>
</feMerge>
</filter>
<filter id="filter16_g_362_1028" x="18.8031" y="2.12734" width="6.44845" height="2.40548" filterUnits="userSpaceOnUse" color-interpolation-filters="sRGB">
<feFlood flood-opacity="0" result="BackgroundImageFix"/>
<feBlend mode="normal" in="SourceGraphic" in2="BackgroundImageFix" result="shape"/>
<feTurbulence type="fractalNoise" baseFrequency="0.41483116149902344 0.41483116149902344" numOctaves="3" seed="3422" />
<feDisplacementMap in="shape" scale="0.37813639640808105" xChannelSelector="R" yChannelSelector="G" result="displacedImage" width="100%" height="100%" />
<feMerge result="effect1_texture_362_1028">
<feMergeNode in="displacedImage"/>
</feMerge>
</filter>
</defs>
</svg>
