<svg width="227" height="158" viewBox="0 0 227 158" fill="none" xmlns="http://www.w3.org/2000/svg">
<path d="M5.7653 157.999C4.9987 157.999 4.29263 157.864 3.64708 157.595C3.01497 157.313 2.45684 156.929 1.97267 156.445C1.50195 155.948 1.13883 155.383 0.883298 154.751C0.627766 154.105 0.5 153.426 0.5 152.713C0.5 152 0.627766 151.328 0.883298 150.696C1.13883 150.05 1.50195 149.485 1.97267 149.001C2.45684 148.504 3.01497 148.114 3.64708 147.831C4.29263 147.549 4.9987 147.407 5.7653 147.407C6.505 147.407 7.14383 147.529 7.68179 147.771C8.21975 147.999 8.5896 148.208 8.79133 148.396V150.07C8.41476 149.788 7.98439 149.546 7.50023 149.344C7.01606 149.129 6.43775 149.021 5.7653 149.021C5.0525 149.021 4.42712 149.196 3.88916 149.546C3.3512 149.882 2.93428 150.333 2.6384 150.897C2.35597 151.449 2.21475 152.054 2.21475 152.713C2.21475 153.359 2.35597 153.964 2.6384 154.529C2.93428 155.08 3.3512 155.531 3.88916 155.88C4.42712 156.217 5.0525 156.385 5.7653 156.385C6.43775 156.385 7.01606 156.284 7.50023 156.082C7.98439 155.867 8.41476 155.618 8.79133 155.336V157.01C8.5896 157.212 8.21975 157.427 7.68179 157.656C7.14383 157.884 6.505 157.999 5.7653 157.999Z" fill="#252525"/>
<path d="M15.5091 157.999C14.6484 157.999 13.8616 157.783 13.1488 157.353C12.436 156.909 11.8644 156.297 11.4341 155.517C11.0172 154.737 10.8087 153.836 10.8087 152.814C10.8087 151.698 11.0172 150.736 11.4341 149.929C11.8644 149.122 12.4495 148.504 13.1892 148.073C13.9289 147.629 14.756 147.407 15.6705 147.407C16.2488 147.407 16.8339 147.549 17.4256 147.831C18.0308 148.1 18.5486 148.477 18.979 148.961V147.609H20.6332V157.696H18.979V155.981C18.6293 156.519 18.1519 156.99 17.5467 157.393C16.9549 157.797 16.2757 157.999 15.5091 157.999ZM15.7714 156.385C16.39 156.385 16.9415 156.223 17.4256 155.901C17.9098 155.578 18.2931 155.134 18.5755 154.569C18.8579 153.991 18.9924 153.345 18.979 152.632L18.9588 150.696C18.5419 150.171 18.0913 149.761 17.6072 149.465C17.1365 149.169 16.5918 149.021 15.9731 149.021C15.2469 149.021 14.6282 149.203 14.1172 149.566C13.6061 149.929 13.2093 150.4 12.9269 150.978C12.6579 151.543 12.5234 152.155 12.5234 152.814C12.5234 153.46 12.6579 154.058 12.9269 154.609C13.1959 155.147 13.5725 155.578 14.0566 155.901C14.5542 156.223 15.1258 156.385 15.7714 156.385Z" fill="#252525"/>
<path d="M31.0831 157.696L31.063 151.704C31.063 150.83 30.8679 150.165 30.4779 149.707C30.1013 149.25 29.5163 149.021 28.7228 149.021C28.1849 149.021 27.6469 149.223 27.1089 149.627C26.5844 150.017 26.1204 150.474 25.717 150.998V149.203C25.9321 148.934 26.2078 148.665 26.5441 148.396C26.8803 148.114 27.2569 147.878 27.6738 147.69C28.1042 147.502 28.548 147.407 29.0052 147.407C29.6911 147.407 30.3165 147.562 30.8814 147.871C31.4462 148.167 31.8968 148.625 32.233 149.243C32.5692 149.848 32.7374 150.615 32.7374 151.543V157.696H31.0831ZM24.0627 157.696V147.609H25.717V157.696H24.0627Z" fill="#252525"/>
<path d="M37.4781 145.511C37.0881 145.511 36.7586 145.37 36.4896 145.088C36.2341 144.805 36.1063 144.489 36.1063 144.139C36.1063 143.776 36.2341 143.46 36.4896 143.191C36.7586 142.909 37.0881 142.768 37.4781 142.768C37.7337 142.768 37.9623 142.835 38.164 142.969C38.3792 143.09 38.5473 143.258 38.6684 143.474C38.7894 143.675 38.8499 143.897 38.8499 144.139C38.8499 144.368 38.7894 144.59 38.6684 144.805C38.5473 145.02 38.3792 145.195 38.164 145.33C37.9623 145.451 37.7337 145.511 37.4781 145.511ZM36.8528 157.696V147.609H38.507V157.696H36.8528ZM35.2591 149.163V147.609H38.507V149.163H35.2591Z" fill="#252525"/>
<path d="M49.0981 157.696L49.0779 151.704C49.0779 150.83 48.8829 150.165 48.4929 149.707C48.1163 149.25 47.5313 149.021 46.7378 149.021C46.1998 149.021 45.6619 149.223 45.1239 149.627C44.5994 150.017 44.1354 150.474 43.7319 150.998V149.203C43.9471 148.934 44.2228 148.665 44.5591 148.396C44.8953 148.114 45.2719 147.878 45.6888 147.69C46.1192 147.502 46.563 147.407 47.0202 147.407C47.7061 147.407 48.3315 147.562 48.8964 147.871C49.4612 148.167 49.9118 148.625 50.248 149.243C50.5842 149.848 50.7523 150.615 50.7523 151.543V157.696H49.0981ZM42.0777 157.696V147.609H43.7319V157.696H42.0777Z" fill="#252525"/>
<path d="M62.332 157.999C61.9419 157.999 61.5318 157.945 61.1014 157.837C60.6845 157.743 60.3079 157.629 59.9717 157.494C59.6354 157.346 59.3866 157.219 59.2252 157.111V155.336C59.4135 155.47 59.6758 155.625 60.012 155.8C60.3617 155.961 60.7315 156.102 61.1216 156.223C61.5116 156.331 61.8747 156.385 62.2109 156.385C62.843 156.385 63.3406 156.243 63.7038 155.961C64.0803 155.679 64.2686 155.329 64.2686 154.912C64.2686 154.589 64.1409 154.334 63.8853 154.145C63.6433 153.957 63.2869 153.776 62.8161 153.601L61.3233 153.056C60.5433 152.76 60.0255 152.39 59.7699 151.947C59.5144 151.489 59.3866 150.971 59.3866 150.393C59.3866 149.815 59.5278 149.304 59.8103 148.86C60.1062 148.416 60.5231 148.066 61.061 147.811C61.599 147.542 62.2244 147.407 62.9372 147.407C63.5289 147.407 64.0803 147.495 64.5914 147.67C65.1025 147.831 65.4723 147.999 65.701 148.174V149.949C65.4185 149.734 65.0352 149.526 64.5511 149.324C64.0669 149.122 63.5693 149.021 63.0582 149.021C62.4261 149.021 61.9487 149.169 61.6259 149.465C61.3166 149.761 61.1619 150.07 61.1619 150.393C61.1619 150.649 61.2493 150.911 61.4242 151.18C61.6124 151.435 61.9352 151.644 62.3925 151.805L64.0871 152.411C64.7461 152.639 65.237 152.969 65.5597 153.399C65.8825 153.829 66.0439 154.334 66.0439 154.912C66.0439 155.477 65.8825 155.995 65.5597 156.465C65.2504 156.936 64.8133 157.313 64.2485 157.595C63.697 157.864 63.0582 157.999 62.332 157.999Z" fill="#252525"/>
<path d="M73.1248 157.999C72.3582 157.999 71.6522 157.864 71.0066 157.595C70.3745 157.313 69.8164 156.929 69.3322 156.445C68.8615 155.948 68.4984 155.383 68.2428 154.751C67.9873 154.105 67.8595 153.426 67.8595 152.713C67.8595 152 67.9873 151.328 68.2428 150.696C68.4984 150.05 68.8615 149.485 69.3322 149.001C69.8164 148.504 70.3745 148.114 71.0066 147.831C71.6522 147.549 72.3582 147.407 73.1248 147.407C73.8914 147.407 74.5908 147.549 75.2229 147.831C75.8684 148.114 76.4266 148.504 76.8973 149.001C77.3815 149.485 77.7513 150.05 78.0068 150.696C78.2624 151.328 78.3901 152 78.3901 152.713C78.3901 153.426 78.2624 154.105 78.0068 154.751C77.7513 155.383 77.3815 155.948 76.8973 156.445C76.4266 156.929 75.8684 157.313 75.2229 157.595C74.5908 157.864 73.8914 157.999 73.1248 157.999ZM73.1248 156.385C73.8511 156.385 74.4765 156.217 75.001 155.88C75.5389 155.531 75.9491 155.08 76.2316 154.529C76.5274 153.964 76.6754 153.359 76.6754 152.713C76.6754 152.054 76.5274 151.449 76.2316 150.897C75.9491 150.333 75.5389 149.882 75.001 149.546C74.4765 149.196 73.8511 149.021 73.1248 149.021C72.412 149.021 71.7866 149.196 71.2487 149.546C70.7107 149.882 70.2938 150.333 69.9979 150.897C69.7155 151.449 69.5743 152.054 69.5743 152.713C69.5743 153.359 69.7155 153.964 69.9979 154.529C70.2938 155.08 70.7107 155.531 71.2487 155.88C71.7866 156.217 72.412 156.385 73.1248 156.385Z" fill="#252525"/>
<path d="M81.1136 157.696V143.171H82.7678V157.696H81.1136Z" fill="#252525"/>
<path d="M87.8112 145.511C87.4212 145.511 87.0917 145.37 86.8227 145.088C86.5672 144.805 86.4394 144.489 86.4394 144.139C86.4394 143.776 86.5672 143.46 86.8227 143.191C87.0917 142.909 87.4212 142.768 87.8112 142.768C88.0667 142.768 88.2953 142.835 88.4971 142.969C88.7123 143.09 88.8804 143.258 89.0014 143.474C89.1225 143.675 89.183 143.897 89.183 144.139C89.183 144.368 89.1225 144.59 89.0014 144.805C88.8804 145.02 88.7123 145.195 88.4971 145.33C88.2953 145.451 88.0667 145.511 87.8112 145.511ZM87.1858 157.696V147.609H88.84V157.696H87.1858ZM85.5921 149.163V147.609H88.84V149.163H85.5921Z" fill="#252525"/>
<path d="M96.4051 157.999C95.5444 157.999 94.7576 157.783 94.0448 157.353C93.332 156.909 92.7604 156.297 92.3301 155.517C91.9131 154.737 91.7047 153.836 91.7047 152.814C91.7047 151.698 91.9131 150.736 92.3301 149.929C92.7604 149.122 93.3455 148.504 94.0852 148.073C94.8249 147.629 95.652 147.407 96.5665 147.407C97.1448 147.407 97.7299 147.549 98.3216 147.831C98.9268 148.1 99.4446 148.477 99.875 148.961V143.171H101.529V157.696H99.875V155.981C99.5253 156.519 99.0479 156.99 98.4426 157.393C97.8509 157.797 97.1717 157.999 96.4051 157.999ZM96.6674 156.385C97.286 156.385 97.8374 156.223 98.3216 155.901C98.8058 155.578 99.1891 155.134 99.4715 154.569C99.7539 153.991 99.8884 153.345 99.875 152.632L99.8548 150.696C99.4379 150.171 98.9873 149.768 98.5032 149.485C98.0325 149.203 97.4878 149.062 96.8691 149.062C96.1429 149.062 95.5242 149.243 95.0131 149.606C94.5021 149.956 94.1053 150.413 93.8229 150.978C93.5539 151.543 93.4194 152.155 93.4194 152.814C93.4194 153.46 93.5539 154.058 93.8229 154.609C94.0919 155.147 94.4685 155.578 94.9526 155.901C95.4502 156.223 96.0218 156.385 96.6674 156.385Z" fill="#252525"/>
<path d="M108.953 157.999C108.092 157.999 107.306 157.783 106.593 157.353C105.88 156.909 105.308 156.297 104.878 155.517C104.461 154.737 104.253 153.836 104.253 152.814C104.253 151.698 104.461 150.736 104.878 149.929C105.308 149.122 105.893 148.504 106.633 148.073C107.373 147.629 108.2 147.407 109.114 147.407C109.693 147.407 110.278 147.549 110.87 147.831C111.475 148.1 111.993 148.477 112.423 148.961V147.609H114.077V157.696H112.423V155.981C112.073 156.519 111.596 156.99 110.991 157.393C110.399 157.797 109.72 157.999 108.953 157.999ZM109.215 156.385C109.834 156.385 110.385 156.223 110.87 155.901C111.354 155.578 111.737 155.134 112.019 154.569C112.302 153.991 112.436 153.345 112.423 152.632L112.403 150.696C111.986 150.171 111.535 149.761 111.051 149.465C110.58 149.169 110.036 149.021 109.417 149.021C108.691 149.021 108.072 149.203 107.561 149.566C107.05 149.929 106.653 150.4 106.371 150.978C106.102 151.543 105.967 152.155 105.967 152.814C105.967 153.46 106.102 154.058 106.371 154.609C106.64 155.147 107.016 155.578 107.501 155.901C107.998 156.223 108.57 156.385 109.215 156.385Z" fill="#252525"/>
<path d="M119.121 145.511C118.731 145.511 118.401 145.37 118.132 145.088C117.877 144.805 117.749 144.489 117.749 144.139C117.749 143.776 117.877 143.46 118.132 143.191C118.401 142.909 118.731 142.768 119.121 142.768C119.376 142.768 119.605 142.835 119.806 142.969C120.022 143.09 120.19 143.258 120.311 143.474C120.432 143.675 120.492 143.897 120.492 144.139C120.492 144.368 120.432 144.59 120.311 144.805C120.19 145.02 120.022 145.195 119.806 145.33C119.605 145.451 119.376 145.511 119.121 145.511ZM118.495 157.696V147.609H120.149V157.696H118.495ZM116.901 149.163V147.609H120.149V149.163H116.901Z" fill="#252525"/>
<path d="M123.72 157.696V147.609H125.374V157.696H123.72ZM125.374 151.604V149.627C125.764 148.954 126.235 148.416 126.787 148.013C127.338 147.609 127.903 147.407 128.481 147.407C128.871 147.407 129.221 147.475 129.53 147.609V149.526C129.328 149.405 129.12 149.311 128.905 149.243C128.69 149.176 128.468 149.142 128.239 149.142C127.553 149.142 126.995 149.384 126.565 149.869C126.148 150.353 125.751 150.931 125.374 151.604Z" fill="#252525"/>
<path d="M136.208 157.999C135.441 157.999 134.735 157.864 134.089 157.595C133.457 157.313 132.899 156.929 132.415 156.445C131.944 155.948 131.581 155.383 131.326 154.751C131.07 154.105 130.942 153.426 130.942 152.713C130.942 151.758 131.151 150.877 131.568 150.07C131.985 149.263 132.556 148.618 133.282 148.134C134.022 147.65 134.863 147.407 135.804 147.407C136.84 147.407 137.7 147.623 138.386 148.053C139.072 148.483 139.583 149.068 139.919 149.808C140.269 150.548 140.444 151.382 140.444 152.31V153.298H132.496V151.886H138.81C138.743 151.227 138.554 150.689 138.245 150.272C137.949 149.855 137.586 149.546 137.156 149.344C136.725 149.129 136.275 149.021 135.804 149.021C135.159 149.021 134.6 149.196 134.13 149.546C133.659 149.882 133.296 150.333 133.04 150.897C132.785 151.449 132.657 152.054 132.657 152.713C132.657 153.359 132.798 153.964 133.081 154.529C133.377 155.08 133.793 155.531 134.331 155.88C134.869 156.217 135.495 156.385 136.208 156.385C136.934 156.385 137.606 156.203 138.225 155.84C138.857 155.463 139.388 155.053 139.819 154.609V156.405C139.63 156.633 139.348 156.876 138.971 157.131C138.608 157.373 138.185 157.575 137.7 157.736C137.23 157.911 136.732 157.999 136.208 157.999Z" fill="#252525"/>
<g filter="url(#filter0_g_598_1821)">
<path d="M33.5357 137.497C32.7768 137.497 32.0433 137.345 31.335 137.041C30.6773 136.687 30.1461 136.105 29.7414 135.296L19.3449 115.11H14.3364V133.399C14.3364 134.613 13.704 135.524 12.4392 136.131C11.225 136.738 9.88435 137.041 8.41721 137.041C6.95006 137.041 5.5841 136.738 4.31933 136.131C3.10514 135.524 2.49805 134.613 2.49805 133.399V85.135C2.49805 84.1738 2.82689 83.3391 3.48457 82.6308C4.14226 81.9225 5.0276 81.5684 6.14061 81.5684H21.8491C25.3399 81.5684 28.4766 82.0743 31.2591 83.0861C34.0922 84.0473 36.3435 85.7168 38.013 88.0946C39.6825 90.4218 40.5173 93.6596 40.5173 97.8081C40.5173 100.641 40.1125 103.095 39.3031 105.169C38.5442 107.193 37.4565 108.862 36.04 110.178C34.674 111.493 33.1057 112.505 31.335 113.213L40.5932 129.984C40.7449 130.186 40.8461 130.414 40.8967 130.667C40.9473 130.92 40.9726 131.147 40.9726 131.35C40.9726 132.311 40.5932 133.272 39.8343 134.234C39.0754 135.195 38.1142 135.979 36.9506 136.586C35.8376 137.193 34.6993 137.497 33.5357 137.497ZM14.3364 106.004H21.8491C23.974 106.004 25.6435 105.498 26.8577 104.486C28.0719 103.424 28.6789 101.577 28.6789 98.9464C28.6789 96.2651 28.0719 94.4185 26.8577 93.4067C25.6435 92.3948 23.974 91.8889 21.8491 91.8889H14.3364V106.004Z" fill="#252525"/>
<path d="M63.224 137.8C59.4802 137.8 56.1665 137.143 53.2828 135.827C50.3991 134.461 48.1225 132.564 46.453 130.136C44.8341 127.707 44.0247 124.9 44.0247 121.712V116.173C44.0247 113.339 44.8088 110.734 46.3771 108.356C47.9455 105.979 50.045 104.081 52.6757 102.665C55.3065 101.198 58.2408 100.464 61.4786 100.464C64.4129 100.464 67.0942 101.071 69.5226 102.285C72.0015 103.5 73.9999 105.194 75.5176 107.37C77.0354 109.495 77.7942 111.999 77.7942 114.883C77.7942 117.159 77.4148 118.803 76.6559 119.815C75.9476 120.776 75.0117 121.383 73.8481 121.636C72.7351 121.839 71.5968 121.94 70.4332 121.94H55.7871V122.395C55.7871 124.267 56.4954 125.785 57.9119 126.948C59.3285 128.061 61.2003 128.618 63.5275 128.618C65.0958 128.618 66.4365 128.39 67.5495 127.935C68.6625 127.429 69.649 126.948 70.5091 126.493C71.3691 126.038 72.2039 125.81 73.0134 125.81C73.924 125.81 74.7082 126.114 75.3658 126.721C76.0235 127.328 76.5041 128.036 76.8077 128.846C77.1618 129.655 77.3389 130.363 77.3389 130.97C77.3389 131.932 76.7571 132.943 75.5935 134.006C74.4299 135.068 72.7857 135.979 70.6609 136.738C68.5866 137.446 66.1077 137.8 63.224 137.8ZM55.7871 115.338H65.197C65.7535 115.338 66.1583 115.211 66.4112 114.958C66.6642 114.705 66.7906 114.225 66.7906 113.517C66.7906 112.505 66.5124 111.67 65.9559 111.012C65.45 110.304 64.767 109.798 63.907 109.495C63.0975 109.14 62.2122 108.963 61.2509 108.963C60.3403 108.963 59.4549 109.14 58.5949 109.495C57.7854 109.798 57.1025 110.304 56.546 111.012C56.04 111.67 55.7871 112.505 55.7871 113.517V115.338Z" fill="#252525"/>
<path d="M88.8808 137.041C87.2619 137.041 85.8959 136.712 84.7829 136.055C83.6699 135.397 83.1134 134.537 83.1134 133.475V95.5315C83.1134 92.5972 83.7205 89.9918 84.9347 87.7152C86.1489 85.388 87.7678 83.5667 89.7914 82.2514C91.8151 80.936 94.0411 80.2783 96.4695 80.2783H101.933C103.4 80.2783 104.488 80.8095 105.196 81.8719C105.955 82.8838 106.335 83.9968 106.335 85.2109C106.335 86.4757 105.955 87.614 105.196 88.6258C104.488 89.6376 103.4 90.1435 101.933 90.1435H99.0496C98.2401 90.1435 97.5066 90.2953 96.8489 90.5989C96.2418 90.9024 95.7612 91.3577 95.407 91.9648C95.0529 92.5213 94.8758 93.2802 94.8758 94.2414V100.919H103.451C104.412 100.919 105.121 101.375 105.576 102.285C106.082 103.145 106.335 104.081 106.335 105.093C106.335 106.156 106.082 107.117 105.576 107.977C105.121 108.837 104.412 109.267 103.451 109.267H94.8758V133.475C94.8758 134.537 94.2687 135.397 93.0546 136.055C91.891 136.712 90.4997 137.041 88.8808 137.041Z" fill="#252525"/>
<path d="M126.787 137.8C123.651 137.8 120.767 137.067 118.136 135.599C115.506 134.082 113.406 132.109 111.838 129.68C110.269 127.252 109.485 124.647 109.485 121.864V104.562C109.485 103.651 110.067 102.817 111.231 102.058C112.394 101.299 113.785 100.919 115.404 100.919C116.973 100.919 118.339 101.299 119.502 102.058C120.666 102.817 121.248 103.651 121.248 104.562V121.864C121.248 122.825 121.501 123.736 122.007 124.596C122.512 125.456 123.17 126.164 123.98 126.721C124.84 127.277 125.776 127.556 126.787 127.556C127.799 127.556 128.71 127.277 129.519 126.721C130.379 126.164 131.037 125.456 131.492 124.596C131.998 123.736 132.251 122.825 132.251 121.864V104.486C132.251 103.525 132.833 102.69 133.997 101.982C135.211 101.274 136.602 100.919 138.17 100.919C139.89 100.919 141.282 101.274 142.344 101.982C143.457 102.69 144.014 103.525 144.014 104.486V121.864C144.014 124.697 143.229 127.328 141.661 129.756C140.093 132.185 137.993 134.132 135.363 135.599C132.782 137.067 129.924 137.8 126.787 137.8Z" fill="#252525"/>
<path d="M165.274 153.509C162.289 153.509 159.456 153.079 156.774 152.219C154.144 151.359 152.019 150.094 150.4 148.424C148.781 146.805 147.972 144.832 147.972 142.505C147.972 140.684 148.452 139.116 149.413 137.8C150.375 136.485 151.589 135.422 153.056 134.613C152.247 134.107 151.589 133.475 151.083 132.716C150.577 131.957 150.324 131.021 150.324 129.908C150.324 128.491 150.678 127.328 151.386 126.417C152.145 125.456 153.081 124.571 154.194 123.761C152.626 122.598 151.412 121.206 150.552 119.587C149.692 117.918 149.262 116.097 149.262 114.124V112.985C149.262 110.506 149.894 108.331 151.159 106.459C152.474 104.587 154.295 103.12 156.623 102.058C159 100.995 161.732 100.464 164.818 100.464C166.437 100.464 167.98 100.641 169.448 100.995C170.915 101.299 172.23 101.729 173.394 102.285C174.304 100.059 175.088 98.6175 175.746 97.9598C176.404 97.3022 177.061 96.9733 177.719 96.9733C179.136 96.9733 180.223 97.3781 180.982 98.1875C181.792 98.997 182.196 99.7558 182.196 100.464C182.196 100.869 182.095 101.274 181.893 101.678C181.691 102.032 181.387 102.387 180.982 102.741C180.527 103.145 179.996 103.575 179.389 104.031C178.832 104.435 178.276 104.916 177.719 105.473C178.68 106.484 179.389 107.623 179.844 108.887C180.35 110.152 180.603 111.518 180.603 112.985V114.124C180.603 116.552 179.92 118.727 178.554 120.65C177.239 122.522 175.392 124.014 173.014 125.127C170.636 126.24 167.904 126.797 164.818 126.797C163.149 126.797 161.631 126.645 160.265 126.341C160.164 126.544 160.088 126.721 160.038 126.873C159.987 127.024 159.962 127.176 159.962 127.328C159.962 128.036 160.493 128.542 161.555 128.846C162.668 129.149 164.06 129.402 165.729 129.604C167.449 129.807 169.27 130.085 171.193 130.439C173.115 130.793 174.911 131.35 176.581 132.109C178.301 132.868 179.692 133.981 180.755 135.448C181.868 136.864 182.424 138.761 182.424 141.139C182.424 144.124 181.564 146.527 179.844 148.348C178.174 150.17 176.024 151.485 173.394 152.294C170.813 153.104 168.107 153.509 165.274 153.509ZM165.046 146.072C166.564 146.072 167.93 145.642 169.144 144.782C170.409 143.972 171.041 142.859 171.041 141.443C171.041 140.583 170.788 139.874 170.282 139.318C169.827 138.761 169.169 138.306 168.309 137.952C167.5 137.648 166.539 137.395 165.426 137.193C164.363 137.041 163.25 136.89 162.087 136.738C161.075 137.244 160.316 137.901 159.81 138.711C159.304 139.52 159.051 140.38 159.051 141.291C159.051 142.859 159.658 144.048 160.872 144.858C162.137 145.667 163.528 146.072 165.046 146.072ZM164.97 119.967C166.286 119.967 167.323 119.436 168.082 118.373C168.84 117.26 169.22 115.844 169.22 114.124V112.985C169.22 111.417 168.84 110.076 168.082 108.963C167.373 107.85 166.311 107.294 164.894 107.294C163.528 107.294 162.466 107.85 161.707 108.963C160.999 110.076 160.645 111.417 160.645 112.985V114.048C160.645 115.717 160.999 117.134 161.707 118.297C162.466 119.41 163.554 119.967 164.97 119.967Z" fill="#252525"/>
<path d="M204.252 137.8C200.508 137.8 197.194 137.143 194.31 135.827C191.427 134.461 189.15 132.564 187.481 130.136C185.862 127.707 185.052 124.9 185.052 121.712V116.173C185.052 113.339 185.836 110.734 187.405 108.356C188.973 105.979 191.073 104.081 193.703 102.665C196.334 101.198 199.268 100.464 202.506 100.464C205.441 100.464 208.122 101.071 210.55 102.285C213.029 103.5 215.028 105.194 216.545 107.37C218.063 109.495 218.822 111.999 218.822 114.883C218.822 117.159 218.442 118.803 217.684 119.815C216.975 120.776 216.039 121.383 214.876 121.636C213.763 121.839 212.624 121.94 211.461 121.94H196.815V122.395C196.815 124.267 197.523 125.785 198.94 126.948C200.356 128.061 202.228 128.618 204.555 128.618C206.124 128.618 207.464 128.39 208.577 127.935C209.69 127.429 210.677 126.948 211.537 126.493C212.397 126.038 213.232 125.81 214.041 125.81C214.952 125.81 215.736 126.114 216.393 126.721C217.051 127.328 217.532 128.036 217.835 128.846C218.189 129.655 218.367 130.363 218.367 130.97C218.367 131.932 217.785 132.943 216.621 134.006C215.458 135.068 213.813 135.979 211.689 136.738C209.614 137.446 207.135 137.8 204.252 137.8ZM196.815 115.338H206.225C206.781 115.338 207.186 115.211 207.439 114.958C207.692 114.705 207.818 114.225 207.818 113.517C207.818 112.505 207.54 111.67 206.984 111.012C206.478 110.304 205.795 109.798 204.935 109.495C204.125 109.14 203.24 108.963 202.279 108.963C201.368 108.963 200.483 109.14 199.623 109.495C198.813 109.798 198.13 110.304 197.574 111.012C197.068 111.67 196.815 112.505 196.815 113.517V115.338Z" fill="#252525"/>
</g>
<path d="M185.786 49.0054C177.238 53.3823 180.011 40.4683 173.079 36.0749C167.591 32.5971 170.248 21.355 172.111 17.6113C174.394 14.0578 172.929 11.7468 189.719 16.7172C206.51 21.6876 194.29 44.6505 185.786 49.0054Z" fill="#D59472"/>
<path d="M157.62 36.9307C161.149 36.8137 164.582 37.0952 168.04 37.3525C168.989 37.423 170.274 37.7535 171.362 38.3398C172.431 38.9159 173.448 39.8169 173.588 41.0879L173.606 41.3184C173.638 41.8731 173.581 42.5397 173.476 43.1768C173.355 43.9074 173.163 44.6474 172.935 45.1895C172.539 46.1263 171.749 47.1049 170.78 48.0518C169.804 49.006 168.611 49.9608 167.364 50.8467C164.875 52.6158 162.13 54.1414 160.391 54.8574C159.224 55.3378 158.203 55.5361 157.229 55.3291C156.376 55.1475 155.622 54.6684 154.877 53.9316L154.558 53.5996C152.846 51.738 151.17 49.4623 150.075 47.1484C149.226 45.3539 148.643 43.8715 148.793 42.4912C148.948 41.0613 149.866 39.8688 151.635 38.582C152.741 37.7772 153.518 37.3711 154.383 37.1709C155.215 36.9784 156.118 36.9843 157.399 36.9355L157.617 36.9268L157.62 36.9307Z" fill="#252525" stroke="#252525"/>
<path d="M201.637 1.03711C202.533 0.501204 203.339 0.358436 204.035 0.646484C204.707 0.924514 205.129 1.54688 205.412 2.18945C205.699 2.84242 205.882 3.61053 206.021 4.31445C206.166 5.05495 206.253 5.66615 206.363 6.1582C207.36 10.5856 208.36 14.4142 211.109 17.9922C211.694 18.7531 212.255 19.1993 212.863 19.6016C213.457 19.9943 214.188 20.3985 214.963 20.9922H214.964C215.161 21.1431 215.413 21.3777 215.673 21.6221C215.941 21.8744 216.229 22.1498 216.52 22.4102C216.811 22.6713 217.089 22.9031 217.33 23.0674C217.451 23.1494 217.552 23.2078 217.633 23.2441C217.717 23.2821 217.752 23.2832 217.747 23.2832C217.891 23.2843 218.097 23.2053 218.349 23.0186C218.589 22.8398 218.813 22.6051 218.982 22.4014H218.983C219.195 22.1465 219.526 21.6223 219.916 20.9238C220.3 20.2361 220.724 19.409 221.123 18.5723C221.522 17.7353 221.893 16.8944 222.17 16.1768C222.455 15.4388 222.618 14.8881 222.642 14.6055L222.643 14.6035C222.644 14.5852 222.643 14.568 222.643 14.5527C222.604 14.5337 222.551 14.5089 222.483 14.4824C222.327 14.421 222.125 14.3534 221.905 14.2842C221.495 14.1548 220.979 14.0077 220.744 13.9121C219.246 13.3033 217.012 12.209 214.923 10.9424C212.854 9.68803 210.846 8.21697 209.877 6.84082C209.621 6.47786 209.102 5.63304 208.767 4.7832C208.6 4.36172 208.464 3.90011 208.447 3.47852C208.431 3.05849 208.535 2.56156 208.989 2.2666H208.99C209.396 2.00393 209.822 2.05869 210.165 2.22168C210.486 2.37452 210.777 2.63835 211.021 2.89355C211.269 3.15418 211.508 3.44952 211.71 3.69629C211.925 3.95899 212.084 4.14808 212.204 4.25293V4.25391C214.966 6.66543 218.635 8.93316 221.963 10.5059H221.962C222.334 10.6814 222.703 10.8028 223.132 10.9629C223.547 11.1181 223.994 11.3015 224.436 11.5889C225.27 12.1311 225.731 12.8526 225.91 13.665C226.085 14.4585 225.984 15.3066 225.767 16.1191C225.337 17.7248 224.383 19.3989 223.856 20.4941C223.257 21.7414 222.498 23.5059 221.441 24.8887C220.376 26.2829 218.92 27.4019 216.907 27.1807C215.908 27.0707 215.195 26.5732 214.606 26.0254C214.317 25.7564 214.042 25.4599 213.787 25.1943C213.525 24.922 213.276 24.6726 213.009 24.459L212.808 24.3057C212.33 23.9575 211.788 23.6691 211.209 23.3604C210.563 23.0161 209.869 22.6454 209.271 22.1514C208.187 21.2574 207.103 19.5708 206.211 17.8506C205.311 16.1136 204.567 14.2636 204.188 12.9766V12.9756C203.731 11.4272 203.479 9.84826 203.264 8.29004C203.075 6.92863 202.916 5.59191 202.673 4.27148C202.614 4.31167 202.55 4.35461 202.485 4.40137C202.125 4.6621 201.756 4.96694 201.643 5.06445C200.097 6.39445 198.688 7.8148 197.177 9.22266C195.677 10.6194 194.103 11.9801 192.282 13.126C192.076 13.2558 191.672 13.5382 191.282 13.6445C191.072 13.7017 190.801 13.729 190.531 13.6113C190.252 13.4895 190.064 13.2521 189.948 12.9658L189.911 12.873L189.912 12.7725C189.913 12.6869 189.935 12.62 189.946 12.5898C189.959 12.5534 189.973 12.5219 189.985 12.499C190.009 12.4533 190.038 12.4088 190.063 12.3701C190.117 12.291 190.187 12.1976 190.264 12.1006C190.419 11.9043 190.625 11.6615 190.834 11.4209C191.25 10.9416 191.703 10.4448 191.841 10.3037H191.842C192.27 9.8658 192.761 9.43507 193.237 9.02051C193.72 8.60062 194.187 8.19732 194.594 7.79395L194.961 7.42188C195.839 6.51891 196.862 5.3753 197.963 4.23535C199.189 2.96507 200.492 1.72137 201.637 1.03711Z" fill="#252525" stroke="#252525"/>
<path d="M182.38 76.6523C182.653 76.6297 183.329 76.6189 183.886 76.749C184.147 76.8101 184.493 76.9257 184.717 77.1836C184.842 77.3283 184.926 77.5167 184.929 77.7373C184.931 77.9476 184.858 78.1419 184.756 78.3105L184.755 78.3096C184.673 78.4444 184.551 78.5224 184.495 78.5557C184.422 78.5994 184.34 78.6376 184.264 78.6699C184.109 78.7351 183.921 78.7986 183.743 78.8555C183.566 78.9121 183.375 78.9692 183.225 79.0156C183.06 79.0664 182.954 79.1011 182.906 79.1221L182.907 79.123C181.932 79.5473 180.691 80.2117 179.52 80.9727C178.342 81.7376 177.268 82.578 176.604 83.3467C176.003 84.0413 175.077 85.4159 174.418 86.8457C174.089 87.5594 173.836 88.2672 173.718 88.8965C173.598 89.536 173.63 90.0305 173.793 90.3672C173.885 90.5579 174.138 90.7673 174.627 90.9385C175.1 91.1039 175.707 91.2022 176.357 91.2393C177.004 91.276 177.673 91.2516 178.258 91.1816C178.597 91.141 178.896 91.0839 179.142 91.0225C179.068 90.847 178.983 90.6492 178.895 90.4326C178.81 90.2254 178.726 90.0078 178.661 89.8027C178.599 89.6045 178.543 89.3848 178.536 89.1816C178.467 87.2578 179.55 85.9898 180.939 85.21C182.31 84.441 184.024 84.1121 185.408 84.0225V84.0215C185.494 84.0161 185.954 83.9866 186.354 84.0205C186.533 84.0356 186.795 84.0691 186.995 84.1816C187.101 84.2414 187.277 84.3731 187.327 84.6172C187.377 84.8627 187.268 85.0594 187.182 85.1699L187.074 85.3076L186.904 85.3486L185.81 85.6123L185.853 85.668L185.469 85.9756C185.06 86.3026 184.615 86.515 184.224 86.7031C183.82 86.8975 183.464 87.0702 183.136 87.3281C182.383 87.9193 181.998 88.4384 181.892 88.9375C181.799 89.3712 181.9 89.8937 182.362 90.583L193.776 90.0869C193.436 89.3636 193.15 88.5973 193.33 87.5596L193.378 87.3486C193.516 86.8668 193.822 86.4572 194.167 86.1396C194.564 85.7744 195.049 85.4962 195.509 85.3369C195.805 85.234 196.716 85.0443 197.567 84.8867C198.004 84.806 198.442 84.73 198.805 84.6748C199.149 84.6224 199.472 84.5803 199.646 84.582C199.856 84.5842 200.204 84.6428 200.461 84.7949C200.581 84.8657 200.812 85.0366 200.845 85.3486C200.879 85.6743 200.672 85.9044 200.516 86.0312C200.371 86.1483 200.17 86.2251 200.02 86.2764C199.848 86.3346 199.649 86.3889 199.458 86.4385C199.048 86.5447 198.696 86.6242 198.501 86.6963H198.5C197.878 86.927 197.387 87.1579 197.03 87.3965C196.67 87.6373 196.491 87.8568 196.42 88.0479C196.356 88.2196 196.353 88.4408 196.513 88.7637C196.663 89.0669 196.946 89.4356 197.411 89.8789L203.624 89.3877L203.64 89.3857H203.655C205.949 89.3455 208.261 89.5304 210.495 89.6123C210.741 89.6214 211.142 89.6149 211.642 89.6084C212.132 89.602 212.702 89.5963 213.263 89.6094C213.82 89.6224 214.383 89.6544 214.857 89.7266C215.094 89.7626 215.322 89.81 215.521 89.876C215.713 89.9393 215.921 90.0331 216.082 90.1846C216.212 90.3074 216.398 90.5236 216.409 90.8203C216.422 91.1699 216.195 91.4017 215.983 91.5303L215.892 91.5859L215.783 91.5996C214.806 91.7179 213.818 91.9263 212.807 92.1426C212.053 92.3036 211.285 92.4695 210.517 92.5977L209.748 92.7119C208.825 92.8302 207.922 92.8144 207.048 92.7803C206.163 92.7457 205.32 92.6933 204.459 92.7246C202.879 92.7822 201.294 92.9541 199.691 93.1387C198.095 93.3226 196.478 93.5192 194.863 93.6201C192.704 93.7556 190.491 93.7917 188.3 93.8457C186.104 93.8999 183.925 93.9726 181.806 94.1797C180.995 94.2589 180.304 94.3811 179.659 94.502C179.021 94.6217 178.409 94.7442 177.791 94.8125C176.523 94.9527 175.231 94.8657 173.396 94.1699C171.8 93.5643 170.903 92.4926 170.562 91.1738C170.23 89.8882 170.439 88.423 170.916 87.0098C171.868 84.1881 173.968 81.3307 175.635 80.0049L175.885 79.8184C176.545 79.3492 177.719 78.6573 178.885 78.0498C179.557 77.6997 180.24 77.37 180.84 77.1201C181.419 76.8785 181.98 76.6863 182.38 76.6533V76.6523Z" fill="#252525" stroke="#252525"/>
<path d="M133.834 77.3242C134.013 77.3267 134.194 77.3459 134.353 77.3984C134.506 77.4493 134.716 77.5591 134.824 77.7959C134.935 78.0404 134.873 78.2754 134.799 78.4277C134.725 78.5803 134.61 78.7194 134.487 78.8428C134.3 79.0305 134.041 79.2358 133.719 79.4551L133.376 79.6787C132.906 79.975 132.411 80.2105 131.946 80.4336C131.473 80.6608 131.027 80.8776 130.605 81.1484L130.604 81.1475C129.607 81.7887 127.971 83.1999 126.509 84.7588C125.78 85.5352 125.106 86.3381 124.581 87.0869C124.049 87.8458 123.7 88.5105 123.579 89.0176C123.532 89.2145 123.508 89.3364 123.499 89.4229C123.497 89.4481 123.497 89.4658 123.497 89.4775C123.503 89.4827 123.51 89.4907 123.521 89.499C123.581 89.5434 123.676 89.5996 123.844 89.6885C124.536 90.0544 125.375 90.2238 126.302 90.3613C126.881 90.4473 127.504 90.5213 128.11 90.6328C127.878 89.968 127.752 89.3164 127.781 88.6631C127.824 87.6997 128.199 86.7908 128.943 85.8828C129.894 84.7233 130.877 84.1795 132.266 83.7695H132.267C132.52 83.6948 133.004 83.5268 133.452 83.4834C133.893 83.4407 134.545 83.4991 134.863 84.1318L134.943 84.29L134.905 84.4629C134.862 84.6616 134.73 84.789 134.659 84.8496C134.576 84.9209 134.48 84.9807 134.393 85.0283C134.215 85.1245 133.997 85.2145 133.791 85.293C133.584 85.3719 133.362 85.4493 133.188 85.5127C132.995 85.5825 132.879 85.6287 132.829 85.6553V85.6562C132.417 85.8774 131.839 86.4032 131.354 87.0361C131.117 87.347 130.913 87.6689 130.77 87.9707C130.623 88.2781 130.554 88.5351 130.549 88.7256C130.541 89.0619 130.669 89.5126 130.874 90.0312C130.974 90.2827 131.085 90.5346 131.194 90.7812C131.258 90.925 131.32 91.0702 131.38 91.209C132.94 91.4 134.573 91.4892 136.126 91.4004C136.713 91.3669 137.331 91.2823 137.974 91.1904C138.609 91.0996 139.271 91.0014 139.913 90.9512C140.732 90.8872 141.554 90.8568 142.365 90.8291C142.9 90.8109 143.429 90.7905 143.955 90.7666C143.561 90.0124 143.323 89.2081 143.356 88.4189C143.402 87.3291 143.963 86.3449 145.149 85.6377C145.695 85.3126 146.075 85.1576 146.482 85.0869C146.677 85.0532 146.868 85.0405 147.062 85.0312C147.261 85.0217 147.464 85.0157 147.725 84.9971L147.77 84.9893C147.8 84.9831 147.838 84.9744 147.886 84.9619C147.982 84.9367 148.1 84.9015 148.237 84.8604C148.506 84.78 148.844 84.6772 149.175 84.5996C149.497 84.524 149.863 84.4598 150.182 84.4814C150.467 84.5009 150.896 84.6118 151.067 85.0381L151.099 85.127L151.121 85.2246C151.204 85.7022 150.84 86.003 150.675 86.1123L150.647 86.1299L150.619 86.1445C150.289 86.3068 149.811 86.4727 149.326 86.6436C148.826 86.8199 148.289 87.0106 147.788 87.2295C147.283 87.4501 146.847 87.6862 146.537 87.9434C146.226 88.2017 146.101 88.4316 146.087 88.6367V88.6377C146.062 89.0029 146.182 89.3048 146.389 89.6582C146.532 89.9031 146.758 90.2282 146.937 90.585C148.043 90.5426 149.149 90.4187 150.27 90.2754C151.494 90.1188 152.744 89.9396 153.994 89.8359C156.133 89.6583 159.171 89.4061 161.351 89.7559C161.925 89.8481 162.393 90.0407 162.676 90.377C162.989 90.7491 162.994 91.1958 162.844 91.5713C162.701 91.9257 162.419 92.2357 162.099 92.4746C161.772 92.7179 161.371 92.9145 160.942 93.0205C160.405 93.1531 159.51 93.2527 158.983 93.2871C156.829 93.4265 154.656 93.4098 152.522 93.4365C150.379 93.4634 148.261 93.5334 146.169 93.8408L146.128 93.8467H146.087C143.632 93.7983 141.136 94.0875 138.598 94.3604C136.073 94.6318 133.508 94.886 130.975 94.7451C129.952 94.6879 128.045 94.3653 126.189 93.9717C124.569 93.6279 122.933 93.2178 121.917 92.8623L121.521 92.7139C120.713 92.3835 120.167 91.9023 119.866 91.2959C119.569 90.6969 119.545 90.0395 119.653 89.4102C119.867 88.1728 120.628 86.8851 121.229 85.959C122.329 84.2664 124.111 82.3643 126.106 80.7852C128.096 79.211 130.352 77.9151 132.411 77.4971H132.412C132.992 77.3797 133.471 77.3192 133.834 77.3242Z" fill="#252525" stroke="#252525"/>
<path d="M144.03 1.83691C144.542 1.56462 145.211 1.28087 145.854 1.42969L145.854 1.43066C146.044 1.47449 146.218 1.58066 146.355 1.68164C146.502 1.78923 146.654 1.92475 146.804 2.07227C147.105 2.36797 147.432 2.74557 147.747 3.12695C148.063 3.50989 148.375 3.90794 148.642 4.24805C148.914 4.59527 149.129 4.86968 149.267 5.02441L149.591 5.37207C150.008 5.81066 150.676 6.49652 151.339 7.21094C151.77 7.67524 152.19 8.14371 152.508 8.53418C152.666 8.72856 152.805 8.91342 152.909 9.07324C152.961 9.15286 153.01 9.23496 153.048 9.31543C153.073 9.36888 153.106 9.44476 153.124 9.5332L153.137 9.62598L153.142 9.74316C153.141 10.0151 153.068 10.2732 152.891 10.4795C152.691 10.7107 152.423 10.8035 152.191 10.833C151.86 10.8753 151.501 10.8033 151.207 10.7031L150.938 10.5967C150.087 10.2104 148.976 9.24528 147.979 8.26562C146.964 7.26759 146.001 6.18745 145.438 5.50098C145.364 5.41132 145.258 5.28548 145.156 5.13672C145.114 5.16687 145.07 5.19915 145.023 5.2334C144.878 5.34127 144.732 5.45434 144.597 5.55664C144.475 5.64863 144.341 5.74926 144.249 5.80371C142.36 6.92457 141.745 7.52367 140.033 8.87109C137.138 11.1496 133.176 12.3758 129.901 13.5889C129.193 13.8511 128.689 14.1245 128.251 14.4658C127.809 14.81 127.415 15.2384 126.941 15.8379C126.708 16.1329 126.432 16.4643 126.206 16.8164C125.973 17.1808 125.858 17.4736 125.861 17.6797V17.6807C125.865 17.9101 125.93 18.2801 126.051 18.7568C126.169 19.2232 126.332 19.757 126.51 20.2998C126.866 21.3859 127.277 22.4826 127.508 23.1055C127.603 23.3634 127.926 24.2157 128.26 25.0225C128.427 25.4269 128.594 25.8127 128.735 26.1045C128.793 26.224 128.844 26.3215 128.886 26.3955C128.941 26.3697 129.014 26.3311 129.099 26.2695C129.329 26.1024 129.556 25.8685 129.689 25.7246L129.69 25.7236C130.476 24.8817 131.209 23.8169 131.956 22.6904C132.694 21.5771 133.449 20.4 134.255 19.3936C136.273 16.8734 138.482 14.4695 140.583 12.0625L140.788 11.8184C140.994 11.5648 141.203 11.2847 141.429 10.9863C141.724 10.5957 142.044 10.1792 142.393 9.7998C143.086 9.04629 143.963 8.36372 145.13 8.31738L145.346 8.30859L145.5 8.45996C145.639 8.59697 145.676 8.76461 145.686 8.87109C145.695 8.98046 145.681 9.08606 145.664 9.17188C145.629 9.34509 145.558 9.53987 145.477 9.73145C145.31 10.121 145.056 10.5965 144.789 11.0605C144.521 11.5273 144.231 11.9978 143.988 12.3828L143.468 13.1924C141.843 15.6567 139.968 17.863 138.101 20.083C136.26 22.271 134.41 24.6728 132.5 26.7959C131.964 27.3912 131.198 28.2115 130.329 28.7021C129.889 28.9506 129.394 29.1313 128.867 29.1387C128.329 29.1461 127.795 28.971 127.297 28.5723C126.964 28.3061 126.643 27.82 126.354 27.3008C126.053 26.7611 125.749 26.1116 125.464 25.4551C124.894 24.141 124.389 22.7591 124.142 22.0801C123.465 20.223 122.959 18.8961 123.012 17.6182C123.066 16.2962 123.704 15.096 125.04 13.4268C125.971 12.2631 126.747 11.6395 127.622 11.1729C128.05 10.9444 128.495 10.7569 128.972 10.5645C129.453 10.3702 129.969 10.1701 130.569 9.90625L131.24 9.60449C132.857 8.86035 134.81 7.85782 136.266 7.05762C137.107 6.59531 137.802 5.9862 138.515 5.33691C139.215 4.69879 139.943 4.00945 140.804 3.47559C141.149 3.2614 141.481 3.12324 141.782 3.00586C142.093 2.88507 142.352 2.79331 142.618 2.65918C142.802 2.56677 143.011 2.43972 143.256 2.29004C143.493 2.14476 143.76 1.98091 144.03 1.83691Z" fill="#252525" stroke="#252525"/>
<path d="M188.135 59.7754C188.384 59.9515 188.444 60.2183 188.436 60.4219C188.428 60.6103 188.364 60.7948 188.296 60.9473C188.157 61.2593 187.921 61.6108 187.685 61.9326C187.443 62.2608 187.178 62.5863 186.962 62.8486C186.731 63.1284 186.584 63.3045 186.536 63.375L186.535 63.376C183.742 67.472 180.979 70.8249 175.672 72.1172C174.062 72.509 172.703 72.5554 171.514 72.3232C170.321 72.0905 169.327 71.5832 168.44 70.9092C167.559 70.2395 166.782 69.4029 166.021 68.5117C165.246 67.6027 164.516 66.6708 163.662 65.7129C163.105 65.0872 162.223 64.3291 161.264 63.7559C160.287 63.1728 159.318 62.8335 158.56 62.915C158.34 62.9386 158.038 63.0468 157.675 63.2451C157.319 63.4392 156.937 63.7012 156.562 63.9961C155.805 64.5903 155.123 65.2824 154.782 65.7412C154.56 66.0403 154.235 66.6389 153.878 67.2725C153.706 67.577 153.53 67.8827 153.366 68.1387C153.251 68.3181 153.123 68.5054 152.99 68.6514L152.856 68.7822C152.846 68.7907 152.836 68.7998 152.821 68.8125C152.808 68.8241 152.79 68.8398 152.771 68.8555C152.735 68.8861 152.678 68.9309 152.607 68.9697C152.444 69.0589 152.248 69.0916 152.035 69.0322C152.031 69.0311 152.027 69.0295 152.022 69.0283C152.018 69.0269 152.013 69.0269 152.008 69.0254V69.0244C151.724 68.9442 151.53 68.7503 151.438 68.5029C151.357 68.2828 151.368 68.0531 151.393 67.8828C151.44 67.547 151.587 67.169 151.631 67.0352V67.0342C152.66 63.9074 155.124 61.2283 158.329 60.2363C159.542 59.8611 160.566 59.7504 161.472 59.8623C162.382 59.9748 163.141 60.309 163.824 60.7764C164.499 61.2382 165.103 61.8331 165.703 62.4639C166.313 63.1052 166.915 63.7781 167.626 64.46C167.726 64.5553 167.856 64.6453 168.032 64.7646C168.194 64.8741 168.4 65.0119 168.576 65.1777C169.141 65.7087 169.599 66.2431 170.007 66.7041C170.422 67.1743 170.778 67.56 171.166 67.8535C171.543 68.1385 171.947 68.3323 172.455 68.4092C172.971 68.4872 173.626 68.4488 174.507 68.2188C176.115 67.7991 177.882 66.869 179.61 65.7627C181.333 64.6597 182.983 63.4047 184.36 62.3574C184.738 62.0705 185.183 61.6188 185.658 61.1445C186.108 60.6954 186.602 60.208 187.023 59.9375H187.024C187.104 59.8865 187.212 59.8171 187.347 59.7627V59.2178L188.135 59.7754Z" fill="#252525" stroke="#252525"/>
<path d="M188.135 59.7754C188.384 59.9515 188.444 60.2183 188.436 60.4219C188.428 60.6103 188.364 60.7948 188.296 60.9473C188.157 61.2593 187.921 61.6108 187.685 61.9326C187.443 62.2608 187.178 62.5863 186.962 62.8486C186.731 63.1284 186.584 63.3045 186.536 63.375L186.535 63.376C183.742 67.472 180.979 70.8249 175.672 72.1172C174.062 72.509 172.703 72.5554 171.514 72.3232C170.321 72.0905 169.327 71.5832 168.44 70.9092C167.559 70.2395 166.782 69.4029 166.021 68.5117C165.246 67.6027 164.516 66.6708 163.662 65.7129C163.105 65.0872 162.223 64.3291 161.264 63.7559C160.287 63.1728 159.318 62.8335 158.56 62.915C158.34 62.9386 158.038 63.0468 157.675 63.2451C157.319 63.4392 156.937 63.7012 156.562 63.9961C155.805 64.5903 155.123 65.2824 154.782 65.7412C154.56 66.0403 154.235 66.6389 153.878 67.2725C153.706 67.577 153.53 67.8827 153.366 68.1387C153.251 68.3181 153.123 68.5054 152.99 68.6514L152.856 68.7822C152.846 68.7907 152.836 68.7998 152.821 68.8125C152.808 68.8241 152.79 68.8398 152.771 68.8555C152.735 68.8861 152.678 68.9309 152.607 68.9697C152.444 69.0589 152.248 69.0916 152.035 69.0322C152.031 69.0311 152.027 69.0295 152.022 69.0283C152.018 69.0269 152.013 69.0269 152.008 69.0254V69.0244C151.724 68.9442 151.53 68.7503 151.438 68.5029C151.357 68.2828 151.368 68.0531 151.393 67.8828C151.44 67.547 151.587 67.169 151.631 67.0352V67.0342C152.66 63.9074 155.124 61.2283 158.329 60.2363C159.542 59.8611 160.566 59.7504 161.472 59.8623C162.382 59.9748 163.141 60.309 163.824 60.7764C164.499 61.2382 165.103 61.8331 165.703 62.4639C166.313 63.1052 166.915 63.7781 167.626 64.46C167.726 64.5553 167.856 64.6453 168.032 64.7646C168.194 64.8741 168.4 65.0119 168.576 65.1777C169.141 65.7087 169.599 66.2431 170.007 66.7041C170.422 67.1743 170.778 67.56 171.166 67.8535C171.543 68.1385 171.947 68.3323 172.455 68.4092C172.971 68.4872 173.626 68.4488 174.507 68.2188C176.115 67.7991 177.882 66.869 179.61 65.7627C181.333 64.6597 182.983 63.4047 184.36 62.3574C184.738 62.0705 185.183 61.6188 185.658 61.1445C186.108 60.6954 186.602 60.208 187.023 59.9375H187.024C187.104 59.8865 187.212 59.8171 187.347 59.7627V59.2178L188.135 59.7754Z" fill="#252525" stroke="#252525"/>
<path d="M206.336 43.1992C206.608 43.117 206.883 43.0984 207.143 43.1787C207.408 43.2607 207.604 43.4297 207.742 43.6279C207.998 43.9961 208.079 44.5009 208.105 44.9385C208.133 45.3971 208.105 45.8862 208.074 46.291C208.041 46.7262 208.008 47.0158 208.011 47.166V47.167C208.03 48.3246 208.549 49.4962 209.181 50.7695C209.792 52.0017 210.518 53.3412 210.774 54.7051C211.49 58.5031 209.862 61.9412 207.293 64.5439C204.888 66.981 201.615 68.7349 198.506 69.4316L197.886 69.5566C197.585 69.6104 196.686 69.7435 195.851 69.7529C195.44 69.7576 195 69.7337 194.648 69.6338C194.473 69.584 194.278 69.504 194.119 69.3652C193.945 69.2131 193.823 68.9934 193.824 68.7227C193.827 68.2876 194.164 68.0032 194.384 67.8525C194.639 67.6782 194.963 67.5319 195.271 67.4111C195.585 67.2882 195.914 67.1801 196.187 67.0918C196.475 66.9982 196.675 66.9352 196.778 66.8906V66.8896C199.621 65.6682 202.661 64.1095 204.629 61.9873C205.606 60.9337 206.305 59.7557 206.595 58.4238C206.883 57.0953 206.773 55.5739 206.068 53.8164C205.863 53.3057 205.644 52.8589 205.428 52.4268C205.214 51.9996 204.997 51.5745 204.815 51.1357C204.442 50.2347 204.213 49.2662 204.34 47.9102C204.377 47.5144 204.6 46.6704 204.835 45.8965C205.07 45.121 205.354 44.2974 205.539 43.9492C205.607 43.8208 205.719 43.6716 205.834 43.5488C205.893 43.4852 205.963 43.4185 206.038 43.3604C206.107 43.3073 206.21 43.2384 206.336 43.2002V43.1992Z" fill="#252525" stroke="#252525"/>
<path d="M174.401 8.00293L177.173 7.97559H177.202L177.231 7.97852C178.459 8.10951 179.698 8.10722 180.989 8.14746C182.106 8.18227 183.248 8.24951 184.379 8.47461L184.863 8.58105L184.98 8.60938L185.071 8.6875C185.151 8.75555 185.31 8.84448 185.562 8.95117C185.805 9.05383 186.085 9.1532 186.381 9.25977C186.668 9.36337 186.973 9.47509 187.232 9.59277C187.473 9.70198 187.757 9.8508 187.938 10.0615C188.188 10.3521 188.417 10.7658 188.455 11.2021C188.475 11.428 188.444 11.676 188.319 11.9082C188.193 12.1438 187.989 12.3266 187.729 12.4502C186.886 12.8502 185.916 12.8025 185.043 12.6689C184.6 12.6012 184.155 12.5062 183.743 12.4209C183.324 12.3341 182.941 12.2572 182.592 12.2158C174.784 11.2889 166.848 11.2746 158.98 11.6602C158.94 11.6621 158.852 11.6729 158.701 11.6914C158.56 11.7087 158.381 11.7307 158.184 11.752C157.792 11.7943 157.308 11.8347 156.861 11.8223C156.638 11.8161 156.411 11.7959 156.202 11.752C156 11.7093 155.777 11.636 155.592 11.498C155.39 11.3478 155.236 11.1205 155.219 10.8223C155.203 10.5507 155.304 10.2895 155.447 10.0547L155.535 9.93555C155.631 9.82672 155.745 9.74659 155.845 9.68848C155.986 9.60594 156.15 9.53685 156.317 9.47754C156.652 9.35877 157.057 9.26132 157.456 9.18164C158.257 9.02163 159.103 8.92109 159.454 8.87793C164.007 8.31949 168.614 8.18148 173.164 8.0127L174.438 7.96582L174.401 8.00293Z" fill="#252525" stroke="#252525"/>
<path d="M145.33 45.3936C145.43 45.405 145.556 45.4291 145.673 45.4932C145.805 45.5657 145.949 45.7066 145.982 45.9268C146.011 46.1142 145.941 46.2633 145.9 46.3359C145.82 46.4789 145.688 46.6013 145.62 46.6641C145.519 46.7574 145.477 46.791 145.448 46.8232H145.447C144.285 48.1053 143.19 49.8885 142.397 51.7988C141.604 53.7117 141.132 55.7137 141.181 57.4326C141.224 58.9542 141.35 60.604 141.758 62.1211C142.165 63.637 142.844 64.9847 143.968 65.9424C144.014 65.982 144.128 66.0542 144.33 66.1826C144.51 66.2969 144.734 66.4403 144.937 66.5957C145.129 66.7437 145.353 66.9402 145.49 67.1719C145.562 67.293 145.628 67.4527 145.628 67.6396C145.628 67.8384 145.555 68.0196 145.43 68.167L145.387 68.2168L145.332 68.2549C144.869 68.5732 144.308 68.5028 143.907 68.4043C143.706 68.3547 143.491 68.2824 143.296 68.2119L142.805 68.0312C141.678 67.6457 140.806 67.226 140.103 66.585C139.396 65.9409 138.899 65.1089 138.452 63.9688C137.699 62.0473 137.552 59.3254 137.824 56.6904C138.097 54.0512 138.798 51.4043 139.819 49.627H139.82C140.258 48.8652 141.03 47.8466 141.925 47.0039C142.797 46.182 143.889 45.4285 144.966 45.3848C145.1 45.3793 145.223 45.3813 145.33 45.3936Z" fill="#252525" stroke="#252525"/>
<path d="M212.134 25.6533C212.509 25.6139 212.949 25.6529 213.317 25.8516C213.717 26.0672 214.004 26.4619 214.005 27.0176L214.006 27.3369L213.716 27.4717C213.616 27.5181 213.525 27.6001 213.407 27.7373C213.315 27.8446 213.145 28.0693 212.978 28.2178C212.673 28.4877 212.288 28.7428 211.963 28.9678C211.618 29.2069 211.329 29.4205 211.13 29.6416C210.73 30.0861 210.384 30.7062 210.003 31.4014C209.636 32.07 209.234 32.8103 208.741 33.3818L208.649 33.4893L208.515 33.5322C208.045 33.6823 207.588 33.6593 207.233 33.3701C206.909 33.1055 206.783 32.704 206.735 32.3613C206.638 31.6682 206.806 30.8211 206.992 30.3105C207.355 29.3181 208.071 28.2272 208.96 27.3545C209.731 26.5981 210.677 25.9627 211.687 25.7305V25.7002L212.134 25.6533Z" fill="#252525" stroke="#252525"/>
<path d="M136.469 22.3037C136.822 22.1952 137.118 22.3721 137.278 22.5C137.453 22.6399 137.605 22.8298 137.727 23.0039C137.911 23.2692 138.07 23.5649 138.172 23.7744L138.253 23.9512L138.425 24.3828C138.805 25.4317 139.048 26.7551 139.157 28.0654C139.283 29.5654 139.238 31.1037 138.997 32.2637C138.855 32.9473 138.36 33.3921 137.756 33.3887C137.171 33.3852 136.67 32.9573 136.517 32.3164L136.508 32.2803L136.505 32.2432C136.293 29.7536 136.063 27.2666 135.822 24.7793L135.823 24.7783C135.816 24.7059 135.798 24.6175 135.77 24.5029C135.745 24.4024 135.704 24.2534 135.676 24.1279C135.62 23.882 135.552 23.5063 135.691 23.1543L135.692 23.1533C135.72 23.0833 135.766 23.0205 135.771 23.0137C135.789 22.987 135.811 22.9571 135.833 22.9277C135.878 22.8679 135.935 22.7963 135.991 22.7275C136.047 22.6592 136.106 22.5891 136.156 22.5332C136.18 22.5062 136.207 22.4773 136.232 22.4521C136.245 22.4401 136.263 22.422 136.284 22.4043C136.295 22.3955 136.312 22.3816 136.334 22.3672C136.35 22.3565 136.398 22.3259 136.465 22.3047L136.469 22.3037Z" fill="#252525" stroke="#252525"/>
<path d="M180.257 30.1045C180.929 30.0383 181.595 30.4259 182.062 30.8486C182.568 31.3082 183.017 31.968 183.089 32.6006C183.169 33.3006 183.095 34.1938 182.767 34.9443C182.432 35.7083 181.796 36.3885 180.758 36.4443C179.92 36.4892 179.292 36.0922 178.89 35.5049C178.502 34.9386 178.323 34.2008 178.297 33.4883C178.27 32.7725 178.395 32.0252 178.674 31.415C178.949 30.814 179.419 30.2591 180.122 30.124L180.257 30.1045Z" fill="#252525" stroke="#252525"/>
<path d="M147.016 28.8994C147.75 28.7296 148.437 29.0084 148.926 29.4463C149.411 29.8813 149.754 30.519 149.789 31.1836C149.804 31.4625 149.749 31.8246 149.661 32.1865C149.57 32.5585 149.435 32.9698 149.264 33.3564C149.094 33.739 148.88 34.1206 148.623 34.418C148.376 34.7044 148.022 34.989 147.571 35.0078C146.813 35.0392 146.258 34.6204 145.911 34.0684C145.574 33.5304 145.408 32.8351 145.374 32.1602C145.34 31.482 145.438 30.7695 145.683 30.1816C145.873 29.7247 146.178 29.2868 146.628 29.0469V28.9893L147.016 28.8994Z" fill="#252525" stroke="#252525"/>
<defs>
<filter id="filter0_g_598_1821" x="1.63581" y="79.4161" width="218.049" height="74.9549" filterUnits="userSpaceOnUse" color-interpolation-filters="sRGB">
<feFlood flood-opacity="0" result="BackgroundImageFix"/>
<feBlend mode="normal" in="SourceGraphic" in2="BackgroundImageFix" result="shape"/>
<feTurbulence type="fractalNoise" baseFrequency="0.09096229076385498 0.09096229076385498" numOctaves="3" seed="3422" />
<feDisplacementMap in="shape" scale="1.7244808673858643" xChannelSelector="R" yChannelSelector="G" result="displacedImage" width="100%" height="100%" />
<feMerge result="effect1_texture_598_1821">
<feMergeNode in="displacedImage"/>
</feMerge>
</filter>
</defs>
</svg>
