<svg width="24" height="23" viewBox="0 0 24 23" fill="none" xmlns="http://www.w3.org/2000/svg">
<path d="M14.7233 5C15.7 5.19057 16.5977 5.66826 17.3013 6.37194C18.005 7.07561 18.4827 7.97326 18.6733 8.95M14.7233 1C16.7525 1.22544 18.6449 2.13417 20.0895 3.57701C21.5342 5.01984 22.4453 6.91101 22.6733 8.94M21.6733 16.92V19.92C21.6744 20.1985 21.6174 20.4742 21.5058 20.7293C21.3942 20.9845 21.2306 21.2136 21.0254 21.4019C20.8201 21.5901 20.5778 21.7335 20.314 21.8227C20.0502 21.9119 19.7706 21.9451 19.4933 21.92C16.4161 21.5856 13.4603 20.5341 10.8633 18.85C8.4471 17.3147 6.39861 15.2662 4.86327 12.85C3.17325 10.2412 2.12152 7.27099 1.79327 4.18C1.76828 3.90347 1.80115 3.62476 1.88977 3.36162C1.9784 3.09849 2.12084 2.85669 2.30804 2.65162C2.49523 2.44655 2.72308 2.28271 2.97706 2.17052C3.23105 2.05833 3.50561 2.00026 3.78327 2H6.78327C7.26858 1.99522 7.73906 2.16708 8.10703 2.48353C8.475 2.79999 8.71535 3.23945 8.78327 3.72C8.9099 4.68007 9.14472 5.62273 9.48327 6.53C9.61782 6.88792 9.64694 7.27691 9.56718 7.65088C9.48742 8.02485 9.30214 8.36811 9.03327 8.64L7.76327 9.91C9.18683 12.4135 11.2597 14.4864 13.7633 15.91L15.0333 14.64C15.3052 14.3711 15.6484 14.1858 16.0224 14.1061C16.3964 14.0263 16.7853 14.0555 17.1433 14.19C18.0505 14.5286 18.9932 14.7634 19.9533 14.89C20.439 14.9585 20.8827 15.2032 21.1998 15.5775C21.5169 15.9518 21.6854 16.4296 21.6733 16.92Z" stroke="#B8B997" stroke-width="2" stroke-linecap="round" stroke-linejoin="round"/>
</svg>
