<svg width="23" height="22" viewBox="0 0 23 22" fill="none" xmlns="http://www.w3.org/2000/svg">
<path d="M12.9966 9.67523L5.11246 17.5594M5.96333 11.8375L2.10153 10.9253C1.67665 10.825 1.52722 10.2975 1.83501 9.98859L4.90616 6.91744C5.11246 6.71113 5.39237 6.59292 5.68565 6.59069L9.14823 6.56059M13.5096 2.59842C16.0868 4.35591 18.316 6.58512 20.0735 9.16226M10.8332 16.7085L11.7454 20.5703C11.8458 20.9952 12.3733 21.1447 12.6822 20.8369L15.7533 17.7657C15.9596 17.5594 16.0778 17.2795 16.0801 16.9862L16.1102 13.5236M20.7347 7.35012L21.6358 3.01438C21.8811 1.83454 20.8373 0.790745 19.6575 1.03608L15.3218 1.93713C14.0449 2.20254 12.874 2.83483 11.9529 3.75707L8.39549 7.31332C7.03834 8.67047 6.15514 10.4302 5.87635 12.3293L5.86408 12.4107C5.68789 13.6229 6.0938 14.8462 6.95917 15.7127C7.82453 16.5781 9.04898 16.984 10.2612 16.8067L10.3426 16.7944C12.2417 16.5167 14.0014 15.6324 15.3586 14.2753L18.9148 10.719C19.837 9.7979 20.4693 8.62698 20.7347 7.35012Z" stroke="#B8B997" stroke-width="2" stroke-linecap="round" stroke-linejoin="round"/>
</svg>
