<svg width="468" height="412" viewBox="0 0 468 412" fill="none" xmlns="http://www.w3.org/2000/svg">
<g clip-path="url(#clip0_427_17772)">
<path d="M149.674 28.8438C148.388 30.055 144.186 29.9707 142.725 28.8459C140.412 27.0661 140.308 18.8932 135.568 17.5715C126.987 15.1825 112.102 16.1488 103.36 18.1971C86.2001 22.2224 72.9106 36.9572 60.7541 48.745L52.9426 59.9746C55.5734 50.0524 61.3131 42.5495 68.5879 35.6015C85.0582 19.8681 105.603 9.69972 129.116 12.8204C133.987 13.4651 139.568 14.8692 142.315 19.1707C143.047 20.3191 145.232 28.2337 147.381 25.2455C148.355 12.4886 127.78 6.6509 117.661 8.12217C108.336 9.47659 83.381 16.8079 75.1115 21.0725C52.9582 32.4892 38.8558 57.3901 39.5342 82.2275C39.8284 93.1185 42.0186 101.687 47.5155 111.02C45.8303 111.911 42.7747 113.037 41.4302 114.137C37.7748 117.123 33.1918 123.029 29.2489 126.469C28.1616 127.414 25.6831 127.775 24.655 129.404C19.7238 137.185 14.6523 150.863 13.9271 160.024C13.2843 168.138 12.9732 176.317 12.4045 184.454C10.8129 207.261 13.8234 231.011 15.3024 253.681C15.8273 261.718 14.7553 270.24 15.2706 278.154C16.8729 302.865 20.0716 329.993 17.9515 354.772C17.405 361.207 16.0651 367.118 16.546 374.008C16.7816 377.396 17.5477 382.047 21.3055 382.56C23.5167 382.865 30.3099 382.449 32.8796 382.213C38.0464 381.737 43.0768 379.614 48.2899 380.624C49.6399 368.84 41.8046 372.131 33.7223 371.966C33.8681 365.287 44.2722 365.086 48.3286 368.729C52.987 372.916 50.3891 376.067 51.2749 380.191C51.4462 380.987 55.9321 382.764 53.1477 385.786C51.1931 387.411 49.1587 385.879 47.2138 385.971C42.9417 386.177 38.2815 387.407 34.3109 387.562C29.9784 387.739 15.0891 387.996 13.457 383.364C12.9963 382.047 11.7614 377.353 11.4624 375.885C8.19936 359.574 13.3841 339.168 13.7209 322.582C14.0311 307.214 10.1876 293.623 9.29751 278.699C8.89054 271.838 9.60511 264.646 9.24966 257.875C8.08795 235.707 5.2811 212.393 7.00063 190.251C8.05477 176.7 8.49369 155.579 13.5471 143.481C20.0139 127.99 26.2301 121.531 37.85 110.312C38.7438 109.449 40.1288 109.188 40.9452 108.193C36.188 102.047 35.4236 94.0427 34.9856 86.472C32.7486 48.3852 54.6609 20.3423 90.8419 10.2068C98.5167 8.06199 117.172 3.11849 124.287 3.68743C129.88 4.13794 143.01 8.6531 146.67 12.9439C149.426 16.1692 153.38 25.3687 149.674 28.8438Z" fill="#FE5400"/>
<path d="M134.404 338.906C133.534 342.352 137.15 340.959 138.643 343.209C142.766 355.964 149.317 368.05 158.365 377.956C163.296 383.359 174.405 390.09 181.455 391.59C195.488 394.574 211.504 392.998 225.929 393.195C240.347 393.392 254.561 394.189 268.948 395.319C287.548 396.778 305.909 396.404 324.597 397.914C351.126 400.057 377.109 403.055 403.834 403.216C419.488 403.311 435.143 401.321 450.675 402.869C454.342 399.523 448.588 387.668 445.052 386.611C442.698 385.906 432.111 390.809 429.287 392.14C427.612 392.93 426.82 395.465 423.949 394.498C423.652 392.37 425.43 389.471 427.138 388.308C428.943 387.08 440.423 382.567 442.512 382.459C447.426 382.206 448.842 383.07 451.679 386.898C454.223 390.334 455.955 395.236 454.96 399.577C454.634 401.011 453.445 401.707 453.011 402.885C452.637 403.895 453.255 405.626 452.391 406.408C451.014 407.65 446.579 407.851 444.671 407.863C439.103 407.89 426.042 406.621 421.051 407.757C420.317 407.924 420.345 409.349 419.22 409.788C414.588 411.598 395.924 409.366 389.614 408.994C357.149 407.09 324.179 404.373 291.74 403.532C265.809 402.86 242.38 403.203 216.705 400.978C211.12 400.494 203.625 401.95 198.113 401.747C186.775 401.325 166.626 396.632 158.011 389.071C150.065 382.09 141.344 370.764 137.271 361.022C134.568 354.549 131.426 346.739 132.91 339.981C133.175 338.784 132.449 338.671 134.404 338.906Z" fill="#FE5400"/>
<path d="M139.614 150.002C155.966 172.278 167.829 197.219 183.341 220.176C186.667 225.096 191.453 229.56 194.506 234.901C199.44 243.533 201.651 254.133 206.168 262.813C210.685 271.493 217.51 277.734 222.713 285.442C229.163 295.01 236.856 312.121 245.786 319.216C254.012 325.75 255.433 313.88 259.417 311.463C260.404 310.862 260.635 311.095 261.304 311.893C262.251 317.668 254.763 327.757 248.348 326.217C244.623 325.324 235.927 315.484 233.402 312.109C228.064 304.963 223.762 296.174 218.875 289.029C211.953 278.907 204.684 272.071 199.537 260.386C197.502 255.774 196.238 250.329 194.335 245.844C188.646 232.418 177.676 220.888 169.754 208.443C148.106 174.444 125.644 118.512 81.2883 110.028C75.005 108.826 63.022 110.208 60.4177 103.656C59.7509 101.979 64.3373 102.982 65.1051 103.048C104.022 106.405 117.784 120.262 139.614 150.002Z" fill="#FE5400"/>
<path d="M275.87 376.995C274.729 375.847 279.08 374.083 279.67 373.762C290.728 367.791 303.037 363.346 314.413 357.862C318.748 355.771 319.561 354.053 324.945 352.971C345.803 348.788 374.525 351.597 396.005 351.08L422.422 350.645C422.486 343.943 420.26 335.236 421.661 328.721C422.135 326.529 424.156 325.989 425.226 328.26C427.117 332.281 427.963 349.772 426.223 353.55C425.827 354.416 424.918 355.504 423.97 355.752C417.621 355.297 411.019 356.721 404.783 356.78C392.951 356.894 381.584 355.925 369.424 356.069C356.037 356.233 337.281 355.15 324.482 357.077C322.654 357.351 322.013 359.026 320.543 359.789C306.609 367 290.428 371.092 275.877 376.996L275.87 376.995Z" fill="#FE5400"/>
<path d="M317.409 284.233C317.595 284.375 319.395 288.06 319.486 288.41C322.495 300.44 314.915 312.509 310.317 322.781C308.022 327.904 305.812 341.772 297.317 338.63C292.882 336.984 292.779 330.181 291.062 326.492C286.386 316.438 279.76 304.145 278.706 292.766C277.873 283.717 281.903 282.815 289.789 281.692C294.248 283.045 315.104 282.453 317.409 284.247L317.409 284.233ZM298.849 333.945C303.744 330.352 304.262 323.106 306.419 317.842C307.005 316.41 308.468 315.634 308.951 314.403C311.044 309.008 316.114 295.582 314.269 290.405L313.713 289.494C310.904 289.339 308.438 287.037 306.013 286.63C303.052 286.13 294.403 285.578 291.277 285.741C288.151 285.903 282.642 286.219 282.424 289.932C281.972 297.439 293.008 318.101 296.279 325.922C296.791 327.138 298.371 333.547 298.855 333.945L298.849 333.945Z" fill="#FE5400"/>
<path d="M381.71 390.162C382.094 393.398 376.813 390.314 375.164 390.103C367.233 389.098 358.815 391.232 350.819 391.349C334.377 391.59 319.7 386.444 303.47 384.6C280.988 382.045 258.169 383.069 235.968 380.871C234.59 380.736 227.711 379.603 227.153 379.183C225.917 378.242 226.819 375.479 228.701 375.418C231.15 375.342 236.115 377.06 239.023 377.299C265.314 379.442 290.424 378.152 316.805 382.915C323.849 384.183 331.634 387.179 338.312 387.965C352.735 389.655 367.72 386.096 381.71 390.162Z" fill="#FE5400"/>
<path d="M109.249 242.386C111.681 244.047 105.445 254.817 103.959 256.881C95.3408 268.826 69.5272 281.11 54.7728 280.377C53.4735 280.314 52.6186 281.028 51.6514 279.368L68.6375 275.248C78.7373 269.409 91.4371 262.831 98.4625 253.326C100.445 250.646 104.917 239.435 109.248 242.393L109.249 242.386Z" fill="#FE5400"/>
<path d="M416.115 323.477C414.341 321.878 413.54 318.288 412.4 316.718C410.823 314.54 401.68 305.83 405.408 302.934C407.499 301.307 420.987 302.005 422.161 303.808C422.3 307.22 424.265 323.651 421.793 325.041C421.432 325.247 421.066 325.398 420.637 325.384C419.517 325.449 416.975 324.248 416.122 323.47L416.115 323.477Z" fill="#FE5400"/>
<path d="M385.929 330.144C390.992 331.973 395.855 334.498 401.187 335.642C404.563 336.367 416.01 336.568 416.744 339.079C418.165 343.923 412.209 343.753 408.869 343.568C402.313 343.201 393.535 340.39 388.706 335.809C386.968 334.164 385.344 332.802 385.929 330.144Z" fill="#FE5400"/>
<path d="M151.639 10.8182C155.189 13.477 158.532 20.7826 158.107 25.1769C157.953 26.7662 155.684 30.0571 154.287 27.9942C153.12 24.9713 154.24 21.7991 153.551 18.7306C152.957 16.081 149.571 12.9916 148.969 10.7914C148.69 9.75328 149.094 9.46686 150.094 9.74516C150.67 10.0231 151.14 10.4475 151.639 10.8182Z" fill="#FE5400"/>
<path d="M330.675 298.051C334.17 294.76 340.45 300.82 336.631 304.019C332.686 307.323 326.751 301.744 330.675 298.051Z" fill="#FE5400"/>
<path d="M137.768 34.5675L135.55 34.4942L135.844 25.5918C136.959 25.8603 137.632 29.0032 137.745 29.9063C137.939 31.4662 137.881 33.0109 137.762 34.5605L137.768 34.5675Z" fill="#FE5400"/>
<path d="M161.361 11.0508C162.889 12.8456 161.786 14.2536 159.353 13.6622C159.83 12.2131 155.597 9.19104 156.473 8.45686C156.963 8.04382 160.875 10.4829 161.361 11.0508Z" fill="#FE5400"/>
</g>
<defs>
<clipPath id="clip0_427_17772">
<rect width="455" height="397.13" fill="white" transform="translate(13.1172) rotate(1.89235)"/>
</clipPath>
</defs>
</svg>
