<svg width="438" height="336" viewBox="0 0 438 336" fill="none" xmlns="http://www.w3.org/2000/svg">
<path d="M24.9369 174.397C24.3469 174.658 23.1753 174.474 22.6284 174.093C22.3099 173.87 18.1564 168.562 17.8379 167.977C16.8423 166.116 16.2527 162.907 15.5264 160.837C15.3129 160.239 13.7857 157.986 13.858 157.636C14.7566 153.118 24.9742 153.589 28.6368 152.183C31.3726 152.688 30.7709 154.335 31.617 154.838C33.2665 155.826 34.8545 154.798 34.513 158.503C34.2195 161.689 27.6182 173.219 24.9417 174.399L24.9369 174.397ZM32.0856 158.783L31.1439 158.687L30.8412 161.572L31.783 161.668L32.0856 158.783Z" fill="#B8B997"/>
<path d="M383.219 267.527L389.707 262.576C389.144 264.426 383.582 270.357 381.711 269.505C380.469 267.231 382.367 268.006 383.217 267.532L383.219 267.527Z" fill="#B8B997"/>
<path d="M386.875 251.841C387.27 252.942 385.66 253.147 385.228 253.389C383.842 254.169 382.217 254.989 380.623 255.293C380.707 253.931 386.449 250.657 386.875 251.841Z" fill="#B8B997"/>
<path d="M346.313 269.548C346.323 271.581 344.982 272.615 343.712 274.041C339.247 279.059 333.869 282.085 327.297 283.395C332.951 287.31 341.687 291.964 341.344 299.908C341.001 307.852 332.771 306.19 327.15 304.845C319.849 303.094 304.082 296.06 297.52 292.156C291.645 288.657 292.287 283.094 289.343 278.535C284.918 271.682 275.478 265.318 267.958 262.284C264.693 260.965 259.719 260.806 256.172 259.862C241.339 255.929 224.694 246.83 209.66 242.255C208.635 241.768 207.357 241.91 206.35 241.529C175.875 230.003 145.327 210.898 111.279 213.628C100.546 214.487 86.1388 222.307 75.5736 219.478C72.0474 218.538 68.3082 214.47 68.2306 210.853C67.9961 199.618 75.7303 201.688 83.4976 200.721C86.9106 200.296 101.056 199.067 102.999 198.134C104.029 197.639 104.855 196.819 105.185 195.711C97.359 195.61 92.6276 185.949 86.7256 195.179C86.0898 196.169 85.9032 197.374 85.2904 198.363C83.924 198.463 82.7804 197.862 82.6473 196.356C82.7874 193.906 86.517 189.783 88.7094 188.714C89.293 188.429 93.3695 187.591 93.8333 187.637C97.5002 188.008 101.581 194.419 106.302 194.278C109.028 193.085 108.367 183.195 111.374 184.414C114.138 185.535 109.608 196.009 108.51 197.972C107.011 200.652 103.545 201.22 100.697 201.819C93.133 203.397 84.2461 203.114 76.6811 204.895C72.8556 205.795 69.9779 206.751 70.755 211.091C72.0193 218.108 80.4812 217.648 86.0223 216.822C92.6855 215.829 101.032 211.643 107.289 211.311C109.636 211.185 110.621 212.091 112.422 212.282C114.531 212.505 119.025 211.584 121.604 211.674C136.955 212.215 157.662 216.787 171.553 223.235C176.768 225.659 182.162 229.21 187.507 231.494C206.865 239.769 229.33 247.204 249.28 254.741C262.868 259.879 276.231 260.009 287.99 271.009C292.418 275.153 294.261 281.063 297.492 285.354C298.923 287.249 306.825 292.664 309.284 294.068C314.257 296.905 328.147 302.682 333.456 302.526C341.055 302.303 337.728 296.363 334.037 293.145C332.161 291.509 322.944 283.812 321.648 283.138C320.68 282.635 314.934 283.257 315.978 280.013C316.655 280.321 317.367 280.598 318.132 280.546C321.464 280.33 327.772 279.931 330.718 278.822C336.041 276.819 340.205 272.124 344.346 268.443C346.543 268.949 348.767 269.07 351.008 268.973C358.341 268.654 365.5 267.065 372.302 264.485C373.045 264.204 374.569 264.877 373.955 263.38C368.012 264.752 361.389 265.282 355.363 264.059C352.964 263.57 348.383 262.432 346.431 261.195C345.166 260.39 345.171 258.847 346.594 258.555C347.346 258.398 353.757 260.746 355.392 261.085C365.093 263.117 377.255 260.864 386.261 256.945C386.999 256.623 387.392 255.87 387.924 255.333L389.91 256.325C389.14 262.468 380.045 266.213 374.708 268.183C365.597 271.547 355.697 272.458 346.32 269.545L346.313 269.548Z" fill="#B8B997"/>
<path d="M226.424 113.44C228.929 119.477 229.791 122.119 229.322 129.038C228.778 137.038 220.76 150.243 215.308 156.284C211.448 160.563 205.713 163.983 200.624 166.697C204.794 168.537 209.174 169.989 213.345 171.841C239.852 183.577 265.188 191.929 292.823 200.499C299.065 202.437 304.902 202.951 311.105 206.1C313.65 207.39 323.162 213.135 320.293 216.689C319.112 218.156 316.77 214.127 315.611 213.162C306.674 205.738 294.771 204.621 284.09 201.146C258.371 192.782 228.649 182.887 204.921 170.233C203.808 169.638 202.156 168.682 201.16 167.965C200.649 167.593 200.418 166.443 200.112 166.501C200.053 166.51 200.027 167.192 199.295 167.313C181.624 170.219 160.34 159.061 147.34 147.779C144.853 145.621 143.034 142.249 140.725 139.888C135.626 134.681 131.608 132.446 124.746 129.899C121.982 128.872 119.077 130.002 120.321 125.492C121.972 123.209 132.983 128.116 135.182 129.425C141.605 133.251 145.22 140.403 150.39 144.804C161.902 154.614 186.362 168.572 201.588 161.375C210.265 157.274 218.876 147.526 222.975 138.929C225.68 133.257 226.461 126.377 225.971 120.212C225.886 119.166 221.759 109.761 221.046 109.07C213.73 101.979 202.402 101.673 192.848 103.236C175.249 106.116 155.309 113.115 137.576 113.577C136.152 113.615 130.176 113.385 129.176 113.056C128.028 112.678 128.237 111.46 128.813 110.627C137.623 110.412 146.755 109.805 155.423 108.092C167.562 105.692 180.477 101.693 192.628 99.6823C203.221 97.9253 217.928 99.019 224.915 108.319C226.26 110.113 225.771 111.85 226.425 113.435L226.424 113.44Z" fill="#B8B997"/>
<path d="M190.36 60.3964C181.054 64.8531 174.287 76.8662 167.781 84.6029C164.189 88.8755 159.229 93.1046 155.778 97.8026C150.354 102.272 144.68 106.701 137.963 108.925C138.108 107.444 138.76 107.813 139.31 107.486C150.89 100.582 157.082 93.3773 165.402 83.0442C177.186 68.4091 183.534 53.4601 205.506 54.119C222.449 54.6297 231.681 67.925 225.471 83.6009C224.825 85.2356 221.005 92.9126 218.997 92.093C218.308 91.7087 217.724 90.7298 217.847 89.9766C217.993 89.0572 221.812 83.7883 222.643 81.9092C231.975 60.7588 206.846 52.4962 190.361 60.3917L190.36 60.3964Z" fill="#B8B997"/>
<path d="M105.721 166.563C99.3955 177.397 85.0905 174.872 74.3743 176.133C65.0221 177.234 57.2534 180.087 47.6067 180.826C45.3325 181.003 40.7992 181.886 38.9641 181.724C37.0062 181.552 37.5056 179.467 39.0016 178.743C40.2556 178.135 47.0277 178.694 49.1447 178.387C56.1815 177.376 67.8976 172.775 73.8977 168.94C75.2318 168.085 76.7871 165.51 78.3892 165.363C81.9472 165.03 79.988 167.468 78.5952 168.883C77.3263 170.172 74.5227 171.646 73.4537 172.961C72.9447 173.59 73.1291 173.896 73.9029 174.023C82.5909 172.06 93.0333 174.635 100.329 168.532C102.131 167.026 101.821 164.31 105.714 166.565L105.721 166.563Z" fill="#B8B997"/>
<path d="M83.663 119.953C89.9108 121.272 82.8453 129.761 80.1382 125.072C79.1888 122.669 80.8536 119.358 83.663 119.953Z" fill="#B8B997"/>
<path d="M96.8714 128.875C101.447 129.235 98.4161 138.788 94.2027 135.413C92.2224 133.829 94.959 128.726 96.8714 128.875Z" fill="#B8B997"/>
</svg>
