<svg width="24" height="21" viewBox="0 0 24 21" fill="none" xmlns="http://www.w3.org/2000/svg">
<path d="M20.8382 2.60999C20.3274 2.099 19.721 1.69364 19.0535 1.41708C18.3861 1.14052 17.6707 0.998169 16.9482 0.998169C16.2257 0.998169 15.5103 1.14052 14.8428 1.41708C14.1754 1.69364 13.5689 2.099 13.0582 2.60999L11.9982 3.66999L10.9382 2.60999C9.90647 1.5783 8.5072 0.998704 7.04817 0.998704C5.58913 0.998704 4.18986 1.5783 3.15817 2.60999C2.12647 3.64169 1.54688 5.04096 1.54688 6.49999C1.54687 7.95903 2.12647 9.3583 3.15817 10.39L4.21817 11.45L11.9982 19.23L19.7782 11.45L20.8382 10.39C21.3492 9.87924 21.7545 9.27281 22.0311 8.60535C22.3076 7.93789 22.45 7.22248 22.45 6.49999C22.45 5.77751 22.3076 5.0621 22.0311 4.39464C21.7545 3.72718 21.3492 3.12075 20.8382 2.60999V2.60999Z" stroke="#173B4F" stroke-width="2" stroke-linecap="round" stroke-linejoin="round"/>
</svg>
